<?xml version="1.0" encoding="UTF-8"?>
<!DOCTYPE svg PUBLIC "-//W3C//DTD SVG 1.1//EN" "http://www.w3.org/Graphics/SVG/1.1/DTD/svg11.dtd">
<!-- Creator: CorelDRAW X7 -->
<svg xmlns="http://www.w3.org/2000/svg" xml:space="preserve" width="760px" height="512px" version="1.1" style="shape-rendering:geometricPrecision; text-rendering:geometricPrecision; image-rendering:optimizeQuality; fill-rule:evenodd; clip-rule:evenodd"
viewBox="0 0 760 512"
 xmlns:xlink="http://www.w3.org/1999/xlink">
 <defs>
  <style type="text/css">
   <![CDATA[
    .fil0 {fill:black}
   ]]>
  </style>
 </defs>
 <g id="Layer_x0020_1">
  <metadata id="CorelCorpID_0Corel-Layer"/>
  <path class="fil0" d="M231 358l0 27 282 0 0 -27c0,0 0,-1 0,-2l-282 0c0,1 0,2 0,2zm446 -2l44 0c-11,12 -25,22 -45,26l1 -24c0,-1 0,-1 0,-2zm-609 0c0,1 0,2 0,2l0 26c-41,-4 -56,-17 -63,-28l63 0zm466 2c0,34 27,61 61,61 33,0 61,-27 61,-61 0,-33 -28,-60 -61,-60 -34,0 -61,27 -61,60zm27 0c0,-18 15,-33 34,-33 19,0 34,15 34,33 0,19 -15,34 -34,34 -19,0 -34,-15 -34,-34zm-472 0c0,34 27,61 61,61 33,0 60,-27 60,-61 0,-33 -27,-60 -60,-60 -34,0 -61,27 -61,60zm27 0c0,-18 15,-33 34,-33 18,0 33,15 33,33 0,19 -15,34 -33,34 -19,0 -34,-15 -34,-34zm-116 -24c0,-50 89,-98 245,-88 0,0 58,-27 138,-60 102,-43 252,8 377,36 -6,27 -7,77 -28,113l-59 0c-10,-34 -41,-58 -78,-58 -37,0 -68,24 -78,58l-29 0c21,-35 22,-79 22,-105 0,0 0,0 0,0l0 -34c-13,-2 -26,-3 -38,-3 -25,0 -60,6 -81,16l-84 36c76,-2 134,-7 182,-12 0,29 -1,72 -26,102l-235 0c-10,-34 -41,-58 -78,-58 -37,0 -69,24 -79,58l-71 0c0,-1 0,-1 0,-1zm537 -107c30,-4 56,-8 81,-10 -27,-6 -55,-12 -81,-17l0 27zm-510 81c27,0 51,-14 64,-35 -31,10 -52,22 -64,35 0,0 0,0 0,0z"/>
 </g>
</svg>
