<?xml version="1.0" encoding="UTF-8"?>
<!DOCTYPE svg PUBLIC "-//W3C//DTD SVG 1.1//EN" "http://www.w3.org/Graphics/SVG/1.1/DTD/svg11.dtd">
<!-- Creator: CorelDRAW X7 -->
<svg xmlns="http://www.w3.org/2000/svg" xml:space="preserve" width="532px" height="512px" version="1.1" style="shape-rendering:geometricPrecision; text-rendering:geometricPrecision; image-rendering:optimizeQuality; fill-rule:evenodd; clip-rule:evenodd"
viewBox="0 0 532 512"
 xmlns:xlink="http://www.w3.org/1999/xlink">
 <defs>
  <style type="text/css">
   <![CDATA[
    .fil0 {fill:black}
   ]]>
  </style>
 </defs>
 <g id="Layer_x0020_1">
  <metadata id="CorelCorpID_0Corel-Layer"/>
  <path class="fil0" d="M231 187c36,14 74,27 155,8 14,-3 28,-6 41,-8 -1,26 -104,50 -129,55 -46,-23 -72,-34 -67,-55zm301 171c0,46 -37,83 -83,83 -46,0 -83,-37 -83,-83 0,-3 0,-5 0,-8l-18 -4c-1,10 0,20 0,20 0,0 -29,0 -61,0 -31,0 -57,-12 -71,-48 -8,-21 -18,-41 -34,-57 -25,-26 -61,-42 -99,-42 -15,0 -30,3 -44,8 -7,2 -13,-2 -15,-8 -2,-6 1,-12 7,-14 17,-6 34,-9 52,-9 20,0 39,4 57,10 9,-19 20,-35 41,-34 11,0 21,4 33,8l0 2c-9,34 24,50 69,72l13 7 6 -2c93,-19 141,-43 143,-71l0 -3c12,-1 23,-2 33,-2l48 0c0,7 -20,18 -41,28l7 15 -90 43c-26,12 -43,38 -48,55l17 4c13,-31 43,-53 78,-53 46,0 83,37 83,83zm-27 0c0,-31 -25,-56 -56,-56 -23,0 -42,13 -51,32l29 6c5,-6 13,-10 22,-10 15,0 28,12 28,28 0,16 -13,28 -28,28 -14,0 -26,-10 -28,-23l-29 -7c0,1 0,1 0,2 0,31 26,57 57,57 31,0 56,-26 56,-57zm-324 -204c7,0 15,1 22,3l7 -14 23 0c0,0 0,0 0,0 5,0 9,-4 9,-8 0,-5 -4,-9 -9,-9l-22 0c-1,-2 -2,-3 -3,-3 -6,-3 -13,-1 -16,4l-14 27c1,0 1,0 2,0l1 0zm-15 204c0,46 -37,83 -83,83 -46,0 -83,-37 -83,-83 0,-46 37,-83 83,-83 10,0 20,2 29,5l18 -34c8,3 14,7 20,11l-17 34c20,15 33,40 33,67zm-26 0c0,-17 -8,-32 -20,-43l-14 27c3,4 5,10 5,16 0,16 -12,28 -28,28 -15,0 -28,-12 -28,-28 0,-16 13,-28 28,-28 1,0 2,0 3,0l14 -26c-6,-2 -11,-2 -17,-2 -31,0 -56,25 -56,56 0,31 25,57 56,57 31,0 57,-26 57,-57z"/>
 </g>
</svg>
