<?xml version="1.0" encoding="UTF-8"?>
<!DOCTYPE svg PUBLIC "-//W3C//DTD SVG 1.1//EN" "http://www.w3.org/Graphics/SVG/1.1/DTD/svg11.dtd">
<!-- Creator: CorelDRAW X7 -->
<svg xmlns="http://www.w3.org/2000/svg" xml:space="preserve" width="722px" height="512px" version="1.1" style="shape-rendering:geometricPrecision; text-rendering:geometricPrecision; image-rendering:optimizeQuality; fill-rule:evenodd; clip-rule:evenodd"
viewBox="0 0 722 512"
 xmlns:xlink="http://www.w3.org/1999/xlink">
 <defs>
  <style type="text/css">
   <![CDATA[
    .fil0 {fill:black}
   ]]>
  </style>
 </defs>
 <g id="Layer_x0020_1">
  <metadata id="CorelCorpID_0Corel-Layer"/>
  <path class="fil0" d="M676 418c0,2 0,4 0,5l10 0c41,0 36,-27 36,-66l-76 0c18,14 30,36 30,61z"/>
  <path class="fil0" d="M35 423l11 0c0,-1 -1,-3 -1,-5 0,-25 12,-47 31,-61l-76 0c0,39 -3,66 35,66z"/>
  <path class="fil0" d="M198 418c0,2 0,4 0,5 32,0 24,0 138,0 -1,-2 -1,-3 -1,-5 0,-25 12,-47 30,-61l-197 0c18,14 30,36 30,61z"/>
  <path class="fil0" d="M488 418c0,2 0,3 0,5 4,0 31,0 34,0 0,-1 0,-3 0,-5 0,-25 12,-47 30,-61l-94 0c18,14 30,36 30,61z"/>
  <path class="fil0" d="M412 366c28,0 52,23 52,52 0,29 -24,52 -52,52 -29,0 -52,-23 -52,-52 0,-29 23,-52 52,-52zm0 78c14,0 26,-12 26,-26 0,-15 -12,-26 -26,-26 -15,0 -26,11 -26,26 0,14 11,26 26,26z"/>
  <path class="fil0" d="M598 366c29,0 53,23 53,52 0,29 -24,52 -53,52 -28,0 -52,-23 -52,-52 0,-29 24,-52 52,-52zm0 78c15,0 27,-12 27,-26 0,-15 -12,-26 -27,-26 -14,0 -26,11 -26,26 0,14 12,26 26,26z"/>
  <path class="fil0" d="M122 366c29,0 52,23 52,52 0,29 -23,52 -52,52 -29,0 -52,-23 -52,-52 0,-29 23,-52 52,-52zm0 78c14,0 26,-12 26,-26 0,-15 -12,-26 -26,-26 -15,0 -26,11 -26,26 0,14 11,26 26,26z"/>
  <polygon class="fil0" points="246,348 722,348 722,90 246,90 "/>
  <path class="fil0" d="M652 418c0,0 0,0 0,0 0,0 0,0 0,0 0,0 0,0 0,0z"/>
  <path class="fil0" d="M2 296c0,0 27,-69 43,-107 10,-23 27,-49 71,-49 37,0 81,0 86,0 18,0 28,8 28,25 0,8 0,183 0,183l-228 0 0 -52zm72 8l31 -29c6,-6 12,-11 32,-11 16,0 61,0 61,0l0 -92 -82 0c-24,0 -34,10 -42,29 -8,20 -35,80 -44,103l44 0z"/>
 </g>
</svg>
