<?xml version="1.0" encoding="UTF-8"?>
<!DOCTYPE svg PUBLIC "-//W3C//DTD SVG 1.1//EN" "http://www.w3.org/Graphics/SVG/1.1/DTD/svg11.dtd">
<!-- Creator: CorelDRAW X7 -->
<svg xmlns="http://www.w3.org/2000/svg" xml:space="preserve" width="606px" height="512px" version="1.1" style="shape-rendering:geometricPrecision; text-rendering:geometricPrecision; image-rendering:optimizeQuality; fill-rule:evenodd; clip-rule:evenodd"
viewBox="0 0 606 512"
 xmlns:xlink="http://www.w3.org/1999/xlink">
 <defs>
  <style type="text/css">
   <![CDATA[
    .fil0 {fill:black}
   ]]>
  </style>
 </defs>
 <g id="Layer_x0020_1">
  <metadata id="CorelCorpID_0Corel-Layer"/>
  <path class="fil0" d="M93 388c-9,0 -16,6 -16,15 0,8 7,15 16,15 8,0 15,-7 15,-15 0,-9 -7,-15 -15,-15z"/>
  <path class="fil0" d="M253 269l0 -94 -6 0 0 -119 -15 0 0 119 -6 0 0 128c6,-2 11,-5 14,-9 8,-7 11,-17 13,-25z"/>
  <path class="fil0" d="M606 379l0 -17 -9 -2c-1,-8 -2,-17 -5,-25l8 -5 -7 -16 -9 3c-4,-8 -8,-15 -14,-22l6 -7 -13 -12 -7 5c-7,-5 -14,-10 -22,-14l3 -9 -16 -7 -5 8c-8,-2 -16,-4 -25,-5l-1 -9 -18 0 -1 9c-9,1 -17,3 -25,5l-5 -8 -16 7 2 9c-7,4 -15,9 -21,14l-7 -5 -13 12 6 7c-6,7 -10,14 -14,22l-9 -3 -7 16 8 5c-3,8 -4,17 -5,25l-9 2 0 17 9 1c1,9 2,17 5,26l-8 4 7 16 9 -2c4,8 8,15 14,21l-6 8 13 12 7 -6c6,6 14,11 21,15l-2 9 16 6 5 -8c8,3 16,5 25,5l1 9 18 0 1 -9c9,0 17,-2 25,-5l5 8 16 -6 -3 -9c8,-4 15,-9 22,-15l7 6 13 -12 -6 -8c6,-6 10,-13 14,-21l9 2 7 -16 -8 -4c3,-9 4,-17 5,-26l9 -1zm-125 59c-37,0 -68,-30 -68,-68 0,-37 31,-67 68,-67 37,0 67,30 67,67 0,38 -30,68 -67,68z"/>
  <path class="fil0" d="M173 378l8 -5 -5 -12 -9 3c-2,-6 -6,-11 -10,-15l6 -7 -10 -9 -6 5c-5,-4 -10,-7 -15,-10l2 -8 -12 -5 -4 7c-6,-2 -12,-3 -18,-3l-1 -9 -13 0 -1 9c-6,0 -12,1 -18,3l-4 -7 -12 5 2 8c-5,3 -10,6 -14,10l-7 -5 -9 9 5 7c-4,4 -7,9 -10,15l-8 -3 -5 12 7 5c-2,5 -3,11 -3,17l-9 1 0 13 9 1c0,6 1,12 3,18l-7 4 5 12 8 -2c3,5 6,10 10,15l-5 7 9 9 7 -5c4,3 9,7 14,9l-2 9 12 5 4 -8c6,2 12,3 18,4l1 8 13 0 1 -8c6,-1 12,-2 18,-4l4 8 12 -5 -2 -9c5,-2 10,-6 15,-9l6 5 10 -9 -6 -7c4,-5 8,-10 10,-15l9 2 5 -12 -8 -4c2,-6 3,-12 4,-18l8 -1 0 -13 -8 -1c-1,-6 -2,-12 -4,-17zm-80 76c-28,0 -51,-23 -51,-51 0,-28 23,-51 51,-51 28,0 50,23 50,51 0,28 -22,51 -50,51z"/>
  <path class="fil0" d="M481 355c-8,0 -15,7 -15,15 0,9 7,16 15,16 8,0 15,-7 15,-16 0,-8 -7,-15 -15,-15z"/>
  <path class="fil0" d="M142 310c3,0 5,0 8,0 20,1 39,1 55,-1l0 -132c-51,8 -118,22 -154,49 -13,16 -16,51 -17,90 17,-11 37,-18 59,-18 17,0 34,5 49,12zm-85 -36c-3,0 -5,0 -6,-1 1,-16 4,-28 10,-36 8,2 14,9 14,18 0,11 -8,19 -18,19z"/>
  <path class="fil0" d="M481 231c34,0 65,12 89,33l24 -15c-19,-17 -43,-31 -68,-38l0 -158 -169 0c-44,0 -83,21 -83,92 0,0 1,103 1,106 0,4 2,36 -20,57 -20,20 -52,23 -87,23 13,13 22,29 26,47l142 1c3,-13 6,-29 9,-39 15,-64 71,-109 136,-109zm-44 -152l62 0 0 100c-6,0 -12,-1 -18,-1 -15,0 -30,2 -44,6l0 -105zm-136 66c0,-58 28,-66 56,-66l54 0 0 113c-40,16 -73,44 -96,82l-14 0 0 -129z"/>
 </g>
</svg>
