<?xml version="1.0" encoding="UTF-8"?>
<!DOCTYPE svg PUBLIC "-//W3C//DTD SVG 1.1//EN" "http://www.w3.org/Graphics/SVG/1.1/DTD/svg11.dtd">
<!-- Creator: CorelDRAW X7 -->
<svg xmlns="http://www.w3.org/2000/svg" xml:space="preserve" width="655px" height="512px" version="1.1" style="shape-rendering:geometricPrecision; text-rendering:geometricPrecision; image-rendering:optimizeQuality; fill-rule:evenodd; clip-rule:evenodd"
viewBox="0 0 655 512"
 xmlns:xlink="http://www.w3.org/1999/xlink">
 <defs>
  <style type="text/css">
   <![CDATA[
    .fil0 {fill:black}
   ]]>
  </style>
 </defs>
 <g id="Layer_x0020_1">
  <metadata id="CorelCorpID_0Corel-Layer"/>
  <path class="fil0" d="M299 101c0,-2 2,-3 4,-4 1,1 3,1 4,2 0,2 0,5 -2,6 -3,2 -7,-1 -6,-4zm-138 -44c3,-1 7,0 9,3 2,2 2,6 1,9 -1,1 -3,3 -5,4 -3,1 -8,1 -10,-2 -3,-5 -1,-13 5,-14zm-41 13c2,0 3,0 5,1 1,1 1,3 1,5 -2,2 -5,3 -7,1 -2,-1 -2,-6 1,-7zm151 98c4,-2 10,1 12,6 2,6 -4,12 -10,11 -6,-1 -9,-8 -6,-12 0,-2 2,-4 4,-5zm-202 77c2,-1 5,-1 7,1 1,2 3,5 1,7 -1,5 -7,6 -11,2 -3,-3 -2,-9 3,-10zm-21 29c2,-2 3,0 5,2 2,3 -3,7 -6,5 -3,-2 -2,-7 1,-7zm304 118c2,-1 4,0 6,-1 0,2 1,3 1,4 2,0 5,0 7,0 1,0 1,-1 2,-2 2,0 3,1 5,1 0,1 0,2 1,3 2,1 4,3 6,3 1,0 2,-1 3,-2 1,1 3,2 4,3 0,1 0,2 0,3 2,2 4,3 6,4 1,0 1,0 2,-1 2,2 4,3 4,5 0,0 0,1 0,2 1,2 2,4 4,6 0,0 1,-1 2,-1 1,2 2,4 3,5 0,1 -1,2 -1,3 0,2 1,4 2,6 1,0 2,0 3,0 1,2 1,4 2,6 0,1 -2,1 -3,2 1,2 1,5 1,7 1,0 2,0 3,1 0,2 0,4 0,6 -1,0 -2,0 -3,1 0,2 0,4 -1,6 1,1 2,2 3,3 -1,2 -1,4 -2,6 -1,0 -2,0 -3,0 -1,2 -4,6 -1,8 -1,2 -1,4 -2,5 -1,0 -2,0 -4,0 -1,2 -2,4 -4,5 1,1 1,2 1,3 0,1 -1,2 -2,3 -1,1 -3,0 -4,0 -2,1 -4,3 -6,5 0,1 0,2 0,3 -1,0 -3,2 -5,3 0,-1 -1,-2 -2,-3 -2,1 -4,2 -6,3 -1,1 -1,2 -1,3 -2,1 -4,2 -6,2 0,-1 0,-2 -1,-3 -2,0 -5,1 -7,1 0,1 -1,2 -1,3 -2,0 -4,0 -6,0 0,-1 -1,-2 -1,-3 -2,0 -5,0 -7,-1 -1,1 -1,2 -2,3 -2,-1 -4,-1 -5,-2 -1,-1 -1,-2 -1,-3 -2,-1 -4,-1 -6,-2 -1,0 -2,1 -2,2 -2,-1 -4,-3 -6,-4 0,-1 1,-2 1,-2 -2,-2 -4,-3 -5,-5 -2,0 -2,1 -3,1 -2,-1 -3,-2 -4,-3 0,-1 0,-3 0,-4 -1,-1 -3,-3 -4,-5 -1,0 -2,1 -3,0 -1,-2 -2,-3 -3,-5 1,0 1,-1 2,-2 -1,-2 -2,-4 -2,-6 -1,0 -2,-1 -3,-1 -1,-1 -1,-3 -2,-5 1,-1 2,-2 2,-3 0,-2 -1,-4 -1,-6 0,-1 -1,-1 -2,-1 0,-2 0,-4 0,-6 1,-1 2,-1 2,-1 0,-2 1,-4 1,-6 0,-2 -2,-2 -2,-3 0,-2 1,-4 2,-5 1,-1 2,-1 3,-2 1,-2 1,-4 2,-5 0,-1 -1,-2 -2,-3 1,-1 2,-3 3,-5 1,0 2,0 3,1 2,-2 3,-4 4,-6 0,-1 0,-2 0,-3 1,-1 2,-2 3,-4 1,1 2,1 4,1 1,-1 3,-3 5,-4 0,-1 -1,-2 -1,-2 2,-2 4,-3 6,-4 0,1 1,2 2,2 2,-1 4,-2 6,-2 0,-1 0,-3 1,-4 2,0 3,0 5,-1 1,1 1,2 2,2 2,0 5,0 7,0 0,-1 1,-2 1,-3zm-4 21c9,-1 18,-1 26,4 3,2 7,5 10,8 4,3 6,8 8,13 3,8 3,18 1,26 -3,7 -7,14 -13,19 -3,2 -7,4 -10,6 -9,3 -18,3 -27,1 -13,-5 -24,-16 -27,-30 -1,-9 0,-19 4,-27 4,-6 8,-12 15,-15 4,-3 8,-4 13,-5zm0 2c5,-1 10,-1 15,0 4,1 8,3 12,5 12,7 19,22 17,36 0,5 -2,9 -4,13 -7,14 -22,22 -38,20 -9,-1 -18,-6 -24,-13 -2,-4 -5,-7 -6,-11 -4,-9 -3,-19 0,-28 2,-3 4,-7 6,-10 3,-2 6,-6 10,-7 3,-2 7,-5 12,-5zm1 3c7,-2 14,0 21,3 6,3 11,7 14,13 5,6 6,14 5,22 -1,11 -8,22 -19,27 -7,3 -15,4 -22,2 -5,-1 -10,-2 -13,-5 -2,-2 -4,-2 -5,-4 -2,-3 -5,-5 -6,-9 -3,-6 -5,-13 -3,-20 1,-6 3,-12 7,-17 5,-6 12,-11 21,-12zm2 4c2,-2 7,-2 9,1 1,1 1,3 2,4 -5,0 -9,0 -14,0 1,-2 1,-4 3,-5zm-189 -421c5,-1 10,-1 16,-1 0,4 0,8 0,12 11,8 22,14 32,22 5,2 9,6 14,8 1,-1 2,-3 3,-4 5,2 10,6 15,9 4,3 7,5 11,8 3,2 7,4 10,6 8,5 16,11 24,16 4,3 9,6 13,9 2,-2 4,-5 8,-5 3,-1 5,2 7,4 3,4 1,8 1,12 0,15 0,31 0,47 2,3 5,5 8,7 10,9 20,17 30,25 1,5 1,11 2,16 2,11 4,21 5,32 3,14 4,28 7,43 1,6 2,13 4,20 0,3 0,6 1,9 2,-3 2,-6 3,-9 1,-6 2,-11 3,-17 3,-8 4,-16 6,-24 2,-9 4,-18 6,-27 2,-10 4,-21 7,-32 1,-7 3,-15 4,-22 3,-10 5,-20 7,-30 4,0 7,0 11,0 1,-1 1,-3 2,-5 2,-5 7,-9 13,-8 5,1 9,7 10,13 28,0 55,0 82,0 0,10 0,20 0,30 5,0 10,0 15,0 0,29 0,58 0,86 0,3 -1,6 0,8 0,3 -1,7 -1,10 4,0 7,0 11,0 0,-3 0,-7 0,-11 3,0 7,0 10,0 0,4 0,8 0,11 3,0 7,0 10,0 0,-3 0,-7 0,-11 3,0 6,0 10,0 0,4 0,8 0,11 3,0 6,0 9,0 0,-3 0,-7 0,-11 3,0 7,0 10,0 0,4 0,8 0,11 3,0 6,0 9,0 0,-4 0,-7 0,-11 4,0 7,0 10,0 0,4 0,8 0,11 3,0 7,0 10,0 0,-3 0,-7 0,-11 3,0 6,0 10,0 0,4 0,7 0,11 3,0 6,0 9,0 0,26 0,52 0,77 2,0 4,0 6,0 0,4 0,8 0,12 -2,0 -4,0 -6,0 0,5 0,9 0,14 -3,3 -6,7 -9,9 -29,1 -57,0 -86,1 0,1 0,3 0,4 4,0 7,0 11,0 0,3 0,6 0,8 -4,0 -7,0 -11,0 0,3 0,5 0,8 -5,4 -10,9 -14,14 -2,4 -3,7 -5,10 -4,0 -8,0 -12,0 0,2 0,4 0,6 3,0 6,0 10,0 -1,4 -3,8 -3,13 -1,6 -1,13 1,19 -38,0 -76,0 -114,0 2,-11 1,-22 -2,-32 4,0 8,0 12,0 0,-2 0,-4 0,-6 -5,0 -10,0 -14,0 -5,-9 -11,-18 -19,-24 -1,-3 0,-6 -1,-8 -3,0 -7,0 -10,0 0,-2 0,-5 0,-8 3,0 7,0 11,0 0,-1 0,-3 -1,-4 -34,0 -69,0 -104,0 0,-7 0,-14 0,-21 -2,0 -5,0 -7,0 0,-2 0,-4 0,-6 2,0 5,0 7,0 0,-1 0,-2 0,-3 -2,0 -4,0 -7,0 0,-2 0,-4 0,-6 2,0 5,0 7,0 0,-5 0,-11 -1,-16l-13 -81c1,-1 3,-1 5,-2 -1,-9 -3,-18 -4,-27 0,-2 -1,-5 -1,-7 -1,-4 -2,-9 -3,-13 -8,-8 -16,-16 -25,-24 -2,-1 -4,-4 -6,-6 -3,-2 -6,-5 -8,-7 -6,-5 -11,-10 -17,-16 -10,-9 -20,-19 -30,-28 -4,-4 -7,-7 -11,-11 -2,-2 -4,-4 -7,-6 -2,5 -5,9 -7,14 -6,10 -10,20 -16,30 -1,4 -3,8 -6,12 -2,5 -5,10 -8,16 -2,4 -4,8 -6,12 -3,4 -4,10 -7,14 -10,19 -19,38 -29,57 -1,3 -4,6 -4,9 2,5 5,9 6,14 3,12 4,25 3,37 0,6 -1,13 -1,19 0,3 2,6 4,8 2,3 5,6 7,9 5,6 9,11 15,16 6,1 13,0 20,1 1,2 2,6 0,8 -4,3 -9,4 -14,5 -19,3 -39,2 -58,-1 -6,-2 -13,-4 -19,-6 -4,-2 -8,-3 -12,-5 -8,-4 -16,-8 -23,-15 -9,-8 -15,-22 -12,-35 2,-5 5,-10 10,-14 2,-3 6,-4 8,-7 3,-2 6,-5 8,-8 -4,-1 -10,0 -14,-3 -3,-4 -4,-11 0,-16 1,-2 4,-3 5,-5 0,-3 1,-5 2,-8 3,-9 6,-19 9,-28 1,-3 -1,-7 0,-10 1,-3 3,-4 4,-5 2,0 3,0 4,0 10,-20 21,-39 32,-59 -2,-1 -3,-1 -5,-2 0,-1 1,-3 1,-4 3,-3 4,-7 7,-11 2,-4 4,-8 6,-11 2,-4 4,-8 6,-11 2,-3 3,-7 6,-10 2,-4 3,-8 6,-11 6,-13 13,-25 20,-38 1,1 3,2 5,2 1,-4 2,-8 4,-12 2,-6 3,-11 5,-16 2,-5 3,-9 5,-13 4,-7 9,-12 16,-16 3,-2 7,-4 11,-4zm288 425c16,0 33,0 50,0 0,2 0,4 0,6 -17,0 -34,0 -50,0 0,-2 0,-4 0,-6zm-402 -156c3,-1 6,1 8,4 0,2 0,4 0,6 -2,3 -5,5 -8,4 -3,1 -5,-2 -6,-4 -1,-2 -1,-3 0,-5 1,-2 3,-5 6,-5zm15 23c5,-1 11,-2 16,-1 4,1 8,4 9,8 2,4 1,8 1,12 -1,6 -1,12 -2,17 0,3 -4,2 -4,0 -1,-6 1,-12 2,-18 0,-4 0,-8 -2,-11 -1,-3 -5,-3 -8,-4 -6,0 -13,2 -19,5 -5,1 -11,3 -15,6 -5,2 -10,4 -14,6 -6,3 -11,6 -17,9 -2,-1 -2,-5 1,-6 6,-3 13,-7 19,-10 6,-3 11,-5 17,-7 5,-2 11,-4 16,-6zm-27 -51l17 12c-1,1 -2,3 -3,4l-9 12 -13 -1 8 -27zm55 -91l-18 53c-3,9 -6,18 -9,27 -7,-3 -13,-7 -20,-10 2,-5 6,-10 8,-16 6,-9 10,-18 15,-27 3,-5 6,-10 9,-16 2,1 3,2 5,3l10 -14zm181 11c4,0 8,0 11,3 2,2 5,5 5,9 2,7 -3,14 -10,16 -4,1 -9,1 -13,-3 -4,-3 -6,-9 -5,-14 1,-4 4,-6 6,-9 2,-1 4,-1 6,-2zm-205 77c7,-3 16,3 16,10 1,4 -1,8 -3,11 -4,3 -9,4 -14,2 -7,-2 -10,-12 -5,-18 2,-2 3,-4 6,-5zm52 -172c2,0 5,0 7,2 4,3 3,10 -1,12 -2,0 -4,0 -6,0 -6,-3 -6,-12 0,-14zm42 -16c4,0 9,1 12,4 2,2 4,6 4,9 1,4 -1,8 -3,11 -3,3 -8,5 -12,5 -4,0 -7,-3 -10,-5 -3,-4 -4,-8 -3,-13 1,-6 6,-10 12,-11zm18 -29c2,1 4,3 6,5 12,7 23,15 34,22 -1,2 -2,3 -3,5 16,11 32,21 48,32 4,2 8,6 12,8 3,2 6,4 9,6 0,1 -1,2 -2,3 -3,2 -5,5 -7,7 -10,-8 -20,-16 -30,-24 -15,-13 -30,-26 -45,-39 -2,0 -4,1 -7,1 -5,0 -10,0 -15,0 0,-8 0,-17 0,-26zm121 73c2,-1 6,-1 8,1 3,3 2,11 -3,12 -2,1 -5,1 -7,-1 -2,-2 -3,-6 -2,-8 1,-2 2,-3 4,-4zm97 202c1,-5 1,-11 2,-16 19,0 38,0 57,0 0,5 0,9 0,14 -3,2 -6,3 -10,4 -5,2 -11,4 -16,6 -5,3 -11,4 -17,6 -5,3 -10,4 -15,6 -2,1 -3,2 -5,2 1,-7 2,-15 4,-22zm-115 -87c3,1 5,4 7,6 2,1 2,4 3,7 3,7 4,16 7,23 2,9 4,17 6,26 2,6 3,12 5,18 2,6 3,13 5,19 3,9 4,17 7,26 -4,0 -9,0 -13,0 -1,-9 -3,-18 -4,-27 -3,-12 -4,-24 -6,-36 -2,-9 -3,-18 -5,-27 -2,1 -4,1 -6,1 0,-4 -1,-8 -2,-12 -1,-8 -3,-16 -4,-24zm22 -6c3,-4 7,-9 12,-9 3,0 5,2 6,4 2,3 2,7 3,11 0,7 1,13 1,20 1,10 1,20 2,31 0,7 1,15 1,23 1,8 1,16 1,24 1,4 1,9 1,14 -1,0 -1,0 -2,0 0,-1 0,-2 0,-2 -2,-10 -5,-20 -7,-29 -3,-10 -4,-20 -7,-29 -2,-7 -3,-14 -6,-20 -1,-7 -3,-14 -4,-20 -2,-4 -3,-8 -3,-12 -1,-3 1,-4 2,-6zm276 136c1,-3 6,-4 7,0 0,8 0,16 0,25 -1,3 -5,3 -7,1 0,-9 0,-18 0,-26zm-11 -2c2,-2 5,0 5,2 0,8 0,17 0,25 0,1 -2,2 -3,2 -2,0 -3,-2 -3,-4 0,-7 0,-14 0,-21 0,-2 0,-3 1,-4zm-12 -1c2,0 5,1 5,3 0,8 0,16 0,24 0,3 -4,4 -6,2 -1,0 -1,-2 -1,-3 0,-8 0,-16 0,-23 0,-1 1,-2 2,-3zm-14 3c0,-1 1,-2 3,-3 1,1 3,2 3,4 0,8 0,15 0,23 0,2 -2,3 -3,3 -2,0 -4,-2 -3,-4 0,-7 -1,-15 0,-23zm-13 -1c1,-1 2,-2 4,-2 1,1 2,3 2,4 0,8 0,16 0,24 -1,1 -2,2 -2,2 -2,0 -5,-1 -4,-3 0,-8 0,-17 0,-25zm-26 -51c11,-4 23,-6 35,-7 29,0 59,0 89,0 2,0 6,0 6,3 0,26 0,52 0,78 0,1 0,2 -1,3 -1,0 -3,0 -4,0 0,-1 -1,-3 -1,-4 0,-25 0,-49 0,-74 -29,0 -58,0 -87,0 -4,0 -8,0 -12,1 -7,1 -15,3 -23,5 -5,2 -11,4 -16,6 -5,2 -10,4 -14,6 -5,3 -10,4 -14,7 -3,2 -6,3 -9,5 -4,3 -9,4 -13,7 -8,5 -16,10 -24,15 -3,2 -6,5 -11,7 -15,0 -31,0 -46,0 -2,0 -4,-2 -3,-4 1,-1 1,-2 2,-2 16,0 31,0 46,0 5,-3 10,-7 16,-10 6,-4 12,-8 19,-12 3,-2 6,-4 10,-5 9,-6 20,-11 30,-16 5,-2 10,-5 16,-6 3,-1 6,-2 9,-3zm-90 -111c2,-10 3,-20 5,-30 12,0 25,0 37,0 0,41 0,81 0,122 -18,0 -37,0 -55,0 0,-3 1,-6 1,-10 3,-13 4,-26 6,-39 3,-15 4,-29 6,-43zm59 -30c9,0 18,0 27,0 0,41 0,82 0,122 -9,0 -18,1 -27,0 0,-41 0,-81 0,-122zm-105 283c2,-2 4,-3 7,-2 2,1 4,4 4,7 0,1 -1,3 -2,4 -3,-3 -6,-6 -9,-9zm-37 2c2,-4 8,-6 11,-3 -3,4 -6,7 -9,10 -2,-2 -2,-4 -2,-7zm20 0c5,-1 11,0 15,3 4,3 7,8 8,12 2,6 0,13 -4,18 -5,5 -12,8 -19,6 -5,0 -9,-4 -13,-8 -4,-7 -4,-16 1,-23 2,-4 7,-6 12,-8zm0 4c4,-1 9,0 13,2 2,2 3,3 5,5 3,5 3,12 0,18 -2,2 -4,4 -6,5 -6,3 -14,3 -19,-2 -4,-3 -6,-9 -5,-14 0,-6 5,-13 12,-14zm-27 13c1,-2 4,-3 6,-4 0,4 0,9 0,14 -4,0 -8,-6 -6,-10zm55 10c0,-5 0,-10 0,-14 4,1 8,4 7,8 -1,3 -3,6 -7,6zm-27 -21c8,-2 16,4 17,12 1,9 -8,18 -17,16 -3,-1 -6,-3 -9,-6 -3,-5 -3,-12 1,-17 2,-2 5,-5 8,-5zm0 8c3,-1 7,0 9,3 2,5 -3,11 -8,9 -2,-1 -5,-3 -4,-6 -1,-3 1,-4 3,-6zm-18 29c-4,-3 -4,-8 -1,-11 2,3 5,6 8,8 0,1 1,2 1,3 -3,1 -6,2 -8,0zm43 -10c4,3 1,11 -4,11 -2,0 -4,-1 -5,-2 3,-3 6,-7 9,-9zm-29 11c5,0 9,0 14,0 -1,3 -2,5 -4,7 -3,0 -5,0 -7,-2 -2,-1 -2,-3 -3,-5zm241 -84c2,-1 4,0 6,-1 1,2 1,3 2,4 2,0 4,0 7,0 0,0 0,-1 1,-2 2,0 4,1 6,1 0,1 0,2 0,3 3,1 5,3 7,3 1,0 1,-1 2,-2 2,1 3,2 5,3 0,1 0,2 0,3 2,2 4,3 5,4 1,0 2,0 3,-1 1,2 3,3 4,5 0,0 -1,1 -1,2 1,2 3,4 4,6 1,0 2,-1 3,-1 1,2 2,4 3,5 -1,1 -1,2 -2,3 1,2 2,4 3,6 1,0 2,0 3,0 0,2 1,4 1,6 0,1 -1,1 -2,2 1,2 1,5 1,7 1,0 2,0 3,1 0,2 0,4 0,6 -1,0 -2,0 -3,1 0,2 -1,4 -1,6 1,1 2,2 2,3 0,2 -1,4 -1,6 -1,0 -2,0 -3,0 -1,2 -4,6 -1,8 -1,2 -2,4 -3,5 -1,0 -2,0 -3,0 -1,2 -2,4 -4,5 0,1 1,2 1,3 0,1 -2,2 -3,3 -1,1 -2,0 -4,0 -2,1 -3,3 -5,5 0,1 0,2 0,3 -2,0 -3,2 -5,3 -1,-1 -1,-2 -2,-3 -2,1 -4,2 -7,3 0,1 0,2 0,3 -2,1 -4,2 -6,2 0,-1 -1,-2 -1,-3 -3,0 -5,1 -8,1 0,1 0,2 0,3 -2,0 -4,0 -6,0 -1,-1 -1,-2 -1,-3 -3,0 -5,0 -8,-1 0,1 -1,2 -1,3 -2,-1 -4,-1 -6,-2 0,-1 0,-2 0,-3 -2,-1 -4,-1 -6,-2 -1,0 -2,1 -3,2 -2,-1 -3,-3 -5,-4 0,-1 0,-2 0,-2 -2,-2 -3,-3 -5,-5 -1,0 -2,1 -3,1 -1,-1 -2,-2 -4,-3 0,-1 1,-3 1,-4 -2,-1 -3,-3 -4,-5 -1,0 -2,1 -3,0 -1,-2 -2,-3 -3,-5 1,0 1,-1 2,-2 -1,-2 -2,-4 -3,-6 -1,0 -2,-1 -3,-1 0,-1 -1,-3 -1,-5 1,-1 2,-2 2,-3 0,-2 -1,-4 -1,-6 -1,-1 -2,-1 -2,-1 0,-2 0,-4 0,-6 1,-1 1,-1 2,-1 0,-2 1,-4 1,-6 0,-2 -2,-2 -2,-3 0,-2 1,-4 1,-5 1,-1 3,-1 3,-2 1,-2 2,-4 3,-5 -1,-1 -1,-2 -2,-3 1,-1 2,-3 3,-5 1,0 2,0 3,1 1,-2 2,-4 4,-6 0,-1 -1,-2 -1,-3 1,-1 3,-2 4,-4 1,1 2,1 3,1 2,-1 4,-3 6,-4 -1,-1 -1,-2 -1,-2 2,-2 3,-3 5,-4 1,1 2,2 2,2 2,-1 4,-2 6,-2 1,-1 1,-3 1,-4 2,0 4,0 6,-1 0,1 1,2 1,2 3,0 5,0 8,0 0,-1 0,-2 0,-3zm-3 21c8,-1 18,-1 25,4 4,2 8,5 10,8 4,3 6,8 9,13 3,8 3,18 0,26 -2,7 -7,14 -12,19 -4,2 -7,4 -11,6 -8,3 -18,3 -26,1 -14,-5 -24,-16 -27,-30 -2,-9 0,-19 4,-27 3,-6 8,-12 14,-15 4,-3 9,-4 14,-5zm0 2c5,-1 10,-1 15,0 4,1 8,3 11,5 12,7 20,22 18,36 0,5 -2,9 -4,13 -7,14 -23,22 -38,20 -10,-1 -18,-6 -25,-13 -2,-4 -4,-7 -6,-11 -3,-9 -3,-19 1,-28 2,-3 4,-7 6,-10 3,-2 6,-6 9,-7 4,-2 8,-5 13,-5zm0 3c7,-2 15,0 22,3 6,3 11,7 14,13 4,6 6,14 5,22 -1,11 -9,22 -19,27 -7,3 -15,4 -23,2 -4,-1 -9,-2 -13,-5 -1,-2 -3,-2 -4,-4 -2,-3 -5,-5 -6,-9 -3,-6 -5,-13 -4,-20 2,-6 4,-12 8,-17 5,-6 12,-11 20,-12zm2 4c3,-2 8,-2 10,1 0,1 1,3 1,4 -4,0 -9,0 -13,0 0,-2 1,-4 2,-5zm17 8c2,-2 5,-3 7,-2 3,1 5,4 4,7 1,1 0,3 -1,4 -3,-3 -7,-6 -10,-9zm-36 2c1,-4 7,-6 11,-3 -3,4 -7,7 -10,10 -2,-2 -2,-4 -1,-7zm19 0c6,-1 11,0 16,3 4,3 6,8 8,12 2,6 -1,13 -5,18 -4,5 -12,8 -18,6 -6,0 -10,-4 -13,-8 -4,-7 -4,-16 0,-23 3,-4 8,-6 12,-8zm0 4c5,-1 10,0 14,2 1,2 3,3 5,5 3,5 3,12 -1,18 -1,2 -3,4 -6,5 -6,3 -13,3 -18,-2 -4,-3 -6,-9 -6,-14 1,-6 6,-13 12,-14zm-26 13c1,-2 4,-3 6,-4 0,4 0,9 0,14 -5,0 -8,-6 -6,-10zm55 10c0,-5 0,-10 0,-14 4,1 8,4 7,8 -1,3 -4,6 -7,6zm-27 -21c8,-2 16,4 17,12 1,9 -8,18 -17,16 -4,-1 -7,-3 -9,-6 -3,-5 -4,-12 1,-17 2,-2 5,-5 8,-5zm-1 8c3,-1 8,0 9,3 3,5 -2,11 -7,9 -3,-1 -5,-3 -5,-6 0,-3 2,-4 3,-6zm-17 29c-4,-3 -4,-8 -2,-11 3,3 5,6 8,8 1,1 1,2 2,3 -3,1 -6,2 -8,0zm43 -10c4,3 0,11 -5,11 -2,0 -3,-1 -5,-2 3,-3 6,-7 10,-9zm-29 11c4,0 9,0 13,0 0,3 -1,5 -4,7 -2,0 -5,0 -7,-2 -1,-1 -2,-3 -2,-5z"/>
 </g>
</svg>
