<?xml version="1.0" encoding="UTF-8"?>
<!DOCTYPE svg PUBLIC "-//W3C//DTD SVG 1.1//EN" "http://www.w3.org/Graphics/SVG/1.1/DTD/svg11.dtd">
<!-- Creator: CorelDRAW X7 -->
<svg xmlns="http://www.w3.org/2000/svg" xml:space="preserve" width="767px" height="512px" version="1.1" style="shape-rendering:geometricPrecision; text-rendering:geometricPrecision; image-rendering:optimizeQuality; fill-rule:evenodd; clip-rule:evenodd"
viewBox="0 0 767 512"
 xmlns:xlink="http://www.w3.org/1999/xlink">
 <defs>
  <style type="text/css">
   <![CDATA[
    .fil0 {fill:black}
   ]]>
  </style>
 </defs>
 <g id="Layer_x0020_1">
  <metadata id="CorelCorpID_0Corel-Layer"/>
  <path class="fil0" d="M607 185l69 0c0,0 -11,-30 -46,-30l-142 0c-46,0 -96,13 -142,32 140,2 171,47 171,47l-269 -1c-38,21 -67,41 -77,48l232 0c140,1 212,13 259,30l-55 -126zm-607 117c77,84 111,147 263,147 127,0 504,0 504,0l-36 -83c-57,-29 -95,-62 -328,-64l-403 0zm274 49c0,-6 10,-11 22,-11 13,0 22,5 22,11 0,7 -9,12 -22,12 -12,0 -22,-5 -22,-12zm-118 0c0,-6 10,-11 22,-11 13,0 22,5 22,11 0,7 -9,12 -22,12 -12,0 -22,-5 -22,-12z"/>
 </g>
</svg>
