<?xml version="1.0" encoding="UTF-8"?>
<!DOCTYPE svg PUBLIC "-//W3C//DTD SVG 1.1//EN" "http://www.w3.org/Graphics/SVG/1.1/DTD/svg11.dtd">
<!-- Creator: CorelDRAW X7 -->
<svg xmlns="http://www.w3.org/2000/svg" xml:space="preserve" width="787px" height="512px" version="1.1" style="shape-rendering:geometricPrecision; text-rendering:geometricPrecision; image-rendering:optimizeQuality; fill-rule:evenodd; clip-rule:evenodd"
viewBox="0 0 787 512"
 xmlns:xlink="http://www.w3.org/1999/xlink">
 <defs>
  <style type="text/css">
   <![CDATA[
    .fil0 {fill:black}
   ]]>
  </style>
 </defs>
 <g id="Layer_x0020_1">
  <metadata id="CorelCorpID_0Corel-Layer"/>
  <path class="fil0" d="M593 45c1,-4 5,-6 9,-4l66 24c3,1 4,4 5,7l0 0c0,1 -1,2 -1,2 -1,3 -4,5 -7,5 -1,0 -2,0 -3,0l-65 -24c-4,-2 -6,-6 -4,-10zm-72 -18c-51,11 -88,43 -88,82 0,38 37,71 88,81l0 -163zm147 99l-66 -24c-4,-2 -8,0 -9,4 -2,4 0,8 4,10l65 24c1,0 2,0 3,0 3,0 6,-2 7,-5 2,-4 0,-8 -4,-9zm-112 -81l0 -21 -1 0c-9,0 -18,0 -27,2l0 165c9,2 18,3 28,3l0 -22c12,-2 22,-30 22,-63 0,-34 -10,-62 -22,-64zm112 141l-66 -24c-4,-1 -8,1 -9,5 -2,4 0,8 4,10l65 24c1,0 2,0 3,0 3,0 6,-2 7,-5 2,-4 0,-8 -4,-10z"/>
  <polygon class="fil0" points="608,289 583,289 583,302 608,302 "/>
  <polygon class="fil0" points="547,276 515,276 515,302 547,302 "/>
  <polygon class="fil0" points="672,289 646,289 646,302 672,302 "/>
  <polygon class="fil0" points="739,276 707,276 707,302 739,302 "/>
  <path class="fil0" d="M488 334l0 150 -21 0 0 26 320 0 0 -26 -21 0 0 -150 21 0 0 -27 -320 0 0 27 21 0zm87 51l-17 0 0 17 -13 0 0 -17 -18 0 0 -13 18 0 0 -18 13 0 0 18 17 0 0 13zm152 0l-48 0 0 -13 48 0 0 13z"/>
  <path class="fil0" d="M207 98c-114,0 -207,93 -207,207 0,114 93,207 207,207 114,0 207,-93 207,-207 0,-114 -93,-207 -207,-207zm0 354c-81,0 -147,-66 -147,-147 0,-81 66,-147 147,-147 81,0 147,66 147,147 0,81 -66,147 -147,147z"/>
  <path class="fil0" d="M207 177c-71,0 -128,57 -128,128 0,71 57,128 128,128 71,0 128,-57 128,-128 0,-71 -57,-128 -128,-128zm112 120l-62 0c-2,-8 -5,-15 -9,-21l44 -44c15,17 25,40 27,65zm-104 -104c25,2 47,12 65,27l-44 44c-6,-4 -13,-7 -21,-9l0 -62zm-16 0l0 62c-8,2 -15,5 -21,9l-44 -44c18,-15 40,-25 65,-27zm-76 39l43 44c-4,6 -7,13 -8,21l-63 0c2,-25 12,-48 28,-65zm-28 81l63 0c1,8 4,15 8,21l-44 44c-15,-18 -25,-40 -27,-65zm104 104c-25,-2 -48,-12 -65,-28l44 -43c6,4 13,7 21,8l0 63zm0 -79l0 0c-3,-1 -7,-2 -10,-4l0 0c-4,-3 -8,-7 -11,-12l0 1c-2,-3 -3,-7 -4,-10l0 0c-1,-3 -1,-5 -1,-8 0,-3 0,-6 1,-8l0 0c1,-4 2,-7 4,-10l0 0c3,-4 7,-8 11,-11l0 0c3,-2 7,-3 10,-4l0 0c3,-1 5,-1 8,-1 3,0 5,0 8,1l0 0c4,1 7,2 10,4l0 0c4,3 8,7 11,11l0 0c2,3 3,6 4,10l0 0c1,2 1,5 1,8 0,3 0,5 -1,8l0 0c-1,3 -2,7 -4,10l0 -1c-3,5 -7,9 -11,12l0 0c-3,2 -6,3 -10,4l0 0c-3,0 -5,1 -8,1 -3,0 -5,-1 -8,-1zm16 79l0 -63c8,-1 15,-4 21,-8l44 43c-17,16 -40,26 -65,28zm77 -39l-44 -44c4,-6 7,-13 9,-21l62 0c-2,25 -12,47 -27,65z"/>
 </g>
</svg>
