<?xml version="1.0" encoding="UTF-8"?>
<!DOCTYPE svg PUBLIC "-//W3C//DTD SVG 1.1//EN" "http://www.w3.org/Graphics/SVG/1.1/DTD/svg11.dtd">
<!-- Creator: CorelDRAW X7 -->
<svg xmlns="http://www.w3.org/2000/svg" xml:space="preserve" width="452px" height="512px" version="1.1" style="shape-rendering:geometricPrecision; text-rendering:geometricPrecision; image-rendering:optimizeQuality; fill-rule:evenodd; clip-rule:evenodd"
viewBox="0 0 452 512"
 xmlns:xlink="http://www.w3.org/1999/xlink">
 <defs>
  <style type="text/css">
   <![CDATA[
    .fil0 {fill:black}
   ]]>
  </style>
 </defs>
 <g id="Layer_x0020_1">
  <metadata id="CorelCorpID_0Corel-Layer"/>
  <path class="fil0" d="M15 427c-17,16 -17,43 0,59 8,9 19,13 30,13 11,0 22,-4 30,-13l139 -139 -60 -60 -139 140z"/>
  <polygon class="fil0" points="362,169 423,138 455,76 425,47 364,78 333,139 259,213 289,243 "/>
  <path class="fil0" d="M376 330l-6 -1c-10,0 -20,2 -29,5l-174 -173c3,-10 5,-19 5,-30l0 -5c-3,-44 -39,-79 -84,-79 -13,0 -26,3 -37,8l57 56c3,3 5,7 6,11 4,10 2,21 -6,29 -6,6 -13,9 -20,9 -4,0 -7,-1 -10,-2 -4,-2 -7,-4 -10,-7l-56 -56c-6,11 -9,23 -9,36 0,45 35,81 79,85l6 0c10,0 20,-2 29,-5l174 173c-4,9 -6,19 -6,30l1 5c3,44 39,79 84,79 13,0 25,-3 36,-8l-56 -56c-3,-3 -5,-7 -6,-11 -4,-10 -2,-21 6,-29 6,-6 13,-9 20,-9 3,0 7,1 10,2 3,2 7,4 10,7l56 56c5,-11 9,-23 9,-36 0,-45 -35,-81 -79,-84z"/>
 </g>
</svg>
