<?xml version="1.0" encoding="UTF-8"?>
<!DOCTYPE svg PUBLIC "-//W3C//DTD SVG 1.1//EN" "http://www.w3.org/Graphics/SVG/1.1/DTD/svg11.dtd">
<!-- Creator: CorelDRAW X7 -->
<svg xmlns="http://www.w3.org/2000/svg" xml:space="preserve" width="477px" height="512px" version="1.1" style="shape-rendering:geometricPrecision; text-rendering:geometricPrecision; image-rendering:optimizeQuality; fill-rule:evenodd; clip-rule:evenodd"
viewBox="0 0 477 512"
 xmlns:xlink="http://www.w3.org/1999/xlink">
 <defs>
  <style type="text/css">
   <![CDATA[
    .fil0 {fill:black}
   ]]>
  </style>
 </defs>
 <g id="Layer_x0020_1">
  <metadata id="CorelCorpID_0Corel-Layer"/>
  <path class="fil0" d="M443 137c-19,0 -34,16 -34,34l0 137c0,18 15,34 34,34 19,0 34,-16 34,-34l0 -137c0,-18 -15,-34 -34,-34zm-409 0c-19,0 -34,16 -34,34l0 137c0,18 15,34 34,34 19,0 34,-16 34,-34l0 -137c0,-18 -15,-34 -34,-34zm51 222c0,28 23,51 51,51l17 0 0 68c0,19 16,34 34,34 19,0 34,-15 34,-34l0 -68 34 0 0 68c0,19 16,34 35,34 18,0 34,-15 34,-34l0 -68 17 0c28,0 51,-23 51,-51l0 -188 -307 0 0 188zm217 -344l21 -42c1,-2 0,-4 -2,-6 0,0 -1,0 -2,0 -1,0 -3,1 -3,2l-22 42c-17,-6 -36,-10 -56,-10 -19,0 -38,4 -55,10l-22 -42c-1,-2 -3,-3 -5,-2 -3,2 -3,4 -2,6l21 42c-48,21 -83,68 -89,122l305 0c-6,-54 -41,-101 -89,-122zm-132 96c-13,0 -24,-11 -24,-25 0,-13 11,-24 24,-24 14,0 25,11 25,24 0,14 -11,25 -25,25zm137 0c-14,0 -25,-11 -25,-25 0,-13 11,-24 25,-24 13,0 24,11 24,24 0,14 -11,25 -24,25z"/>
 </g>
</svg>
