<?xml version="1.0" encoding="UTF-8"?>
<!DOCTYPE svg PUBLIC "-//W3C//DTD SVG 1.1//EN" "http://www.w3.org/Graphics/SVG/1.1/DTD/svg11.dtd">
<!-- Creator: CorelDRAW X7 -->
<svg xmlns="http://www.w3.org/2000/svg" xml:space="preserve" width="650px" height="512px" version="1.1" style="shape-rendering:geometricPrecision; text-rendering:geometricPrecision; image-rendering:optimizeQuality; fill-rule:evenodd; clip-rule:evenodd"
viewBox="0 0 650 512"
 xmlns:xlink="http://www.w3.org/1999/xlink">
 <defs>
  <style type="text/css">
   <![CDATA[
    .fil0 {fill:black}
   ]]>
  </style>
 </defs>
 <g id="Layer_x0020_1">
  <metadata id="CorelCorpID_0Corel-Layer"/>
  <path class="fil0" d="M82 432l212 0 201 110 0 -110 73 0c45,0 82,-37 82,-82l0 -267c0,-46 -37,-83 -82,-83l-486 0c-45,0 -82,37 -82,83l0 266c0,46 37,83 82,83zm427 -196c-32,-11 -44,-28 -44,-47 0,-28 25,-50 63,-50 17,0 33,4 43,9l-9 33c-6,-4 -20,-9 -33,-9 -11,0 -18,5 -18,13 0,7 6,11 25,17 29,10 41,25 42,48 0,28 -23,49 -67,49 -20,0 -38,-4 -50,-10l9 -35c9,6 27,12 41,12 14,0 20,-5 20,-13 0,-8 -4,-11 -22,-17zm-270 -93l2 20 1 0c7,-9 20,-24 47,-24 19,0 35,10 42,26l0 0c6,-8 13,-14 20,-18 9,-5 18,-8 29,-8 30,0 52,21 52,67l0 90 -46 0 0 -83c0,-23 -8,-36 -23,-36 -11,0 -19,8 -22,17 -1,4 -2,9 -2,12l0 90 -46 0 0 -86c0,-19 -7,-33 -22,-33 -12,0 -20,10 -23,18 -1,4 -1,8 -1,12l0 89 -47 0 0 -104c0,-20 0,-36 -1,-49l40 0zm-136 93c-32,-11 -44,-28 -44,-47 0,-28 24,-50 62,-50 18,0 34,4 44,9l-9 33c-7,-4 -20,-9 -33,-9 -12,0 -18,5 -18,13 0,7 6,11 25,17 29,10 41,25 41,48 0,28 -22,49 -66,49 -20,0 -38,-4 -50,-10l9 -35c8,6 27,12 41,12 14,0 20,-5 20,-13 0,-8 -5,-11 -22,-17z"/>
 </g>
</svg>
