<?xml version="1.0" encoding="UTF-8"?>
<!DOCTYPE svg PUBLIC "-//W3C//DTD SVG 1.1//EN" "http://www.w3.org/Graphics/SVG/1.1/DTD/svg11.dtd">
<!-- Creator: CorelDRAW X7 -->
<svg xmlns="http://www.w3.org/2000/svg" xml:space="preserve" width="512px" height="512px" version="1.1" style="shape-rendering:geometricPrecision; text-rendering:geometricPrecision; image-rendering:optimizeQuality; fill-rule:evenodd; clip-rule:evenodd"
viewBox="0 0 512 512"
 xmlns:xlink="http://www.w3.org/1999/xlink">
 <defs>
  <style type="text/css">
   <![CDATA[
    .fil0 {fill:black}
   ]]>
  </style>
 </defs>
 <g id="Layer_x0020_1">
  <metadata id="CorelCorpID_0Corel-Layer"/>
  <path id="path7" class="fil0" d="M429 312c-16,-23 -24,-49 -24,-77 0,-26 8,-50 23,-72 8,-12 21,-26 39,-41 -12,-15 -24,-27 -36,-35 -22,-15 -46,-23 -74,-23 -16,0 -36,4 -60,12 -23,8 -39,12 -50,12 -7,0 -23,-3 -48,-10 -24,-7 -44,-11 -61,-11 -40,0 -73,17 -99,50 -26,34 -39,77 -39,130 0,56 17,115 51,175 35,60 69,90 105,90 11,0 27,-4 46,-12 18,-7 35,-11 49,-11 15,0 32,3 52,11 21,7 38,11 49,11 30,0 59,-23 89,-68 20,-29 34,-58 43,-87 -21,-6 -39,-21 -55,-44l0 0z"/>
  <path id="path9" class="fil0" d="M312 42c15,-15 26,-31 33,-48 6,-18 10,-34 10,-48 0,-1 0,-2 0,-3 0,-2 -1,-3 -1,-4 0,-1 0,-2 0,-4 -1,-2 -1,-3 -1,-4 -41,10 -70,27 -88,52 -17,25 -26,55 -27,90 16,-2 28,-4 37,-6 12,-4 25,-13 37,-25l0 0z"/>
  <g id="g11">
  </g>
  <g id="g13">
  </g>
  <g id="g15">
  </g>
  <g id="g17">
  </g>
  <g id="g19">
  </g>
  <g id="g21">
  </g>
  <g id="g23">
  </g>
  <g id="g25">
  </g>
  <g id="g27">
  </g>
  <g id="g29">
  </g>
  <g id="g31">
  </g>
  <g id="g33">
  </g>
  <g id="g35">
  </g>
  <g id="g37">
  </g>
  <g id="g39">
  </g>
 </g>
</svg>
