<?xml version="1.0" encoding="UTF-8"?>
<!DOCTYPE svg PUBLIC "-//W3C//DTD SVG 1.1//EN" "http://www.w3.org/Graphics/SVG/1.1/DTD/svg11.dtd">
<!-- Creator: CorelDRAW X7 -->
<svg xmlns="http://www.w3.org/2000/svg" xml:space="preserve" width="435px" height="512px" version="1.1" style="shape-rendering:geometricPrecision; text-rendering:geometricPrecision; image-rendering:optimizeQuality; fill-rule:evenodd; clip-rule:evenodd"
viewBox="0 0 435 512"
 xmlns:xlink="http://www.w3.org/1999/xlink">
 <defs>
  <style type="text/css">
   <![CDATA[
    .fil0 {fill:black}
   ]]>
  </style>
 </defs>
 <g id="Layer_x0020_1">
  <metadata id="CorelCorpID_0Corel-Layer"/>
  <path class="fil0" d="M434 472l-11 -32c-21,-60 -76,-101 -139,-104 -6,4 -12,8 -18,11 -9,24 -39,30 -57,12 -21,-2 -41,-10 -57,-23 -64,3 -119,44 -140,104l-10 32c-1,3 -2,6 -2,10l0 0c0,6 2,12 6,17 5,8 14,13 24,13l375 0c10,0 19,-5 25,-13 5,-8 7,-18 4,-27z"/>
  <path class="fil0" d="M259 312c37,-26 63,-83 63,-138 0,-157 -208,-156 -208,0 0,67 37,136 87,149 5,-13 18,-23 33,-23 10,0 19,5 25,12z"/>
  <path class="fil0" d="M68 239c5,20 33,15 33,-4 0,-75 4,-82 -6,-90 23,-142 221,-141 246,0 -11,8 -7,15 -7,90 0,6 3,11 8,14 0,58 -24,55 -95,74 -11,-12 -31,-4 -31,12 0,20 29,25 35,5 57,-16 108,-21 108,-78l0 -12c4,-2 7,-6 8,-11 56,-1 56,-84 0,-85 -1,-5 -4,-9 -8,-11 2,-17 -2,-39 -11,-61 -68,-140 -269,-85 -272,51 -1,4 0,7 0,10 -4,2 -7,6 -8,11 -23,0 -42,19 -42,42 0,24 19,43 42,43z"/>
 </g>
</svg>
