<?xml version="1.0" encoding="UTF-8"?>
<!DOCTYPE svg PUBLIC "-//W3C//DTD SVG 1.1//EN" "http://www.w3.org/Graphics/SVG/1.1/DTD/svg11.dtd">
<!-- Creator: CorelDRAW X7 -->
<svg xmlns="http://www.w3.org/2000/svg" xml:space="preserve" width="450px" height="512px" version="1.1" style="shape-rendering:geometricPrecision; text-rendering:geometricPrecision; image-rendering:optimizeQuality; fill-rule:evenodd; clip-rule:evenodd"
viewBox="0 0 450 512"
 xmlns:xlink="http://www.w3.org/1999/xlink">
 <defs>
  <style type="text/css">
   <![CDATA[
    .fil1 {fill:black}
    .fil0 {fill:black}
   ]]>
  </style>
 </defs>
 <g id="Layer_x0020_1">
  <metadata id="CorelCorpID_0Corel-Layer"/>
  <path class="fil0" d="M204 273c76,0 103,-76 110,-138 9,-77 -27,-135 -110,-135 -82,0 -118,58 -110,135 7,62 35,138 110,138z"/>
  <path class="fil1" d="M371 305c2,0 5,0 7,0 -3,-5 -8,-10 -13,-14 -14,-10 -33,-14 -50,-21 -8,-3 -15,-6 -22,-10 -23,26 -53,39 -88,39 -35,0 -65,-13 -88,-39 -7,4 -14,7 -22,10 -17,7 -36,11 -50,21 -25,19 -32,61 -37,90 -4,24 -7,48 -8,73 0,0 0,1 0,1l0 1c0,17 9,19 24,25 20,7 40,12 61,16 39,9 80,15 120,15 20,0 39,-1 59,-4 -15,-21 -23,-46 -23,-74 0,-71 58,-129 130,-129z"/>
  <path class="fil1" d="M371 331c-57,0 -104,47 -104,104 0,58 47,104 104,104 58,0 105,-46 105,-104 0,-57 -47,-104 -105,-104zm46 122l-28 0 0 28c0,9 -8,17 -18,17 -9,0 -17,-8 -17,-17l0 -28 -28 0c-10,0 -18,-8 -18,-18 0,-10 8,-18 18,-18l28 0 0 -27c0,-10 8,-18 17,-18 10,0 18,8 18,18l0 27 28 0c10,0 18,8 18,18 0,10 -8,18 -18,18z"/>
 </g>
</svg>
