<?xml version="1.0" encoding="UTF-8"?>
<!DOCTYPE svg PUBLIC "-//W3C//DTD SVG 1.1//EN" "http://www.w3.org/Graphics/SVG/1.1/DTD/svg11.dtd">
<!-- Creator: CorelDRAW X7 -->
<svg xmlns="http://www.w3.org/2000/svg" xml:space="preserve" width="512px" height="512px" version="1.1" style="shape-rendering:geometricPrecision; text-rendering:geometricPrecision; image-rendering:optimizeQuality; fill-rule:evenodd; clip-rule:evenodd"
viewBox="0 0 512 512"
 xmlns:xlink="http://www.w3.org/1999/xlink">
 <defs>
  <style type="text/css">
   <![CDATA[
    .fil0 {fill:black}
   ]]>
  </style>
 </defs>
 <g id="Layer_x0020_1">
  <metadata id="CorelCorpID_0Corel-Layer"/>
  <path class="fil0" d="M81 512l350 0c45,0 81,-36 81,-81l0 -350c0,-45 -36,-81 -81,-81l-350 0c-45,0 -81,36 -81,81l0 350c0,45 36,81 81,81zm-52 -431c0,-29 23,-52 52,-52l350 0c29,0 52,23 52,52l0 350c0,29 -23,52 -52,52l-350 0c-29,0 -52,-23 -52,-52l0 -350z"/>
  <path class="fil0" d="M138 271l201 0 -51 51c-6,6 -6,15 0,21 5,6 15,6 20,0l77 -77c6,-5 6,-15 0,-20l-77 -77c-3,-3 -6,-4 -10,-4 -4,0 -8,1 -10,4 -6,6 -6,15 0,21l51 51 -201 0c-9,0 -15,7 -15,15 0,8 6,15 15,15z"/>
 </g>
</svg>
