<?xml version="1.0" encoding="UTF-8"?>
<!DOCTYPE svg PUBLIC "-//W3C//DTD SVG 1.1//EN" "http://www.w3.org/Graphics/SVG/1.1/DTD/svg11.dtd">
<!-- Creator: CorelDRAW X7 -->
<svg xmlns="http://www.w3.org/2000/svg" xml:space="preserve" width="512px" height="512px" version="1.1" style="shape-rendering:geometricPrecision; text-rendering:geometricPrecision; image-rendering:optimizeQuality; fill-rule:evenodd; clip-rule:evenodd"
viewBox="0 0 512 512"
 xmlns:xlink="http://www.w3.org/1999/xlink">
 <defs>
  <style type="text/css">
   <![CDATA[
    .fil0 {fill:black}
   ]]>
  </style>
 </defs>
 <g id="Layer_x0020_1">
  <metadata id="CorelCorpID_0Corel-Layer"/>
  <path class="fil0" d="M256 0c-141,0 -256,115 -256,256 0,141 115,256 256,256 141,0 256,-115 256,-256 0,-141 -115,-256 -256,-256zm0 493c-131,0 -237,-106 -237,-237 0,-131 106,-237 237,-237 131,0 237,106 237,237 0,131 -106,237 -237,237z"/>
  <path class="fil0" d="M349 220l-93 92 -93 -92c-4,-4 -10,-4 -13,0 -4,3 -4,9 0,13l99 99c2,2 5,3 7,3 2,0 5,-1 7,-3l99 -99c4,-4 4,-10 0,-13 -3,-4 -9,-4 -13,0z"/>
 </g>
</svg>
