<?xml version="1.0" encoding="UTF-8"?>
<!DOCTYPE svg PUBLIC "-//W3C//DTD SVG 1.1//EN" "http://www.w3.org/Graphics/SVG/1.1/DTD/svg11.dtd">
<!-- Creator: CorelDRAW X7 -->
<svg xmlns="http://www.w3.org/2000/svg" xml:space="preserve" width="512px" height="512px" version="1.1" style="shape-rendering:geometricPrecision; text-rendering:geometricPrecision; image-rendering:optimizeQuality; fill-rule:evenodd; clip-rule:evenodd"
viewBox="0 0 512 512"
 xmlns:xlink="http://www.w3.org/1999/xlink">
 <defs>
  <style type="text/css">
   <![CDATA[
    .fil0 {fill:black}
   ]]>
  </style>
 </defs>
 <g id="Layer_x0020_1">
  <metadata id="CorelCorpID_0Corel-Layer"/>
  <path class="fil0" d="M61 61c39,-39 91,-61 146,-61 56,0 108,22 147,61 39,39 61,91 61,146 0,42 -13,83 -36,117l122 122c7,7 11,17 11,27l0 0c0,10 -4,20 -11,28 -8,7 -17,11 -28,11 -10,0 -20,-4 -27,-11l-122 -122c-34,23 -75,36 -117,36 -55,0 -107,-22 -146,-61 -39,-39 -61,-91 -61,-147 0,-55 22,-107 61,-146zm16 276c35,35 81,54 130,54 49,0 95,-19 130,-54 35,-35 54,-81 54,-130 0,-49 -19,-95 -54,-130 -35,-34 -81,-53 -130,-53 -49,0 -95,19 -130,53 -34,35 -53,81 -53,130 0,49 19,95 53,130zm118 -271c0,7 6,12 12,12 72,0 130,58 130,129 0,7 5,12 11,12 7,0 12,-5 12,-12 0,-84 -68,-153 -153,-153 -6,0 -12,6 -12,12z"/>
 </g>
</svg>
