<?xml version="1.0" encoding="UTF-8"?>
<!DOCTYPE svg PUBLIC "-//W3C//DTD SVG 1.1//EN" "http://www.w3.org/Graphics/SVG/1.1/DTD/svg11.dtd">
<!-- Creator: CorelDRAW X7 -->
<svg xmlns="http://www.w3.org/2000/svg" xml:space="preserve" width="549px" height="512px" version="1.1" style="shape-rendering:geometricPrecision; text-rendering:geometricPrecision; image-rendering:optimizeQuality; fill-rule:evenodd; clip-rule:evenodd"
viewBox="0 0 549 512"
 xmlns:xlink="http://www.w3.org/1999/xlink">
 <defs>
  <style type="text/css">
   <![CDATA[
    .fil0 {fill:black}
   ]]>
  </style>
 </defs>
 <g id="Layer_x0020_1">
  <metadata id="CorelCorpID_0Corel-Layer"/>
  <path class="fil0" d="M547 241c-3,-6 -9,-9 -15,-9l-33 0c-1,-128 -106,-232 -234,-232 -16,0 -29,13 -29,28 0,16 13,29 29,29 97,0 176,78 177,175l-32 0c-7,0 -13,3 -16,9 -3,6 -2,13 2,18l61 79c3,4 8,7 14,7 5,0 10,-3 13,-7l61 -79c4,-5 5,-12 2,-18z"/>
  <path class="fil0" d="M265 420c-16,0 -29,13 -29,28l0 36c0,15 13,28 29,28 16,0 28,-13 28,-28l0 -36c0,-15 -12,-28 -28,-28z"/>
  <path class="fil0" d="M140 87c5,9 15,14 24,14 5,0 10,-1 15,-3 13,-8 18,-26 10,-39l-18 -31c-8,-13 -25,-18 -39,-10 -13,8 -18,25 -10,39l18 30z"/>
  <path class="fil0" d="M390 407c-8,-13 -25,-18 -39,-10 -13,8 -18,25 -10,39l17 30c6,9 15,14 25,14 5,0 10,-1 14,-3 14,-8 19,-26 11,-39l-18 -31z"/>
  <path class="fil0" d="M46 154l30 17c5,3 10,4 15,4 9,0 19,-5 24,-14 8,-14 3,-31 -10,-39l-31 -18c-13,-7 -31,-3 -39,11 -7,13 -3,31 11,39z"/>
  <path class="fil0" d="M92 247c0,-16 -13,-28 -28,-28l-36 0c-15,0 -28,12 -28,28 0,16 13,29 28,29l36 0c15,0 28,-13 28,-29z"/>
  <path class="fil0" d="M115 333c-8,-13 -25,-18 -39,-10l-30 18c-14,8 -18,25 -11,39 6,9 15,14 25,14 5,0 10,-1 14,-4l31 -18c13,-8 18,-25 10,-39z"/>
  <path class="fil0" d="M179 397c-14,-8 -31,-3 -39,10l-18 31c-8,13 -3,31 10,39 5,2 10,3 15,3 9,0 19,-5 24,-14l18 -30c8,-14 3,-31 -10,-39z"/>
  <path class="fil0" d="M248 303c0,-8 -7,-16 -15,-16l-33 0c1,0 1,0 1,-1 2,-2 7,-7 15,-14 9,-8 15,-14 18,-18 5,-6 9,-13 11,-18 2,-6 3,-13 3,-19 0,-12 -4,-22 -12,-30 -9,-8 -20,-12 -34,-12 -14,0 -25,4 -33,10 -6,4 -10,10 -13,17 -1,5 -1,10 2,15 2,4 7,7 12,7 1,0 1,0 2,0 7,0 13,-4 16,-11 0,-2 1,-4 3,-5 2,-2 5,-4 10,-4 4,0 8,1 10,4 3,2 4,6 4,11 0,4 -2,9 -5,13 -2,3 -7,9 -21,22 -15,14 -25,25 -30,33 -4,6 -6,13 -8,19 -1,4 0,7 2,9 2,3 5,4 8,4l72 0c8,0 15,-7 15,-16z"/>
  <path class="fil0" d="M342 303l0 -11 2 0c8,0 15,-7 15,-15 0,-9 -7,-16 -15,-16l-2 0 0 -76c0,-5 -4,-10 -10,-10l-12 0c-3,0 -6,2 -8,5l-56 80c-1,3 -2,6 -2,8l0 14c0,5 5,10 10,10l46 0 0 11c0,9 7,16 16,16 9,0 16,-7 16,-16zm-32 -42l-21 0 21 -30 0 30z"/>
 </g>
</svg>
