<?xml version="1.0" encoding="UTF-8"?>
<!DOCTYPE svg PUBLIC "-//W3C//DTD SVG 1.1//EN" "http://www.w3.org/Graphics/SVG/1.1/DTD/svg11.dtd">
<!-- Creator: CorelDRAW X7 -->
<svg xmlns="http://www.w3.org/2000/svg" xml:space="preserve" width="447px" height="512px" version="1.1" style="shape-rendering:geometricPrecision; text-rendering:geometricPrecision; image-rendering:optimizeQuality; fill-rule:evenodd; clip-rule:evenodd"
viewBox="0 0 447 512"
 xmlns:xlink="http://www.w3.org/1999/xlink">
 <defs>
  <style type="text/css">
   <![CDATA[
    .fil0 {fill:black}
   ]]>
  </style>
 </defs>
 <g id="Layer_x0020_1">
  <metadata id="CorelCorpID_0Corel-Layer"/>
  <path class="fil0" d="M289 253c-12,0 -22,10 -22,23 0,12 10,22 22,22 13,0 23,-10 23,-22 0,-13 -10,-23 -23,-23z"/>
  <path class="fil0" d="M158 163c-13,0 -23,11 -23,23 0,12 10,23 23,23 12,0 22,-11 22,-23 0,-12 -10,-23 -22,-23z"/>
  <path class="fil0" d="M446 310c-3,-8 -11,-13 -20,-13l-40 0 0 -257c0,-22 -18,-40 -40,-40l-245 0c-22,0 -40,18 -40,40l0 257 -40 0c-9,0 -17,5 -20,13 -1,3 -1,5 -1,8 0,5 2,11 7,15l190 169c15,13 38,13 53,0l190 -169c6,-6 9,-15 6,-23zm-339 -124c0,-28 22,-51 51,-51 28,0 51,23 51,51 0,28 -23,51 -51,51 -29,0 -51,-23 -51,-51zm80 148c-3,5 -8,8 -13,8 -2,0 -4,-1 -6,-2 -7,-3 -10,-12 -7,-19l99 -193c3,-7 12,-10 19,-7 7,4 10,13 6,20l-98 193zm102 -7c-28,0 -51,-23 -51,-51 0,-29 23,-52 51,-52 29,0 51,23 51,52 0,28 -22,51 -51,51z"/>
 </g>
</svg>
