<?xml version="1.0" encoding="UTF-8"?>
<!DOCTYPE svg PUBLIC "-//W3C//DTD SVG 1.1//EN" "http://www.w3.org/Graphics/SVG/1.1/DTD/svg11.dtd">
<!-- Creator: CorelDRAW X7 -->
<svg xmlns="http://www.w3.org/2000/svg" xml:space="preserve" width="555px" height="512px" version="1.1" style="shape-rendering:geometricPrecision; text-rendering:geometricPrecision; image-rendering:optimizeQuality; fill-rule:evenodd; clip-rule:evenodd"
viewBox="0 0 555 512"
 xmlns:xlink="http://www.w3.org/1999/xlink">
 <defs>
  <style type="text/css">
   <![CDATA[
    .fil0 {fill:black}
   ]]>
  </style>
 </defs>
 <g id="Layer_x0020_1">
  <metadata id="CorelCorpID_0Corel-Layer"/>
  <path class="fil0" d="M368 305c0,33 26,59 59,59 33,0 59,-26 59,-59 0,-33 -26,-59 -59,-59 -33,0 -59,26 -59,59z"/>
  <path class="fil0" d="M466 379c-1,-1 -2,-1 -3,-2 -6,-4 -14,-7 -21,-9l-15 14 -14 -15c0,0 0,0 0,1 -8,1 -15,5 -22,9 -1,0 -2,1 -3,2 -36,22 -60,40 -73,110l96 0 2 -9 14 -95 0 0 15 95 1 9 96 0c-13,-70 -37,-88 -73,-110z"/>
  <path class="fil0" d="M175 123c33,0 59,-27 59,-60 0,-32 -26,-59 -59,-59 -33,0 -59,27 -59,59 0,33 26,60 59,60z"/>
  <path class="fil0" d="M161 238l14 -95 0 0 14 95 2 9 96 0c-13,-70 -37,-88 -73,-110 -1,-1 -2,-1 -3,-1 -6,-5 -14,-8 -21,-10l-15 15 -14 -15c0,0 0,0 0,0 -8,2 -15,5 -22,9 -1,1 -2,1 -3,2 -36,22 -60,40 -73,110l96 0 2 -9z"/>
  <path class="fil0" d="M440 170l-56 20 115 56 56 -115 -61 21c-30,-86 -111,-147 -204,-152l-22 0c-3,0 -5,0 -7,0l4 57c79,-6 150,42 175,113z"/>
  <path class="fil0" d="M114 342l57 -20 -115 -56 -56 115 61 -21c34,95 128,160 234,151l-5 -56c-79,6 -150,-42 -176,-113z"/>
 </g>
</svg>
