<?xml version="1.0" encoding="UTF-8"?>
<!DOCTYPE svg PUBLIC "-//W3C//DTD SVG 1.1//EN" "http://www.w3.org/Graphics/SVG/1.1/DTD/svg11.dtd">
<!-- Creator: CorelDRAW X7 -->
<svg xmlns="http://www.w3.org/2000/svg" xml:space="preserve" width="512px" height="512px" version="1.1" style="shape-rendering:geometricPrecision; text-rendering:geometricPrecision; image-rendering:optimizeQuality; fill-rule:evenodd; clip-rule:evenodd"
viewBox="0 0 512 512"
 xmlns:xlink="http://www.w3.org/1999/xlink">
 <defs>
  <style type="text/css">
   <![CDATA[
    .fil0 {fill:black}
   ]]>
  </style>
 </defs>
 <g id="Layer_x0020_1">
  <metadata id="CorelCorpID_0Corel-Layer"/>
  <polygon class="fil0" points="0,357 155,357 155,512 0,512 "/>
  <polygon class="fil0" points="179,357 513,357 513,387 179,387 "/>
  <polygon class="fil0" points="0,179 155,179 155,334 0,334 "/>
  <polygon class="fil0" points="179,179 513,179 513,209 179,209 "/>
  <polygon class="fil0" points="0,0 155,0 155,155 0,155 "/>
  <polygon class="fil0" points="179,0 513,0 513,30 179,30 "/>
  <polygon class="fil0" points="179,50 513,50 513,80 179,80 "/>
  <polygon class="fil0" points="179,100 513,100 513,130 179,130 "/>
  <polygon class="fil0" points="179,229 513,229 513,259 179,259 "/>
  <polygon class="fil0" points="179,279 513,279 513,309 179,309 "/>
  <polygon class="fil0" points="179,407 513,407 513,437 179,437 "/>
  <polygon class="fil0" points="179,457 513,457 513,487 179,487 "/>
 </g>
</svg>
