<?xml version="1.0" encoding="UTF-8"?>
<!DOCTYPE svg PUBLIC "-//W3C//DTD SVG 1.1//EN" "http://www.w3.org/Graphics/SVG/1.1/DTD/svg11.dtd">
<!-- Creator: CorelDRAW X7 -->
<svg xmlns="http://www.w3.org/2000/svg" xml:space="preserve" width="512px" height="512px" version="1.1" style="shape-rendering:geometricPrecision; text-rendering:geometricPrecision; image-rendering:optimizeQuality; fill-rule:evenodd; clip-rule:evenodd"
viewBox="0 0 512 512"
 xmlns:xlink="http://www.w3.org/1999/xlink">
 <defs>
  <style type="text/css">
   <![CDATA[
    .fil0 {fill:black}
   ]]>
  </style>
 </defs>
 <g id="Layer_x0020_1">
  <metadata id="CorelCorpID_0Corel-Layer"/>
  <path class="fil0" d="M61 61c81,-81 213,-81 294,0 68,68 79,171 31,250 0,0 -4,6 1,11l106 106c12,12 19,27 19,41l0 0c0,11 -4,20 -12,28l-3 3c-19,19 -48,14 -69,-7l-106 -106c-5,-5 -11,-1 -11,-1 -79,48 -182,37 -250,-31 -81,-81 -81,-213 0,-294zm38 255c60,60 157,60 217,0 60,-60 60,-157 0,-217 -60,-60 -157,-60 -217,0 -60,60 -60,157 0,217z"/>
  <path class="fil0" d="M160 137c27,0 44,29 48,29 3,0 19,-29 47,-29 27,0 49,22 50,49 1,15 -4,26 -11,37 -14,21 -74,71 -86,71 -13,0 -73,-50 -87,-71 -7,-11 -12,-22 -11,-37 1,-27 23,-49 50,-49z"/>
 </g>
</svg>
