<?xml version="1.0" encoding="UTF-8"?>
<!DOCTYPE svg PUBLIC "-//W3C//DTD SVG 1.1//EN" "http://www.w3.org/Graphics/SVG/1.1/DTD/svg11.dtd">
<!-- Creator: CorelDRAW X7 -->
<svg xmlns="http://www.w3.org/2000/svg" xml:space="preserve" width="577px" height="512px" version="1.1" style="shape-rendering:geometricPrecision; text-rendering:geometricPrecision; image-rendering:optimizeQuality; fill-rule:evenodd; clip-rule:evenodd"
viewBox="0 0 577 512"
 xmlns:xlink="http://www.w3.org/1999/xlink">
 <defs>
  <style type="text/css">
   <![CDATA[
    .fil0 {fill:black}
   ]]>
  </style>
 </defs>
 <g id="Layer_x0020_1">
  <metadata id="CorelCorpID_0Corel-Layer"/>
  <path class="fil0" d="M289 0c-159,0 -289,130 -289,289 0,90 41,170 106,223l366 0c64,-53 105,-133 105,-223 0,-159 -129,-289 -288,-289zm162 209l44 -19c6,-2 13,1 16,7 3,6 0,13 -7,15l-44 19 -5 1c-4,0 -9,-3 -11,-8 -2,-6 1,-13 7,-15zm-104 -92l18 -44c3,-6 10,-9 16,-7 6,3 9,10 6,16l-18 45c-2,4 -7,7 -11,7l-5 -1c-6,-2 -9,-9 -6,-16zm-70 -52c0,-7 5,-12 12,-12 6,0 12,5 12,12l0 48c0,6 -6,12 -12,12 -7,0 -12,-6 -12,-12l0 -48zm-80 1c6,-2 13,1 15,7l19 44c2,7 -1,14 -7,16l-4 1c-5,0 -10,-3 -11,-7l-19 -45c-2,-6 1,-13 7,-16zm-150 227c0,-6 5,-12 12,-12l48 0c7,0 12,6 12,12 0,7 -5,12 -12,12l-48 0c-7,0 -12,-5 -12,-12zm80 76l-45 18 -4 1c-5,0 -10,-3 -12,-7 -2,-6 1,-13 7,-16l44 -18c7,-3 14,0 16,6 3,6 0,13 -6,16zm6 -145c-2,5 -6,8 -11,8l-5 -1 -44 -19c-6,-2 -9,-9 -7,-15 3,-7 10,-9 16,-7l45 19c6,2 9,9 6,15zm20 -54l-34 -34c-5,-5 -5,-13 0,-17 4,-5 12,-5 17,0l34 34c4,4 4,12 0,17 -3,2 -6,3 -9,3 -3,0 -6,-1 -8,-3zm256 283c0,7 -6,19 -13,19l-217 0c-6,0 -11,-12 -11,-19l0 -41c0,-6 6,-12 12,-12l217 0c7,0 12,6 12,12l0 41zm-79 -189c4,8 7,16 7,25 0,26 -22,48 -48,48 -27,0 -48,-22 -48,-48 0,-27 21,-48 48,-48 9,0 17,2 24,6l165 -142 -148 159zm181 117c-2,4 -6,7 -11,7l-5 -1 -44 -18c-6,-3 -9,-10 -7,-16 3,-6 10,-9 16,-6l44 18c7,3 10,10 7,16zm6 -80l-48 0c-6,0 -12,-6 -12,-12 0,-7 6,-12 12,-12l0 0 48 0c7,0 12,5 12,12 0,6 -5,12 -12,12z"/>
 </g>
</svg>
