<?xml version="1.0" encoding="UTF-8"?>
<!DOCTYPE svg PUBLIC "-//W3C//DTD SVG 1.1//EN" "http://www.w3.org/Graphics/SVG/1.1/DTD/svg11.dtd">
<!-- Creator: CorelDRAW X7 -->
<svg xmlns="http://www.w3.org/2000/svg" xml:space="preserve" width="690px" height="512px" version="1.1" style="shape-rendering:geometricPrecision; text-rendering:geometricPrecision; image-rendering:optimizeQuality; fill-rule:evenodd; clip-rule:evenodd"
viewBox="0 0 690 512"
 xmlns:xlink="http://www.w3.org/1999/xlink">
 <defs>
  <style type="text/css">
   <![CDATA[
    .fil0 {fill:black}
   ]]>
  </style>
 </defs>
 <g id="Layer_x0020_1">
  <metadata id="CorelCorpID_0Corel-Layer"/>
  <path class="fil0" d="M681 244l-77 -59c-7,-5 -17,-6 -25,-2 -8,3 -13,11 -13,20l0 36 -22 0 0 -36c0,-13 -11,-23 -24,-23l-46 0 0 -86c0,-13 -10,-23 -23,-23l-72 0 0 -25 20 0c12,0 23,-10 23,-23 0,-13 -11,-23 -23,-23l-150 0c-12,0 -23,10 -23,23 0,13 11,23 23,23l20 0 0 25 -90 0c-12,0 -23,10 -23,23l0 45 -45 0c-13,0 -23,10 -23,23l0 53 -42 0 0 -66c0,-12 -10,-23 -23,-23 -13,0 -23,11 -23,23l0 242c0,13 10,23 23,23 13,0 23,-10 23,-23l0 -65 42 0 0 54c0,13 10,23 23,23l58 0 82 100c4,6 11,9 18,9l251 0c13,0 24,-10 24,-23l0 -31 22 0 0 31c0,9 6,17 14,21 3,1 6,2 10,2 5,0 10,-2 15,-6l77 -66c5,-4 8,-11 8,-17l0 -161c0,-7 -3,-14 -9,-18z"/>
 </g>
</svg>
