<?xml version="1.0" encoding="UTF-8"?>
<!DOCTYPE svg PUBLIC "-//W3C//DTD SVG 1.1//EN" "http://www.w3.org/Graphics/SVG/1.1/DTD/svg11.dtd">
<!-- Creator: CorelDRAW X7 -->
<svg xmlns="http://www.w3.org/2000/svg" xml:space="preserve" width="499px" height="512px" version="1.1" style="shape-rendering:geometricPrecision; text-rendering:geometricPrecision; image-rendering:optimizeQuality; fill-rule:evenodd; clip-rule:evenodd"
viewBox="0 0 499 512"
 xmlns:xlink="http://www.w3.org/1999/xlink">
 <defs>
  <style type="text/css">
   <![CDATA[
    .fil0 {fill:black}
   ]]>
  </style>
 </defs>
 <g id="Layer_x0020_1">
  <metadata id="CorelCorpID_0Corel-Layer"/>
  <path class="fil0" d="M306 221l0 -180c0,-22 -19,-41 -41,-41l-224 0c-22,0 -41,19 -41,41l0 430c0,22 19,41 41,41l224 0c22,0 41,-19 41,-41l0 -227 0 -23zm-45 -7l-212 0 0 -165 212 0 0 165z"/>
  <path class="fil0" d="M397 45l-22 22 32 32 0 62 61 0 0 270c0,41 -26,46 -46,46 -37,0 -45,-36 -46,-44l0 -184 -73 0 0 30 42 0 0 156 1 2c3,24 23,70 76,70 48,0 77,-28 77,-76l0 -283 -102 -103zm25 101l0 -32 32 32 -32 0z"/>
 </g>
</svg>
