<?xml version="1.0" encoding="UTF-8"?>
<!DOCTYPE svg PUBLIC "-//W3C//DTD SVG 1.1//EN" "http://www.w3.org/Graphics/SVG/1.1/DTD/svg11.dtd">
<!-- Creator: CorelDRAW X7 -->
<svg xmlns="http://www.w3.org/2000/svg" xml:space="preserve" width="420px" height="512px" version="1.1" style="shape-rendering:geometricPrecision; text-rendering:geometricPrecision; image-rendering:optimizeQuality; fill-rule:evenodd; clip-rule:evenodd"
viewBox="0 0 420 512"
 xmlns:xlink="http://www.w3.org/1999/xlink">
 <defs>
  <style type="text/css">
   <![CDATA[
    .fil0 {fill:black}
   ]]>
  </style>
 </defs>
 <g id="Layer_x0020_1">
  <metadata id="CorelCorpID_0Corel-Layer"/>
  <path class="fil0" d="M63 372c-31,3 -23,16 -22,37 -14,0 -25,4 -24,13l2 24c-24,5 -18,7 -18,66l419 0c0,-75 8,-69 -60,-60 -24,3 -53,8 -76,8l-3 -14c37,0 85,-14 121,-15 -1,-13 -5,-33 -10,-44 -38,4 -74,11 -104,18 -18,3 -22,4 -26,-14 32,-3 84,-18 116,-18 0,-10 -1,-18 -3,-27 -3,-12 -8,-16 -13,-18 -7,-2 -22,1 -31,3 -21,4 -77,18 -92,19 -1,-13 -5,-14 12,-18l77 -15c-1,-49 -16,-42 -137,-12l-125 30c-13,6 -11,19 -3,37z"/>
  <path class="fil0" d="M115 170l34 132 0 3 69 -17 -33 -133c-19,13 -46,17 -70,15z"/>
  <path class="fil0" d="M131 0c44,0 80,36 80,80 0,44 -36,80 -80,80 -44,0 -80,-36 -80,-80 0,-44 36,-80 80,-80z"/>
 </g>
</svg>
