<?xml version="1.0" encoding="UTF-8"?>
<!DOCTYPE svg PUBLIC "-//W3C//DTD SVG 1.1//EN" "http://www.w3.org/Graphics/SVG/1.1/DTD/svg11.dtd">
<!-- Creator: CorelDRAW X7 -->
<svg xmlns="http://www.w3.org/2000/svg" xml:space="preserve" width="505px" height="512px" version="1.1" style="shape-rendering:geometricPrecision; text-rendering:geometricPrecision; image-rendering:optimizeQuality; fill-rule:evenodd; clip-rule:evenodd"
viewBox="0 0 505 512"
 xmlns:xlink="http://www.w3.org/1999/xlink">
 <defs>
  <style type="text/css">
   <![CDATA[
    .fil0 {fill:black}
   ]]>
  </style>
 </defs>
 <g id="Layer_x0020_1">
  <metadata id="CorelCorpID_0Corel-Layer"/>
  <path class="fil0" d="M378 108c20,0 35,-16 35,-35l0 -37c0,-20 -15,-36 -35,-36 -20,0 -36,16 -36,36l0 37c0,19 16,35 36,35z"/>
  <path class="fil0" d="M504 61l-71 0 0 18c0,30 -25,55 -54,55 -30,0 -54,-25 -54,-55l0 -18 -145 0 0 18c0,30 -24,55 -54,55 -30,0 -54,-25 -54,-55l0 -18 -72 0 0 451 469 0 36 0 -1 -451zm-35 415l-433 0 0 -288 433 0 0 288z"/>
  <path class="fil0" d="M126 108c19,0 35,-16 35,-35l0 -37c0,-20 -16,-36 -35,-36 -20,0 -36,16 -36,36l0 37c0,19 16,35 36,35z"/>
  <polygon class="fil0" points="180,226 237,226 237,276 180,276 "/>
  <polygon class="fil0" points="272,226 329,226 329,276 272,276 "/>
  <polygon class="fil0" points="357,226 414,226 414,276 357,276 "/>
  <polygon class="fil0" points="180,310 237,310 237,360 180,360 "/>
  <polygon class="fil0" points="272,310 329,310 329,360 272,360 "/>
  <polygon class="fil0" points="357,310 414,310 414,360 357,360 "/>
  <polygon class="fil0" points="180,395 237,395 237,445 180,445 "/>
  <polygon class="fil0" points="90,310 147,310 147,360 90,360 "/>
  <polygon class="fil0" points="90,395 147,395 147,445 90,445 "/>
  <polygon class="fil0" points="272,395 329,395 329,445 272,445 "/>
  <polygon class="fil0" points="357,395 414,395 414,445 357,445 "/>
 </g>
</svg>
