<?xml version="1.0" encoding="UTF-8"?>
<!DOCTYPE svg PUBLIC "-//W3C//DTD SVG 1.1//EN" "http://www.w3.org/Graphics/SVG/1.1/DTD/svg11.dtd">
<!-- Creator: CorelDRAW X7 -->
<svg xmlns="http://www.w3.org/2000/svg" xml:space="preserve" width="630px" height="512px" version="1.1" style="shape-rendering:geometricPrecision; text-rendering:geometricPrecision; image-rendering:optimizeQuality; fill-rule:evenodd; clip-rule:evenodd"
viewBox="0 0 630 512"
 xmlns:xlink="http://www.w3.org/1999/xlink">
 <defs>
  <style type="text/css">
   <![CDATA[
    .fil0 {fill:black}
   ]]>
  </style>
 </defs>
 <g id="Layer_x0020_1">
  <metadata id="CorelCorpID_0Corel-Layer"/>
  <path class="fil0" d="M187 295c0,71 57,128 128,128 71,0 128,-57 128,-128 0,-70 -57,-128 -128,-128 -71,0 -128,58 -128,128zm404 -216l-138 0c-10,-40 -20,-79 -59,-79l-158 0c-39,0 -49,39 -59,79l-138 0c-21,0 -39,17 -39,39l0 355c0,21 18,39 39,39l552 0c21,0 39,-18 39,-39l0 -355c0,-22 -18,-39 -39,-39zm-276 391c-96,0 -175,-78 -175,-175 0,-96 79,-174 175,-174 97,0 175,78 175,174 0,97 -78,175 -175,175zm276 -273l-79 0 0 -39 79 0 0 39z"/>
 </g>
</svg>
