<?xml version="1.0" encoding="UTF-8"?>
<!DOCTYPE svg PUBLIC "-//W3C//DTD SVG 1.1//EN" "http://www.w3.org/Graphics/SVG/1.1/DTD/svg11.dtd">
<!-- Creator: CorelDRAW X7 -->
<svg xmlns="http://www.w3.org/2000/svg" xml:space="preserve" width="652px" height="512px" version="1.1" style="shape-rendering:geometricPrecision; text-rendering:geometricPrecision; image-rendering:optimizeQuality; fill-rule:evenodd; clip-rule:evenodd"
viewBox="0 0 652 512"
 xmlns:xlink="http://www.w3.org/1999/xlink">
 <defs>
  <style type="text/css">
   <![CDATA[
    .fil0 {fill:black}
   ]]>
  </style>
 </defs>
 <g id="Layer_x0020_1">
  <metadata id="CorelCorpID_0Corel-Layer"/>
  <path class="fil0" d="M358 424l0 7 240 0 0 -88 54 0 0 -235 -9 1c-11,0 -19,-9 -19,-19l0 -9 -598 0 0 8c0,0 0,1 0,1 0,10 -8,19 -19,19l-7 0 0 234 38 0 0 88 256 0 0 -7c0,-18 14,-33 32,-33 18,0 32,15 32,33zm-100 -158l-30 0 -27 -36 -9 0 0 36 -25 0 0 -99 40 0c5,0 10,1 14,1 4,1 8,2 11,4 4,3 7,6 9,9 2,4 3,8 3,13 0,8 -2,14 -5,19 -4,4 -8,8 -14,11l33 42zm-40 -69c0,-2 0,-4 -1,-6 -1,-2 -3,-3 -5,-4 -1,-1 -3,-1 -5,-1 -2,-1 -4,-1 -7,-1l-8 0 0 27 7 0c3,0 6,0 9,-1 2,0 4,-1 6,-2 1,-2 2,-3 3,-5 1,-2 1,-4 1,-7zm55 69l33 -99 27 0 34 99 -26 0 -6 -20 -31 0 -6 20 -25 0zm57 -38l-10 -33 -11 33 21 0zm155 38l-24 0 0 -66 -18 43 -17 0 -18 -43 0 66 -24 0 0 -99 29 0 22 49 22 -49 28 0 0 99zm-205 150l-227 0 0 -73 43 0 0 58 14 0 0 -58 17 0 0 58 14 0 0 -58 16 0 0 58 15 0 0 -58 14 0 0 58 15 0 0 -58 16 0 0 58 15 0 0 -58 15 0 0 58 15 0 0 -58 121 0 0 58 14 0 0 -58 17 0 0 58 14 0 0 -58 16 0 0 58 15 0 0 -58 14 0 0 58 15 0 0 -58 16 0 0 58 15 0 0 -58 16 0 0 58 14 0 0 -58 34 0 0 73 -210 0c-4,-23 -24,-39 -47,-39 -23,0 -43,16 -46,39z"/>
 </g>
</svg>
