<?xml version="1.0" encoding="UTF-8"?>
<!DOCTYPE svg PUBLIC "-//W3C//DTD SVG 1.1//EN" "http://www.w3.org/Graphics/SVG/1.1/DTD/svg11.dtd">
<!-- Creator: CorelDRAW X7 -->
<svg xmlns="http://www.w3.org/2000/svg" xml:space="preserve" width="451px" height="512px" version="1.1" style="shape-rendering:geometricPrecision; text-rendering:geometricPrecision; image-rendering:optimizeQuality; fill-rule:evenodd; clip-rule:evenodd"
viewBox="0 0 451 512"
 xmlns:xlink="http://www.w3.org/1999/xlink">
 <defs>
  <style type="text/css">
   <![CDATA[
    .fil0 {fill:black}
    .fil1 {fill:black}
   ]]>
  </style>
 </defs>
 <g id="Layer_x0020_1">
  <metadata id="CorelCorpID_0Corel-Layer"/>
  <g id="_2218219206800">
   <path class="fil0" d="M380 429l-31 0c-7,0 -13,6 -13,13 0,7 6,13 13,13l31 0c8,0 13,-6 13,-13 0,-7 -5,-13 -13,-13z"/>
   <path class="fil0" d="M75 429l-1 0c-7,0 -12,6 -12,13 0,7 5,13 12,13l1 0c7,0 13,-6 13,-13 0,-7 -6,-13 -13,-13z"/>
   <path class="fil1" d="M451 40l0 432c0,22 -18,40 -40,40l-371 0c-22,0 -40,-18 -40,-40l0 -432c0,-22 18,-40 40,-40l371 0c22,0 40,18 40,40zm-314 202c0,1 0,2 -1,2 0,0 0,1 -1,1 -1,0 -2,0 -4,1 -1,0 -4,0 -6,0 -3,0 -4,0 -6,0 -1,-1 -2,-1 -3,-1 -1,0 -1,-1 -2,-1 0,-1 0,-1 0,-2l-10 -23c-1,-3 -2,-6 -3,-8 -1,-2 -3,-3 -4,-5 -1,-1 -3,-2 -4,-3 -2,-1 -4,-1 -7,-1l-6 0 0 40c0,1 0,1 -1,2 0,0 -1,1 -1,1 -1,0 -2,0 -4,0 -1,1 -3,1 -5,1 -2,0 -4,0 -5,-1 -1,0 -3,0 -3,0 -1,0 -2,-1 -2,-1 0,-1 -1,-1 -1,-2l0 -95c0,-3 1,-4 2,-6 2,-1 3,-1 5,-1l27 0c3,0 5,0 7,0 2,0 3,0 5,0 4,1 8,2 11,4 4,1 6,3 9,5 2,3 4,5 5,9 2,3 2,7 2,11 0,3 0,6 -1,9 -1,3 -2,6 -4,8 -2,2 -4,4 -7,6 -2,2 -5,3 -8,4 1,1 3,2 4,3 2,1 3,2 4,4 1,1 2,3 4,5 1,2 2,4 3,7l9 21c0,2 1,3 1,4 0,1 1,2 1,2zm-28 -71c0,-4 -1,-6 -2,-9 -2,-2 -5,-4 -8,-5 -1,0 -2,0 -4,-1 -1,0 -3,0 -6,0l-9 0 0 30 11 0c3,0 5,0 8,-1 2,-1 4,-2 5,-3 2,-1 3,-3 4,-5 1,-2 1,-4 1,-6zm140 20c0,9 -1,17 -3,24 -2,7 -6,12 -10,17 -4,5 -9,9 -16,11 -6,3 -13,4 -22,4 -8,0 -15,-1 -21,-3 -6,-2 -11,-6 -15,-10 -4,-4 -7,-10 -10,-17 -2,-7 -3,-15 -3,-24 0,-8 2,-16 4,-23 2,-7 5,-12 9,-17 5,-5 10,-9 16,-11 7,-3 14,-4 22,-4 8,0 15,1 21,3 6,2 12,6 16,10 4,4 7,10 9,17 2,6 3,14 3,23zm-22 1c0,-5 -1,-10 -2,-15 -1,-4 -2,-8 -4,-11 -2,-4 -5,-6 -8,-8 -4,-2 -8,-2 -13,-2 -6,0 -10,1 -14,3 -3,1 -6,4 -8,7 -2,4 -4,8 -5,12 -1,4 -1,9 -1,14 0,6 0,11 1,16 1,4 3,8 5,11 2,4 4,6 8,8 3,2 8,2 13,2 5,0 10,-1 13,-3 4,-2 7,-4 9,-8 2,-3 3,-7 4,-11 1,-5 2,-10 2,-15zm167 50c0,1 -1,1 -1,2 0,0 -1,1 -2,1 0,0 -1,0 -3,0 -1,1 -3,1 -5,1 -2,0 -3,0 -5,-1 -1,0 -2,0 -3,0 0,0 -1,-1 -1,-1 -1,-1 -1,-1 -1,-2l0 -85 0 0 -30 85c-1,1 -1,1 -1,2 -1,0 -2,1 -2,1 -1,0 -2,1 -4,1 -1,0 -2,0 -4,0 -2,0 -4,0 -5,0 -1,-1 -2,-1 -3,-1 -1,0 -2,-1 -2,-1 -1,-1 -1,-1 -1,-2l-30 -85 0 0 0 85c0,1 0,1 0,2 -1,0 -1,1 -2,1 -1,0 -2,0 -3,0 -1,1 -3,1 -5,1 -2,0 -4,0 -5,-1 -1,0 -2,0 -3,0 -1,0 -1,-1 -2,-1 0,-1 0,-1 0,-2l0 -94c0,-2 1,-4 2,-6 2,-1 4,-2 6,-2l14 0c2,0 5,0 6,0 2,1 4,2 5,3 1,0 2,2 3,3 1,2 2,4 3,6l22 63 1 0 23 -63c1,-2 2,-4 2,-6 1,-1 2,-2 3,-3 2,-1 3,-2 4,-3 2,0 4,0 6,0l14 0c2,0 3,0 4,0 1,1 2,1 2,2 1,1 2,2 2,3 0,1 1,2 1,3l0 94zm31 170c0,-8 -6,-14 -14,-14l-371 0c-8,0 -14,6 -14,14l0 60c0,8 6,14 14,14l371 0c8,0 14,-6 14,-14l0 -60z"/>
  </g>
 </g>
</svg>
