<?xml version="1.0" encoding="UTF-8"?>
<!DOCTYPE svg PUBLIC "-//W3C//DTD SVG 1.1//EN" "http://www.w3.org/Graphics/SVG/1.1/DTD/svg11.dtd">
<!-- Creator: CorelDRAW X7 -->
<svg xmlns="http://www.w3.org/2000/svg" xml:space="preserve" width="451px" height="512px" version="1.1" style="shape-rendering:geometricPrecision; text-rendering:geometricPrecision; image-rendering:optimizeQuality; fill-rule:evenodd; clip-rule:evenodd"
viewBox="0 0 451 512"
 xmlns:xlink="http://www.w3.org/1999/xlink">
 <defs>
  <style type="text/css">
   <![CDATA[
    .fil0 {fill:black}
   ]]>
  </style>
 </defs>
 <g id="Layer_x0020_1">
  <metadata id="CorelCorpID_0Corel-Layer"/>
  <g id="_2182249218544">
   <path class="fil0" d="M380 429l-31 0c-7,0 -13,6 -13,13 0,7 6,13 13,13l31 0c8,0 13,-6 13,-13 0,-7 -5,-13 -13,-13z"/>
   <path class="fil0" d="M75 429l-1 0c-7,0 -12,6 -12,13 0,7 5,13 12,13l1 0c7,0 13,-6 13,-13 0,-7 -6,-13 -13,-13z"/>
   <path class="fil0" d="M451 40l0 432c0,22 -18,40 -40,40l-371 0c-22,0 -40,-18 -40,-40l0 -432c0,-22 18,-40 40,-40l371 0c22,0 40,18 40,40zm-307 177c0,7 -2,13 -4,18 -2,5 -6,9 -10,12 -4,4 -9,6 -15,8 -6,2 -12,2 -18,2 -4,0 -9,0 -12,-1 -4,0 -7,-1 -10,-2 -3,-1 -5,-2 -7,-4 -2,-1 -4,-2 -5,-3 0,0 -1,-2 -1,-3 -1,-2 -1,-4 -1,-7 0,-2 0,-4 0,-5 0,-2 1,-3 1,-3 0,-1 1,-2 1,-2 1,-1 1,-1 2,-1 1,0 2,1 4,2 1,1 4,2 6,3 3,2 6,3 9,4 4,1 8,2 13,2 3,0 6,-1 8,-2 3,0 5,-1 7,-3 2,-1 3,-3 4,-5 1,-2 1,-4 1,-6 0,-3 -1,-6 -2,-8 -2,-2 -4,-4 -6,-5 -3,-2 -6,-3 -9,-5 -3,-1 -6,-3 -10,-4 -3,-2 -6,-4 -10,-6 -3,-1 -6,-4 -8,-7 -3,-2 -5,-6 -6,-9 -2,-4 -3,-9 -3,-14 0,-6 1,-11 4,-16 2,-5 5,-8 9,-11 4,-3 8,-6 13,-7 5,-2 11,-2 17,-2 3,0 6,0 9,0 3,1 5,1 8,2 3,1 5,2 7,3 2,1 3,2 4,2 1,1 1,1 1,2 1,0 1,1 1,2 0,0 0,1 0,3 0,1 0,2 0,4 0,2 0,3 0,5 0,1 0,2 0,3 -1,1 -1,1 -1,2 -1,0 -1,0 -2,0 -1,0 -2,0 -3,-1 -2,-1 -4,-2 -6,-3 -2,-1 -5,-2 -8,-3 -3,-1 -6,-1 -10,-1 -3,0 -5,0 -7,1 -2,0 -4,1 -6,2 -1,2 -2,3 -3,5 0,1 -1,3 -1,5 0,3 1,5 3,7 1,2 3,4 6,6 2,1 5,3 9,4 3,2 6,3 10,5 3,1 6,3 9,5 4,2 7,5 9,7 3,3 5,6 6,10 2,4 3,8 3,13zm108 0c0,7 -1,13 -4,18 -2,5 -6,9 -10,12 -4,4 -9,6 -15,8 -5,2 -12,2 -18,2 -4,0 -8,0 -12,-1 -4,0 -7,-1 -10,-2 -3,-1 -5,-2 -7,-4 -2,-1 -4,-2 -4,-3 -1,0 -2,-2 -2,-3 -1,-2 -1,-4 -1,-7 0,-2 0,-4 0,-5 1,-2 1,-3 1,-3 0,-1 1,-2 1,-2 1,-1 1,-1 2,-1 1,0 2,1 4,2 1,1 4,2 6,3 3,2 6,3 10,4 3,1 7,2 12,2 3,0 6,-1 9,-2 2,0 4,-1 6,-3 2,-1 3,-3 4,-5 1,-2 1,-4 1,-6 0,-3 -1,-6 -2,-8 -2,-2 -4,-4 -6,-5 -3,-2 -6,-3 -9,-5 -3,-1 -6,-3 -10,-4 -3,-2 -6,-4 -10,-6 -3,-1 -6,-4 -8,-7 -3,-2 -5,-6 -6,-9 -2,-4 -3,-9 -3,-14 0,-6 2,-11 4,-16 2,-5 5,-8 9,-11 4,-3 8,-6 13,-7 5,-2 11,-2 17,-2 3,0 6,0 9,0 3,1 6,1 8,2 3,1 5,2 7,3 2,1 3,2 4,2 1,1 1,1 1,2 1,0 1,1 1,2 0,0 0,1 0,3 0,1 0,2 0,4 0,2 0,3 0,5 0,1 0,2 0,3 0,1 -1,1 -1,2 -1,0 -1,0 -2,0 -1,0 -2,0 -3,-1 -2,-1 -4,-2 -6,-3 -2,-1 -5,-2 -8,-3 -3,-1 -6,-1 -10,-1 -3,0 -5,0 -7,1 -2,0 -4,1 -5,2 -2,2 -3,3 -4,5 0,1 -1,3 -1,5 0,3 1,5 3,7 1,2 3,4 6,6 2,1 5,3 9,4 3,2 6,3 10,5 3,1 6,3 10,5 3,2 6,5 8,7 3,3 5,6 6,10 2,4 3,8 3,13zm138 -27c0,12 -2,22 -5,30 -3,8 -7,15 -13,20 -5,5 -12,9 -20,12 -8,2 -18,3 -29,3l-30 0c-3,0 -4,0 -6,-2 -1,-1 -2,-3 -2,-6l0 -110c0,-3 1,-5 2,-6 2,-2 3,-2 6,-2l32 0c11,0 21,1 29,4 7,2 14,6 19,11 6,6 10,12 13,20 2,7 4,16 4,26zm-27 1c0,-6 0,-12 -2,-17 -1,-5 -3,-9 -7,-13 -3,-4 -7,-7 -11,-9 -5,-2 -12,-3 -20,-3l-13 0 0 86 14 0c7,0 13,-1 18,-3 4,-2 8,-5 12,-8 3,-4 5,-8 7,-14 1,-5 2,-12 2,-19zm62 221c0,-8 -6,-14 -14,-14l-371 0c-8,0 -14,6 -14,14l0 60c0,8 6,14 14,14l371 0c8,0 14,-6 14,-14l0 -60z"/>
  </g>
 </g>
</svg>
