<?xml version="1.0" encoding="UTF-8"?>
<!DOCTYPE svg PUBLIC "-//W3C//DTD SVG 1.1//EN" "http://www.w3.org/Graphics/SVG/1.1/DTD/svg11.dtd">
<!-- Creator: CorelDRAW X7 -->
<svg xmlns="http://www.w3.org/2000/svg" xml:space="preserve" width="728px" height="512px" version="1.1" style="shape-rendering:geometricPrecision; text-rendering:geometricPrecision; image-rendering:optimizeQuality; fill-rule:evenodd; clip-rule:evenodd"
viewBox="0 0 728 512"
 xmlns:xlink="http://www.w3.org/1999/xlink">
 <defs>
  <style type="text/css">
   <![CDATA[
    .fil0 {fill:black}
   ]]>
  </style>
 </defs>
 <g id="Layer_x0020_1">
  <metadata id="CorelCorpID_0Corel-Layer"/>
  <path class="fil0" d="M0 0l0 512 728 0 0 -512 -728 0zm181 41l0 329 506 0 0 -80c-134,0 -267,1 -400,1l0 -250 -106 0zm506 362c-180,0 -360,0 -540,0l0 -362 -106 0 0 428 646 0 0 -66zm-367 -362l0 216 367 0 0 -69c-89,0 -177,1 -266,1l0 -148 -101 0zm135 0l0 114 232 0 0 -114 -232 0z"/>
 </g>
</svg>
