<?xml version="1.0" encoding="UTF-8"?>
<!DOCTYPE svg PUBLIC "-//W3C//DTD SVG 1.1//EN" "http://www.w3.org/Graphics/SVG/1.1/DTD/svg11.dtd">
<!-- Creator: CorelDRAW X7 -->
<svg xmlns="http://www.w3.org/2000/svg" xml:space="preserve" width="492px" height="512px" version="1.1" style="shape-rendering:geometricPrecision; text-rendering:geometricPrecision; image-rendering:optimizeQuality; fill-rule:evenodd; clip-rule:evenodd"
viewBox="0 0 492 512"
 xmlns:xlink="http://www.w3.org/1999/xlink">
 <defs>
  <style type="text/css">
   <![CDATA[
    .fil0 {fill:black}
    .fil1 {fill:black;fill-rule:nonzero}
   ]]>
  </style>
 </defs>
 <g id="Layer_x0020_1">
  <metadata id="CorelCorpID_0Corel-Layer"/>
  <path class="fil0" d="M492 116l-71 -85 -48 41c-22,-14 -46,-25 -72,-32l0 -39 39 0 0 -65 -161 0 0 65 45 0 0 32c-125,8 -224,112 -224,239 0,132 108,240 240,240 132,0 240,-108 240,-240 0,-43 -12,-84 -32,-119l44 -37zm-243 351l0 -57 -9 0 0 57c-51,0 -97,-20 -132,-52 4,-2 7,-7 7,-12 0,-9 -7,-15 -15,-15 -5,0 -9,2 -12,6 -27,-33 -43,-76 -43,-122l48 0 0 -9 -48 0c2,-48 22,-91 52,-123 3,3 7,5 12,5 8,0 15,-7 15,-15 0,-4 -2,-8 -5,-11 33,-26 75,-42 121,-42l0 65 9 0 0 -65c41,2 79,17 110,41 -3,2 -4,5 -4,9 0,9 7,15 15,15 5,0 8,-1 11,-4 31,33 51,76 54,125l-46 0 0 9 46 0c0,38 -11,74 -30,104 -3,-2 -6,-4 -9,-4 -9,0 -16,7 -16,16 0,5 3,9 7,12 -34,39 -83,64 -138,67z"/>
  <path class="fil0" d="M252 130l0 75c32,6 57,33 59,67l74 -12c-7,-69 -63,-124 -133,-130z"/>
  <path class="fil1" d="M226 386l23 0 -4 -88 -31 0 -7 24c-2,9 -5,21 -8,32l0 0c-2,-11 -5,-23 -7,-32l-6 -24 -32 0 -5 88 21 0 2 -31c0,-10 1,-24 1,-36l0 0c2,12 5,25 7,35l8 31 18 0 9 -31c3,-10 7,-23 10,-35l0 0c0,14 0,26 0,36l1 31zm35 -4c5,3 16,6 26,6 26,0 38,-13 38,-29 0,-12 -7,-20 -23,-26 -11,-4 -16,-6 -16,-11 0,-4 4,-6 11,-6 9,0 16,2 19,4l5 -19c-6,-3 -13,-5 -24,-5 -22,0 -35,13 -35,28 0,13 10,22 25,27 10,3 14,6 14,10 0,4 -4,7 -12,7 -9,0 -18,-3 -23,-5l-5 19z"/>
 </g>
</svg>
