<?xml version="1.0" encoding="UTF-8"?>
<!DOCTYPE svg PUBLIC "-//W3C//DTD SVG 1.1//EN" "http://www.w3.org/Graphics/SVG/1.1/DTD/svg11.dtd">
<!-- Creator: CorelDRAW X7 -->
<svg xmlns="http://www.w3.org/2000/svg" xml:space="preserve" width="667px" height="512px" version="1.1" style="shape-rendering:geometricPrecision; text-rendering:geometricPrecision; image-rendering:optimizeQuality; fill-rule:evenodd; clip-rule:evenodd"
viewBox="0 0 667 512"
 xmlns:xlink="http://www.w3.org/1999/xlink">
 <defs>
  <style type="text/css">
   <![CDATA[
    .fil0 {fill:#030303}
   ]]>
  </style>
 </defs>
 <g id="Layer_x0020_1">
  <metadata id="CorelCorpID_0Corel-Layer"/>
  <path class="fil0" d="M628 101l-19 0 0 -16c0,-16 -13,-29 -29,-29l-70 0c-17,0 -30,13 -30,29l0 16 -4 0 -30 -102c-6,-22 -26,-37 -49,-37l-127 0c-23,0 -43,15 -50,37l-29 102 -5 0 0 -16c0,-16 -13,-29 -29,-29l-70 0c-16,0 -29,13 -29,29l0 16 -19 0c-22,0 -39,17 -39,38l0 334c0,22 17,39 39,39l589 0c21,0 39,-17 39,-39l0 -334c0,-21 -18,-38 -39,-38zm-365 -90c1,-2 4,-4 7,-4l127 0c3,0 6,2 6,4l26 90 -192 0 26 -90zm70 480c-102,0 -184,-83 -184,-185 0,-101 82,-184 184,-184 102,0 185,83 185,184 0,102 -83,185 -185,185z"/>
  <path class="fil0" d="M333 231c-41,0 -75,34 -75,75 0,42 34,76 75,76 42,0 76,-34 76,-76 0,-41 -34,-75 -76,-75z"/>
  <path class="fil0" d="M333 162c-80,0 -144,65 -144,144 0,80 64,145 144,145 80,0 145,-65 145,-145 0,-79 -65,-144 -145,-144zm0 267c-67,0 -122,-55 -122,-123 0,-67 55,-122 122,-122 68,0 123,55 123,122 0,68 -55,123 -123,123z"/>
 </g>
</svg>
