<?xml version="1.0" encoding="UTF-8"?>
<!DOCTYPE svg PUBLIC "-//W3C//DTD SVG 1.1//EN" "http://www.w3.org/Graphics/SVG/1.1/DTD/svg11.dtd">
<!-- Creator: CorelDRAW X7 -->
<svg xmlns="http://www.w3.org/2000/svg" xml:space="preserve" width="680px" height="512px" version="1.1" style="shape-rendering:geometricPrecision; text-rendering:geometricPrecision; image-rendering:optimizeQuality; fill-rule:evenodd; clip-rule:evenodd"
viewBox="0 0 680 512"
 xmlns:xlink="http://www.w3.org/1999/xlink">
 <defs>
  <style type="text/css">
   <![CDATA[
    .fil0 {fill:black}
   ]]>
  </style>
 </defs>
 <g id="Layer_x0020_1">
  <metadata id="CorelCorpID_0Corel-Layer"/>
  <path class="fil0" d="M469 9c-13,-3 -29,-7 -46,-9 -11,16 -57,27 -83,27l0 0c-27,0 -72,-11 -83,-27 -17,2 -33,6 -46,9 60,23 104,81 104,149 0,28 -7,54 -20,77l90 0c-13,-23 -20,-49 -20,-77 0,-68 44,-126 104,-149z"/>
  <path class="fil0" d="M148 16c-81,0 -148,66 -148,148l0 0c0,81 67,147 148,147 81,0 147,-66 147,-147 0,-82 -66,-148 -147,-148zm0 241c-51,0 -93,-42 -93,-93 0,-52 42,-94 93,-94 51,0 93,42 93,94 0,51 -42,93 -93,93z"/>
  <path class="fil0" d="M88 117c-20,26 -19,62 2,86 -7,-25 -3,-52 14,-74 17,-22 42,-33 68,-32 -29,-14 -64,-6 -84,20z"/>
  <path class="fil0" d="M532 16c-81,0 -147,66 -147,148 0,81 66,147 147,147 81,0 148,-66 148,-147 0,-82 -67,-148 -148,-148zm0 241c-51,0 -93,-42 -93,-93 0,-52 42,-94 93,-94 51,0 93,42 93,94 0,51 -42,93 -93,93z"/>
  <path class="fil0" d="M508 97c26,-1 51,10 68,32 17,22 21,49 14,74 21,-24 22,-60 2,-86 -20,-26 -55,-34 -84,-20z"/>
  <path class="fil0" d="M1 509l129 0 0 -31 -79 0 0 -1 78 -112 0 -21 -121 0 0 31 72 0 0 0 -79 114 0 20zm217 3l1 0c48,0 81,-33 81,-87 0,-46 -28,-84 -79,-84 -49,0 -80,37 -80,87 0,47 28,84 77,84zm177 0l0 0c48,0 81,-33 81,-87 0,-46 -28,-84 -78,-84 -49,0 -81,37 -81,87 0,47 29,84 78,84zm-175 -141c26,0 40,25 40,55 0,32 -14,56 -40,56 -25,0 -40,-23 -40,-55 0,-32 15,-56 40,-56zm177 0c25,0 40,25 40,55 0,32 -15,56 -40,56 -25,0 -41,-23 -41,-55 0,-32 15,-56 41,-56zm246 138l37 0 -9 -165 -49 0 -18 55c-5,18 -11,40 -15,59l-1 0c-4,-19 -9,-40 -14,-59l-16 -55 -50 0 -11 165 35 0 3 -63c1,-20 2,-46 3,-68l0 0c4,21 10,45 15,64l18 65 29 0 20 -65c7,-20 14,-43 19,-64l1 0c0,24 0,48 1,68l2 63z"/>
 </g>
</svg>
