<?xml version="1.0" encoding="UTF-8"?>
<!DOCTYPE svg PUBLIC "-//W3C//DTD SVG 1.1//EN" "http://www.w3.org/Graphics/SVG/1.1/DTD/svg11.dtd">
<!-- Creator: CorelDRAW X7 -->
<svg xmlns="http://www.w3.org/2000/svg" xml:space="preserve" width="623px" height="512px" version="1.1" style="shape-rendering:geometricPrecision; text-rendering:geometricPrecision; image-rendering:optimizeQuality; fill-rule:evenodd; clip-rule:evenodd"
viewBox="0 0 623 512"
 xmlns:xlink="http://www.w3.org/1999/xlink">
 <defs>
  <style type="text/css">
   <![CDATA[
    .fil0 {fill:black}
   ]]>
  </style>
 </defs>
 <g id="Layer_x0020_1">
  <metadata id="CorelCorpID_0Corel-Layer"/>
  <path class="fil0" d="M247 52c0,0 -67,12 -120,94l212 -2 -92 -92zm10 -6l153 148 -1 -130c0,0 -56,-39 -152,-18zm194 253c-31,0 -49,30 -49,70 0,41 18,69 50,69 31,0 49,-30 49,-70 0,-37 -18,-69 -50,-69zm133 -71l-17 0 -511 0 -17 0c-21,0 -39,18 -39,39l0 206c0,21 18,39 39,39l17 0 495 0 33 0c20,0 37,-16 39,-36l0 -212c-2,-20 -19,-36 -39,-36zm-336 157c-34,-12 -56,-31 -56,-60 0,-36 29,-63 78,-63 23,0 40,5 52,11l-10 37c-9,-4 -23,-9 -43,-9 -21,0 -30,9 -30,20 0,13 11,18 38,29 36,13 53,32 53,61 0,35 -26,64 -83,64 -23,0 -47,-6 -58,-13l9 -38c13,6 32,13 52,13 21,0 33,-9 33,-23 0,-12 -10,-20 -35,-29zm-92 -119l0 206 -46 0 0 -206 46 0zm293 209c-61,0 -97,-46 -97,-105 0,-61 40,-108 101,-108 63,0 97,48 97,105 0,67 -41,108 -101,108zm-328 -317c0,0 -17,25 -22,70l83 0 70 -71 -131 1zm394 32c0,0 -13,-68 -94,-121l1 159 54 0 39 -38zm7 38c-1,-8 -2,-16 -4,-25l-25 25 29 0zm-462 -18c-1,6 -2,12 -3,18l20 0c1,-5 1,-9 2,-14 23,-128 146,-213 273,-191 105,19 181,105 193,205l20 0c-12,-110 -95,-203 -209,-224 -139,-25 -271,68 -296,206z"/>
 </g>
</svg>
