<?xml version="1.0" encoding="UTF-8"?>
<!DOCTYPE svg PUBLIC "-//W3C//DTD SVG 1.1//EN" "http://www.w3.org/Graphics/SVG/1.1/DTD/svg11.dtd">
<!-- Creator: CorelDRAW X7 -->
<svg xmlns="http://www.w3.org/2000/svg" xml:space="preserve" width="615px" height="512px" version="1.1" style="shape-rendering:geometricPrecision; text-rendering:geometricPrecision; image-rendering:optimizeQuality; fill-rule:evenodd; clip-rule:evenodd"
viewBox="0 0 615 512"
 xmlns:xlink="http://www.w3.org/1999/xlink">
 <defs>
  <style type="text/css">
   <![CDATA[
    .fil0 {fill:black}
   ]]>
  </style>
 </defs>
 <g id="Layer_x0020_1">
  <metadata id="CorelCorpID_0Corel-Layer"/>
  <path class="fil0" d="M111 69c-28,0 -51,23 -51,52 0,28 23,52 51,52 29,0 52,-24 52,-52 0,-29 -23,-52 -52,-52z"/>
  <path class="fil0" d="M167 0l-111 0c-31,0 -56,25 -56,56l0 400c0,31 25,56 56,56l111 0c31,0 56,-25 56,-56l0 -400c0,-31 -25,-56 -56,-56zm-17 329l-77 0c-8,0 -15,-7 -15,-15 0,-8 7,-15 15,-15l77 0c8,0 15,7 15,15 0,8 -7,15 -15,15zm-39 -126c-44,0 -81,-37 -81,-82 0,-45 37,-82 81,-82 45,0 82,37 82,82 0,45 -37,82 -82,82z"/>
  <path class="fil0" d="M592 72l-339 0 0 227 339 0c13,0 23,-10 23,-22l0 -183c0,-12 -10,-22 -23,-22zm-50 102l-232 0c-8,0 -15,-6 -15,-14 0,-9 7,-15 15,-15l232 0c8,0 15,6 15,15 0,8 -7,14 -15,14z"/>
 </g>
</svg>
