<?xml version="1.0" encoding="UTF-8"?>
<!DOCTYPE svg PUBLIC "-//W3C//DTD SVG 1.1//EN" "http://www.w3.org/Graphics/SVG/1.1/DTD/svg11.dtd">
<!-- Creator: CorelDRAW X7 -->
<svg xmlns="http://www.w3.org/2000/svg" xml:space="preserve" width="512px" height="512px" version="1.1" style="shape-rendering:geometricPrecision; text-rendering:geometricPrecision; image-rendering:optimizeQuality; fill-rule:evenodd; clip-rule:evenodd"
viewBox="0 0 512 512"
 xmlns:xlink="http://www.w3.org/1999/xlink">
 <defs>
  <style type="text/css">
   <![CDATA[
    .fil0 {fill:black}
   ]]>
  </style>
 </defs>
 <g id="Layer_x0020_1">
  <metadata id="CorelCorpID_0Corel-Layer"/>
  <path class="fil0" d="M310 512l-108 0c-8,0 -15,-7 -15,-15l0 -42c-8,-3 -16,-6 -23,-10l-30 30c-3,3 -7,4 -11,4 -3,0 -7,-1 -10,-4l-76 -76c-6,-6 -6,-15 0,-21l30 -30c-4,-7 -7,-15 -10,-23l-42 0c-4,0 -8,-2 -11,-5 -2,-2 -4,-6 -4,-10l0 -108c0,-8 7,-15 15,-15l42 0c3,-8 6,-16 10,-23l-30 -30c-3,-3 -4,-7 -4,-11 0,-3 1,-7 4,-10l76 -76c3,-3 7,-4 10,-4 4,0 8,1 11,4l30 30c7,-4 15,-7 23,-10l0 -42c0,-8 7,-15 15,-15l108 0c8,0 15,7 15,15l0 42c8,3 16,6 23,10l30 -30c6,-6 15,-6 21,0l76 76c3,3 4,7 4,10 0,4 -1,8 -4,11l-30 30c4,8 7,15 10,23l42 0c8,0 15,7 15,15l0 108c0,4 -2,8 -4,10 -3,3 -7,5 -11,5l-42 0c-3,8 -6,16 -10,23l30 30c6,6 6,15 0,21l-76 76c-3,3 -7,4 -10,4 -4,0 -8,-1 -11,-4l-30 -30c-7,4 -15,7 -23,10l0 42c0,4 -2,8 -5,11 -2,2 -6,4 -10,4zm-93 -29l78 0 0 -39c0,-6 5,-12 11,-14 13,-4 26,-9 38,-16 6,-3 13,-2 17,3l28 27 55 -55 -27 -28c-5,-4 -6,-12 -3,-17 7,-12 12,-25 16,-38 2,-6 8,-11 14,-11l39 0 0 -78 -39 0c-6,0 -12,-5 -14,-11 -4,-13 -9,-26 -16,-38 -3,-6 -2,-13 3,-17l27 -28 -55 -55 -28 27c-4,5 -11,6 -17,3 -12,-7 -25,-12 -38,-16 -6,-2 -11,-8 -11,-14l0 -39 -78 0 0 39c0,6 -5,12 -11,14 -13,4 -26,9 -38,16 -5,3 -13,2 -17,-3l-28 -27 -55 55 27 28c5,4 6,11 3,17 -7,12 -12,25 -16,38 -2,6 -8,11 -14,11l-39 0 0 78 39 0c6,0 12,5 14,11 4,13 9,26 16,38 3,6 2,13 -3,17l-27 28 55 55 28 -27c4,-5 11,-6 17,-3 12,7 25,12 38,16 6,2 11,8 11,14l0 39z"/>
  <path class="fil0" d="M256 367c-61,0 -111,-50 -111,-111 0,-61 50,-111 111,-111 61,0 111,50 111,111 0,61 -50,111 -111,111zm0 -193c-45,0 -82,37 -82,82 0,45 37,82 82,82 45,0 82,-37 82,-82 0,-45 -37,-82 -82,-82z"/>
 </g>
</svg>
