<?xml version="1.0" encoding="UTF-8"?>
<!DOCTYPE svg PUBLIC "-//W3C//DTD SVG 1.1//EN" "http://www.w3.org/Graphics/SVG/1.1/DTD/svg11.dtd">
<!-- Creator: CorelDRAW X7 -->
<svg xmlns="http://www.w3.org/2000/svg" xml:space="preserve" width="512px" height="512px" version="1.1" style="shape-rendering:geometricPrecision; text-rendering:geometricPrecision; image-rendering:optimizeQuality; fill-rule:evenodd; clip-rule:evenodd"
viewBox="0 0 512 512"
 xmlns:xlink="http://www.w3.org/1999/xlink">
 <defs>
  <style type="text/css">
   <![CDATA[
    .fil0 {fill:black}
   ]]>
  </style>
 </defs>
 <g id="Layer_x0020_1">
  <metadata id="CorelCorpID_0Corel-Layer"/>
  <path class="fil0" d="M14 430c-19,19 -19,49 0,68 9,9 22,14 34,14 12,0 25,-5 34,-14l157 -158 -67 -67 -158 157z"/>
  <polygon class="fil0" points="408,138 476,103 512,33 479,0 409,36 374,104 290,188 324,222 "/>
  <path class="fil0" d="M423 320l-7 0c-12,0 -23,2 -33,6l-197 -197c4,-10 6,-21 6,-33l0 -7c-4,-50 -45,-89 -96,-89 -14,0 -28,4 -41,10l64 63c3,4 6,8 7,12 4,11 2,24 -7,33 -6,7 -14,10 -23,10 -3,0 -7,-1 -11,-2 -4,-2 -8,-4 -11,-8l-64 -63c-6,12 -10,26 -10,41 0,51 40,92 90,95l6 1c12,0 23,-3 34,-6l196 196c-3,11 -6,22 -6,34l1 6c3,50 44,90 95,90 15,0 29,-4 41,-10l-63 -64c-4,-3 -6,-7 -8,-11 -4,-12 -2,-25 8,-34 6,-6 14,-9 22,-9 4,0 8,0 11,2 4,1 8,4 12,7l63 64c6,-13 10,-27 10,-41 0,-51 -39,-92 -89,-96z"/>
 </g>
</svg>
