<?xml version="1.0" encoding="UTF-8"?>
<!DOCTYPE svg PUBLIC "-//W3C//DTD SVG 1.1//EN" "http://www.w3.org/Graphics/SVG/1.1/DTD/svg11.dtd">
<!-- Creator: CorelDRAW X7 -->
<svg xmlns="http://www.w3.org/2000/svg" xml:space="preserve" width="512px" height="512px" version="1.1" style="shape-rendering:geometricPrecision; text-rendering:geometricPrecision; image-rendering:optimizeQuality; fill-rule:evenodd; clip-rule:evenodd"
viewBox="0 0 512 512"
 xmlns:xlink="http://www.w3.org/1999/xlink">
 <defs>
  <style type="text/css">
   <![CDATA[
    .fil0 {fill:black}
   ]]>
  </style>
 </defs>
 <g id="Layer_x0020_1">
  <metadata id="CorelCorpID_0Corel-Layer"/>
  <path class="fil0" d="M510 228c0,-8 -9,-13 -16,-13 -24,0 -44,-14 -53,-35 -9,-22 -3,-47 14,-63 6,-5 6,-14 2,-20 -12,-15 -26,-29 -41,-41 -6,-4 -14,-4 -19,2 -15,17 -43,23 -64,14 -22,-9 -36,-31 -35,-55 1,-8 -5,-14 -12,-15 -19,-3 -39,-3 -58,0 -7,0 -13,7 -12,14 0,24 -14,46 -36,55 -20,8 -48,2 -63,-15 -5,-5 -13,-6 -19,-1 -16,12 -30,26 -42,41 -4,6 -4,14 2,19 18,16 23,42 14,64 -9,21 -30,35 -56,35 -8,-1 -13,5 -14,12 -1,10 -2,20 -2,29 0,10 1,20 2,29 0,8 9,13 16,13 23,-1 44,13 53,35 9,22 3,47 -14,63 -6,5 -6,14 -2,20 12,15 26,29 41,41 6,4 14,4 19,-2 15,-17 43,-23 64,-14 22,9 36,31 35,55 -1,8 5,14 12,15 10,1 20,2 30,2 9,0 18,-1 28,-2 7,0 13,-7 12,-14 0,-24 14,-46 35,-55 22,-8 49,-2 64,15 5,5 13,6 19,1 16,-12 29,-26 42,-41 4,-6 4,-14 -2,-19 -18,-16 -23,-42 -14,-64 8,-21 30,-35 52,-35l3 0c8,1 14,-5 15,-12 3,-19 3,-39 0,-58zm-254 176c-82,0 -148,-66 -148,-148 0,-82 66,-148 148,-148 82,0 148,66 148,148 0,28 -8,54 -21,76l-65 -65c5,-11 7,-23 7,-35 0,-24 -9,-47 -26,-64 -17,-17 -40,-27 -64,-27 -8,0 -16,1 -24,3 -4,1 -6,4 -7,8 -1,3 0,7 3,9 0,0 32,33 42,43 1,1 1,4 1,5l0 1c-1,11 -3,25 -5,31 0,0 0,0 0,1 -1,0 -1,0 -1,0 -6,2 -20,4 -32,5l0 0 0 0c-1,0 -1,0 -1,0 -1,0 -3,0 -5,-2 -11,-11 -42,-41 -42,-41 -2,-3 -5,-4 -7,-4 -4,0 -8,3 -10,8 -8,31 1,65 24,88 17,17 40,26 64,26 12,0 24,-2 35,-7l65 65c-23,15 -50,24 -79,24z"/>
 </g>
</svg>
