<?xml version="1.0" encoding="UTF-8"?>
<!DOCTYPE svg PUBLIC "-//W3C//DTD SVG 1.1//EN" "http://www.w3.org/Graphics/SVG/1.1/DTD/svg11.dtd">
<!-- Creator: CorelDRAW X7 -->
<svg xmlns="http://www.w3.org/2000/svg" xml:space="preserve" width="439px" height="512px" version="1.1" style="shape-rendering:geometricPrecision; text-rendering:geometricPrecision; image-rendering:optimizeQuality; fill-rule:evenodd; clip-rule:evenodd"
viewBox="0 0 439 512"
 xmlns:xlink="http://www.w3.org/1999/xlink">
 <defs>
  <style type="text/css">
   <![CDATA[
    .fil0 {fill:black}
   ]]>
  </style>
 </defs>
 <g id="Layer_x0020_1">
  <metadata id="CorelCorpID_0Corel-Layer"/>
  <path class="fil0" d="M101 200c4,8 7,15 11,18 18,61 66,103 117,103 51,-1 98,-43 116,-104 4,-3 7,-10 10,-18 1,-2 2,-4 3,-6 6,-14 4,-29 -6,-37l0 -1c0,-75 -10,-155 -124,-155 -115,0 -124,77 -124,156 0,0 0,1 0,1 -10,8 -12,23 -5,37 1,2 2,4 2,6zm241 -14c-1,2 -1,4 -2,6 -2,4 -5,11 -6,13 -2,1 -4,3 -4,5 -16,55 -57,93 -101,94 -44,0 -86,-38 -102,-93 0,-2 -2,-4 -4,-5 -1,-2 -4,-9 -6,-13 -1,-2 -2,-5 -3,-6 -3,-8 -2,-15 1,-17l1 0c1,-1 3,-2 4,-4l20 3c2,1 4,0 4,-2l13 -29c14,3 68,15 110,15 14,0 25,-1 33,-4l8 20c1,1 2,2 4,2 0,0 1,0 1,0l23 -6c1,2 3,3 5,4l0 0c4,2 5,9 1,17zm97 316c0,5 -4,9 -8,9l-403 1c-4,0 -8,-4 -8,-8 0,-55 9,-100 27,-136 4,6 8,12 12,17l1 2 1 0c1,1 17,17 43,17 24,0 46,-13 67,-37 4,-4 6,-10 6,-15 1,-5 0,-10 -3,-16 17,6 36,9 55,9 43,0 82,-16 105,-41 3,-3 7,-4 11,-2 60,38 94,109 94,200zm-366 -127c-70,-82 -73,-166 -73,-174l0 -1c3,-47 59,-49 68,-45 12,6 16,47 15,53 -2,8 -31,11 -31,11 12,47 49,106 49,106 11,-13 27,-17 27,-17 31,12 31,47 31,47 -48,57 -72,37 -86,20z"/>
 </g>
</svg>
