<?xml version="1.0" encoding="UTF-8"?>
<!DOCTYPE svg PUBLIC "-//W3C//DTD SVG 1.1//EN" "http://www.w3.org/Graphics/SVG/1.1/DTD/svg11.dtd">
<!-- Creator: CorelDRAW X7 -->
<svg xmlns="http://www.w3.org/2000/svg" xml:space="preserve" width="512px" height="512px" version="1.1" style="shape-rendering:geometricPrecision; text-rendering:geometricPrecision; image-rendering:optimizeQuality; fill-rule:evenodd; clip-rule:evenodd"
viewBox="0 0 512 512"
 xmlns:xlink="http://www.w3.org/1999/xlink">
 <defs>
  <style type="text/css">
   <![CDATA[
    .fil0 {fill:black}
   ]]>
  </style>
 </defs>
 <g id="Layer_x0020_1">
  <metadata id="CorelCorpID_0Corel-Layer"/>
  <path class="fil0" d="M256 0c-141,0 -256,115 -256,256 0,141 115,256 256,256 141,0 256,-115 256,-256 0,-141 -115,-256 -256,-256zm64 265l-42 0 0 148 -62 0 0 -148 -29 0 0 -52 29 0 0 -34c0,-25 12,-63 63,-63l45 1 0 50 -33 0c-5,0 -13,3 -13,15l0 31 47 0 -5 52z"/>
 </g>
</svg>
