<?xml version="1.0" encoding="UTF-8"?>
<!DOCTYPE svg PUBLIC "-//W3C//DTD SVG 1.1//EN" "http://www.w3.org/Graphics/SVG/1.1/DTD/svg11.dtd">
<!-- Creator: CorelDRAW X7 -->
<svg xmlns="http://www.w3.org/2000/svg" xml:space="preserve" width="512px" height="512px" version="1.1" style="shape-rendering:geometricPrecision; text-rendering:geometricPrecision; image-rendering:optimizeQuality; fill-rule:evenodd; clip-rule:evenodd"
viewBox="0 0 512 512"
 xmlns:xlink="http://www.w3.org/1999/xlink">
 <defs>
  <style type="text/css">
   <![CDATA[
    .fil0 {fill:black}
   ]]>
  </style>
 </defs>
 <g id="Layer_x0020_1">
  <metadata id="CorelCorpID_0Corel-Layer"/>
  <path class="fil0" d="M256 0c-141,0 -256,115 -256,256 0,141 115,256 256,256 141,0 256,-115 256,-256 0,-141 -115,-256 -256,-256zm114 197c0,3 0,6 0,8 0,78 -59,168 -167,168 -34,0 -65,-10 -91,-27 5,1 10,1 14,1 28,0 53,-9 74,-25 -26,-1 -48,-18 -55,-41 3,1 7,1 11,1 5,0 10,-1 15,-2 -27,-5 -47,-29 -47,-58 0,0 0,0 0,-1 8,5 17,7 27,8 -16,-11 -27,-29 -27,-49 0,-11 3,-21 8,-30 29,36 73,59 122,62 -1,-5 -2,-9 -2,-14 0,-32 27,-59 59,-59 17,0 32,7 43,19 14,-3 26,-8 38,-14 -5,13 -14,25 -26,32 12,-1 23,-4 34,-9 -8,12 -18,22 -30,30z"/>
 </g>
</svg>
