<?xml version="1.0" encoding="UTF-8"?>
<!DOCTYPE svg PUBLIC "-//W3C//DTD SVG 1.1//EN" "http://www.w3.org/Graphics/SVG/1.1/DTD/svg11.dtd">
<!-- Creator: CorelDRAW X7 -->
<svg xmlns="http://www.w3.org/2000/svg" xml:space="preserve" width="512px" height="512px" version="1.1" style="shape-rendering:geometricPrecision; text-rendering:geometricPrecision; image-rendering:optimizeQuality; fill-rule:evenodd; clip-rule:evenodd"
viewBox="0 0 512 512"
 xmlns:xlink="http://www.w3.org/1999/xlink">
 <defs>
  <style type="text/css">
   <![CDATA[
    .fil0 {fill:black}
   ]]>
  </style>
 </defs>
 <g id="Layer_x0020_1">
  <metadata id="CorelCorpID_0Corel-Layer"/>
  <path class="fil0" d="M256 307c28,0 51,-23 51,-51 0,-11 -3,-21 -9,-30 -10,-13 -25,-21 -42,-21 -17,0 -32,8 -42,21 -6,9 -9,19 -9,30 0,28 23,51 51,51z"/>
  <polygon class="fil0" points="368,193 368,144 361,144 319,144 319,193 "/>
  <path class="fil0" d="M256 0c-141,0 -256,115 -256,256 0,141 115,256 256,256 141,0 256,-115 256,-256 0,-141 -115,-256 -256,-256zm146 226l0 119c0,31 -26,57 -57,57l-178 0c-31,0 -57,-26 -57,-57l0 -178c0,-31 26,-57 57,-57l178 0c31,0 57,26 57,57l0 59z"/>
  <path class="fil0" d="M336 256c0,44 -36,80 -80,80 -44,0 -80,-36 -80,-80 0,-11 2,-21 6,-30l-43 0 0 119c0,16 12,28 28,28l178 0c16,0 28,-12 28,-28l0 -119 -43 0c3,9 6,19 6,30z"/>
 </g>
</svg>
