<?xml version="1.0" encoding="UTF-8"?>
<!DOCTYPE svg PUBLIC "-//W3C//DTD SVG 1.1//EN" "http://www.w3.org/Graphics/SVG/1.1/DTD/svg11.dtd">
<!-- Creator: CorelDRAW X7 -->
<svg xmlns="http://www.w3.org/2000/svg" xml:space="preserve" width="493px" height="512px" version="1.1" style="shape-rendering:geometricPrecision; text-rendering:geometricPrecision; image-rendering:optimizeQuality; fill-rule:evenodd; clip-rule:evenodd"
viewBox="0 0 493 512"
 xmlns:xlink="http://www.w3.org/1999/xlink">
 <defs>
  <style type="text/css">
   <![CDATA[
    .fil0 {fill:black}
   ]]>
  </style>
 </defs>
 <g id="Layer_x0020_1">
  <metadata id="CorelCorpID_0Corel-Layer"/>
  <path class="fil0" d="M370 298c-67,0 -122,55 -122,122 0,68 55,123 122,123 68,0 123,-55 123,-123 0,-67 -55,-122 -123,-122zm76 141l-57 0 0 57 -37 0 0 -57 -58 0 0 -37 58 0 0 -58 37 0 0 58 57 0 0 37z"/>
  <polygon class="fil0" points="265,19 265,105 352,105 "/>
  <path class="fil0" d="M62 429l0 -37 151 0c3,-18 9,-34 18,-50l-169 0 0 -37 197 0c29,-27 68,-44 111,-44l0 -119 -142 0 0 -142 -228 0 0 512 240 0c-17,-24 -28,-52 -29,-83l-149 0zm0 -210l247 0 0 37 -247 0 0 -37z"/>
 </g>
</svg>
