<?xml version="1.0" encoding="UTF-8"?>
<!DOCTYPE svg PUBLIC "-//W3C//DTD SVG 1.1//EN" "http://www.w3.org/Graphics/SVG/1.1/DTD/svg11.dtd">
<!-- Creator: CorelDRAW X7 -->
<svg xmlns="http://www.w3.org/2000/svg" xml:space="preserve" width="257px" height="512px" version="1.1" style="shape-rendering:geometricPrecision; text-rendering:geometricPrecision; image-rendering:optimizeQuality; fill-rule:evenodd; clip-rule:evenodd"
viewBox="0 0 257 512"
 xmlns:xlink="http://www.w3.org/1999/xlink">
 <defs>
  <style type="text/css">
   <![CDATA[
    .fil0 {fill:black}
   ]]>
  </style>
 </defs>
 <g id="Layer_x0020_1">
  <metadata id="CorelCorpID_0Corel-Layer"/>
  <path class="fil0" d="M56 99c0,-3 0,-10 1,-21 1,-10 5,-22 12,-33 7,-12 19,-22 35,-31 15,-9 39,-14 69,-14l84 0 0 92 -62 0c-6,0 -12,3 -17,7 -5,5 -8,9 -8,13l0 57 87 0c-1,12 -2,23 -3,33l-3 28c-2,9 -3,18 -4,26l-77 0 0 256 -114 0 0 -256 -56 0 0 -87 56 0 0 -70z"/>
 </g>
</svg>
