<?xml version="1.0" encoding="UTF-8"?>
<!DOCTYPE svg PUBLIC "-//W3C//DTD SVG 1.1//EN" "http://www.w3.org/Graphics/SVG/1.1/DTD/svg11.dtd">
<!-- Creator: CorelDRAW X7 -->
<svg xmlns="http://www.w3.org/2000/svg" xml:space="preserve" width="630px" height="512px" version="1.1" style="shape-rendering:geometricPrecision; text-rendering:geometricPrecision; image-rendering:optimizeQuality; fill-rule:evenodd; clip-rule:evenodd"
viewBox="0 0 630 512"
 xmlns:xlink="http://www.w3.org/1999/xlink">
 <defs>
  <style type="text/css">
   <![CDATA[
    .fil0 {fill:black}
   ]]>
  </style>
 </defs>
 <g id="Layer_x0020_1">
  <metadata id="CorelCorpID_0Corel-Layer"/>
  <path class="fil0" d="M630 61c-23,10 -48,17 -74,20 27,-16 47,-41 57,-72 -25,15 -53,26 -82,32 -24,-25 -58,-41 -95,-41 -71,0 -129,58 -129,129 0,10 1,20 3,30 -107,-6 -202,-57 -266,-135 -11,19 -18,41 -18,65 0,44 23,84 58,107 -21,0 -41,-6 -59,-16l0 2c0,62 45,115 104,127 -11,2 -22,4 -34,4 -8,0 -16,-1 -25,-2 17,51 65,88 121,89 -44,35 -100,56 -160,56 -11,0 -21,-1 -31,-2 57,37 125,58 198,58 238,0 368,-197 368,-368l0 -16c25,-19 47,-41 64,-67z"/>
 </g>
</svg>
