<?xml version="1.0" encoding="UTF-8"?>
<!DOCTYPE svg PUBLIC "-//W3C//DTD SVG 1.1//EN" "http://www.w3.org/Graphics/SVG/1.1/DTD/svg11.dtd">
<!-- Creator: CorelDRAW X7 -->
<svg xmlns="http://www.w3.org/2000/svg" xml:space="preserve" width="808px" height="512px" version="1.1" style="shape-rendering:geometricPrecision; text-rendering:geometricPrecision; image-rendering:optimizeQuality; fill-rule:evenodd; clip-rule:evenodd"
viewBox="0 0 808 512"
 xmlns:xlink="http://www.w3.org/1999/xlink">
 <defs>
  <style type="text/css">
   <![CDATA[
    .fil0 {fill:black}
   ]]>
  </style>
 </defs>
 <g id="Layer_x0020_1">
  <metadata id="CorelCorpID_0Corel-Layer"/>
  <path class="fil0" d="M727 189l0 -81 -94 0 0 81 -81 0 0 94 81 0 0 81 94 0 0 -81 81 0 0 -94 -81 0zm-223 0l-262 0 0 121 132 0c-18,50 -61,81 -115,81 -74,0 -138,-63 -138,-135 0,-72 64,-135 138,-135 35,0 64,12 85,33l10 9 90 -90 -10 -9c-43,-42 -103,-64 -175,-64 -145,0 -259,113 -259,256 0,143 114,256 259,256 133,0 228,-79 248,-205 2,-16 3,-33 3,-51 0,-19 -1,-40 -4,-56l-2 -11z"/>
 </g>
</svg>
