<?xml version="1.0" encoding="UTF-8"?>
<!DOCTYPE svg PUBLIC "-//W3C//DTD SVG 1.1//EN" "http://www.w3.org/Graphics/SVG/1.1/DTD/svg11.dtd">
<!-- Creator: CorelDRAW X7 -->
<svg xmlns="http://www.w3.org/2000/svg" xml:space="preserve" width="512px" height="512px" version="1.1" style="shape-rendering:geometricPrecision; text-rendering:geometricPrecision; image-rendering:optimizeQuality; fill-rule:evenodd; clip-rule:evenodd"
viewBox="0 0 512 512"
 xmlns:xlink="http://www.w3.org/1999/xlink">
 <defs>
  <style type="text/css">
   <![CDATA[
    .fil0 {fill:black}
   ]]>
  </style>
 </defs>
 <g id="Layer_x0020_1">
  <metadata id="CorelCorpID_0Corel-Layer"/>
  <path class="fil0" d="M261 0c-139,0 -252,112 -252,250 0,44 12,88 35,126l-44 127c0,1 0,2 0,2l0 1c0,1 1,3 2,4 1,1 3,2 5,2 0,0 1,0 2,0l133 -43c36,20 77,30 119,30 138,0 251,-112 251,-249 0,-138 -113,-250 -251,-250zm0 447c-40,0 -77,-11 -110,-33 -1,0 -2,-1 -4,-1 0,0 -1,1 -2,1l-66 21 21 -64c1,-2 1,-4 -1,-6 -25,-33 -38,-74 -38,-115 0,-109 90,-198 200,-198 109,0 199,89 199,198 0,109 -90,197 -199,197zm118 -153c-1,0 -38,-19 -45,-21 -3,-1 -6,-2 -9,-2 -5,0 -9,3 -12,7 -4,6 -15,19 -19,23 0,1 -1,1 -1,1 -1,0 -6,-2 -8,-3 -40,-17 -71,-59 -75,-66 0,-1 0,-2 0,-2 0,0 1,-1 2,-2 2,-2 4,-5 6,-7 1,-2 2,-3 3,-4 3,-4 5,-6 6,-10l1 -1c4,-8 1,-15 0,-17 -1,-1 -17,-39 -19,-43 -4,-10 -9,-15 -17,-15 0,0 0,0 -2,1 -4,0 -23,2 -31,8 -9,5 -25,23 -25,55 0,28 19,55 26,65 0,1 1,1 1,2 30,43 67,75 105,90 36,15 53,17 63,17l0 0c4,0 7,-1 10,-1l2 0c12,-1 40,-16 46,-33 5,-14 6,-28 3,-34 -2,-4 -6,-5 -11,-8z"/>
 </g>
</svg>
