<?xml version="1.0" encoding="UTF-8"?>
<!DOCTYPE svg PUBLIC "-//W3C//DTD SVG 1.1//EN" "http://www.w3.org/Graphics/SVG/1.1/DTD/svg11.dtd">
<!-- Creator: CorelDRAW X7 -->
<svg xmlns="http://www.w3.org/2000/svg" xml:space="preserve" width="495px" height="512px" version="1.1" style="shape-rendering:geometricPrecision; text-rendering:geometricPrecision; image-rendering:optimizeQuality; fill-rule:evenodd; clip-rule:evenodd"
viewBox="0 0 495 512"
 xmlns:xlink="http://www.w3.org/1999/xlink">
 <defs>
  <style type="text/css">
   <![CDATA[
    .fil0 {fill:black}
   ]]>
  </style>
 </defs>
 <g id="Layer_x0020_1">
  <metadata id="CorelCorpID_0Corel-Layer"/>
  <path class="fil0" d="M364 238c-5,0 -7,-4 -7,-9 -1,-8 -1,-17 -2,-25 -7,-45 -42,-82 -87,-90 -6,-1 -13,-1 -20,-2 -4,0 -10,-1 -11,-6 -1,-4 3,-8 7,-8 1,0 3,0 4,0 57,1 3,0 0,0 60,2 109,41 120,100 1,11 2,21 3,31 0,4 -2,9 -7,9zm-77 -86c-7,-4 -15,-6 -22,-7 -4,-1 -7,-1 -11,-2 -4,0 -6,-3 -6,-7 0,-4 3,-6 7,-6 14,1 27,4 39,10 25,13 40,34 44,62 0,1 0,2 0,4 1,3 1,6 1,10 0,1 0,2 -1,4 -1,6 -10,7 -13,1 0,-2 0,-4 0,-6 0,-13 -3,-25 -9,-37 -7,-11 -17,-20 -29,-26zm15 62c-3,0 -2,0 -1,0 -5,0 -7,-3 -8,-7 0,-3 0,-6 -1,-9 -2,-7 -5,-12 -10,-16 -2,-2 -5,-3 -8,-4 -4,-1 -8,-1 -11,-2 -4,-1 -6,-4 -6,-8 1,-3 4,-6 8,-5 23,1 40,13 42,41 0,2 0,4 0,5 -1,4 -3,5 -5,5 0,0 0,0 0,0zm59 107c-7,14 -16,25 -30,33 -4,2 -8,3 -13,4 -5,-2 -9,-3 -14,-4 -46,-19 -88,-44 -121,-82 -19,-21 -34,-45 -47,-71 -6,-12 -11,-24 -16,-37 -4,-11 2,-23 10,-32 6,-8 15,-14 25,-18 7,-4 14,-2 20,4 11,14 22,28 31,44 5,9 4,21 -6,28 -2,1 -4,3 -7,5 -2,2 -3,3 -5,5 -2,4 -2,9 -1,13 12,33 32,58 65,72 6,2 11,5 17,4 10,-1 14,-12 21,-18 7,-6 16,-6 23,-1 8,5 15,10 22,15 7,5 14,10 21,16 6,5 8,13 5,20zm123 5l0 1c-12,48 -66,100 -115,111l-1 0c-40,8 -80,12 -120,12 -12,0 -24,-1 -36,-2l-55 57c-13,14 -37,5 -37,-15l0 -54c-47,-13 -97,-63 -109,-109l0 -1c-15,-67 -15,-135 0,-203l0 -1c12,-48 66,-100 116,-110l0 -1c80,-15 161,-15 241,0l1 1c49,10 103,62 115,110l0 1c15,68 15,136 0,203zm-124 -271c-75,-14 -150,-14 -224,0 -33,7 -74,46 -82,78 -13,61 -13,123 0,184 8,31 49,70 82,78l0 0c1,0 2,1 2,3l0 89c0,4 6,7 9,3l42 -43c0,0 34,-35 40,-41 1,-1 2,-1 2,-1 43,1 86,-2 129,-10 32,-8 73,-47 81,-78 13,-61 13,-123 0,-184 -8,-32 -49,-71 -81,-78z"/>
 </g>
</svg>
