<?xml version="1.0" encoding="UTF-8"?>
<!DOCTYPE svg PUBLIC "-//W3C//DTD SVG 1.1//EN" "http://www.w3.org/Graphics/SVG/1.1/DTD/svg11.dtd">
<!-- Creator: CorelDRAW X7 -->
<svg xmlns="http://www.w3.org/2000/svg" xml:space="preserve" width="751px" height="512px" version="1.1" style="shape-rendering:geometricPrecision; text-rendering:geometricPrecision; image-rendering:optimizeQuality; fill-rule:evenodd; clip-rule:evenodd"
viewBox="0 0 751 512"
 xmlns:xlink="http://www.w3.org/1999/xlink">
 <defs>
  <style type="text/css">
   <![CDATA[
    .fil0 {fill:black}
   ]]>
  </style>
 </defs>
 <g id="Layer_x0020_1">
  <metadata id="CorelCorpID_0Corel-Layer"/>
  <path class="fil0" d="M689 221l-44 0c-11,0 -21,9 -21,20 0,12 10,21 21,21l44 0c11,0 20,-9 20,-21 0,-11 -9,-20 -20,-20zm20 -104l-85 0c-11,0 -20,9 -20,21 0,11 9,20 20,20l85 0c12,0 21,-9 21,-20 0,-12 -9,-21 -21,-21zm22 -103l-128 0c-11,0 -20,9 -20,20 0,11 9,20 20,20l128 0c11,0 20,-9 20,-20 0,-11 -9,-20 -20,-20zm-182 2c-1,-6 -5,-10 -9,-13 -5,-3 -10,-4 -16,-2l-508 120c-6,1 -10,4 -13,9 -3,4 -4,10 -2,15l82 351c3,10 11,16 20,16 2,0 3,0 5,-1l509 -120c5,-1 9,-4 12,-9 3,-4 4,-10 3,-15l-83 -351zm2 188l-87 -51 56 -83 31 134zm-500 -23l87 49 -56 84 -31 -133zm25 -33l407 -96 -159 237 -248 -141zm42 319l-23 -98 78 -119 147 84c3,1 7,2 10,2 7,0 13,-3 17,-9l95 -140 122 71 23 98 -469 111z"/>
 </g>
</svg>
