<?xml version="1.0" encoding="UTF-8"?>
<!DOCTYPE svg PUBLIC "-//W3C//DTD SVG 1.1//EN" "http://www.w3.org/Graphics/SVG/1.1/DTD/svg11.dtd">
<!-- Creator: CorelDRAW X7 -->
<svg xmlns="http://www.w3.org/2000/svg" xml:space="preserve" width="512px" height="511px" version="1.1" style="shape-rendering:geometricPrecision; text-rendering:geometricPrecision; image-rendering:optimizeQuality; fill-rule:evenodd; clip-rule:evenodd"
viewBox="0 0 512 511"
 xmlns:xlink="http://www.w3.org/1999/xlink">
 <defs>
  <style type="text/css">
   <![CDATA[
    .fil0 {fill:black}
   ]]>
  </style>
 </defs>
 <g id="Layer_x0020_1">
  <metadata id="CorelCorpID_0Corel-Layer"/>
  <path class="fil0" d="M196 316c46,46 99,90 120,68 30,-30 49,-56 115,-3 66,53 16,89 -13,118 -7,7 -18,11 -31,12l-19 0c-56,-4 -145,-45 -233,-133 -124,-123 -156,-248 -123,-282 29,-29 64,-80 118,-14 53,66 27,85 -3,115 -21,21 23,74 69,119zm316 -52l0 -12c-2,-44 -19,-108 -81,-170 -79,-79 -159,-86 -199,-80 0,0 -10,1 -17,8 -10,10 -11,27 0,38 10,9 24,7 24,7 47,-7 104,14 154,65 50,50 72,107 65,153 0,0 -3,15 7,24 10,11 28,10 38,0 6,-6 7,-17 7,-17 1,-5 2,-10 2,-16zm-249 -165c0,0 -14,-2 -24,7 -10,10 -10,28 0,38 7,6 15,8 15,8 18,3 43,8 71,36 27,27 33,53 36,70 0,0 1,9 7,15 11,10 28,10 38,0 10,-10 8,-24 8,-24 -6,-34 -23,-70 -51,-99 -29,-29 -65,-46 -100,-51z"/>
 </g>
</svg>
