<?xml version="1.0" encoding="UTF-8"?>
<!DOCTYPE svg PUBLIC "-//W3C//DTD SVG 1.1//EN" "http://www.w3.org/Graphics/SVG/1.1/DTD/svg11.dtd">
<!-- Creator: CorelDRAW X7 -->
<svg xmlns="http://www.w3.org/2000/svg" xml:space="preserve" width="652px" height="512px" version="1.1" style="shape-rendering:geometricPrecision; text-rendering:geometricPrecision; image-rendering:optimizeQuality; fill-rule:evenodd; clip-rule:evenodd"
viewBox="0 0 652 512"
 xmlns:xlink="http://www.w3.org/1999/xlink">
 <defs>
  <style type="text/css">
   <![CDATA[
    .fil0 {fill:black}
   ]]>
  </style>
 </defs>
 <g id="Layer_x0020_1">
  <metadata id="CorelCorpID_0Corel-Layer"/>
  <path class="fil0" d="M593 512c15,0 28,-5 39,-14l-185 -185c-4,3 -9,6 -13,9 -14,10 -25,18 -33,24 -9,6 -21,12 -35,17 -14,6 -27,9 -40,9l-1 0c-12,0 -25,-3 -40,-9 -14,-5 -25,-11 -34,-17 -9,-6 -20,-14 -34,-24 -3,-3 -8,-6 -12,-9l-185 185c11,9 24,14 38,14l535 0z"/>
  <path class="fil0" d="M37 197c-14,-9 -26,-20 -37,-32l0 281 163 -163c-33,-22 -75,-51 -126,-86z"/>
  <path class="fil0" d="M615 197c-49,33 -91,62 -126,86l163 163 0 -281c-11,12 -23,22 -37,32z"/>
  <path class="fil0" d="M593 0l-535 0c-18,0 -33,6 -43,19 -10,12 -15,28 -15,47 0,15 7,32 20,50 13,18 28,32 43,42 8,6 33,23 74,52 22,15 42,29 59,40 14,10 26,19 36,26 2,1 3,2 6,4 2,2 6,4 10,7 8,6 14,10 19,14 6,3 12,7 19,12 8,4 15,7 21,10 7,2 13,3 18,3l1 0c6,0 12,-1 18,-3 7,-3 14,-6 21,-10 8,-5 14,-9 19,-12 5,-4 12,-8 20,-14 4,-3 7,-5 10,-7 2,-2 4,-3 5,-4 8,-6 21,-14 37,-26 30,-21 75,-51 133,-92 18,-13 33,-27 45,-45 12,-17 18,-36 18,-55 0,-16 -6,-30 -18,-41 -11,-11 -25,-17 -41,-17z"/>
 </g>
</svg>
