<?xml version="1.0" encoding="UTF-8"?>
<!DOCTYPE svg PUBLIC "-//W3C//DTD SVG 1.1//EN" "http://www.w3.org/Graphics/SVG/1.1/DTD/svg11.dtd">
<!-- Creator: CorelDRAW X7 -->
<svg xmlns="http://www.w3.org/2000/svg" xml:space="preserve" width="540px" height="512px" version="1.1" style="shape-rendering:geometricPrecision; text-rendering:geometricPrecision; image-rendering:optimizeQuality; fill-rule:evenodd; clip-rule:evenodd"
viewBox="0 0 540 512"
 xmlns:xlink="http://www.w3.org/1999/xlink">
 <defs>
  <style type="text/css">
   <![CDATA[
    .fil0 {fill:black}
   ]]>
  </style>
 </defs>
 <g id="Layer_x0020_1">
  <metadata id="CorelCorpID_0Corel-Layer"/>
  <path class="fil0" d="M0 512l540 0 0 -348 -540 0 0 348zm287 -285c56,0 96,38 96,91 0,46 -26,75 -60,75 -15,0 -26,-8 -27,-24l-1 0c-10,16 -24,24 -41,24 -20,0 -36,-15 -36,-41 0,-39 29,-74 75,-74 14,0 29,4 37,8l-10 59c-2,18 0,27 9,27 13,1 30,-17 30,-53 0,-42 -26,-73 -75,-73 -49,0 -91,37 -91,98 0,53 34,83 81,83 16,0 33,-4 46,-10l5 18c-19,8 -35,11 -58,11 -52,0 -98,-37 -98,-99 0,-65 47,-120 118,-120z"/>
  <path class="fil0" d="M250 348c0,12 6,20 16,20 12,0 24,-15 27,-33l4 -30c-2,-1 -6,-2 -9,-2 -21,0 -38,21 -38,45z"/>
  <polygon class="fil0" points="271,0 0,148 540,148 "/>
 </g>
</svg>
