<?xml version="1.0" encoding="UTF-8"?>
<!DOCTYPE svg PUBLIC "-//W3C//DTD SVG 1.1//EN" "http://www.w3.org/Graphics/SVG/1.1/DTD/svg11.dtd">
<!-- Creator: CorelDRAW X7 -->
<svg xmlns="http://www.w3.org/2000/svg" xml:space="preserve" width="649px" height="512px" version="1.1" style="shape-rendering:geometricPrecision; text-rendering:geometricPrecision; image-rendering:optimizeQuality; fill-rule:evenodd; clip-rule:evenodd"
viewBox="0 0 649 512"
 xmlns:xlink="http://www.w3.org/1999/xlink">
 <defs>
  <style type="text/css">
   <![CDATA[
    .fil0 {fill:black}
   ]]>
  </style>
 </defs>
 <g id="Layer_x0020_1">
  <metadata id="CorelCorpID_0Corel-Layer"/>
  <path class="fil0" d="M603 136l-18 0 0 195c0,30 -17,58 -53,58l-347 0 0 9c0,27 30,54 61,54l266 0 102 60 -15 -60 4 0c32,0 46,-27 46,-54l0 -216c0,-27 -14,-46 -46,-46z"/>
  <path class="fil0" d="M480 0l-404 0c-35,0 -76,32 -76,62l0 245c0,28 35,48 68,51l-22 82 139 -81 295 0c36,0 69,-22 69,-52l0 -245c0,-30 -33,-62 -69,-62zm-342 207c-20,0 -36,-17 -36,-37 0,-20 16,-36 36,-36 20,0 37,16 37,36 0,20 -17,37 -37,37zm136 0c-20,0 -36,-17 -36,-37 0,-20 16,-36 36,-36 20,0 37,16 37,36 0,20 -17,37 -37,37zm137 0c-20,0 -37,-17 -37,-37 0,-20 17,-36 37,-36 20,0 36,16 36,36 0,20 -16,37 -36,37z"/>
 </g>
</svg>
