<?xml version="1.0" encoding="UTF-8"?>
<!DOCTYPE svg PUBLIC "-//W3C//DTD SVG 1.1//EN" "http://www.w3.org/Graphics/SVG/1.1/DTD/svg11.dtd">
<!-- Creator: CorelDRAW X7 -->
<svg xmlns="http://www.w3.org/2000/svg" xml:space="preserve" width="557px" height="512px" version="1.1" style="shape-rendering:geometricPrecision; text-rendering:geometricPrecision; image-rendering:optimizeQuality; fill-rule:evenodd; clip-rule:evenodd"
viewBox="0 0 557 512"
 xmlns:xlink="http://www.w3.org/1999/xlink">
 <defs>
  <style type="text/css">
   <![CDATA[
    .fil0 {fill:black}
   ]]>
  </style>
 </defs>
 <g id="Layer_x0020_1">
  <metadata id="CorelCorpID_0Corel-Layer"/>
  <path class="fil0" d="M396 0c-46,0 -88,21 -118,54 -29,-33 -71,-54 -117,-54 -89,0 -161,75 -161,168l0 1c0,24 4,48 12,71 0,0 6,21 12,32 68,146 254,240 254,240 0,0 187,-94 254,-240 0,0 9,-19 13,-32 7,-23 12,-47 12,-72 0,-93 -72,-168 -161,-168z"/>
 </g>
</svg>
