<?xml version="1.0" encoding="UTF-8"?>
<!DOCTYPE svg PUBLIC "-//W3C//DTD SVG 1.1//EN" "http://www.w3.org/Graphics/SVG/1.1/DTD/svg11.dtd">
<!-- Creator: CorelDRAW X7 -->
<svg xmlns="http://www.w3.org/2000/svg" xml:space="preserve" width="537px" height="512px" version="1.1" style="shape-rendering:geometricPrecision; text-rendering:geometricPrecision; image-rendering:optimizeQuality; fill-rule:evenodd; clip-rule:evenodd"
viewBox="0 0 537 512"
 xmlns:xlink="http://www.w3.org/1999/xlink">
 <defs>
  <style type="text/css">
   <![CDATA[
    .fil0 {fill:black}
   ]]>
  </style>
 </defs>
 <g id="Layer_x0020_1">
  <metadata id="CorelCorpID_0Corel-Layer"/>
  <path class="fil0" d="M250 11c3,-6 8,-10 14,-11l9 0c6,1 11,5 14,11l67 136c3,6 9,10 15,11l150 22c8,1 14,6 17,14 2,7 0,16 -6,21l-108 105c-5,5 -7,12 -6,19l26 149c1,7 -2,15 -8,20 -7,5 -15,5 -22,2l-134 -71c-6,-3 -13,-3 -19,0l-134 71c-7,3 -15,3 -22,-2 -6,-5 -9,-13 -8,-20l25 -149c2,-7 -1,-14 -6,-19l-108 -105c-4,-4 -6,-9 -6,-15 0,-2 0,-4 1,-6 2,-8 9,-13 17,-14l149 -22c7,-1 13,-5 16,-11l67 -136z"/>
 </g>
</svg>
