<?xml version="1.0" encoding="UTF-8"?>
<!DOCTYPE svg PUBLIC "-//W3C//DTD SVG 1.1//EN" "http://www.w3.org/Graphics/SVG/1.1/DTD/svg11.dtd">
<!-- Creator: CorelDRAW X7 -->
<svg xmlns="http://www.w3.org/2000/svg" xml:space="preserve" width="571px" height="512px" version="1.1" style="shape-rendering:geometricPrecision; text-rendering:geometricPrecision; image-rendering:optimizeQuality; fill-rule:evenodd; clip-rule:evenodd"
viewBox="0 0 571 512"
 xmlns:xlink="http://www.w3.org/1999/xlink">
 <defs>
  <style type="text/css">
   <![CDATA[
    .fil0 {fill:black}
   ]]>
  </style>
 </defs>
 <g id="Layer_x0020_1">
  <metadata id="CorelCorpID_0Corel-Layer"/>
  <path class="fil0" d="M565 451l-244 -429c-8,-14 -21,-22 -35,-22 -15,0 -28,8 -36,22l-244 429c-4,7 -6,14 -6,22l0 1c0,6 2,13 5,18 7,13 21,20 36,20l489 0c15,0 29,-7 36,-20 7,-12 7,-27 -1,-41zm-279 -56c18,0 33,16 33,34 0,19 -15,34 -33,34 -19,0 -34,-15 -34,-34 0,-18 15,-34 34,-34zm-2 -268c19,0 34,16 34,34l0 162c0,19 -15,34 -34,34 -19,0 -34,-15 -34,-34l0 -162c0,-18 15,-34 34,-34z"/>
 </g>
</svg>
