<?xml version="1.0" encoding="UTF-8"?>
<!DOCTYPE svg PUBLIC "-//W3C//DTD SVG 1.1//EN" "http://www.w3.org/Graphics/SVG/1.1/DTD/svg11.dtd">
<!-- Creator: CorelDRAW X7 -->
<svg xmlns="http://www.w3.org/2000/svg" xml:space="preserve" width="377px" height="512px" version="1.1" style="shape-rendering:geometricPrecision; text-rendering:geometricPrecision; image-rendering:optimizeQuality; fill-rule:evenodd; clip-rule:evenodd"
viewBox="0 0 377 512"
 xmlns:xlink="http://www.w3.org/1999/xlink">
 <defs>
  <style type="text/css">
   <![CDATA[
    .fil0 {fill:black}
   ]]>
  </style>
 </defs>
 <g id="Layer_x0020_1">
  <metadata id="CorelCorpID_0Corel-Layer"/>
  <path class="fil0" d="M188 0c-102,0 -185,82 -188,183l0 11c1,25 6,49 16,71 48,104 138,212 164,243 2,3 5,4 8,4l1 0c3,0 5,-1 7,-4 27,-31 117,-139 164,-243 11,-22 16,-46 17,-71l0 -11c-3,-101 -86,-183 -189,-183zm0 286c-54,0 -98,-44 -98,-98 0,-54 44,-97 98,-97 54,0 98,43 98,97 0,54 -44,98 -98,98z"/>
 </g>
</svg>
