<?xml version="1.0" encoding="UTF-8"?>
<!DOCTYPE svg PUBLIC "-//W3C//DTD SVG 1.1//EN" "http://www.w3.org/Graphics/SVG/1.1/DTD/svg11.dtd">
<!-- Creator: CorelDRAW X7 -->
<svg xmlns="http://www.w3.org/2000/svg" xml:space="preserve" width="348px" height="512px" version="1.1" style="shape-rendering:geometricPrecision; text-rendering:geometricPrecision; image-rendering:optimizeQuality; fill-rule:evenodd; clip-rule:evenodd"
viewBox="0 0 348 512"
 xmlns:xlink="http://www.w3.org/1999/xlink">
 <defs>
  <style type="text/css">
   <![CDATA[
    .fil0 {fill:black}
   ]]>
  </style>
 </defs>
 <g id="Layer_x0020_1">
  <metadata id="CorelCorpID_0Corel-Layer"/>
  <path class="fil0" d="M305 369l0 43c0,11 -9,20 -19,20l-224 0c-11,0 -19,-9 -19,-20l0 -347c0,-11 8,-19 19,-19l224 0c10,0 19,8 19,19l0 50 41 -74c-5,-23 -25,-40 -48,-41l-248 0c-28,2 -50,25 -50,53l0 406c0,29 24,53 53,53l241 0c30,0 54,-24 54,-53l0 -139 -11 20c-7,13 -19,23 -32,29zm-82 120l-98 0c-10,0 -17,-8 -17,-18 0,-9 7,-17 17,-17l98 0c10,0 17,8 17,17 0,10 -7,18 -17,18z"/>
  <path class="fil0" d="M333 150c-13,-8 -30,-3 -37,11l-82 147 -42 -21c-14,-7 -30,-2 -37,12 -7,13 -2,30 12,37l66 34c4,2 8,3 12,3 10,0 20,-5 25,-14l94 -171c8,-14 3,-31 -11,-38z"/>
 </g>
</svg>
