<?xml version="1.0" encoding="UTF-8"?>
<!DOCTYPE svg PUBLIC "-//W3C//DTD SVG 1.1//EN" "http://www.w3.org/Graphics/SVG/1.1/DTD/svg11.dtd">
<!-- Creator: CorelDRAW X7 -->
<svg xmlns="http://www.w3.org/2000/svg" xml:space="preserve" width="529px" height="512px" version="1.1" style="shape-rendering:geometricPrecision; text-rendering:geometricPrecision; image-rendering:optimizeQuality; fill-rule:evenodd; clip-rule:evenodd"
viewBox="0 0 529 512"
 xmlns:xlink="http://www.w3.org/1999/xlink">
 <defs>
  <style type="text/css">
   <![CDATA[
    .fil0 {fill:black}
   ]]>
  </style>
 </defs>
 <g id="Layer_x0020_1">
  <metadata id="CorelCorpID_0Corel-Layer"/>
  <path class="fil0" d="M265 0l-265 198 0 314 529 0 0 -314 -264 -198zm-74 141c8,-14 19,-25 32,-32 14,-7 30,-11 47,-11 15,0 28,3 40,9 11,6 20,14 26,25 6,10 9,22 9,34 0,15 -5,29 -14,41 -12,15 -26,23 -44,23 -5,0 -9,-1 -11,-3 -3,-2 -5,-4 -5,-7 -7,6 -15,10 -24,10 -10,0 -18,-4 -25,-10 -6,-7 -9,-16 -9,-27 0,-14 4,-27 12,-38 9,-14 21,-21 36,-21 10,0 18,4 23,12l2 -10 23 0 -13 64c-1,4 -1,6 -1,7 0,2 0,3 1,4 0,0 1,1 2,1 3,0 6,-2 11,-5 6,-5 11,-11 14,-18 4,-8 6,-16 6,-24 0,-14 -5,-26 -16,-36 -10,-10 -25,-15 -43,-15 -16,0 -30,4 -41,10 -11,7 -19,16 -25,28 -5,11 -8,24 -8,36 0,13 3,24 9,34 6,10 15,18 26,22 12,5 25,7 39,7 14,0 26,-1 36,-5 11,-4 19,-10 25,-18l19 0c-6,12 -15,21 -27,28 -14,8 -31,12 -51,12 -20,0 -36,-4 -50,-10 -15,-7 -25,-16 -32,-29 -7,-13 -10,-27 -10,-42 0,-16 4,-32 11,-46zm-172 63l195 131 -195 151 0 -282zm14 292l232 -179 231 179 -463 0zm478 -10l-196 -151 196 -131 0 282zm-237 -331c3,4 5,9 5,16 0,6 -1,12 -3,19 -3,7 -5,12 -9,16 -2,2 -4,4 -6,5 -3,2 -6,3 -10,3 -4,0 -8,-2 -11,-6 -3,-3 -4,-9 -4,-16 0,-6 1,-12 3,-20 2,-7 5,-12 10,-16 4,-4 9,-6 14,-6 4,0 8,2 11,5z"/>
 </g>
</svg>
