<?xml version="1.0" encoding="UTF-8"?>
<!DOCTYPE svg PUBLIC "-//W3C//DTD SVG 1.1//EN" "http://www.w3.org/Graphics/SVG/1.1/DTD/svg11.dtd">
<!-- Creator: CorelDRAW X7 -->
<svg xmlns="http://www.w3.org/2000/svg" xml:space="preserve" width="610px" height="512px" version="1.1" style="shape-rendering:geometricPrecision; text-rendering:geometricPrecision; image-rendering:optimizeQuality; fill-rule:evenodd; clip-rule:evenodd"
viewBox="0 0 610 512"
 xmlns:xlink="http://www.w3.org/1999/xlink">
 <defs>
  <style type="text/css">
   <![CDATA[
    .fil0 {fill:black}
   ]]>
  </style>
 </defs>
 <g id="Layer_x0020_1">
  <metadata id="CorelCorpID_0Corel-Layer"/>
  <path class="fil0" d="M599 294l-294 -294 -294 294c-7,7 -11,17 -11,27 0,10 4,19 11,27 15,15 39,15 54,0l11 -11 0 175 458 0 0 -175 11 11c7,7 17,11 27,11 10,0 19,-4 27,-11 7,-7 10,-15 11,-24l0 -6c-1,-9 -4,-17 -11,-24zm-103 180l-229 0 0 -153 -76 0 0 153 -77 0 0 -176 191 -190 191 190 0 176z"/>
  <polygon class="fil0" points="343,321 419,321 419,398 343,398 "/>
  <polygon class="fil0" points="343,321 419,321 419,398 343,398 "/>
  <polygon class="fil0" points="191,60 191,16 114,16 114,137 "/>
 </g>
</svg>
