<?xml version="1.0" encoding="UTF-8"?>
<!DOCTYPE svg PUBLIC "-//W3C//DTD SVG 1.1//EN" "http://www.w3.org/Graphics/SVG/1.1/DTD/svg11.dtd">
<!-- Creator: CorelDRAW X7 -->
<svg xmlns="http://www.w3.org/2000/svg" xml:space="preserve" width="512px" height="512px" version="1.1" style="shape-rendering:geometricPrecision; text-rendering:geometricPrecision; image-rendering:optimizeQuality; fill-rule:evenodd; clip-rule:evenodd"
viewBox="0 0 512 512"
 xmlns:xlink="http://www.w3.org/1999/xlink">
 <defs>
  <style type="text/css">
   <![CDATA[
    .fil0 {fill:black}
   ]]>
  </style>
 </defs>
 <g id="Layer_x0020_1">
  <metadata id="CorelCorpID_0Corel-Layer"/>
  <path class="fil0" d="M439 347c-21,-55 -70,-78 -70,-79l-51 -18 -7 16 14 5 -52 173 -7 -116 -20 0 -7 114 -51 -171 13 -5 -6 -16c-38,12 -62,19 -92,49 -11,12 -22,28 -30,48 -14,44 -7,124 -9,139l384 0c-2,-14 2,-89 -9,-139zm-132 58c0,0 36,4 64,-10l0 11c-21,8 -43,10 -55,10 -4,0 -8,0 -9,-1l0 -10z"/>
  <path class="fil0" d="M186 198c12,37 36,65 70,65 33,0 57,-28 70,-65 26,-27 20,-46 14,-56 14,-68 -30,-107 -86,-107 -102,0 -85,112 -85,112 0,0 1,0 1,0 -5,10 -6,28 16,51zm42 -83l-7 27c36,-11 41,-17 47,-21 6,-4 11,-9 15,-13 2,4 4,7 7,9 3,3 7,-25 7,-25 0,0 10,17 11,23 1,4 7,20 11,21 -1,53 -25,109 -63,109 -35,0 -58,-48 -62,-98 9,0 34,-32 34,-32z"/>
  <path class="fil0" d="M242 289c0,0 -6,15 -6,15l10 13 20 0 10 -13c0,0 -6,-15 -6,-15 -1,0 -27,0 -28,0z"/>
  <path class="fil0" d="M56 0l400 0c15,0 29,6 40,16 10,11 16,25 16,40l0 400c0,15 -6,29 -16,40 -11,10 -25,16 -40,16l-400 0c-15,0 -29,-6 -40,-16 -10,-11 -16,-25 -16,-40l0 -400c0,-15 6,-29 16,-40 11,-10 25,-16 40,-16zm0 15l400 0c22,0 41,19 41,41l0 400c0,22 -19,41 -41,41l-400 0c-22,0 -41,-19 -41,-41l0 -400c0,-22 19,-41 41,-41z"/>
 </g>
</svg>
