<?xml version="1.0" encoding="UTF-8"?>
<!DOCTYPE svg PUBLIC "-//W3C//DTD SVG 1.1//EN" "http://www.w3.org/Graphics/SVG/1.1/DTD/svg11.dtd">
<!-- Creator: CorelDRAW X7 -->
<svg xmlns="http://www.w3.org/2000/svg" xml:space="preserve" width="512px" height="512px" version="1.1" style="shape-rendering:geometricPrecision; text-rendering:geometricPrecision; image-rendering:optimizeQuality; fill-rule:evenodd; clip-rule:evenodd"
viewBox="0 0 512 512"
 xmlns:xlink="http://www.w3.org/1999/xlink">
 <defs>
  <style type="text/css">
   <![CDATA[
    .fil0 {fill:black}
   ]]>
  </style>
 </defs>
 <g id="Layer_x0020_1">
  <metadata id="CorelCorpID_0Corel-Layer"/>
  <g id="_2218220114368">
   <path class="fil0" d="M346 286c-10,17 -21,31 -36,38 -31,16 -54,29 -54,29l0 0 0 0 0 0 0 0 0 0 0 0c0,0 -23,-13 -54,-29 -15,-7 -26,-21 -36,-38 -45,19 -77,61 -77,99l0 97 334 0 0 -97c0,-38 -32,-80 -77,-99z"/>
   <path class="fil0" d="M187 275c15,2 34,-1 54,-3 4,1 8,2 12,2 4,0 8,-1 12,-2 53,3 94,18 94,-90 0,-73 -48,-132 -106,-132 -59,0 -106,59 -106,132 0,59 11,82 29,90 4,1 7,2 11,3zm-17 -134c11,15 40,12 65,-7 6,-5 12,-11 16,-17 1,0 1,1 2,1 2,0 5,1 7,2 2,1 5,2 7,3 2,1 4,3 6,4 2,2 4,3 5,5 2,1 3,3 5,5 1,1 2,3 3,4 1,2 1,3 2,4 1,3 2,4 2,4 0,0 -1,-2 -1,-4 0,-1 -1,-3 -1,-4 0,-2 -1,-4 -2,-6 -1,-2 -2,-4 -3,-7 -1,-2 -2,-4 -4,-7 -2,-2 -3,-4 -5,-6 -2,-3 -5,-5 -7,-7 -2,-1 -5,-3 -7,-4 1,-3 2,-5 2,-7 9,4 18,9 26,16 26,27 16,58 36,37 3,-3 6,-6 8,-10 1,0 1,0 2,0 3,1 5,3 6,5 2,5 3,11 1,18 -2,10 -9,16 -14,17l-4 0 -2 4c-10,37 -37,76 -68,76 -31,0 -58,-39 -69,-76l-1 -4 -4 0c-5,-1 -12,-7 -14,-17 -2,-7 -1,-13 1,-18 1,-1 2,-3 4,-4z"/>
   <path class="fil0" d="M56 0l400 0c15,0 29,6 40,16 10,11 16,25 16,40l0 400c0,15 -6,29 -16,40 -11,10 -25,16 -40,16l-400 0c-15,0 -29,-6 -40,-16 -10,-11 -16,-25 -16,-40l0 -400c0,-15 6,-29 16,-40 11,-10 25,-16 40,-16zm0 15l400 0c22,0 41,19 41,41l0 400c0,22 -19,41 -41,41l-400 0c-22,0 -41,-19 -41,-41l0 -400c0,-22 19,-41 41,-41z"/>
  </g>
 </g>
</svg>
