<?xml version="1.0" encoding="UTF-8"?>
<!DOCTYPE svg PUBLIC "-//W3C//DTD SVG 1.1//EN" "http://www.w3.org/Graphics/SVG/1.1/DTD/svg11.dtd">
<!-- Creator: CorelDRAW X7 -->
<svg xmlns="http://www.w3.org/2000/svg" xml:space="preserve" width="512px" height="512px" version="1.1" style="shape-rendering:geometricPrecision; text-rendering:geometricPrecision; image-rendering:optimizeQuality; fill-rule:evenodd; clip-rule:evenodd"
viewBox="0 0 512 512"
 xmlns:xlink="http://www.w3.org/1999/xlink">
 <defs>
  <style type="text/css">
   <![CDATA[
    .fil0 {fill:black}
   ]]>
  </style>
 </defs>
 <g id="Layer_x0020_1">
  <metadata id="CorelCorpID_0Corel-Layer"/>
  <g id="_2182249830048">
   <path class="fil0" d="M56 0l400 0c15,0 29,6 40,16 10,11 16,25 16,40l0 400c0,15 -6,29 -16,40 -11,10 -25,16 -40,16l-400 0c-15,0 -29,-6 -40,-16 -10,-11 -16,-25 -16,-40l0 -400c0,-15 6,-29 16,-40 11,-10 25,-16 40,-16zm0 15l400 0c22,0 41,19 41,41l0 400c0,22 -19,41 -41,41l-400 0c-22,0 -41,-19 -41,-41l0 -400c0,-22 19,-41 41,-41z"/>
   <path class="fil0" d="M44 483l424 0c7,0 14,-6 14,-14 0,-8 -7,-14 -15,-14l-28 0 0 -185c25,-7 43,-28 43,-55l0 -14 -452 0 0 14c0,27 18,48 43,55l0 185 -28 0c-8,0 -15,6 -15,14l0 0c0,8 7,14 14,14zm142 -213l0 185 -85 0 0 -185c24,-7 42,-28 42,-55 0,27 18,48 43,55zm126 2c32,0 57,-26 57,-57 0,27 18,48 42,55l0 185 -211 0 0 -183c31,0 56,-26 56,-57 0,31 25,57 56,57z"/>
   <path class="fil0" d="M30 187l0 0 452 0 -57 -113 -338 0 -57 113zm370 -22c-1,1 -2,1 -3,1 -3,0 -5,-1 -6,-4l-28 -56c-2,-4 -1,-8 3,-10 3,-2 7,0 9,3l28 57c2,3 1,7 -3,9zm-56 0c-1,1 -2,1 -3,1 -3,0 -5,-1 -7,-4l-30 -56c-2,-3 -1,-8 2,-10 4,-2 8,0 10,3l31 57c2,3 0,7 -3,9zm-81 -6c0,4 -3,7 -7,7 -4,0 -7,-3 -7,-7l0 -56c0,-4 3,-8 7,-8 4,0 7,4 7,8l0 56zm-57 -53l-28 56c-2,3 -4,4 -7,4 -1,0 -2,0 -3,-1 -3,-2 -5,-6 -3,-9l28 -57c2,-3 6,-4 10,-3 3,2 5,6 3,10zm-56 0l-29 56c-1,3 -3,4 -6,4 -1,0 -2,0 -3,-1 -4,-2 -5,-6 -3,-9l28 -57c2,-3 6,-4 9,-3 4,2 5,6 4,10z"/>
   <path class="fil0" d="M150 373l0 -33c-4,-2 -7,-7 -7,-12 0,-8 7,-14 14,-14 8,0 14,6 14,14 0,5 -2,10 -7,12l0 33c5,2 7,6 7,11 0,8 -6,15 -14,15 -7,0 -14,-7 -14,-15 0,-5 3,-9 7,-11z"/>
   <path class="fil0" d="M87 46c0,-8 6,-14 14,-14l310 0c8,0 14,6 14,14 0,8 -6,14 -14,14l-310 0c-8,0 -14,-6 -14,-14z"/>
   <polygon class="fil0" points="278,347 268,337 307,297 317,307 "/>
   <polygon class="fil0" points="278,387 268,377 347,297 357,307 "/>
   <polygon class="fil0" points="347,337 357,347 317,387 307,377 "/>
  </g>
 </g>
</svg>
