<?xml version="1.0" encoding="UTF-8"?>
<!DOCTYPE svg PUBLIC "-//W3C//DTD SVG 1.1//EN" "http://www.w3.org/Graphics/SVG/1.1/DTD/svg11.dtd">
<!-- Creator: CorelDRAW X7 -->
<svg xmlns="http://www.w3.org/2000/svg" xml:space="preserve" width="512px" height="512px" version="1.1" style="shape-rendering:geometricPrecision; text-rendering:geometricPrecision; image-rendering:optimizeQuality; fill-rule:evenodd; clip-rule:evenodd"
viewBox="0 0 512 512"
 xmlns:xlink="http://www.w3.org/1999/xlink">
 <defs>
  <style type="text/css">
   <![CDATA[
    .fil1 {fill:black}
    .fil0 {fill:black}
   ]]>
  </style>
 </defs>
 <g id="Layer_x0020_1">
  <metadata id="CorelCorpID_0Corel-Layer"/>
  <path class="fil0" d="M56 0l400 0c15,0 29,6 40,16 10,11 16,25 16,40l0 400c0,15 -6,29 -16,40 -11,10 -25,16 -40,16l-400 0c-15,0 -29,-6 -40,-16 -10,-11 -16,-25 -16,-40l0 -400c0,-15 6,-29 16,-40 11,-10 25,-16 40,-16zm0 15l400 0c22,0 41,19 41,41l0 400c0,22 -19,41 -41,41l-400 0c-22,0 -41,-19 -41,-41l0 -400c0,-22 19,-41 41,-41z"/>
  <path class="fil1" d="M422 96c-1,-5 -6,-9 -12,-9l-26 0c-1,0 -1,0 -2,0l0 -25 -292 0 0 338c0,1 0,4 0,7 0,11 2,29 13,42 8,9 19,13 32,13l235 0c7,0 12,-6 12,-13l0 -28 -248 0 0 11 237 0 0 17c0,1 -1,2 -1,2l-235 0c-10,0 -18,-3 -23,-9 -11,-12 -11,-33 -11,-39l281 0 0 -32c1,0 1,0 2,0l26 0c6,0 11,-4 12,-9l0 -81c-1,-2 -2,-4 -3,-6 1,-1 2,-3 3,-6l0 -80c-1,-2 -2,-4 -3,-6 1,-2 2,-4 3,-6l0 -81zm-142 181c-10,0 -18,-6 -18,-20l-1 0c-8,14 -18,20 -32,20 -14,0 -25,-11 -25,-29 0,-29 22,-55 55,-55 10,0 19,2 25,5l-8 42c-4,18 -1,26 7,26 11,0 25,-16 25,-42 0,-34 -21,-58 -57,-58 -37,0 -69,30 -69,77 0,39 25,62 60,62 13,0 25,-2 35,-8l3 10c-12,7 -25,10 -41,10 -38,0 -70,-28 -70,-73 0,-48 33,-89 84,-89 41,0 68,28 68,67 0,35 -20,55 -41,55zm131 82c0,1 -1,1 -1,1l-26 0c-1,0 -2,0 -2,-1l0 -75c0,-1 1,-2 2,-2l26 0c0,0 1,1 1,2l0 75zm0 -92c0,0 -1,1 -1,1l-26 0c-1,0 -2,-1 -2,-1l0 -75c0,-1 1,-2 2,-2l26 0c0,0 1,1 1,2l0 75zm0 -93c0,1 -1,2 -1,2l-26 0c-1,0 -2,-1 -2,-2l0 -75c0,-1 1,-1 2,-1l26 0c0,0 1,0 1,1l0 75z"/>
  <path class="fil1" d="M219 247c0,10 5,18 15,18 14,0 26,-17 29,-32l5 -26c-3,-1 -7,-2 -12,-2 -21,0 -37,20 -37,42z"/>
 </g>
</svg>
