<?xml version="1.0" encoding="UTF-8"?>
<!DOCTYPE svg PUBLIC "-//W3C//DTD SVG 1.1//EN" "http://www.w3.org/Graphics/SVG/1.1/DTD/svg11.dtd">
<!-- Creator: CorelDRAW X7 -->
<svg xmlns="http://www.w3.org/2000/svg" xml:space="preserve" width="707px" height="512px" version="1.1" style="shape-rendering:geometricPrecision; text-rendering:geometricPrecision; image-rendering:optimizeQuality; fill-rule:evenodd; clip-rule:evenodd"
viewBox="0 0 707 512"
 xmlns:xlink="http://www.w3.org/1999/xlink">
 <defs>
  <style type="text/css">
   <![CDATA[
    .fil0 {fill:black}
   ]]>
  </style>
 </defs>
 <g id="Layer_x0020_1">
  <metadata id="CorelCorpID_0Corel-Layer"/>
  <path class="fil0" d="M237 512c-59,0 -106,-27 -118,-84 -15,-65 -22,-133 10,-198 12,-23 32,-38 53,-51 23,-13 37,-29 32,-58 -2,-10 2,-21 1,-31 -1,-5 -8,-9 -12,-14 -3,5 -10,10 -9,15 5,43 -21,64 -56,79 -19,8 -39,15 -60,20 -19,4 -39,0 -55,-13 -33,-26 -31,-75 7,-99 25,-17 54,-29 83,-39 68,-26 139,-36 211,-39l50 0c36,2 73,7 109,11 62,6 120,27 176,54 15,8 30,20 39,35 5,9 8,19 9,29l0 7c-2,31 -29,57 -68,55 -40,-3 -77,-18 -107,-46 -14,-13 -21,-28 -19,-48 1,-4 1,-8 0,-11 -3,-4 -8,-8 -12,-9 -2,0 -7,6 -8,10 -2,4 0,9 0,14 0,8 3,16 1,24 -6,27 9,40 29,53 29,17 54,40 66,73 11,28 12,152 1,179 -19,48 -58,84 -120,82 -20,-1 -195,0 -233,0zm116 -134c45,-2 85,-14 116,-47 31,-33 34,-70 9,-108 -15,-22 -36,-35 -59,-45 -61,-25 -134,-12 -177,31 -38,38 -39,87 -1,125 31,31 70,42 112,44zm1 -314l0 0c-20,0 -40,0 -60,0 -13,0 -18,5 -18,18 0,3 -1,7 0,10 1,5 2,10 4,15 4,-2 10,-3 14,-6 31,-21 89,-20 120,1 4,2 9,3 14,5 1,-5 3,-10 4,-16 0,-3 -1,-7 -1,-10 0,-13 -6,-18 -19,-17 -19,0 -38,0 -58,0z"/>
  <path class="fil0" d="M361 320c-28,-2 -48,-7 -64,-21 -27,-23 -27,-56 0,-79 29,-25 82,-26 111,-2 33,27 30,68 -7,88 -14,8 -31,11 -40,14z"/>
 </g>
</svg>
