<?xml version="1.0" encoding="UTF-8"?>
<!DOCTYPE svg PUBLIC "-//W3C//DTD SVG 1.1//EN" "http://www.w3.org/Graphics/SVG/1.1/DTD/svg11.dtd">
<!-- Creator: CorelDRAW X7 -->
<svg xmlns="http://www.w3.org/2000/svg" xml:space="preserve" width="549px" height="512px" version="1.1" style="shape-rendering:geometricPrecision; text-rendering:geometricPrecision; image-rendering:optimizeQuality; fill-rule:evenodd; clip-rule:evenodd"
viewBox="0 0 549 512"
 xmlns:xlink="http://www.w3.org/1999/xlink">
 <defs>
  <style type="text/css">
   <![CDATA[
    .fil0 {fill:black}
   ]]>
  </style>
 </defs>
 <g id="Layer_x0020_1">
  <metadata id="CorelCorpID_0Corel-Layer"/>
  <path class="fil0" d="M412 98l-67 0c-3,0 -5,3 -5,6 0,3 2,6 5,6l67 0c3,0 6,-3 6,-6 0,-3 -3,-6 -6,-6z"/>
  <path class="fil0" d="M479 65l-134 0c-3,0 -5,2 -5,5 0,3 2,6 5,6l134 0c3,0 5,-3 5,-6 0,-3 -2,-5 -5,-5z"/>
  <path class="fil0" d="M479 31l-134 0c-3,0 -5,3 -5,6 0,3 2,5 5,5l134 0c3,0 5,-2 5,-5 0,-3 -2,-6 -5,-6z"/>
  <path class="fil0" d="M506 84l0 -84 -188 0 0 84 -74 0c7,15 10,30 10,47l0 287c0,17 -3,32 -10,47l261 0c23,0 43,-19 44,-42l0 -298c-1,-22 -20,-41 -43,-41zm-176 -73l164 0 0 115 -164 0 0 -115zm11 356c-21,0 -23,-2 -23,-23 0,-21 2,-24 23,-24 21,0 24,3 24,24 0,21 -3,23 -24,23zm0 -69c-21,0 -23,-3 -23,-24 0,-21 2,-23 23,-23 21,0 24,2 24,23 0,21 -3,24 -24,24zm0 -70c-21,0 -23,-2 -23,-23 0,-21 2,-24 23,-24 21,0 24,3 24,24 0,21 -3,23 -24,23zm71 139c-21,0 -24,-2 -24,-23 0,-21 3,-24 24,-24 21,0 24,3 24,24 0,21 -3,23 -24,23zm0 -69c-21,0 -24,-3 -24,-24 0,-21 3,-23 24,-23 21,0 24,2 24,23 0,21 -3,24 -24,24zm0 -70c-21,0 -24,-2 -24,-23 0,-21 3,-24 24,-24 21,0 24,3 24,24 0,21 -3,23 -24,23zm71 139c-21,0 -24,-2 -24,-23 0,-21 3,-24 24,-24 21,0 23,3 23,24 0,21 -2,23 -23,23zm0 -69c-21,0 -24,-3 -24,-24 0,-21 3,-23 24,-23 21,0 23,2 23,23 0,21 -2,24 -23,24zm0 -70c-21,0 -24,-2 -24,-23 0,-21 3,-24 24,-24 21,0 23,3 23,24 0,21 -2,23 -23,23z"/>
  <path class="fil0" d="M137 37c-52,0 -94,42 -94,94l0 287c0,52 42,94 94,94l0 0c52,0 95,-42 95,-94l0 -287c0,-52 -43,-94 -95,-94z"/>
  <path class="fil0" d="M30 86c-18,7 -30,24 -30,43l0 291c0,19 12,36 30,42 -6,-14 -9,-29 -9,-44l0 -287c0,-16 3,-30 9,-45z"/>
 </g>
</svg>
