<?xml version="1.0" encoding="UTF-8"?>
<!DOCTYPE svg PUBLIC "-//W3C//DTD SVG 1.1//EN" "http://www.w3.org/Graphics/SVG/1.1/DTD/svg11.dtd">
<!-- Creator: CorelDRAW X7 -->
<svg xmlns="http://www.w3.org/2000/svg" xml:space="preserve" width="512px" height="512px" version="1.1" style="shape-rendering:geometricPrecision; text-rendering:geometricPrecision; image-rendering:optimizeQuality; fill-rule:evenodd; clip-rule:evenodd"
viewBox="0 0 512 512"
 xmlns:xlink="http://www.w3.org/1999/xlink">
 <defs>
  <style type="text/css">
   <![CDATA[
    .fil0 {fill:black}
   ]]>
  </style>
 </defs>
 <g id="Layer_x0020_1">
  <metadata id="CorelCorpID_0Corel-Layer"/>
  <path class="fil0" d="M256 0c-141,0 -256,115 -256,256 0,141 115,256 256,256 141,0 256,-115 256,-256 0,-141 -115,-256 -256,-256zm108 427l-11 -19c-2,-2 -4,-4 -7,-4 -1,0 -2,1 -3,1 -2,1 -3,3 -3,5 -1,2 -1,4 0,5l11 19c-24,13 -52,22 -82,24l0 -27c0,-8 -6,-14 -13,-14 -7,0 -13,6 -13,14l0 27c-29,-2 -57,-10 -81,-23l11 -19c1,-2 1,-4 0,-6 0,-2 -1,-3 -3,-4 -1,-1 -2,-1 -3,-1 -3,0 -5,1 -7,4l-11 19c-24,-16 -45,-36 -61,-60l23 -13c7,-4 9,-12 5,-18 -3,-7 -12,-9 -18,-5l-23 13c-13,-25 -20,-52 -21,-81l22 0c2,0 4,-1 5,-2 1,-2 2,-4 2,-5 0,-4 -3,-8 -7,-8l-22 0c1,-29 8,-57 21,-82l23 13c2,1 4,2 7,2 4,0 9,-2 11,-7 4,-6 2,-14 -5,-18l-23 -13c16,-24 36,-44 60,-59l11 19c1,1 2,2 3,3 2,1 5,1 7,0 2,-1 3,-3 3,-5 1,-2 1,-4 0,-5l-11 -19c24,-13 52,-22 82,-24l0 27c0,8 6,14 13,14 7,0 13,-6 13,-14l0 -27c29,2 57,10 81,23l-11 19c-2,4 0,8 3,10 1,1 2,1 3,1 3,0 5,-1 7,-4l11 -19c24,16 45,36 61,60l-23 13c-7,4 -9,12 -5,18 2,5 7,7 11,7 3,0 5,-1 7,-2l23 -13c13,25 20,52 21,81l-22 0c-2,0 -4,1 -5,2 -1,2 -2,4 -2,5 0,3 1,5 3,7 2,0 3,1 4,1l0 0 22 0c-1,29 -8,57 -21,82l-23 -13c-6,-4 -15,-2 -18,5 -4,6 -2,14 5,18l23 13c-16,24 -36,44 -60,59z"/>
  <path class="fil0" d="M356 183l-87 48c-4,-2 -8,-3 -13,-3 -5,0 -9,1 -13,3l-87 -48c-8,-5 -18,-2 -23,7 -4,8 -1,18 7,23l88 48c3,14 14,23 28,23 14,0 25,-9 28,-23l88 -48c8,-5 11,-15 7,-23 -5,-9 -15,-12 -23,-7z"/>
 </g>
</svg>
