<?xml version="1.0" encoding="UTF-8"?>
<!DOCTYPE svg PUBLIC "-//W3C//DTD SVG 1.1//EN" "http://www.w3.org/Graphics/SVG/1.1/DTD/svg11.dtd">
<!-- Creator: CorelDRAW X7 -->
<svg xmlns="http://www.w3.org/2000/svg" xml:space="preserve" width="902px" height="512px" version="1.1" style="shape-rendering:geometricPrecision; text-rendering:geometricPrecision; image-rendering:optimizeQuality; fill-rule:evenodd; clip-rule:evenodd"
viewBox="0 0 902 512"
 xmlns:xlink="http://www.w3.org/1999/xlink">
 <defs>
  <style type="text/css">
   <![CDATA[
    .fil0 {fill:black}
   ]]>
  </style>
 </defs>
 <g id="Layer_x0020_1">
  <metadata id="CorelCorpID_0Corel-Layer"/>
  <path class="fil0" d="M734 302c-6,14 -14,27 -21,39l104 130 -551 0 0 0 -1 0 -180 0 109 -136c0,-1 0,-2 0,-3 0,-40 32,-72 72,-72 10,0 20,3 29,7l73 0c-8,-14 -16,-27 -23,-41l-116 0 -229 286 902 0 0 0 -168 -210z"/>
  <path class="fil0" d="M557 226c-7,14 -15,27 -22,41l43 0c-4,-11 -6,-21 -6,-29 0,-4 1,-8 1,-12l-16 0z"/>
  <path class="fil0" d="M567 116c0,-64 -52,-116 -116,-116 -64,0 -116,52 -116,116 0,64 116,232 116,232 0,0 116,-168 116,-232zm-174 0c0,-32 26,-58 58,-58 32,0 58,26 58,58 0,32 -26,58 -58,58 -32,0 -58,-26 -58,-58z"/>
  <path class="fil0" d="M732 238c0,-38 -30,-68 -68,-68 -38,0 -69,30 -69,68 0,38 69,137 69,137 0,0 68,-99 68,-137zm-102 0c0,-19 15,-34 34,-34 19,0 34,15 34,34 0,19 -15,34 -34,34 -19,0 -34,-15 -34,-34z"/>
  <path class="fil0" d="M212 332c0,30 54,107 54,107 0,0 53,-77 53,-107 0,-30 -24,-54 -53,-54 -30,0 -54,24 -54,54zm81 0c0,15 -12,27 -27,27 -15,0 -27,-12 -27,-27 0,-15 12,-27 27,-27 15,0 27,12 27,27z"/>
 </g>
</svg>
