<?xml version="1.0" encoding="UTF-8"?>
<!DOCTYPE svg PUBLIC "-//W3C//DTD SVG 1.1//EN" "http://www.w3.org/Graphics/SVG/1.1/DTD/svg11.dtd">
<!-- Creator: CorelDRAW X7 -->
<svg xmlns="http://www.w3.org/2000/svg" xml:space="preserve" width="512px" height="512px" version="1.1" style="shape-rendering:geometricPrecision; text-rendering:geometricPrecision; image-rendering:optimizeQuality; fill-rule:evenodd; clip-rule:evenodd"
viewBox="0 0 512 512"
 xmlns:xlink="http://www.w3.org/1999/xlink">
 <defs>
  <style type="text/css">
   <![CDATA[
    .fil0 {fill:black}
   ]]>
  </style>
 </defs>
 <g id="Layer_x0020_1">
  <metadata id="CorelCorpID_0Corel-Layer"/>
  <path class="fil0" d="M256 0c-141,0 -256,115 -256,256l0 0c0,141 115,256 256,256 141,0 256,-115 256,-256 0,-141 -115,-256 -256,-256l0 0zm147 213l-161 161c-7,6 -16,10 -25,10 -10,0 -19,-4 -26,-10l-82 -82c-7,-7 -11,-16 -11,-26 0,-10 4,-19 11,-26 7,-6 16,-10 26,-10 9,0 18,4 25,10l57 57 135 -135c7,-7 16,-11 25,-11 10,0 19,4 26,11 14,14 14,37 0,51z"/>
 </g>
</svg>
