<?xml version="1.0" encoding="UTF-8"?>
<!DOCTYPE svg PUBLIC "-//W3C//DTD SVG 1.1//EN" "http://www.w3.org/Graphics/SVG/1.1/DTD/svg11.dtd">
<!-- Creator: CorelDRAW X7 -->
<svg xmlns="http://www.w3.org/2000/svg" xml:space="preserve" width="512px" height="512px" version="1.1" style="shape-rendering:geometricPrecision; text-rendering:geometricPrecision; image-rendering:optimizeQuality; fill-rule:evenodd; clip-rule:evenodd"
viewBox="0 0 512 512"
 xmlns:xlink="http://www.w3.org/1999/xlink">
 <defs>
  <style type="text/css">
   <![CDATA[
    .fil0 {fill:black}
   ]]>
  </style>
 </defs>
 <g id="Layer_x0020_1">
  <metadata id="CorelCorpID_0Corel-Layer"/>
  <path class="fil0" d="M256 0c-142,0 -256,114 -256,256 0,142 114,256 256,256 142,0 256,-114 256,-256 0,-142 -114,-256 -256,-256zm151 268c0,7 -4,11 -11,11l-193 0c-5,0 -9,6 -5,11l46 46c5,5 5,12 0,17l-16 16c-2,2 -5,3 -8,3 -4,0 -6,-1 -8,-3l-105 -105c-1,-2 -2,-5 -2,-8 0,-4 1,-6 3,-8l105 -105c2,-2 5,-3 8,-3 4,0 6,1 8,3l17 16c4,5 4,12 0,17l-47 46c-3,4 -1,11 5,11l192 0c7,0 11,4 11,11l0 24z"/>
 </g>
</svg>
