<?xml version="1.0" encoding="UTF-8"?>
<!DOCTYPE svg PUBLIC "-//W3C//DTD SVG 1.1//EN" "http://www.w3.org/Graphics/SVG/1.1/DTD/svg11.dtd">
<!-- Creator: CorelDRAW X7 -->
<svg xmlns="http://www.w3.org/2000/svg" xml:space="preserve" width="512px" height="512px" version="1.1" style="shape-rendering:geometricPrecision; text-rendering:geometricPrecision; image-rendering:optimizeQuality; fill-rule:evenodd; clip-rule:evenodd"
viewBox="0 0 512 512"
 xmlns:xlink="http://www.w3.org/1999/xlink">
 <defs>
  <style type="text/css">
   <![CDATA[
    .fil0 {fill:black}
   ]]>
  </style>
 </defs>
 <g id="Layer_x0020_1">
  <metadata id="CorelCorpID_0Corel-Layer"/>
  <path class="fil0" d="M253 0c-142,2 -255,118 -253,259 2,142 118,255 259,253 142,-2 255,-118 253,-259 -2,-142 -118,-255 -259,-253zm-1 412l-2 0c-21,-1 -37,-17 -36,-38 1,-21 16,-37 37,-37l2 0c22,1 37,17 36,39 0,21 -16,36 -37,36zm91 -182c-5,7 -16,16 -30,27l-16 11c-8,7 -14,13 -15,19 -2,5 -3,6 -3,16l0 3 -60 0 1 -5c0,-21 1,-33 9,-43 14,-16 44,-35 45,-36 4,-3 8,-7 10,-11 7,-8 10,-15 10,-22 0,-9 -3,-18 -9,-25 -5,-8 -15,-11 -29,-11 -14,0 -24,4 -30,13 -6,10 -9,20 -9,30l0 3 -62 0 1 -3c1,-38 15,-65 40,-81 15,-10 35,-15 57,-15 30,0 55,7 75,22 20,14 30,36 30,64 0,16 -5,31 -15,44z"/>
 </g>
</svg>
