<?xml version="1.0" encoding="UTF-8"?>
<!DOCTYPE svg PUBLIC "-//W3C//DTD SVG 1.1//EN" "http://www.w3.org/Graphics/SVG/1.1/DTD/svg11.dtd">
<!-- Creator: CorelDRAW X7 -->
<svg xmlns="http://www.w3.org/2000/svg" xml:space="preserve" width="512px" height="512px" version="1.1" style="shape-rendering:geometricPrecision; text-rendering:geometricPrecision; image-rendering:optimizeQuality; fill-rule:evenodd; clip-rule:evenodd"
viewBox="0 0 512 512"
 xmlns:xlink="http://www.w3.org/1999/xlink">
 <defs>
  <style type="text/css">
   <![CDATA[
    .fil0 {fill:black}
   ]]>
  </style>
 </defs>
 <g id="Layer_x0020_1">
  <metadata id="CorelCorpID_0Corel-Layer"/>
  <path class="fil0" d="M256 0c-141,0 -256,115 -256,256 0,141 115,256 256,256 141,0 256,-115 256,-256 0,-141 -115,-256 -256,-256zm0 474c-120,0 -218,-98 -218,-218 0,-120 98,-218 218,-218 120,0 218,98 218,218 0,120 -98,218 -218,218z"/>
  <path class="fil0" d="M256 60c-108,0 -196,88 -196,196 0,108 88,196 196,196 108,0 196,-88 196,-196 0,-108 -88,-196 -196,-196zm71 122c-13,-10 -48,-15 -64,-15 -13,0 -24,4 -34,12 -9,8 -16,19 -20,33l73 0 0 32 -78 0c-1,7 -1,12 -1,14 0,4 0,7 0,10l79 0 0 33 -73 0c8,29 25,44 51,44 16,0 52,-5 67,-16l0 43c-14,8 -52,12 -74,12 -25,0 -47,-7 -63,-21 -16,-15 -27,-35 -32,-62l-42 0 0 -33 37 0c0,-2 0,-6 0,-10 0,-2 0,-6 0,-14l-37 0 0 -32 43 0c6,-27 18,-47 35,-62 18,-15 40,-22 66,-22 19,0 55,3 67,9l0 45z"/>
 </g>
</svg>
