<?xml version="1.0" encoding="UTF-8"?>
<!DOCTYPE svg PUBLIC "-//W3C//DTD SVG 1.1//EN" "http://www.w3.org/Graphics/SVG/1.1/DTD/svg11.dtd">
<!-- Creator: CorelDRAW X7 -->
<svg xmlns="http://www.w3.org/2000/svg" xml:space="preserve" width="913px" height="512px" version="1.1" style="shape-rendering:geometricPrecision; text-rendering:geometricPrecision; image-rendering:optimizeQuality; fill-rule:evenodd; clip-rule:evenodd"
viewBox="0 0 913 512"
 xmlns:xlink="http://www.w3.org/1999/xlink">
 <defs>
  <style type="text/css">
   <![CDATA[
    .fil0 {fill:black}
   ]]>
  </style>
 </defs>
 <g id="Layer_x0020_1">
  <metadata id="CorelCorpID_0Corel-Layer"/>
  <path class="fil0" d="M338 359c-42,0 -76,35 -76,77 0,42 34,76 76,76 42,0 77,-34 77,-76 0,-42 -35,-77 -77,-77zm0 115c-21,0 -38,-17 -38,-38 0,-21 17,-38 38,-38 21,0 38,17 38,38 0,21 -17,38 -38,38zm575 -171l0 81c0,21 -16,37 -37,37l-39 0c-7,-49 -49,-86 -100,-86 -50,0 -92,37 -100,86l-199 0c-7,-49 -49,-86 -100,-86 -50,0 -92,37 -99,86l-50 0c-20,0 -36,-16 -36,-37l0 -81 760 0zm-176 56c-42,0 -76,35 -76,77 0,42 34,76 76,76 42,0 76,-34 76,-76 0,-42 -34,-77 -76,-77zm0 115c-21,0 -38,-17 -38,-38 0,-21 17,-38 38,-38 21,0 38,17 38,38 0,21 -17,38 -38,38zm162 -253l-145 -143c-9,-9 -21,-14 -34,-14l-73 0 0 -27c0,-21 -17,-37 -37,-37l-421 0c-20,0 -36,16 -36,37l0 6 -150 17 265 34 -268 27 267 38 -267 23 153 29 0 72 760 0 0 -27c0,-13 -5,-26 -14,-35zm-63 5l-140 0c-3,0 -6,-3 -6,-6l0 -108c0,-3 3,-6 6,-6l26 0c2,0 3,1 4,2l114 108c3,4 1,10 -4,10z"/>
 </g>
</svg>
