<?xml version="1.0" encoding="UTF-8"?>
<!DOCTYPE svg PUBLIC "-//W3C//DTD SVG 1.1//EN" "http://www.w3.org/Graphics/SVG/1.1/DTD/svg11.dtd">
<!-- Creator: CorelDRAW X7 -->
<svg xmlns="http://www.w3.org/2000/svg" xml:space="preserve" width="374px" height="512px" version="1.1" style="shape-rendering:geometricPrecision; text-rendering:geometricPrecision; image-rendering:optimizeQuality; fill-rule:evenodd; clip-rule:evenodd"
viewBox="0 0 374 512"
 xmlns:xlink="http://www.w3.org/1999/xlink">
 <defs>
  <style type="text/css">
   <![CDATA[
    .fil0 {fill:black}
   ]]>
  </style>
 </defs>
 <g id="Layer_x0020_1">
  <metadata id="CorelCorpID_0Corel-Layer"/>
  <path class="fil0" d="M351 86l-63 -63c-14,-15 -34,-23 -55,-23 -21,0 -41,8 -55,23l-124 124c-31,31 -31,80 0,111l62 63c16,15 36,22 56,22 20,0 40,-7 55,-22l33 -33 0 0 0 -1 -35 -35 -1 0 0 0 -33 33c-10,11 -28,11 -39,0l-63 -63c-10,-11 -10,-28 0,-39l124 -124c6,-6 13,-8 20,-8 7,0 14,2 20,8l62 62c6,6 9,13 9,20 0,7 -3,15 -9,20l-32 32 36 36 32 -32c15,-15 23,-35 23,-56 0,-21 -8,-40 -23,-55z"/>
  <path class="fil0" d="M258 191c-15,-14 -35,-23 -56,-23 -21,0 -40,9 -55,23l-32 33 36 35 32 -32c5,-5 12,-8 19,-8 8,0 15,3 20,8l63 63c11,11 11,28 0,39l-124 124c-11,11 -29,11 -40,0l-62 -62c-6,-6 -8,-13 -8,-20 0,-8 2,-15 8,-20l32 -32 -36 -36 -32 32c-15,15 -23,35 -23,56 0,21 8,40 23,55l63 63c15,15 34,23 55,23 21,0 41,-8 56,-23l124 -124c30,-31 30,-80 0,-111l-63 -63z"/>
 </g>
</svg>
