<?xml version="1.0" encoding="UTF-8"?>
<!DOCTYPE svg PUBLIC "-//W3C//DTD SVG 1.1//EN" "http://www.w3.org/Graphics/SVG/1.1/DTD/svg11.dtd">
<!-- Creator: CorelDRAW X7 -->
<svg xmlns="http://www.w3.org/2000/svg" xml:space="preserve" width="354px" height="512px" version="1.1" style="shape-rendering:geometricPrecision; text-rendering:geometricPrecision; image-rendering:optimizeQuality; fill-rule:evenodd; clip-rule:evenodd"
viewBox="0 0 354 512"
 xmlns:xlink="http://www.w3.org/1999/xlink">
 <defs>
  <style type="text/css">
   <![CDATA[
    .fil0 {fill:black}
   ]]>
  </style>
 </defs>
 <g id="Layer_x0020_1">
  <metadata id="CorelCorpID_0Corel-Layer"/>
  <path class="fil0" d="M101 64l0 -19c0,-4 3,-7 7,-7l12 0c13,0 25,-8 30,-20 5,-11 15,-18 27,-18 12,0 23,7 27,18 6,12 17,20 30,20l12 0c4,0 8,3 8,7l0 19c0,4 -4,8 -8,8l-138 0c-4,0 -7,-4 -7,-8zm-27 356l35 0 0 -36 -35 0 0 36zm0 -213l35 0 0 -35 -35 0 0 35zm280 -93l0 349c0,27 -22,49 -49,49l-256 0c-27,0 -49,-22 -49,-49l0 -349c0,-27 22,-49 49,-49l27 0c1,17 15,31 32,31l138 0c17,0 32,-14 32,-31l27 0c27,0 49,22 49,49zm-201 75c0,7 6,13 13,13l110 0c7,0 12,-6 12,-13 0,-6 -5,-12 -12,-12l-110 0c-7,0 -13,6 -13,12zm0 108c0,7 6,12 13,12l98 0c6,0 12,-5 12,-12 0,-7 -6,-12 -12,-12l-98 0c-7,0 -13,5 -13,12zm-19 75c0,-7 -6,-12 -12,-12l-60 0c-7,0 -12,5 -12,12l0 60c0,7 5,12 12,12l60 0c6,0 12,-5 12,-12l0 -60zm0 -106c0,-7 -6,-12 -12,-12l-60 0c-7,0 -12,5 -12,12l0 60c0,6 5,12 12,12l60 0c6,0 12,-6 12,-12l0 -60zm0 -106c0,-7 -6,-12 -12,-12l-60 0c-7,0 -12,5 -12,12l0 60c0,6 5,12 12,12l60 0c6,0 12,-6 12,-12l0 -60zm160 244c0,-7 -5,-12 -12,-12l-116 0c-7,0 -13,5 -13,12 0,7 6,12 13,12l116 0c7,0 12,-5 12,-12zm-220 -91l35 0 0 -35 -35 0 0 35z"/>
 </g>
</svg>
