<?xml version="1.0" encoding="UTF-8"?>
<!DOCTYPE svg PUBLIC "-//W3C//DTD SVG 1.1//EN" "http://www.w3.org/Graphics/SVG/1.1/DTD/svg11.dtd">
<!-- Creator: CorelDRAW X7 -->
<svg xmlns="http://www.w3.org/2000/svg" xml:space="preserve" width="649px" height="512px" version="1.1" style="shape-rendering:geometricPrecision; text-rendering:geometricPrecision; image-rendering:optimizeQuality; fill-rule:evenodd; clip-rule:evenodd"
viewBox="0 0 649 512"
 xmlns:xlink="http://www.w3.org/1999/xlink">
 <defs>
  <style type="text/css">
   <![CDATA[
    .fil0 {fill:black}
   ]]>
  </style>
 </defs>
 <g id="Layer_x0020_1">
  <metadata id="CorelCorpID_0Corel-Layer"/>
  <path class="fil0" d="M639 0l-629 0c-5,0 -10,5 -10,10l0 492c0,5 5,10 10,10l629 0c6,0 10,-5 10,-10l0 -492c0,-5 -4,-10 -10,-10zm-52 430l-141 -146c-2,-2 -4,-2 -6,-1l-98 87 -125 -155c-1,-1 -2,-1 -4,-1 -1,0 -2,0 -3,1l-148 199 0 -352 525 0 0 368z"/>
  <path class="fil0" d="M432 210c28,0 51,-22 51,-50 0,-28 -23,-51 -51,-51 -28,0 -50,23 -50,51 0,28 22,50 50,50z"/>
 </g>
</svg>
