<?xml version="1.0" encoding="UTF-8"?>
<!DOCTYPE svg PUBLIC "-//W3C//DTD SVG 1.1//EN" "http://www.w3.org/Graphics/SVG/1.1/DTD/svg11.dtd">
<!-- Creator: CorelDRAW X7 -->
<svg xmlns="http://www.w3.org/2000/svg" xml:space="preserve" width="512px" height="512px" version="1.1" style="shape-rendering:geometricPrecision; text-rendering:geometricPrecision; image-rendering:optimizeQuality; fill-rule:evenodd; clip-rule:evenodd"
viewBox="0 0 512 512"
 xmlns:xlink="http://www.w3.org/1999/xlink">
 <defs>
  <style type="text/css">
   <![CDATA[
    .fil0 {fill:black}
   ]]>
  </style>
 </defs>
 <g id="Layer_x0020_1">
  <metadata id="CorelCorpID_0Corel-Layer"/>
  <path class="fil0" d="M100 0l312 0c55,0 100,45 100,100l0 312c0,55 -45,100 -100,100l-312 0c-55,0 -100,-45 -100,-100l0 -312c0,-55 45,-100 100,-100zm370 336l0 0c-11,44 -60,91 -104,101l-1 0c-36,7 -73,10 -109,10 -11,0 -21,0 -32,-1l-50 52c-12,12 -33,4 -33,-14l0 -49c-44,-12 -89,-57 -99,-99l0 0c-14,-61 -14,-123 0,-184l0 -1c11,-44 60,-90 104,-100l1 0c72,-14 146,-14 218,0l1 0c44,10 93,56 104,100l0 1c14,61 14,123 0,184zm-113 -246c-67,-13 -135,-13 -202,0 -30,7 -67,42 -74,71 -12,55 -12,111 0,166 7,28 44,64 74,70l0 0c1,1 2,2 2,3l0 81c0,4 5,6 8,3l38 -39c0,0 31,-32 36,-37 1,-1 1,-1 2,-1 39,1 78,-2 116,-10 30,-6 67,-42 74,-70 12,-55 12,-111 0,-166 -7,-29 -44,-64 -74,-71zm1 241c-6,13 -14,23 -26,30 -4,1 -8,2 -12,3 -5,-1 -9,-2 -13,-4 -41,-17 -79,-39 -110,-73 -17,-20 -30,-41 -42,-64 -5,-11 -10,-23 -14,-34 -5,-10 2,-21 8,-29 6,-7 14,-13 23,-17 7,-3 13,-1 18,4 11,13 20,26 28,40 5,8 4,19 -5,25 -2,2 -4,3 -6,5 -2,1 -4,3 -5,5 -2,3 -2,7 -1,11 11,30 29,53 59,65 5,2 10,5 15,4 10,-1 13,-11 19,-16 6,-6 14,-6 21,-1 7,4 14,9 20,13 7,5 13,9 19,15 6,5 8,11 4,18zm-53 -97c-3,0 -2,0 -1,0 -4,0 -6,-2 -7,-6 0,-3 0,-6 -1,-9 -1,-5 -4,-11 -9,-14 -2,-2 -5,-3 -7,-4 -4,-1 -7,0 -10,-1 -4,-1 -6,-4 -5,-7 0,-3 3,-6 7,-6 21,2 36,13 38,38 0,1 0,3 0,5 -1,3 -3,4 -5,4 0,0 0,0 0,0zm-13 -56c-7,-3 -14,-5 -21,-7 -3,0 -6,0 -9,-1 -4,0 -6,-3 -6,-6 0,-4 3,-6 7,-6 12,0 24,3 35,9 23,12 36,31 39,56 1,1 1,2 1,3 0,3 0,6 1,10 -1,0 -1,2 -1,3 -1,6 -10,7 -12,1 0,-2 0,-3 0,-5 0,-12 -3,-23 -9,-33 -5,-10 -15,-19 -25,-24zm69 77c-4,0 -6,-3 -6,-7 -1,-8 -1,-16 -2,-23 -6,-41 -38,-74 -78,-81 -6,-1 -13,-2 -19,-2 -4,-1 -9,-1 -10,-6 0,-4 3,-7 7,-7 1,0 2,0 3,0 52,1 3,0 0,0 54,1 99,37 108,91 2,9 3,18 3,28 1,4 -2,7 -6,7z"/>
 </g>
</svg>
