<?xml version="1.0" encoding="UTF-8"?>
<!DOCTYPE svg PUBLIC "-//W3C//DTD SVG 1.1//EN" "http://www.w3.org/Graphics/SVG/1.1/DTD/svg11.dtd">
<!-- Creator: CorelDRAW X7 -->
<svg xmlns="http://www.w3.org/2000/svg" xml:space="preserve" width="512px" height="512px" version="1.1" style="shape-rendering:geometricPrecision; text-rendering:geometricPrecision; image-rendering:optimizeQuality; fill-rule:evenodd; clip-rule:evenodd"
viewBox="0 0 512 512"
 xmlns:xlink="http://www.w3.org/1999/xlink">
 <defs>
  <style type="text/css">
   <![CDATA[
    .fil0 {fill:black}
   ]]>
  </style>
 </defs>
 <g id="Layer_x0020_1">
  <metadata id="CorelCorpID_0Corel-Layer"/>
  <path class="fil0" d="M100 0l312 0c55,0 100,45 100,100l0 312c0,55 -45,100 -100,100l-312 0c-55,0 -100,-45 -100,-100l0 -312c0,-55 45,-100 100,-100zm258 288c-1,-1 -32,-16 -37,-18 -3,-1 -5,-2 -8,-2 -4,0 -7,3 -10,7 -3,4 -12,15 -15,18 -1,1 -1,1 -2,1 0,0 -5,-2 -6,-2 -33,-15 -59,-49 -62,-55 -1,-1 -1,-1 -1,-1 1,-1 2,-2 2,-3 2,-1 4,-3 6,-6 0,-1 1,-2 2,-3 3,-3 4,-5 5,-8l1 -1c3,-6 0,-12 -1,-14 0,-1 -13,-33 -15,-36 -3,-8 -8,-12 -14,-12 0,0 0,0 -2,0 -3,1 -19,3 -26,7 -7,5 -20,20 -20,46 0,24 15,46 22,54 0,1 0,1 0,2 25,36 56,62 87,75 30,12 44,13 52,13l0 0c4,0 6,0 9,0l1 0c11,-1 33,-13 39,-28 4,-11 5,-23 2,-28 -2,-3 -5,-4 -9,-6zm-98 -245c-115,0 -209,93 -209,208 0,37 10,73 29,104l-36 106c0,1 -1,1 -1,2l0 0c1,2 1,3 2,4 1,1 3,2 4,2 1,0 1,-1 2,-1l110 -35c30,16 64,25 99,25 115,0 209,-93 209,-207 0,-115 -94,-208 -209,-208zm0 372c-33,0 -64,-10 -91,-27 -1,-1 -2,-1 -3,-1 -1,0 -1,0 -2,0l-55 17 18 -52c0,-2 0,-4 -1,-5 -21,-28 -32,-62 -32,-96 0,-91 75,-164 166,-164 91,0 165,73 165,164 0,90 -74,164 -165,164z"/>
 </g>
</svg>
