<?xml version="1.0" encoding="UTF-8"?>
<!DOCTYPE svg PUBLIC "-//W3C//DTD SVG 1.1//EN" "http://www.w3.org/Graphics/SVG/1.1/DTD/svg11.dtd">
<!-- Creator: CorelDRAW X7 -->
<svg xmlns="http://www.w3.org/2000/svg" xml:space="preserve" width="306px" height="512px" version="1.1" style="shape-rendering:geometricPrecision; text-rendering:geometricPrecision; image-rendering:optimizeQuality; fill-rule:evenodd; clip-rule:evenodd"
viewBox="0 0 306 512"
 xmlns:xlink="http://www.w3.org/1999/xlink">
 <defs>
  <style type="text/css">
   <![CDATA[
    .fil0 {fill:black}
   ]]>
  </style>
 </defs>
 <g id="Layer_x0020_1">
  <metadata id="CorelCorpID_0Corel-Layer"/>
  <path class="fil0" d="M255 34l-45 0 0 -34 -117 0 0 34 -43 0c-27,0 -50,22 -50,50l0 378c0,27 23,50 50,50l205 0c28,0 51,-23 51,-50l0 -378c0,-28 -23,-50 -51,-50zm17 428c0,9 -7,16 -17,16l-205 0c-9,0 -16,-7 -16,-16l0 -378c0,-9 7,-17 16,-17l205 0c10,0 17,8 17,17l0 378zm-18 -3l-202 0 0 -62 202 0 0 62zm0 -81l-202 0 0 -62 202 0 0 62zm0 -80l-202 0 0 -62 202 0 0 62zm0 -80l-202 0 0 -62 202 0 0 62z"/>
 </g>
</svg>
