<?xml version="1.0" encoding="UTF-8"?>
<!DOCTYPE svg PUBLIC "-//W3C//DTD SVG 1.1//EN" "http://www.w3.org/Graphics/SVG/1.1/DTD/svg11.dtd">
<!-- Creator: CorelDRAW X7 -->
<svg xmlns="http://www.w3.org/2000/svg" xml:space="preserve" width="793px" height="512px" version="1.1" style="shape-rendering:geometricPrecision; text-rendering:geometricPrecision; image-rendering:optimizeQuality; fill-rule:evenodd; clip-rule:evenodd"
viewBox="0 0 793 512"
 xmlns:xlink="http://www.w3.org/1999/xlink">
 <defs>
  <style type="text/css">
   <![CDATA[
    .fil0 {fill:black}
   ]]>
  </style>
 </defs>
 <g id="Layer_x0020_1">
  <metadata id="CorelCorpID_0Corel-Layer"/>
  <path class="fil0" d="M793 398l0 -285c0,-8 -3,-16 -10,-22 -6,-7 -14,-10 -23,-10l-727 0c-18,0 -33,15 -33,32l0 285c0,9 4,17 10,23 6,7 14,10 23,10l727 0c9,0 17,-3 23,-10 7,-6 10,-14 10,-23zm-43 -86l-47 0 0 -36 47 0 0 36zm-202 -74l-47 0 0 -37 47 0 0 37zm34 -37l47 0 0 37 -47 0 0 -37zm-115 37l-47 0 0 -37 47 0 0 37zm-81 0l-47 0 0 -37 47 0 0 37zm-81 0l-47 0 0 -37 47 0 0 37zm-81 0l-47 0 0 -37 47 0 0 37zm-41 38l0 36 -47 0 0 -36 47 0zm34 0l47 0 0 36 -47 0 0 -36zm81 0l47 0 0 36 -47 0 0 -36zm81 0l47 0 0 36 -47 0 0 -36zm81 0l47 0 0 36 -47 0 0 -36zm81 0l47 0 0 36 -47 0 0 -36zm81 0l47 0 0 36 -47 0 0 -36zm128 -38l-87 0 0 -37 87 0 0 37zm0 -113l0 37 -47 0 0 -37 47 0zm-81 0l0 37 -47 0 0 -37 47 0zm-81 0l0 37 -47 0 0 -37 47 0zm-81 0l0 37 -47 0 0 -37 47 0zm-81 0l0 37 -47 0 0 -37 47 0zm-81 0l0 37 -47 0 0 -37 47 0zm-81 0l0 37 -47 0 0 -37 47 0zm-81 0l0 37 -47 0 0 -37 47 0zm-131 0l46 0 0 37 -46 0 0 -37zm0 76l83 0 0 37 -83 0 0 -37zm0 111l0 -36 46 0 0 36 -46 0zm0 77l0 -37 46 0 0 37 -46 0zm84 0l0 -37 47 0 0 37 -47 0zm81 0l0 -37 289 0 0 37 -289 0zm324 0l0 -37 47 0 0 37 -47 0zm81 0l0 -37 47 0 0 37 -47 0zm81 0l0 -37 47 0 0 37 -47 0z"/>
 </g>
</svg>
