<?xml version="1.0" encoding="UTF-8"?>
<!DOCTYPE svg PUBLIC "-//W3C//DTD SVG 1.1//EN" "http://www.w3.org/Graphics/SVG/1.1/DTD/svg11.dtd">
<!-- Creator: CorelDRAW X7 -->
<svg xmlns="http://www.w3.org/2000/svg" xml:space="preserve" width="512px" height="512px" version="1.1" style="shape-rendering:geometricPrecision; text-rendering:geometricPrecision; image-rendering:optimizeQuality; fill-rule:evenodd; clip-rule:evenodd"
viewBox="0 0 512 512"
 xmlns:xlink="http://www.w3.org/1999/xlink">
 <defs>
  <style type="text/css">
   <![CDATA[
    .fil0 {fill:black}
   ]]>
  </style>
 </defs>
 <g id="Layer_x0020_1">
  <metadata id="CorelCorpID_0Corel-Layer"/>
  <path class="fil0" d="M674 -30c-3,-3 -8,-5 -12,-5 -4,0 -8,2 -12,5 -41,42 -61,38 -87,34 -36,-6 -68,-6 -121,42 2,2 4,3 6,5l13 13c2,2 3,4 5,6 44,-41 66,-37 91,-33 30,5 63,10 117,-43 6,-7 6,-17 0,-24z"/>
  <polygon class="fil0" points="466,70 466,70 "/>
  <path class="fil0" d="M392 143c3,7 5,15 5,23 0,14 -5,27 -15,37l-21 21 99 99c66,-75 69,-185 6,-253 -3,2 -6,5 -9,8l-65 65z"/>
  <path class="fil0" d="M316 234l49 -49c5,-5 7,-12 7,-19 0,-7 -2,-14 -7,-19 -5,-5 -12,-8 -19,-8 -8,0 -14,3 -19,8l-49 49c-5,5 -8,12 -8,19 0,7 3,14 8,19 5,5 12,8 19,8 7,0 14,-3 19,-8z"/>
  <path class="fil0" d="M189 52l99 99 21 -21c10,-10 23,-15 37,-15 8,0 16,1 23,5l65 -65c3,-3 6,-6 8,-9 -32,-29 -74,-46 -119,-46 -49,0 -97,19 -134,52z"/>
  <path class="fil0" d="M333 252c-9,9 -22,15 -36,15 -14,0 -27,-6 -37,-15 -10,-10 -15,-23 -15,-37 0,-14 5,-27 15,-36l4 -5 -99 -99 -104 104c-77,77 -82,198 -10,269l13 13c32,33 77,51 125,51 53,0 105,-22 144,-61l104 -104 -100 -99 -4 4z"/>
 </g>
</svg>
