<?xml version="1.0" encoding="UTF-8"?>
<!DOCTYPE svg PUBLIC "-//W3C//DTD SVG 1.1//EN" "http://www.w3.org/Graphics/SVG/1.1/DTD/svg11.dtd">
<!-- Creator: CorelDRAW X7 -->
<svg xmlns="http://www.w3.org/2000/svg" xml:space="preserve" width="512px" height="512px" version="1.1" style="shape-rendering:geometricPrecision; text-rendering:geometricPrecision; image-rendering:optimizeQuality; fill-rule:evenodd; clip-rule:evenodd"
viewBox="0 0 512 512"
 xmlns:xlink="http://www.w3.org/1999/xlink">
 <defs>
  <style type="text/css">
   <![CDATA[
    .fil0 {fill:black}
   ]]>
  </style>
 </defs>
 <g id="Layer_x0020_1">
  <metadata id="CorelCorpID_0Corel-Layer"/>
  <path class="fil0" d="M476 276c10,0 19,-9 19,-20 0,-11 -9,-20 -19,-20l-45 0 0 -44 45 0c10,0 19,-9 19,-20 0,-11 -9,-19 -19,-19l-46 0c-4,-44 -37,-79 -79,-86l0 -47c0,-11 -9,-20 -20,-20 -11,0 -19,9 -19,20l0 46 -45 0 0 -46c0,-11 -9,-20 -19,-20 -11,0 -20,9 -20,20l0 46 -44 0 0 -46c0,-11 -9,-20 -20,-20 -11,0 -20,9 -20,20l0 47c-42,7 -75,42 -79,86l-45 0c-11,0 -20,8 -20,19 0,11 9,20 20,20l45 0 0 44 -45 0c-11,0 -20,9 -20,20 0,11 9,20 20,20l45 0 0 44 -45 0c-11,0 -20,9 -20,20 0,11 9,19 20,19l45 0c4,44 37,79 79,86l0 47c0,11 9,20 20,20 11,0 20,-9 20,-20l0 -46 44 0 0 46c0,11 9,20 20,20 10,0 19,-9 19,-20l0 -46 45 0 0 46c0,11 8,20 19,20 11,0 20,-9 20,-20l0 -47c42,-7 75,-42 79,-86l46 0c10,0 19,-8 19,-19 0,-11 -9,-20 -19,-20l-45 0 0 -44 45 0zm-77 75c0,35 -28,64 -64,64l-175 0c-35,0 -64,-29 -64,-64l0 -190c0,-35 29,-64 64,-64l175 0c36,0 64,29 64,64l0 190z"/>
  <path class="fil0" d="M330 120l-165 0c-25,0 -46,21 -46,47l0 178c0,26 21,47 46,47l165 0c26,0 47,-21 47,-47l0 -178c0,-26 -21,-47 -47,-47zm12 68l22 0 0 113c0,23 -12,37 -35,37 -23,0 -34,-14 -34,-37l0 -113 23 0 0 114c0,11 5,15 12,15 7,0 12,-4 12,-15l0 -114zm-92 0l-34 0 0 148 23 0 0 -56 11 0c23,0 35,-13 35,-36l0 -20c0,-23 -12,-36 -35,-36zm11 57c0,11 -4,14 -11,14l-11 0 0 -50 11 0c7,0 11,3 11,14l0 22zm-60 -22l0 15 -22 0 0 -16c0,-11 -4,-15 -12,-15 -7,0 -12,4 -12,15l0 80c0,11 5,14 12,14 8,0 12,-3 12,-14l0 -21 22 0 0 19c0,24 -11,38 -34,38 -23,0 -35,-14 -35,-38l0 -77c0,-24 12,-37 35,-37 23,0 34,13 34,37z"/>
 </g>
</svg>
