<?xml version="1.0" encoding="UTF-8"?>
<!DOCTYPE svg PUBLIC "-//W3C//DTD SVG 1.1//EN" "http://www.w3.org/Graphics/SVG/1.1/DTD/svg11.dtd">
<!-- Creator: CorelDRAW X7 -->
<svg xmlns="http://www.w3.org/2000/svg" xml:space="preserve" width="940px" height="512px" version="1.1" style="shape-rendering:geometricPrecision; text-rendering:geometricPrecision; image-rendering:optimizeQuality; fill-rule:evenodd; clip-rule:evenodd"
viewBox="0 0 940 512"
 xmlns:xlink="http://www.w3.org/1999/xlink">
 <defs>
  <style type="text/css">
   <![CDATA[
    .fil0 {fill:black}
   ]]>
  </style>
 </defs>
 <g id="Layer_x0020_1">
  <metadata id="CorelCorpID_0Corel-Layer"/>
  <path class="fil0" d="M-60 -88l155 0 0 551 -67 0 0 -56 -28 0 0 -129 28 0 0 -96 -28 0 0 -140 28 0 0 -63 -88 0 0 -67zm1000 141l0 352c0,29 -24,54 -54,54l0 0 0 53 -344 0 0 -53 -33 0 0 53 -344 0 0 -53 -30 0 0 -460 751 0c30,0 54,24 54,54zm-732 403l-17 0 0 38 17 0 0 -38zm35 0l-18 0 0 38 18 0 0 -38zm34 0l-17 0 0 38 17 0 0 -38zm34 0l-17 0 0 38 17 0 0 -38zm11 -226l-43 0 0 16 24 0 0 9c-9,11 -20,16 -31,16 -5,0 -10,-1 -14,-3 -4,-2 -8,-5 -11,-9 -3,-3 -6,-7 -7,-12 -2,-5 -3,-10 -3,-16 0,-5 1,-10 2,-15 2,-5 4,-9 7,-13 3,-3 7,-6 11,-8 4,-2 9,-4 14,-4 6,0 12,2 17,5 6,3 10,8 13,14l17 -13c-4,-8 -10,-14 -18,-19 -8,-5 -18,-7 -29,-7 -8,0 -15,2 -22,5 -8,3 -14,7 -19,13 -5,5 -9,11 -12,19 -3,7 -4,14 -4,23 0,8 1,16 4,23 3,8 7,14 12,20 5,5 11,9 18,13 7,3 14,4 22,4 12,0 23,-4 33,-14l0 13 19 0 0 -60zm24 226l-18 0 0 38 18 0 0 -38zm34 0l-17 0 0 38 17 0 0 -38zm34 0l-17 0 0 38 17 0 0 -38zm7 -284l-79 0 0 118 23 0 0 -49 47 0 0 -18 -47 0 0 -31 56 0 0 -20zm28 284l-18 0 0 38 18 0 0 -38zm34 0l-17 0 0 38 17 0 0 -38zm8 -224l42 -60 -25 0 -29 44 -30 -44 -25 0 43 60 -41 58 25 0 28 -42 28 42 25 0 -41 -58zm94 224l-17 0 0 38 17 0 0 -38zm35 0l-18 0 0 38 18 0 0 -38zm34 0l-17 0 0 38 17 0 0 -38zm34 0l-17 0 0 38 17 0 0 -38zm35 0l-18 0 0 38 18 0 0 -38zm34 0l-17 0 0 38 17 0 0 -38zm34 0l-17 0 0 38 17 0 0 -38zm35 0l-18 0 0 38 18 0 0 -38zm34 0l-17 0 0 38 17 0 0 -38zm14 -218c0,-83 -67,-151 -150,-151 -83,0 -150,68 -150,151 0,83 67,150 150,150 83,0 150,-67 150,-150zm-69 2c4,-2 7,-4 11,-6 4,-2 7,-4 11,-6 3,-2 6,-4 10,-6 0,0 0,0 0,0 -4,-29 -18,-54 -39,-72 -1,0 -1,1 -1,1 -2,2 -3,4 -5,6 -1,3 -3,5 -5,8 -2,2 -4,5 -7,8 -2,2 -4,5 -7,8 -2,3 -5,6 -7,9 0,0 0,0 0,0 0,-3 0,-6 0,-9 0,-4 1,-8 1,-12 0,-4 0,-9 0,-13 0,-4 0,-8 0,-12 0,-4 0,-8 0,-11 0,-1 0,-1 0,-1 -13,-6 -28,-9 -43,-9 -14,0 -27,3 -39,7 0,1 0,1 1,2 1,2 2,4 3,7 1,2 2,5 3,8 1,3 3,6 4,10 1,3 2,6 4,10 1,3 2,7 4,11 0,0 0,0 0,0 -3,-2 -5,-3 -8,-5 -3,-2 -7,-4 -10,-7 -4,-2 -7,-4 -11,-6 -3,-2 -7,-4 -10,-6 -4,-2 -7,-4 -10,-6 -1,0 -1,0 -1,0 -22,17 -37,41 -42,70 0,0 1,0 1,0 2,0 5,1 8,1 2,0 5,1 9,1 3,0 6,1 10,2 3,0 7,1 11,1 3,1 7,2 11,3l0 0c-3,1 -5,2 -8,3 -3,2 -7,4 -11,6 -3,2 -7,4 -11,6 -3,2 -7,4 -10,6 -4,2 -7,4 -10,6 -1,0 -1,0 -1,1 4,28 19,53 40,71 0,0 0,-1 1,-1 1,-2 2,-4 4,-6 2,-2 4,-5 6,-7 2,-3 4,-6 6,-8 2,-3 5,-6 7,-9 3,-3 5,-6 8,-8 0,-1 0,-1 0,-1 -1,3 -1,6 -1,9 0,4 0,8 0,13 0,4 -1,8 -1,12 0,4 0,8 0,12 0,4 0,8 0,12 0,0 0,0 0,1 14,5 28,8 43,8 14,0 27,-3 39,-7 0,0 0,-1 0,-1 -1,-2 -2,-5 -3,-7 -1,-3 -3,-6 -4,-9 -1,-3 -2,-6 -4,-9 -1,-4 -2,-7 -3,-11 -2,-3 -3,-7 -4,-10 0,0 0,0 0,-1 2,2 5,4 7,5 3,3 7,5 11,7 3,2 7,4 10,6 4,3 7,5 11,7 3,2 6,4 10,5 0,0 0,1 0,1 22,-17 38,-42 43,-71 -1,0 -1,0 -2,0 -2,0 -5,0 -7,-1 -3,0 -6,0 -9,-1 -3,0 -7,-1 -10,-1 -4,-1 -8,-1 -11,-2 -4,-1 -8,-2 -12,-2l0 0c3,-2 5,-3 8,-4 4,-2 7,-4 11,-6z"/>
 </g>
</svg>
