<?xml version="1.0" encoding="UTF-8"?>
<!DOCTYPE svg PUBLIC "-//W3C//DTD SVG 1.1//EN" "http://www.w3.org/Graphics/SVG/1.1/DTD/svg11.dtd">
<!-- Creator: CorelDRAW X7 -->
<svg xmlns="http://www.w3.org/2000/svg" xml:space="preserve" width="580px" height="512px" version="1.1" style="shape-rendering:geometricPrecision; text-rendering:geometricPrecision; image-rendering:optimizeQuality; fill-rule:evenodd; clip-rule:evenodd"
viewBox="0 0 580 512"
 xmlns:xlink="http://www.w3.org/1999/xlink">
 <defs>
  <style type="text/css">
   <![CDATA[
    .fil0 {fill:black}
   ]]>
  </style>
 </defs>
 <g id="Layer_x0020_1">
  <metadata id="CorelCorpID_0Corel-Layer"/>
  <polygon class="fil0" points="299,396 473,396 473,415 299,415 "/>
  <polygon class="fil0" points="135,396 174,396 174,444 135,444 "/>
  <polygon class="fil0" points="299,435 473,435 473,454 299,454 "/>
  <polygon class="fil0" points="270,396 280,396 280,415 270,415 "/>
  <polygon class="fil0" points="493,357 502,357 502,377 493,377 "/>
  <polygon class="fil0" points="493,396 502,396 502,415 493,415 "/>
  <path class="fil0" d="M335 261l160 0c4,0 7,-3 7,-7l0 -160c0,-4 -3,-7 -7,-7l-160 0c-3,0 -7,3 -7,7l0 160c0,4 4,7 7,7zm3 -68l19 0 0 -9 -19 0 0 -20 19 0 0 -9 -19 0 0 -20 19 0 0 -19 20 0 0 -19 19 0 0 19 10 0 0 -19 19 0 0 19 10 0 0 -19 19 0 0 19 19 0 0 19 20 0 0 20 -20 0 0 9 20 0 0 20 -20 0 0 9 20 0 0 20 -20 0 0 19 -19 0 0 19 -19 0 0 -19 -10 0 0 19 -19 0 0 -19 -10 0 0 19 -19 0 0 -19 -20 0 0 -19 -19 0 0 -20z"/>
  <polygon class="fil0" points="270,357 280,357 280,377 270,377 "/>
  <polygon class="fil0" points="87,270 116,270 116,299 87,299 "/>
  <polygon class="fil0" points="493,319 502,319 502,338 493,338 "/>
  <polygon class="fil0" points="270,319 280,319 280,338 270,338 "/>
  <path class="fil0" d="M551 29l0 -10c0,-5 -5,-9 -10,-9 -5,0 -10,4 -10,9l0 10 -9 0 0 -29 -213 0 0 29 -10 0 0 -10c0,-5 -4,-9 -9,-9 -6,0 -10,4 -10,9l0 10 -10 0 0 -10c0,-5 -4,-9 -9,-9 -5,0 -10,4 -10,9l0 10 -251 0 0 48 39 0c5,0 9,5 9,10 0,5 -4,10 -9,10l-39 0 0 9 39 0c5,0 9,5 9,10 0,5 -4,10 -9,10l-39 0 0 9 39 0c5,0 9,5 9,10 0,5 -4,10 -9,10l-39 0 0 193 39 0c5,0 9,4 9,9 0,6 -4,10 -9,10l-39 0 0 10 39 0c5,0 9,4 9,9 0,6 -4,10 -9,10l-39 0 0 10 39 0c5,0 9,4 9,9 0,6 -4,10 -9,10l-39 0 0 10 39 0c5,0 9,4 9,9 0,6 -4,10 -9,10l-39 0 0 10 39 0c5,0 9,4 9,9 0,6 -4,10 -9,10l-39 0 0 29 580 0 0 -483 -29 0zm-512 270c-6,0 -10,-4 -10,-9 0,-6 4,-10 10,-10 5,0 9,4 9,10 0,5 -4,9 -9,9zm0 -29c-6,0 -10,-4 -10,-9 0,-5 4,-10 10,-10 5,0 9,5 9,10 0,5 -4,9 -9,9zm0 -28c-6,0 -10,-5 -10,-10 0,-5 4,-10 10,-10 5,0 9,5 9,10 0,5 -4,10 -9,10zm116 96c5,0 9,4 9,10 0,5 -4,9 -9,9 -6,0 -10,-4 -10,-9 0,-6 4,-10 10,-10zm-78 -290l58 0 0 165 -19 0 0 9c0,6 -4,10 -10,10 -5,0 -9,-4 -9,-10l0 -9 -20 0 0 -165zm-9 203l67 0 0 68 -67 0 0 -68zm67 97c0,5 -4,9 -9,9 -6,0 -10,-4 -10,-9 0,-6 4,-10 10,-10 5,0 9,4 9,10zm68 77c5,0 10,4 10,10 0,5 -5,9 -10,9l-10 0 0 20 -77 0 0 -20 -10 0c-5,0 -9,-4 -9,-9 0,-6 4,-10 9,-10l10 0 0 -10 -10 0c-5,0 -9,-4 -9,-9 0,-6 4,-10 9,-10l10 0 0 -19 77 0 0 19 10 0c5,0 10,4 10,10 0,5 -5,9 -10,9l-10 0 0 10 10 0zm-29 -77c0,-6 4,-10 10,-10 5,0 9,4 9,10 0,5 -4,9 -9,9 -6,0 -10,-4 -10,-9zm39 -78l-20 0 0 10c0,5 -4,10 -9,10 -6,0 -10,-5 -10,-10l0 -10 -19 0 0 -222 58 0 0 222zm270 -251l19 0 0 10 -19 0 0 -10zm-39 0l20 0 0 10 -20 0 0 -10zm-38 0l19 0 0 10 -19 0 0 -10zm-39 0l19 0 0 10 -19 0 0 -10zm-39 0l20 0 0 10 -20 0 0 -10zm-19 75c0,-15 12,-26 26,-26l160 0c15,0 27,11 27,26l0 160c0,14 -12,26 -27,26l-160 0c-14,0 -26,-12 -26,-26l0 -160zm-39 22c6,0 10,4 10,10 0,5 -4,9 -10,9 -5,0 -9,-4 -9,-9 0,-6 4,-10 9,-10zm0 29c6,0 10,4 10,10 0,5 -4,9 -10,9 -5,0 -9,-4 -9,-9 0,-6 4,-10 9,-10zm0 29c6,0 10,4 10,10 0,5 -4,9 -10,9 -5,0 -9,-4 -9,-9 0,-6 4,-10 9,-10zm0 29c6,0 10,4 10,10 0,5 -4,9 -10,9 -5,0 -9,-4 -9,-9 0,-6 4,-10 9,-10zm0 29c6,0 10,4 10,10 0,5 -4,9 -10,9 -5,0 -9,-4 -9,-9 0,-6 4,-10 9,-10zm0 29c6,0 10,4 10,9 0,6 -4,10 -10,10 -5,0 -9,-4 -9,-10 0,-5 4,-9 9,-9zm-28 -126c5,0 9,5 9,10 0,5 -4,10 -9,10 -6,0 -10,-5 -10,-10 0,-5 4,-10 10,-10zm0 39c5,0 9,4 9,10 0,5 -4,9 -9,9 -6,0 -10,-4 -10,-9 0,-6 4,-10 10,-10zm289 183c6,0 10,5 10,10 0,5 -4,10 -10,10l-9 0 0 19 9 0c6,0 10,4 10,10 0,5 -4,9 -10,9l-9 0 0 20 9 0c6,0 10,4 10,9 0,6 -4,10 -10,10l-9 0 0 19 -271 0 0 -19 -9 0c-6,0 -10,-4 -10,-10 0,-5 4,-9 10,-9l9 0 0 -20 -9 0c-6,0 -10,-4 -10,-9 0,-6 4,-10 10,-10l9 0 0 -19 -9 0c-6,0 -10,-5 -10,-10 0,-5 4,-10 10,-10l9 0 0 -19 -9 0c-6,0 -10,-4 -10,-10 0,-5 4,-9 10,-9l9 0 0 -20 271 0 0 20 9 0c6,0 10,4 10,9 0,6 -4,10 -10,10l-9 0 0 19 9 0zm10 -135c-5,0 -10,-4 -10,-9 0,-6 5,-10 10,-10 5,0 10,4 10,10 0,5 -5,9 -10,9zm0 -67c-5,0 -10,-5 -10,-10 0,-5 5,-10 10,-10 5,0 10,5 10,10 0,5 -5,10 -10,10z"/>
  <polygon class="fil0" points="97,68 116,68 116,193 97,193 "/>
  <polygon class="fil0" points="174,68 193,68 193,251 174,251 "/>
  <polygon class="fil0" points="493,435 502,435 502,454 493,454 "/>
  <polygon class="fil0" points="299,357 473,357 473,377 299,377 "/>
  <polygon class="fil0" points="270,435 280,435 280,454 270,454 "/>
  <polygon class="fil0" points="299,319 473,319 473,338 299,338 "/>
  <polygon class="fil0" points="377,135 454,135 454,213 377,213 "/>
 </g>
</svg>
