<?xml version="1.0" encoding="UTF-8"?>
<!DOCTYPE svg PUBLIC "-//W3C//DTD SVG 1.1//EN" "http://www.w3.org/Graphics/SVG/1.1/DTD/svg11.dtd">
<!-- Creator: CorelDRAW X7 -->
<svg xmlns="http://www.w3.org/2000/svg" xml:space="preserve" width="257px" height="512px" version="1.1" style="shape-rendering:geometricPrecision; text-rendering:geometricPrecision; image-rendering:optimizeQuality; fill-rule:evenodd; clip-rule:evenodd"
viewBox="0 0 257 512"
 xmlns:xlink="http://www.w3.org/1999/xlink">
 <defs>
  <style type="text/css">
   <![CDATA[
    .fil0 {fill:black}
   ]]>
  </style>
 </defs>
 <g id="Layer_x0020_1">
  <metadata id="CorelCorpID_0Corel-Layer"/>
  <path class="fil0" d="M128 308c9,0 15,6 15,15 0,8 -6,15 -15,15 -8,0 -15,-7 -15,-15 0,-9 7,-15 15,-15zm51 204l0 -7 -102 0 0 7 -46 0 0 -7 -26 0c-3,0 -5,-2 -5,-5l0 -487c0,-3 2,-6 5,-6l25 0 6 -7 184 0 6 7 25 0c3,0 6,3 6,6l0 487c0,3 -3,5 -6,5l-26 0 0 7 -46 0zm-139 -410l177 0 0 -49 -177 0 0 49zm0 64l177 0 0 -49 -177 0 0 49zm0 64l177 0 0 -49 -177 0 0 49zm88 65c-15,0 -28,12 -28,28 0,15 13,28 28,28 16,0 28,-13 28,-28 0,-16 -12,-28 -28,-28zm89 161l0 -126c-20,27 -52,45 -89,45 -36,0 -68,-18 -88,-45l0 126 177 0z"/>
 </g>
</svg>
