<?xml version="1.0" encoding="UTF-8"?>
<!DOCTYPE svg PUBLIC "-//W3C//DTD SVG 1.1//EN" "http://www.w3.org/Graphics/SVG/1.1/DTD/svg11.dtd">
<!-- Creator: CorelDRAW X7 -->
<svg xmlns="http://www.w3.org/2000/svg" xml:space="preserve" width="938px" height="512px" version="1.1" style="shape-rendering:geometricPrecision; text-rendering:geometricPrecision; image-rendering:optimizeQuality; fill-rule:evenodd; clip-rule:evenodd"
viewBox="0 0 938 512"
 xmlns:xlink="http://www.w3.org/1999/xlink">
 <defs>
  <style type="text/css">
   <![CDATA[
    .fil0 {fill:black}
   ]]>
  </style>
 </defs>
 <g id="Layer_x0020_1">
  <metadata id="CorelCorpID_0Corel-Layer"/>
  <path class="fil0" d="M884 1l-750 0 0 458 30 0 0 53 344 0 0 -53 32 0 0 53 344 0 0 -53 0 0c30,0 54,-24 54,-54l0 -351c0,-29 -24,-53 -54,-53zm-676 494l-17 0 0 -39 17 0 0 39zm34 0l-17 0 0 -39 17 0 0 39zm34 0l-17 0 0 -39 17 0 0 39zm34 0l-17 0 0 -39 17 0 0 39zm35 0l-17 0 0 -39 17 0 0 39zm34 0l-17 0 0 -39 17 0 0 39zm34 0l-17 0 0 -39 17 0 0 39zm34 0l-17 0 0 -39 17 0 0 39zm35 0l-17 0 0 -39 17 0 0 39zm102 0l-17 0 0 -39 17 0 0 39zm34 0l-17 0 0 -39 17 0 0 39zm34 0l-17 0 0 -39 17 0 0 39zm35 0l-18 0 0 -39 18 0 0 39zm34 0l-17 0 0 -39 17 0 0 39zm28 -121l-557 0 0 -291 557 0c81,0 146,65 146,145 0,81 -65,146 -146,146zm6 121l-17 0 0 -39 17 0 0 39zm34 0l-17 0 0 -39 17 0 0 39zm35 0l-18 0 0 -39 18 0 0 39zm34 0l-17 0 0 -39 17 0 0 39zm-831 -208l0 -115 -27 0 0 -120 27 0 0 -63 -87 0 0 -67 155 0 0 541 -68 0 0 -56 -27 0 0 -120 27 0zm781 -52c-2,1 -4,2 -6,3l0 0c3,1 6,2 10,2 3,1 6,1 9,2 3,0 6,1 8,1 3,0 6,1 8,1 2,0 4,1 6,1 1,0 1,0 2,0 -5,24 -18,45 -36,60 0,-1 -1,-1 -1,-1 -3,-1 -5,-3 -8,-5 -3,-1 -6,-3 -9,-5 -3,-2 -6,-4 -9,-5 -3,-2 -6,-4 -9,-6 -2,-1 -4,-3 -6,-4 0,0 0,0 0,0 1,3 2,6 3,9 1,3 2,6 3,9 1,3 2,6 3,8 1,3 2,5 3,7 1,2 2,4 3,6 0,0 0,1 0,1 -10,4 -21,6 -33,6 -13,0 -25,-2 -36,-7 0,0 0,0 0,-1 0,-3 0,-6 0,-9 0,-4 0,-7 0,-11 0,-3 0,-7 0,-10 0,-4 0,-7 1,-11 0,-2 0,-5 0,-7 0,0 0,0 0,0 -2,2 -4,5 -6,7 -2,3 -4,5 -6,7 -2,3 -4,5 -6,7 -1,2 -3,4 -5,6 -1,2 -2,4 -3,5 -1,1 -1,1 -1,1 -18,-15 -30,-36 -34,-60 0,0 1,-1 1,-1 2,-1 5,-3 8,-5 3,-1 6,-3 9,-5 3,-1 6,-3 10,-5 3,-1 6,-3 9,-5 2,-1 4,-2 6,-3l0 0c-3,-1 -6,-1 -9,-2 -3,0 -6,-1 -9,-1 -3,-1 -6,-1 -9,-2 -3,0 -5,0 -8,-1 -2,0 -4,0 -6,0 0,0 -1,-1 -1,-1 4,-24 17,-45 36,-59 0,0 0,0 0,0 3,2 6,3 9,5 3,2 6,3 9,5 3,2 6,4 9,6 3,2 6,3 9,5 2,2 4,3 6,4 -1,-3 -2,-6 -4,-9 -1,-3 -2,-6 -3,-9 -1,-2 -2,-5 -3,-8 -1,-2 -2,-5 -3,-7 -1,-2 -2,-4 -2,-6 -1,0 -1,0 -1,-1 10,-4 21,-6 33,-6 13,0 25,3 37,7 0,1 0,1 0,1 0,3 0,6 0,10 0,3 0,7 0,10 -1,4 -1,7 -1,11 0,3 0,7 0,10 0,3 0,5 -1,8 0,0 0,0 0,0 3,-3 5,-5 7,-8 2,-2 4,-5 6,-7 2,-2 4,-5 5,-7 2,-2 3,-4 5,-6 1,-2 3,-3 4,-5 0,0 0,-1 0,-1 18,15 31,36 34,61 0,0 0,0 0,0 -3,2 -6,3 -9,5 -3,2 -6,3 -9,5 -3,2 -6,4 -9,5 -3,2 -6,4 -10,5zm-523 -33l74 -51 0 158 -74 -52 0 14 -59 0 0 -82 59 0 0 13zm99 67l-6 -15c10,-4 16,-14 16,-24 0,-11 -6,-20 -16,-25l6 -14c16,6 26,22 26,39 0,17 -10,32 -26,39zm62 -39c0,31 -18,58 -47,70l-6 -14c23,-10 38,-32 38,-56 0,-25 -15,-47 -38,-56l6 -15c29,12 47,40 47,71z"/>
 </g>
</svg>
