<?xml version="1.0" encoding="UTF-8"?>
<!DOCTYPE svg PUBLIC "-//W3C//DTD SVG 1.1//EN" "http://www.w3.org/Graphics/SVG/1.1/DTD/svg11.dtd">
<!-- Creator: CorelDRAW X7 -->
<svg xmlns="http://www.w3.org/2000/svg" xml:space="preserve" width="631px" height="512px" version="1.1" style="shape-rendering:geometricPrecision; text-rendering:geometricPrecision; image-rendering:optimizeQuality; fill-rule:evenodd; clip-rule:evenodd"
viewBox="0 0 631 512"
 xmlns:xlink="http://www.w3.org/1999/xlink">
 <defs>
  <style type="text/css">
   <![CDATA[
    .fil0 {fill:black}
   ]]>
  </style>
 </defs>
 <g id="Layer_x0020_1">
  <metadata id="CorelCorpID_0Corel-Layer"/>
  <path class="fil0" d="M557 3l-515 -1 0 -65 -82 0 0 31 40 0 0 511 38 0 0 -81 218 0 0 114 258 0 0 -114 43 0c41,0 74,-34 74,-74l0 -247c0,-41 -33,-74 -74,-74zm-282 491l0 -96 21 0 0 96 -21 0zm40 0l0 -96 21 0 0 96 -21 0zm39 0l0 -96 22 0 0 96 -22 0zm40 0l0 -96 22 0 0 96 -22 0zm40 0l0 -96 21 0 0 96 -21 0zm61 0l-21 0 0 -96 21 0 0 96zm99 -170c0,20 -17,37 -37,37l-516 0 0 -321 516 0c20,0 37,17 37,37l0 247z"/>
  <path class="fil0" d="M515 75l-102 0c-9,0 -16,8 -16,17l0 42 -217 0c-4,-19 -21,-34 -41,-34 -24,0 -43,19 -43,43 0,24 19,43 43,43 20,0 37,-15 41,-34l217 0 0 42c0,9 7,17 16,17l54 0 0 76 -93 0 -46 -51 -22 0c-4,-19 -21,-34 -42,-34 -24,0 -43,19 -43,43 0,24 19,43 43,43 20,0 38,-15 42,-34l14 0 46 52 120 0 0 -95 29 0c9,0 17,-8 17,-17l0 -102c0,-9 -8,-17 -17,-17z"/>
 </g>
</svg>
