<?xml version="1.0" encoding="UTF-8"?>
<!DOCTYPE svg PUBLIC "-//W3C//DTD SVG 1.1//EN" "http://www.w3.org/Graphics/SVG/1.1/DTD/svg11.dtd">
<!-- Creator: CorelDRAW X7 -->
<svg xmlns="http://www.w3.org/2000/svg" xml:space="preserve" width="815px" height="512px" version="1.1" style="shape-rendering:geometricPrecision; text-rendering:geometricPrecision; image-rendering:optimizeQuality; fill-rule:evenodd; clip-rule:evenodd"
viewBox="0 0 815 512"
 xmlns:xlink="http://www.w3.org/1999/xlink">
 <defs>
  <style type="text/css">
   <![CDATA[
    .fil0 {fill:black}
   ]]>
  </style>
 </defs>
 <g id="Layer_x0020_1">
  <metadata id="CorelCorpID_0Corel-Layer"/>
  <polygon class="fil0" points="241,158 208,158 208,158 208,158 208,169 241,169 "/>
  <path class="fil0" d="M128 175c-6,0 -11,-5 -11,-11 0,-6 5,-11 11,-11 6,0 11,5 11,11 0,6 -5,11 -11,11zm0 -32c-12,0 -21,9 -21,21 0,11 9,20 21,20 11,0 20,-9 20,-20 0,-12 -9,-21 -20,-21z"/>
  <polygon class="fil0" points="157,325 139,325 139,325 139,325 139,361 157,361 "/>
  <polygon class="fil0" points="215,325 197,325 197,325 197,325 197,361 215,361 "/>
  <path class="fil0" d="M103 386l0 -63c0,-3 1,-5 2,-7l21 -33c2,-3 7,-6 11,-6l80 0c4,0 9,3 11,6l21 33c1,2 2,4 2,7l0 63c0,7 -6,13 -13,13l-122 0c-7,0 -13,-6 -13,-13zm67 -259l0 74c0,3 -2,6 -6,7l-76 4c-2,0 -5,-2 -5,-5l0 -86c0,-2 3,-4 5,-4l76 4c4,0 6,3 6,6zm7 74l0 -74c0,-3 3,-6 6,-6l77 -4c2,0 5,2 5,4l0 86c0,3 -3,5 -5,5l-77 -4c-3,-1 -6,-4 -6,-7zm534 -84c-3,0 -6,-1 -9,-3 -5,-3 -9,-9 -9,-15l0 -1c0,-10 8,-18 18,-18 10,0 19,8 19,18 0,10 -9,19 -19,19zm-18 296c0,-6 4,-12 9,-15 3,-2 6,-3 9,-3 10,0 19,8 19,19 0,8 -6,15 -14,17 -1,1 -3,1 -5,1l0 0c-10,0 -18,-8 -18,-18l0 -1zm-53 -78l-31 -31c10,-13 17,-30 17,-48 0,-18 -7,-35 -17,-48l31 -31c18,21 29,49 29,79 0,29 -10,55 -27,76 -1,1 -1,2 -2,3zm-237 78l0 1c0,10 -8,18 -18,18 -10,0 -18,-8 -18,-18 0,-11 8,-19 18,-19 3,0 6,1 9,3 6,3 9,9 9,15zm0 -314c0,6 -4,12 -9,15 -3,2 -6,3 -9,3 -10,0 -18,-9 -18,-19 0,-8 6,-15 13,-17 2,-1 3,-1 5,-1l0 0c10,0 18,8 18,18l0 1zm195 194l-21 -21c3,-5 5,-10 5,-16 0,-6 -2,-12 -5,-16l21 -21c7,10 12,23 12,37 0,13 -4,24 -11,34 0,1 -1,2 -1,3zm-99 0c-8,-10 -13,-23 -13,-37 0,-14 5,-27 13,-37l21 22c-2,4 -4,9 -4,15 0,6 2,11 4,15l-19 19 -2 3zm86 12c-10,8 -23,13 -37,13 -12,0 -24,-4 -34,-11 -1,0 -2,-1 -3,-2l22 -21c5,3 10,5 16,5 6,0 11,-2 15,-4l19 18 2 2zm0 -98l-21 20c-4,-2 -9,-4 -15,-4 -6,0 -11,2 -16,5l-19 -19 -3 -3c11,-7 23,-12 37,-12 13,0 25,4 35,11 1,0 1,1 2,2zm42 -43l-31 31c-13,-10 -30,-17 -48,-17 -18,0 -35,7 -48,17l-29 -29 -2 -2c21,-18 49,-29 79,-29 29,0 55,10 76,27 1,1 2,2 3,2zm-170 171c-19,-21 -30,-49 -30,-79 0,-30 11,-58 30,-79l31 31c-11,13 -17,30 -17,48 0,18 6,35 17,48l-29 29 -2 2zm170 12c-21,19 -49,30 -79,30 -28,0 -55,-10 -76,-27 -1,-1 -2,-2 -3,-3l31 -30c13,10 30,17 48,17 18,0 35,-7 48,-17l29 28 2 2zm42 -224l-31 30c-24,-21 -55,-34 -90,-34 -34,0 -66,13 -90,34l-29 -29 -2 -1c32,-29 75,-47 121,-47 45,0 85,16 117,43 1,1 3,2 4,4zm-254 254c-29,-32 -47,-75 -47,-121 0,-46 18,-89 47,-121l31 31c-22,24 -34,56 -34,90 0,34 12,66 34,90l-30 29 -1 2zm254 12c-32,29 -74,47 -121,47 -44,0 -85,-16 -116,-43 -2,-1 -3,-2 -5,-4l31 -30c24,21 56,34 90,34 35,0 66,-13 90,-34l30 29 1 1zm13 -12l-31 -31c21,-24 34,-56 34,-90 0,-34 -13,-66 -34,-90l31 -31c29,32 46,75 46,121 0,44 -16,85 -43,116 -1,2 -2,3 -3,5zm97 -377l-30 0 -683 0 -31 0c-19,0 -35,16 -35,35l0 442c0,19 16,35 35,35l31 0 683 0 30 0c20,0 36,-16 36,-35l0 -442c0,-19 -16,-35 -36,-35z"/>
 </g>
</svg>
