<?xml version="1.0" encoding="UTF-8"?>
<!DOCTYPE svg PUBLIC "-//W3C//DTD SVG 1.1//EN" "http://www.w3.org/Graphics/SVG/1.1/DTD/svg11.dtd">
<!-- Creator: CorelDRAW X7 -->
<svg xmlns="http://www.w3.org/2000/svg" xml:space="preserve" width="512px" height="512px" version="1.1" style="shape-rendering:geometricPrecision; text-rendering:geometricPrecision; image-rendering:optimizeQuality; fill-rule:evenodd; clip-rule:evenodd"
viewBox="0 0 512 512"
 xmlns:xlink="http://www.w3.org/1999/xlink">
 <defs>
  <style type="text/css">
   <![CDATA[
    .fil0 {fill:black}
   ]]>
  </style>
 </defs>
 <g id="Layer_x0020_1">
  <metadata id="CorelCorpID_0Corel-Layer"/>
  <path class="fil0" d="M328 217c31,-13 71,-21 131,-19 -29,-36 -54,-63 -69,-89 -42,24 -73,49 -96,75 -11,-6 -23,-9 -35,-10 4,-33 17,-72 48,-123l-102 0c-7,61 -3,103 8,136 -11,6 -20,15 -26,26 -27,-20 -54,-47 -82,-86 -14,32 -28,53 -52,71 49,36 87,53 121,61 1,13 4,25 10,35 -31,14 -72,22 -131,20 28,36 54,63 69,89 42,-24 73,-49 96,-75 11,6 23,9 35,10 -4,33 -17,72 -48,123l102 0c7,-61 3,-103 -8,-136 11,-7 20,-15 26,-26 27,19 54,47 82,86 15,-32 28,-53 52,-71 -49,-36 -87,-53 -121,-61 -1,-13 -4,-25 -10,-36zm-72 65c-14,0 -26,-12 -26,-26 0,-14 12,-26 26,-26 14,0 26,12 26,26 0,14 -12,26 -26,26z"/>
  <path class="fil0" d="M471 0l-430 0c-23,0 -41,18 -41,41l0 430c0,23 18,41 41,41l430 0c23,0 41,-18 41,-41l0 -430c0,-23 -18,-41 -41,-41zm-435 21c8,0 15,6 15,15 0,8 -7,15 -15,15 -9,0 -15,-7 -15,-15 0,-9 6,-15 15,-15zm0 470c-9,0 -15,-6 -15,-15 0,-8 6,-15 15,-15 8,0 15,7 15,15 0,9 -7,15 -15,15zm220 -10c-124,0 -225,-101 -225,-225 0,-124 101,-225 225,-225 124,0 225,101 225,225 0,124 -101,225 -225,225zm220 10c-8,0 -15,-6 -15,-15 0,-8 7,-15 15,-15 9,0 15,7 15,15 0,9 -6,15 -15,15zm0 -440c-8,0 -15,-7 -15,-15 0,-9 7,-15 15,-15 9,0 15,6 15,15 0,8 -6,15 -15,15z"/>
 </g>
</svg>
