<?xml version="1.0" encoding="UTF-8"?>
<!DOCTYPE svg PUBLIC "-//W3C//DTD SVG 1.1//EN" "http://www.w3.org/Graphics/SVG/1.1/DTD/svg11.dtd">
<!-- Creator: CorelDRAW X7 -->
<svg xmlns="http://www.w3.org/2000/svg" xml:space="preserve" width="431px" height="512px" version="1.1" style="shape-rendering:geometricPrecision; text-rendering:geometricPrecision; image-rendering:optimizeQuality; fill-rule:evenodd; clip-rule:evenodd"
viewBox="0 0 431 512"
 xmlns:xlink="http://www.w3.org/1999/xlink">
 <defs>
  <style type="text/css">
   <![CDATA[
    .fil0 {fill:black}
   ]]>
  </style>
 </defs>
 <g id="Layer_x0020_1">
  <metadata id="CorelCorpID_0Corel-Layer"/>
  <path class="fil0" d="M216 298c48,0 88,-39 88,-88 0,-48 -40,-88 -88,-88 -49,0 -88,40 -88,88 0,49 39,88 88,88zm0 -152c18,0 34,9 34,21 0,11 -16,20 -34,20 -19,0 -34,-9 -34,-20 0,-12 15,-21 34,-21z"/>
  <path class="fil0" d="M400 448l-37 0c-10,-23 -23,-43 -35,-60 59,-37 98,-103 98,-178 0,-116 -94,-210 -210,-210 -116,0 -210,94 -210,210 0,75 39,141 98,178 -13,17 -26,37 -35,60l-37 0c-18,0 -32,15 -32,32 0,18 14,32 32,32l368 0c17,0 31,-14 31,-32 0,-17 -14,-32 -31,-32zm-329 -238c0,-80 65,-145 145,-145 80,0 145,65 145,145 0,80 -65,145 -145,145 -80,0 -145,-65 -145,-145z"/>
 </g>
</svg>
