<?xml version="1.0" encoding="UTF-8"?>
<!DOCTYPE svg PUBLIC "-//W3C//DTD SVG 1.1//EN" "http://www.w3.org/Graphics/SVG/1.1/DTD/svg11.dtd">
<!-- Creator: CorelDRAW X7 -->
<svg xmlns="http://www.w3.org/2000/svg" xml:space="preserve" width="207px" height="512px" version="1.1" style="shape-rendering:geometricPrecision; text-rendering:geometricPrecision; image-rendering:optimizeQuality; fill-rule:evenodd; clip-rule:evenodd"
viewBox="0 0 207 512"
 xmlns:xlink="http://www.w3.org/1999/xlink">
 <defs>
  <style type="text/css">
   <![CDATA[
    .fil0 {fill:black}
   ]]>
  </style>
 </defs>
 <g id="Layer_x0020_1">
  <metadata id="CorelCorpID_0Corel-Layer"/>
  <path class="fil0" d="M173 125l0 -125 -139 0 0 125 139 0zm-49 -71l30 0 0 30 -30 0 0 -30zm-71 0l30 0 0 30 -30 0 0 -30zm154 153l0 -34c0,-19 -15,-35 -34,-35l0 0 -138 0 -1 0c-19,0 -34,16 -34,35l0 276c0,19 15,40 33,46l38 12c2,1 5,2 8,3l0 0 1 0 0 0c7,1 14,2 21,2l2 0 0 0 1 0 0 0 1 0 0 0 1 0c11,0 22,-2 30,-5l39 -12c2,-1 4,-2 6,-3 15,-8 26,-26 26,-43l0 -238 0 -4zm-44 42l-28 0c-2,0 -5,2 -5,5l0 26c0,3 3,5 5,5l6 0 0 23 -30 14 0 -80 12 0c2,0 4,-1 5,-2 1,-2 1,-4 -1,-6l-20 -28c-1,-1 -2,-2 -4,-2 -2,0 -3,1 -4,2l-21 28c-1,2 -1,4 0,6 1,1 3,2 5,2l12 0 0 96 -31 -14 0 -27c7,-3 12,-9 12,-17 0,-10 -9,-19 -20,-19 -10,0 -19,9 -19,19 0,8 5,14 12,17l0 32c0,3 1,6 4,7l42 20 0 31c-12,4 -21,15 -21,28 0,15 13,28 29,28 16,0 28,-13 28,-28 0,-13 -8,-24 -20,-28l0 -47 42 -20c2,-1 4,-4 4,-7l0 -28 6 0c3,0 5,-2 5,-5l0 -26c0,-3 -2,-5 -5,-5z"/>
 </g>
</svg>
