<?xml version="1.0" encoding="UTF-8"?>
<!DOCTYPE svg PUBLIC "-//W3C//DTD SVG 1.1//EN" "http://www.w3.org/Graphics/SVG/1.1/DTD/svg11.dtd">
<!-- Creator: CorelDRAW X7 -->
<svg xmlns="http://www.w3.org/2000/svg" xml:space="preserve" width="433px" height="512px" version="1.1" style="shape-rendering:geometricPrecision; text-rendering:geometricPrecision; image-rendering:optimizeQuality; fill-rule:evenodd; clip-rule:evenodd"
viewBox="0 0 433 512"
 xmlns:xlink="http://www.w3.org/1999/xlink">
 <defs>
  <style type="text/css">
   <![CDATA[
    .fil0 {fill:black}
   ]]>
  </style>
 </defs>
 <g id="Layer_x0020_1">
  <metadata id="CorelCorpID_0Corel-Layer"/>
  <path class="fil0" d="M422 0l-334 0c-6,0 -11,5 -11,11l0 155 -73 110c-3,4 -4,8 -4,12l0 31c0,6 5,11 11,11l26 0 0 65 -26 0c-6,0 -11,5 -11,11l0 95c0,6 5,11 11,11l411 0c6,0 11,-5 11,-11l0 -490c0,-6 -5,-11 -11,-11zm-256 130c0,6 -5,11 -11,11l-27 0c-6,0 -11,-5 -11,-11l0 -79c0,-6 5,-11 11,-11l27 0c6,0 11,5 11,11l0 79zm76 0c0,6 -5,11 -11,11l-27 0c-6,0 -11,-5 -11,-11l0 -79c0,-6 5,-11 11,-11l27 0c6,0 11,5 11,11l0 79zm76 0c0,6 -5,11 -11,11l-27 0c-6,0 -11,-5 -11,-11l0 -79c0,-6 5,-11 11,-11l27 0c6,0 11,5 11,11l0 79zm75 0c0,6 -5,11 -11,11l-27 0c-6,0 -11,-5 -11,-11l0 -79c0,-6 5,-11 11,-11l27 0c6,0 11,5 11,11l0 79z"/>
 </g>
</svg>
