<?xml version="1.0" encoding="UTF-8"?>
<!DOCTYPE svg PUBLIC "-//W3C//DTD SVG 1.1//EN" "http://www.w3.org/Graphics/SVG/1.1/DTD/svg11.dtd">
<!-- Creator: CorelDRAW X7 -->
<svg xmlns="http://www.w3.org/2000/svg" xml:space="preserve" width="846px" height="512px" version="1.1" style="shape-rendering:geometricPrecision; text-rendering:geometricPrecision; image-rendering:optimizeQuality; fill-rule:evenodd; clip-rule:evenodd"
viewBox="0 0 846 512"
 xmlns:xlink="http://www.w3.org/1999/xlink">
 <defs>
  <style type="text/css">
   <![CDATA[
    .fil0 {fill:black}
   ]]>
  </style>
 </defs>
 <g id="Layer_x0020_1">
  <metadata id="CorelCorpID_0Corel-Layer"/>
  <path class="fil0" d="M81 233l713 0c29,0 52,23 52,52l0 175c0,28 -23,52 -52,52l-742 0c-28,0 -52,-24 -52,-52l0 -175c0,-29 23,-52 52,-52l0 -97c0,-31 26,-57 57,-57 32,0 57,26 57,58l0 22c-1,16 13,30 29,30 16,0 30,-13 30,-30l0 -23 -19 0c-6,0 -12,-5 -12,-12l1 -64c0,-6 4,-10 9,-12 0,0 1,0 1,0l0 -36c0,-7 5,-12 12,-12l45 0c7,0 12,5 12,12l0 36c0,0 0,0 0,1 5,1 10,6 10,11l-1 64c0,7 -5,12 -12,12l-18 0 0 23c-1,32 -27,57 -58,57 -32,0 -57,-26 -57,-57l1 -22c0,-17 -13,-30 -30,-30 -16,0 -29,13 -29,29l1 97zm179 -216l0 23 -14 0 0 -23 14 0zm-28 0l0 23 -13 0 0 -23 13 0zm220 274l347 0 0 58 -347 0 0 -58zm-122 100l469 0 0 58 -469 0 0 -58zm-280 21l242 0 0 37 -242 0 0 -37zm187 -112l180 0 0 49 -180 0 0 -49zm-188 20l152 0 0 29 -152 0 0 -29z"/>
 </g>
</svg>
