<?xml version="1.0" encoding="UTF-8"?>
<!DOCTYPE svg PUBLIC "-//W3C//DTD SVG 1.1//EN" "http://www.w3.org/Graphics/SVG/1.1/DTD/svg11.dtd">
<!-- Creator: CorelDRAW X7 -->
<svg xmlns="http://www.w3.org/2000/svg" xml:space="preserve" width="576px" height="512px" version="1.1" style="shape-rendering:geometricPrecision; text-rendering:geometricPrecision; image-rendering:optimizeQuality; fill-rule:evenodd; clip-rule:evenodd"
viewBox="0 0 576 512"
 xmlns:xlink="http://www.w3.org/1999/xlink">
 <defs>
  <style type="text/css">
   <![CDATA[
    .fil0 {fill:black}
   ]]>
  </style>
 </defs>
 <g id="Layer_x0020_1">
  <metadata id="CorelCorpID_0Corel-Layer"/>
  <path class="fil0" d="M550 0l-524 0c-14,0 -26,12 -26,26l0 119c0,2 0,3 0,4l576 0c0,-1 0,-2 0,-4l0 -119c0,-14 -11,-26 -26,-26zm-454 128c-24,0 -43,-19 -43,-43 0,-23 19,-42 43,-42 24,0 43,19 43,42 0,24 -19,43 -43,43zm235 -11c-6,0 -11,-4 -11,-10 0,-6 5,-11 11,-11 6,0 10,5 10,11 0,6 -4,10 -10,10zm21 -42c-6,0 -11,-5 -11,-11 0,-6 5,-11 11,-11 6,0 11,5 11,11 0,6 -5,11 -11,11zm21 42c-6,0 -10,-4 -10,-10 0,-6 4,-11 10,-11 6,0 11,5 11,11 0,6 -5,10 -11,10zm22 -42c-6,0 -11,-5 -11,-11 0,-6 5,-11 11,-11 6,0 10,5 10,11 0,6 -4,11 -10,11zm21 42c-6,0 -11,-4 -11,-10 0,-6 5,-11 11,-11 6,0 11,5 11,11 0,6 -5,10 -11,10zm21 -42c-6,0 -10,-5 -10,-11 0,-6 4,-11 10,-11 6,0 11,5 11,11 0,6 -5,11 -11,11zm22 42c-6,0 -11,-4 -11,-10 0,-6 5,-11 11,-11 6,0 10,5 10,11 0,6 -4,10 -10,10zm21 -42c-6,0 -11,-5 -11,-11 0,-6 5,-11 11,-11 6,0 11,5 11,11 0,6 -5,11 -11,11zm21 42c-6,0 -10,-4 -10,-10 0,-6 4,-11 10,-11 6,0 11,5 11,11 0,6 -5,10 -11,10zm22 -42c-6,0 -11,-5 -11,-11 0,-6 5,-11 11,-11 6,0 10,5 10,11 0,6 -4,11 -10,11z"/>
  <path class="fil0" d="M117 85c0,12 -9,22 -21,22 -12,0 -21,-10 -21,-22 0,-11 9,-21 21,-21 12,0 21,10 21,21z"/>
  <path class="fil0" d="M117 235c0,11 -9,21 -21,21 -12,0 -21,-10 -21,-21 0,-12 9,-22 21,-22 12,0 21,10 21,22z"/>
  <path class="fil0" d="M0 171c0,1 0,3 0,4l0 119c0,2 0,3 0,5l576 0c0,-2 0,-3 0,-5l0 -119c0,-1 0,-3 0,-4l-576 0zm96 106c-24,0 -43,-19 -43,-42 0,-24 19,-43 43,-43 24,0 43,19 43,43 0,23 -19,42 -43,42zm235 -10c-6,0 -11,-5 -11,-11 0,-6 5,-11 11,-11 6,0 10,5 10,11 0,6 -4,11 -10,11zm21 -43c-6,0 -11,-5 -11,-11 0,-6 5,-10 11,-10 6,0 11,4 11,10 0,6 -5,11 -11,11zm21 43c-6,0 -10,-5 -10,-11 0,-6 4,-11 10,-11 6,0 11,5 11,11 0,6 -5,11 -11,11zm22 -43c-6,0 -11,-5 -11,-11 0,-6 5,-10 11,-10 6,0 10,4 10,10 0,6 -4,11 -10,11zm21 43c-6,0 -11,-5 -11,-11 0,-6 5,-11 11,-11 6,0 11,5 11,11 0,6 -5,11 -11,11zm21 -43c-6,0 -10,-5 -10,-11 0,-6 4,-10 10,-10 6,0 11,4 11,10 0,6 -5,11 -11,11zm22 43c-6,0 -11,-5 -11,-11 0,-6 5,-11 11,-11 6,0 10,5 10,11 0,6 -4,11 -10,11zm21 -43c-6,0 -11,-5 -11,-11 0,-6 5,-10 11,-10 6,0 11,4 11,10 0,6 -5,11 -11,11zm21 43c-6,0 -10,-5 -10,-11 0,-6 4,-11 10,-11 6,0 11,5 11,11 0,6 -5,11 -11,11zm22 -43c-6,0 -11,-5 -11,-11 0,-6 5,-10 11,-10 6,0 10,4 10,10 0,6 -4,11 -10,11z"/>
  <path class="fil0" d="M117 384c0,12 -9,21 -21,21 -12,0 -21,-9 -21,-21 0,-12 9,-21 21,-21 12,0 21,9 21,21z"/>
  <path class="fil0" d="M0 320c0,1 0,3 0,4l0 120c0,14 12,25 26,25l6 0c0,24 19,43 43,43 23,0 42,-19 42,-43l342 0c0,24 19,43 42,43 24,0 43,-19 43,-43l6 0c15,0 26,-11 26,-25l0 -120c0,-1 0,-3 0,-4l-576 0zm523 32c6,0 10,5 10,11 0,6 -4,10 -10,10 -6,0 -11,-4 -11,-10 0,-6 5,-11 11,-11zm-22 43c6,0 11,4 11,10 0,6 -5,11 -11,11 -6,0 -10,-5 -10,-11 0,-6 4,-10 10,-10zm-21 -43c6,0 11,5 11,11 0,6 -5,10 -11,10 -6,0 -11,-4 -11,-10 0,-6 5,-11 11,-11zm-405 139c-12,0 -22,-10 -22,-22l43 0c0,12 -10,22 -21,22zm21 -64c-24,0 -43,-19 -43,-43 0,-24 19,-43 43,-43 24,0 43,19 43,43 0,24 -19,43 -43,43zm235 -11c-6,0 -11,-5 -11,-11 0,-6 5,-10 11,-10 6,0 10,4 10,10 0,6 -4,11 -10,11zm21 -43c-6,0 -11,-4 -11,-10 0,-6 5,-11 11,-11 6,0 11,5 11,11 0,6 -5,10 -11,10zm21 43c-6,0 -10,-5 -10,-11 0,-6 4,-10 10,-10 6,0 11,4 11,10 0,6 -5,11 -11,11zm22 -43c-6,0 -11,-4 -11,-10 0,-6 5,-11 11,-11 6,0 10,5 10,11 0,6 -4,10 -10,10zm21 43c-6,0 -11,-5 -11,-11 0,-6 5,-10 11,-10 6,0 11,4 11,10 0,6 -5,11 -11,11zm21 -43c-6,0 -10,-4 -10,-10 0,-6 4,-11 10,-11 6,0 11,5 11,11 0,6 -5,10 -11,10zm11 32c0,-6 5,-10 11,-10 6,0 10,4 10,10 0,6 -4,11 -10,11 -6,0 -11,-5 -11,-11zm53 86c-11,0 -21,-10 -21,-22l43 0c0,12 -10,22 -22,22z"/>
 </g>
</svg>
