<?xml version="1.0" encoding="UTF-8"?>
<!DOCTYPE svg PUBLIC "-//W3C//DTD SVG 1.1//EN" "http://www.w3.org/Graphics/SVG/1.1/DTD/svg11.dtd">
<!-- Creator: CorelDRAW X7 -->
<svg xmlns="http://www.w3.org/2000/svg" xml:space="preserve" width="451px" height="512px" version="1.1" style="shape-rendering:geometricPrecision; text-rendering:geometricPrecision; image-rendering:optimizeQuality; fill-rule:evenodd; clip-rule:evenodd"
viewBox="0 0 451 512"
 xmlns:xlink="http://www.w3.org/1999/xlink">
 <defs>
  <style type="text/css">
   <![CDATA[
    .fil0 {fill:black}
   ]]>
  </style>
 </defs>
 <g id="Layer_x0020_1">
  <metadata id="CorelCorpID_0Corel-Layer"/>
  <g id="_2182256732528">
   <path class="fil0" d="M381 429l-32 0c-7,0 -13,6 -13,13 0,7 6,13 13,13l32 0c7,0 13,-6 13,-13 0,-7 -6,-13 -13,-13z"/>
   <path class="fil0" d="M76 429l-1 0c-7,0 -13,6 -13,13 0,7 6,13 13,13l1 0c7,0 13,-6 13,-13 0,-7 -6,-13 -13,-13z"/>
   <path class="fil0" d="M412 0l-372 0c-22,0 -40,18 -40,40l0 432c0,22 18,40 40,40l371 0c22,0 40,-18 40,-40l0 -432c0,-22 -18,-40 -39,-40zm-292 352c0,0 -1,1 -1,1 0,1 -1,1 -1,2 -1,0 -2,0 -4,0 -2,0 -4,0 -7,0 -2,0 -4,0 -6,0 -1,0 -2,0 -3,-1 -1,0 -1,0 -2,-1 0,0 0,-1 -1,-1l-10 -25c-1,-3 -2,-6 -3,-8 -1,-2 -2,-4 -4,-5 -1,-2 -3,-3 -5,-3 -2,-1 -4,-2 -6,-2l-7 0 0 43c0,0 0,1 -1,1 0,1 -1,1 -1,1 -1,1 -2,1 -4,1 -1,0 -3,0 -5,0 -2,0 -4,0 -6,0 -1,0 -2,0 -3,-1 -1,0 -2,0 -2,-1 0,0 -1,-1 -1,-1l0 -101c0,-2 1,-4 2,-5 2,-1 3,-2 5,-2l29 0c3,0 5,0 7,0 2,0 4,1 5,1 5,0 9,1 12,3 4,2 7,4 9,6 3,2 5,5 6,9 1,3 2,7 2,11 0,4 -1,8 -2,11 -1,3 -2,5 -4,8 -2,2 -4,4 -7,6 -2,2 -5,3 -9,4 2,1 4,2 5,3 1,1 3,3 4,4 1,2 3,4 4,6 1,2 2,4 3,7l9 22c1,2 2,3 2,4 0,1 1,2 1,3zm-29 -75c0,-4 -1,-7 -3,-9 -2,-3 -4,-5 -8,-6 -1,0 -3,0 -4,0 -1,-1 -3,-1 -6,-1l-10 0 0 32 11 0c4,0 6,-1 9,-2 2,0 4,-1 6,-3 1,-1 3,-3 3,-5 1,-2 2,-4 2,-6zm136 69c0,2 1,4 1,5 0,1 0,2 -1,3 0,1 -2,1 -3,1 -2,0 -4,0 -7,0 -3,0 -5,0 -7,0 -1,0 -2,0 -3,0 -1,-1 -2,-1 -2,-1 0,-1 -1,-1 -1,-2l-7 -22 -42 0 -7 21c0,1 0,2 -1,2 0,1 -1,1 -1,1 -1,1 -2,1 -4,1 -2,0 -3,0 -6,0 -3,0 -5,0 -6,0 -2,0 -3,-1 -3,-1 -1,-1 -1,-2 -1,-3 0,-1 1,-3 2,-5l34 -98c0,-1 0,-2 1,-2 0,-1 1,-1 2,-2 1,0 2,0 4,0 2,0 4,0 7,0 3,0 6,0 8,0 2,0 4,0 5,0 1,1 2,1 2,2 1,0 1,1 1,2l35 98zm-51 -81l0 0 -16 47 31 0 -15 -47zm140 73c0,1 0,3 0,4 0,1 0,2 0,2 0,1 0,2 -1,2 0,1 0,1 -1,2 -1,0 -2,1 -4,2 -2,1 -4,2 -6,3 -3,1 -6,2 -9,3 -3,0 -7,0 -11,0 -8,0 -14,-1 -20,-3 -7,-2 -12,-6 -16,-10 -4,-5 -8,-11 -10,-18 -2,-7 -3,-15 -3,-24 0,-9 1,-18 4,-25 2,-7 6,-14 10,-18 5,-5 10,-9 16,-12 6,-2 13,-4 21,-4 3,0 6,1 9,1 3,1 5,1 8,2 2,1 4,2 6,3 2,1 4,2 4,3 1,1 2,1 2,2 0,0 0,1 1,2 0,1 0,1 0,3 0,1 0,2 0,4 0,1 0,3 0,4 0,1 0,2 -1,3 0,1 0,1 -1,1 0,1 -1,1 -1,1 -1,0 -2,-1 -3,-2 -2,-1 -3,-2 -5,-3 -2,-1 -5,-2 -8,-3 -3,-1 -6,-2 -10,-2 -4,0 -8,1 -12,3 -3,2 -6,4 -9,8 -2,3 -4,7 -5,12 -1,4 -2,10 -2,16 0,6 1,12 2,17 1,4 3,8 6,11 2,3 5,6 9,7 3,2 7,2 12,2 4,0 7,0 10,-1 3,-1 5,-2 7,-3 2,-1 4,-2 5,-3 2,-1 3,-2 4,-2 0,0 1,1 1,1 0,0 1,1 1,1 0,1 0,2 0,3 0,1 0,3 0,5zm97 13c0,1 0,2 0,2 0,1 -1,1 -2,1 -1,1 -2,1 -4,1 -1,0 -3,0 -5,0 -4,0 -7,0 -8,0 -2,0 -3,-1 -4,-1 -1,-1 -1,-2 -2,-2l-33 -53 0 53c0,0 0,1 0,1 -1,1 -1,1 -2,1 -1,1 -2,1 -4,1 -1,0 -3,0 -5,0 -2,0 -4,0 -6,0 -1,0 -2,0 -3,-1 -1,0 -1,0 -2,-1 0,0 0,-1 0,-1l0 -105c0,0 0,-1 0,-1 1,-1 1,-1 2,-1 1,-1 2,-1 3,-1 2,0 4,0 6,0 2,0 4,0 5,0 2,0 3,0 4,1 1,0 1,0 2,1 0,0 0,1 0,1l0 47 32 -47c1,0 1,-1 2,-1 0,-1 1,-1 2,-2 1,0 2,0 4,0 1,0 3,0 5,0 2,0 4,0 6,0 1,0 2,0 3,1 1,0 2,0 2,1 0,0 1,1 1,1 0,1 -1,2 -1,3 -1,1 -2,3 -3,5l-30 40 33 50c1,2 2,4 2,5 0,0 0,1 0,1zm-259 -170c0,0 0,1 -1,1 0,1 -1,1 -2,1 -1,1 -2,1 -3,1 -2,0 -3,0 -5,0 -3,0 -5,0 -6,0 -1,0 -3,0 -3,-1 -1,0 -2,0 -2,-1 -1,0 -1,-1 -1,-1l0 -45 -41 0 0 45c0,0 0,1 -1,1 0,1 -1,1 -1,1 -1,1 -2,1 -4,1 -1,0 -3,0 -5,0 -2,0 -4,0 -6,0 -1,0 -2,0 -3,-1 -1,0 -2,0 -2,-1 0,0 -1,-1 -1,-1l0 -105c0,0 1,-1 1,-1 0,-1 1,-1 2,-1 1,-1 2,-1 3,-1 2,0 4,0 6,0 2,0 4,0 5,0 2,0 3,0 4,1 0,0 1,0 1,1 1,0 1,1 1,1l0 41 41 0 0 -41c0,0 0,-1 1,-1 0,-1 1,-1 2,-1 0,-1 2,-1 3,-1 1,0 3,0 6,0 2,0 3,0 5,0 1,0 2,0 3,1 1,0 2,0 2,1 1,0 1,1 1,1l0 105zm116 -54c0,10 -2,19 -4,26 -3,7 -7,13 -12,18 -5,4 -11,8 -18,10 -7,2 -15,3 -25,3l-27 0c-1,0 -3,-1 -4,-2 -2,-1 -2,-3 -2,-5l0 -97c0,-2 0,-4 2,-5 1,-1 3,-2 4,-2l29 0c10,0 18,1 25,4 7,2 13,5 17,10 5,5 9,10 11,17 2,6 4,14 4,23zm-24 1c0,-6 0,-10 -1,-15 -2,-4 -4,-8 -6,-12 -3,-3 -7,-5 -11,-7 -4,-2 -10,-3 -16,-3l-12 0 0 75 12 0c6,0 11,-1 15,-2 5,-2 8,-4 11,-8 3,-3 5,-7 6,-12 2,-4 2,-10 2,-16zm134 -1c0,10 -1,19 -4,26 -3,7 -6,13 -11,18 -5,4 -11,8 -18,10 -8,2 -16,3 -26,3l-26 0c-2,0 -4,-1 -5,-2 -1,-1 -2,-3 -2,-5l0 -97c0,-2 1,-4 2,-5 1,-1 3,-2 5,-2l28 0c10,0 18,1 25,4 7,2 13,5 18,10 4,5 8,10 10,17 3,6 4,14 4,23zm-23 1c0,-6 -1,-10 -2,-15 -1,-4 -3,-8 -6,-12 -3,-3 -6,-5 -10,-7 -5,-2 -10,-3 -17,-3l-11 0 0 75 11 0c6,0 12,-1 16,-2 4,-2 7,-4 10,-8 3,-3 5,-7 7,-12 1,-4 2,-10 2,-16zm68 284c0,-8 -6,-14 -14,-14l-371 0c-8,0 -14,6 -14,14l0 60c0,8 6,14 14,14l371 0c8,0 14,-6 14,-14l0 -60z"/>
  </g>
 </g>
</svg>
