<?xml version="1.0" encoding="UTF-8"?>
<!DOCTYPE svg PUBLIC "-//W3C//DTD SVG 1.1//EN" "http://www.w3.org/Graphics/SVG/1.1/DTD/svg11.dtd">
<!-- Creator: CorelDRAW X7 -->
<svg xmlns="http://www.w3.org/2000/svg" xml:space="preserve" width="512px" height="512px" version="1.1" style="shape-rendering:geometricPrecision; text-rendering:geometricPrecision; image-rendering:optimizeQuality; fill-rule:evenodd; clip-rule:evenodd"
viewBox="0 0 512 512"
 xmlns:xlink="http://www.w3.org/1999/xlink">
 <defs>
  <style type="text/css">
   <![CDATA[
    .fil0 {fill:black}
   ]]>
  </style>
 </defs>
 <g id="Layer_x0020_1">
  <metadata id="CorelCorpID_0Corel-Layer"/>
  <path class="fil0" d="M255 0c-43,0 -87,11 -127,34 -82,48 -128,134 -128,223 0,43 11,87 34,127 48,82 134,128 223,128 43,0 87,-11 127,-34 80,-47 126,-130 128,-216l0 -13c-1,-41 -12,-83 -34,-121 -48,-82 -134,-128 -223,-128zm94 29c30,12 57,30 80,53l-90 90c-10,-11 -23,-20 -38,-26 0,0 48,-117 48,-117zm-93 119c59,0 108,48 108,108 0,59 -49,108 -108,108 -59,0 -108,-49 -108,-108 0,-60 49,-108 108,-108zm0 11c-54,0 -97,43 -97,97 0,54 43,97 97,97 54,0 97,-43 97,-97 0,-54 -43,-97 -97,-97zm0 63c19,0 34,15 34,34 0,19 -15,34 -34,34 -19,0 -34,-15 -34,-34 0,-19 15,-34 34,-34zm-87 167c6,0 12,1 17,2 5,2 9,4 13,7 4,3 7,7 9,12 2,5 3,10 3,17 0,6 -1,12 -3,17 -2,5 -5,8 -9,12 -4,3 -8,5 -13,7 -6,1 -11,2 -18,2 -3,0 -6,0 -10,0 -4,-1 -8,-1 -12,-2l0 -72c4,-1 8,-1 12,-1 4,-1 8,-1 11,-1zm155 0c7,0 12,1 17,2 6,2 10,4 14,7 3,3 6,7 8,12 2,5 3,10 3,17 0,6 -1,12 -3,17 -2,5 -5,8 -8,12 -4,3 -8,5 -14,7 -5,1 -11,2 -17,2 -3,0 -7,0 -11,0 -4,-1 -8,-1 -12,-2l0 -72c4,-1 8,-1 12,-1 5,-1 8,-1 11,-1zm-107 1l18 0c2,4 3,9 5,14 2,5 3,10 5,15 2,5 3,9 5,14 2,4 3,8 5,11 1,-3 3,-7 4,-11 2,-5 4,-9 5,-14 2,-5 4,-10 5,-15 2,-5 4,-10 5,-14l18 0c-2,5 -4,10 -6,16 -2,6 -4,12 -7,19 -2,6 -5,13 -8,20 -3,6 -6,13 -9,19l-16 0c-3,-6 -5,-13 -8,-19 -3,-7 -6,-14 -8,-20 -3,-7 -5,-13 -7,-19 -3,-6 -4,-11 -6,-16zm-48 13c-1,0 -2,0 -3,1 -1,0 -2,0 -3,0l0 47c0,0 1,0 2,0 1,0 2,0 4,0 8,0 14,-2 18,-7 4,-4 6,-10 6,-17 0,-8 -1,-14 -5,-18 -4,-4 -10,-6 -19,-6zm156 0c-1,0 -2,0 -3,1 -2,0 -3,0 -4,0l0 47c1,0 2,0 3,0 1,0 2,0 4,0 8,0 14,-2 18,-7 4,-4 6,-10 6,-17 0,-8 -2,-14 -6,-18 -4,-4 -10,-6 -18,-6z"/>
 </g>
</svg>
