<?xml version="1.0" encoding="UTF-8"?>
<!DOCTYPE svg PUBLIC "-//W3C//DTD SVG 1.1//EN" "http://www.w3.org/Graphics/SVG/1.1/DTD/svg11.dtd">
<!-- Creator: CorelDRAW X7 -->
<svg xmlns="http://www.w3.org/2000/svg" xml:space="preserve" width="512px" height="512px" version="1.1" style="shape-rendering:geometricPrecision; text-rendering:geometricPrecision; image-rendering:optimizeQuality; fill-rule:evenodd; clip-rule:evenodd"
viewBox="0 0 512 512"
 xmlns:xlink="http://www.w3.org/1999/xlink">
 <defs>
  <style type="text/css">
   <![CDATA[
    .fil0 {fill:black}
   ]]>
  </style>
 </defs>
 <g id="Layer_x0020_1">
  <metadata id="CorelCorpID_0Corel-Layer"/>
  <path class="fil0" d="M34 163l34 0 0 344 -68 0 34 -30 0 -314zm0 -12l34 0 0 -151 -34 0 0 151zm156 311c-1,8 -1,16 -1,24 0,6 1,14 5,21l-116 0 0 -344 30 3 200 41 0 122c-1,1 -2,1 -3,2l-14 0c-2,-2 -4,-4 -7,-5 -14,-5 -29,-5 -43,1 -3,1 -5,2 -6,3 -2,1 -3,3 -4,4 -2,1 -3,3 -4,5 -3,3 -5,6 -7,9l-2 4c-5,7 -8,16 -10,22 -4,13 -7,27 -11,43 -2,13 -5,29 -7,45zm118 -265l0 -132 -196 -65 -34 0 0 151 31 3 199 43zm-39 198l-7 -7c0,0 -1,0 -2,0l-6 7c-1,1 -1,2 -1,4l0 12c0,2 1,4 4,4l9 0c2,0 4,-2 4,-4l0 -12c0,-2 0,-3 -1,-4zm-11 -11l-7 -7 0 0c-1,-1 -2,-1 -3,-1l-12 0c-3,0 -5,2 -5,4l0 9c0,3 2,4 5,4l12 0c1,0 3,0 4,-1l6 -6c1,-1 1,-2 0,-2zm63 -2l63 0c3,0 6,-2 6,-5l0 -33c0,-3 -3,-6 -6,-6l-63 0c-3,0 -5,3 -5,6l0 33c0,3 2,5 5,5zm-61 0c1,1 2,1 2,0l7 -7c1,-1 1,-2 1,-3l0 -12c0,-2 -2,-4 -4,-4l-9 0c-3,0 -4,2 -4,4l0 12c0,1 0,3 1,4l6 6zm205 -8c6,0 10,5 10,10 0,5 -4,10 -10,10 -5,0 -9,-5 -9,-10 0,-5 4,-10 9,-10zm0 4c-3,0 -6,3 -6,6 0,3 3,6 6,6 4,0 7,-3 7,-6 0,-3 -3,-6 -7,-6zm-26 -11l9 0 -4 -8 -5 8zm15 -4c0,6 -5,10 -10,10 -5,0 -10,-4 -10,-10 0,-5 5,-9 10,-9 5,0 10,4 10,9zm-3 5l-7 -11 -7 11 14 0zm9 16c0,3 3,5 5,5 3,0 6,-2 6,-5 0,-3 -3,-5 -6,-5 -2,0 -5,2 -5,5zm-6 21c0,5 -5,10 -10,10 -5,0 -10,-5 -10,-10 0,-5 5,-10 10,-10 5,0 10,5 10,10zm-9 0l5 -5 -1 -1 -5 5 -4 -5 -1 1 4 5 -4 4 1 1 4 -4 5 4 1 -1 -5 -4zm54 77c0,9 -2,16 -12,23 -16,13 -38,5 -42,-2 -5,-7 -9,-17 -12,-27 -3,-7 -5,-15 -8,-22 0,-3 -2,-3 -5,-4 0,0 0,0 -1,0 -11,8 -25,8 -36,-1 0,0 -1,0 -2,0 -3,0 -11,0 -19,0l0 0c-2,0 -5,0 -9,0 -4,0 -8,0 -10,0l0 0c-8,0 -16,0 -19,0 -1,0 -2,0 -2,0 -11,9 -25,9 -36,1 -1,0 -1,0 -1,0 -2,1 -4,1 -5,4 -3,7 -5,15 -8,22 -3,10 -7,20 -12,27 -4,7 -26,15 -42,2 -9,-7 -12,-14 -12,-23 0,-8 1,-15 1,-22 2,-15 5,-29 8,-43 3,-14 6,-28 10,-42 2,-6 4,-12 8,-18 3,-4 5,-8 8,-13 1,0 2,-1 3,-1 0,-1 1,-1 1,-2 0,0 0,-1 1,-1 0,-1 1,-1 2,-1 10,-5 20,-5 31,-1 0,1 1,1 1,2 0,1 0,2 2,2 0,0 0,0 0,1 3,1 5,1 8,1l23 0 0 33c0,4 4,8 8,8l63 0c5,0 8,-4 8,-8l0 -33 23 0c3,0 6,0 8,-1 0,-1 0,-1 0,-1 2,0 2,-1 2,-2 0,-1 1,-1 2,-2 10,-4 20,-4 30,1 1,0 2,0 2,1 1,0 1,1 1,1 0,1 1,1 1,2 1,0 2,1 3,1 3,5 5,9 8,13 4,6 6,12 8,18 4,14 8,28 10,42 3,14 6,28 8,43 0,7 1,14 1,22zm-202 -116c0,4 3,6 6,6 3,0 6,-2 6,-6l0 -12c0,-3 -3,-6 -6,-6 -3,0 -6,3 -6,6l0 12zm-2 19c0,-19 -15,-33 -33,-33 -19,0 -34,14 -34,33 0,18 15,33 34,33 18,0 33,-15 33,-33zm26 49c0,-10 -8,-18 -17,-18 -9,0 -17,8 -17,18 0,9 8,17 17,17 9,0 17,-8 17,-17zm75 -68c0,4 3,6 6,6 3,0 6,-2 6,-6l0 -12c0,-3 -3,-6 -6,-6 -3,0 -6,3 -6,6l0 12zm22 68c0,-10 -7,-18 -17,-18 -9,0 -17,8 -17,18 0,9 8,17 17,17 10,0 17,-8 17,-17zm59 -49c0,-19 -15,-33 -33,-33 -19,0 -33,14 -33,33 0,18 14,33 33,33 18,0 33,-15 33,-33zm-44 -1c0,5 -5,10 -10,10 -5,0 -10,-5 -10,-10 0,-5 5,-10 10,-10 5,0 10,5 10,10zm-5 -5l-10 0 0 10 10 0 0 -10zm-141 -3l-13 0c-1,0 -2,0 -3,1l0 0 -7 7c-1,0 -1,1 0,2l6 6c1,1 3,1 4,1l13 0c2,0 4,-1 4,-4l0 -9c0,-2 -2,-4 -4,-4zm140 4l-8 0 0 8 8 0 0 -8z"/>
 </g>
</svg>
