<?xml version="1.0" encoding="UTF-8"?>
<!DOCTYPE svg PUBLIC "-//W3C//DTD SVG 1.1//EN" "http://www.w3.org/Graphics/SVG/1.1/DTD/svg11.dtd">
<!-- Creator: CorelDRAW X7 -->
<svg xmlns="http://www.w3.org/2000/svg" xml:space="preserve" width="682px" height="512px" version="1.1" style="shape-rendering:geometricPrecision; text-rendering:geometricPrecision; image-rendering:optimizeQuality; fill-rule:evenodd; clip-rule:evenodd"
viewBox="0 0 682 512"
 xmlns:xlink="http://www.w3.org/1999/xlink">
 <defs>
  <style type="text/css">
   <![CDATA[
    .fil0 {fill:black}
   ]]>
  </style>
 </defs>
 <g id="Layer_x0020_1">
  <metadata id="CorelCorpID_0Corel-Layer"/>
  <g>
   <path class="fil0" d="M341 34l-100 0c-26,-21 -58,-33 -93,-33 -82,0 -148,66 -148,147 0,28 8,55 22,77l-14 196c0,50 41,91 91,91 40,0 75,-26 87,-64l39 -118c11,20 33,34 59,34 23,0 44,-12 57,-31 12,19 33,31 56,31 27,0 50,-15 61,-37l40 120c12,39 46,65 87,65 50,0 90,-41 90,-91l-13 -199c12,-22 20,-47 20,-74 0,-82 -66,-148 -148,-148 -35,0 -68,13 -94,34l-77 0 -22 0zm-114 129c0,10 -9,19 -20,19l-26 0 0 26c0,11 -8,20 -19,20l-29 0c-11,0 -20,-9 -20,-20l0 -26 -26 0c-11,0 -20,-9 -20,-19l0 -30c0,-10 9,-19 20,-19l26 0 0 -26c0,-11 9,-20 20,-20l29 0c11,0 19,9 19,20l0 26 26 0c11,0 20,9 20,19l0 30zm307 -123c22,0 40,18 40,40 0,22 -18,39 -40,39 -22,0 -40,-17 -40,-39 0,-22 18,-40 40,-40zm-206 265l0 0c-4,21 -22,36 -44,36 -25,0 -46,-20 -46,-45 0,-11 4,-22 11,-30l3 -2c6,-7 14,-11 23,-13 3,0 6,-1 9,-1 3,0 6,1 9,1 0,0 0,0 0,0 3,1 6,2 8,3 0,0 1,0 1,0 2,1 5,2 7,4 0,0 1,1 1,1 2,1 4,3 6,4 1,1 1,2 2,3 1,2 2,3 3,4 1,2 3,4 4,6 0,1 0,1 0,1 2,5 4,11 4,17l0 3c0,3 0,5 -1,8zm1 -191c-6,0 -11,-5 -11,-12 0,-6 5,-11 11,-11l34 0c7,0 12,5 12,11 0,7 -5,12 -12,12l-34 0zm68 227c-21,0 -40,-15 -44,-36l0 0c-1,-3 -1,-5 -1,-8l0 -3c0,-6 2,-12 4,-17 0,0 0,0 1,-1 1,-2 2,-4 3,-6 1,-1 2,-2 3,-3 1,-1 2,-3 3,-4 1,-1 3,-3 5,-4 0,0 1,-1 1,-1 2,-1 5,-3 7,-4 0,0 1,0 1,0 2,-1 5,-2 8,-2 0,-1 0,-1 0,-1 3,0 6,-1 9,-1 3,0 6,1 9,1 0,0 1,1 2,1 2,0 4,1 5,1 1,1 2,1 3,1 2,1 4,2 6,4 1,0 2,1 3,2 1,1 2,2 3,2 1,1 2,2 3,3 1,1 2,2 2,3 1,1 2,2 3,3 0,1 1,2 1,3 1,1 1,2 2,3l1 2c2,5 3,11 3,17 0,25 -20,45 -46,45zm63 -159c-22,0 -40,-18 -40,-40 0,-22 18,-40 40,-40 22,0 40,18 40,40 0,22 -18,40 -40,40zm74 63c-22,0 -40,-18 -40,-40 0,-22 18,-40 40,-40 22,0 40,18 40,40 0,22 -18,40 -40,40zm74 -63c-22,0 -40,-18 -40,-40 0,-22 18,-40 40,-40 22,0 40,18 40,40 0,22 -18,40 -40,40z"/>
  </g>
  <path class="fil0" d="M625 142c0,10 -8,17 -17,17 -9,0 -17,-7 -17,-17 0,-9 8,-17 17,-17 9,0 17,8 17,17z"/>
  <path class="fil0" d="M551 80c0,9 -8,17 -17,17 -9,0 -17,-8 -17,-17 0,-10 8,-17 17,-17 9,0 17,7 17,17z"/>
  <path class="fil0" d="M477 142c0,10 -7,17 -17,17 -9,0 -17,-7 -17,-17 0,-9 8,-17 17,-17 10,0 17,8 17,17z"/>
  <path class="fil0" d="M551 205c0,9 -8,17 -17,17 -9,0 -17,-8 -17,-17 0,-10 8,-17 17,-17 9,0 17,7 17,17z"/>
  <polygon class="fil0" points="159,91 136,91 136,137 90,137 90,159 136,159 136,205 159,205 159,159 204,159 204,137 159,137 "/>
 </g>
</svg>
