<?xml version="1.0" encoding="UTF-8"?>
<!DOCTYPE svg PUBLIC "-//W3C//DTD SVG 1.1//EN" "http://www.w3.org/Graphics/SVG/1.1/DTD/svg11.dtd">
<!-- Creator: CorelDRAW X7 -->
<svg xmlns="http://www.w3.org/2000/svg" xml:space="preserve" width="453px" height="512px" version="1.1" style="shape-rendering:geometricPrecision; text-rendering:geometricPrecision; image-rendering:optimizeQuality; fill-rule:evenodd; clip-rule:evenodd"
viewBox="0 0 453 512"
 xmlns:xlink="http://www.w3.org/1999/xlink">
 <defs>
  <style type="text/css">
   <![CDATA[
    .fil0 {fill:black}
   ]]>
  </style>
 </defs>
 <g id="Layer_x0020_1">
  <metadata id="CorelCorpID_0Corel-Layer"/>
  <path class="fil0" d="M452 494c-7,-32 -31,-61 -69,-83 0,0 0,0 0,-1l0 -12c0,-26 -22,-47 -48,-47 -19,0 -36,12 -43,28 -15,-3 -31,-4 -47,-5l0 -56 15 0c17,0 30,-14 30,-30 0,-12 -6,-22 -16,-27l0 -192c0,-38 -31,-69 -69,-69l-32 0c-28,0 -50,23 -50,50 0,28 22,50 50,50 0,0 1,1 1,1l0 13 -1 0c-10,0 -18,8 -18,19l0 25c0,10 8,18 18,18l1 0 0 1 -1 0c-10,0 -18,9 -18,19l0 25c0,10 8,19 18,19l1 0 0 21c-10,5 -16,15 -16,27 0,16 13,30 30,30l11 0 0 56c-13,1 -26,3 -38,5 -8,-16 -24,-28 -43,-28 -27,0 -48,21 -48,47l0 12c0,1 0,1 0,1 -38,22 -63,51 -70,83 0,1 0,2 0,4l0 0c0,2 1,6 3,9 2,2 6,5 13,5l423 0c5,0 9,-1 11,-4 4,-5 3,-11 2,-14zm-201 -10l-54 0c-16,0 -28,-12 -28,-27 0,-15 12,-28 28,-28l54 0c15,0 27,13 27,28 0,15 -12,27 -27,27z"/>
 </g>
</svg>
