<?xml version="1.0" encoding="UTF-8"?>
<!DOCTYPE svg PUBLIC "-//W3C//DTD SVG 1.1//EN" "http://www.w3.org/Graphics/SVG/1.1/DTD/svg11.dtd">
<!-- Creator: CorelDRAW X7 -->
<svg xmlns="http://www.w3.org/2000/svg" xml:space="preserve" width="512px" height="512px" version="1.1" style="shape-rendering:geometricPrecision; text-rendering:geometricPrecision; image-rendering:optimizeQuality; fill-rule:evenodd; clip-rule:evenodd"
viewBox="0 0 512 512"
 xmlns:xlink="http://www.w3.org/1999/xlink">
 <defs>
  <style type="text/css">
   <![CDATA[
    .fil0 {fill:black}
   ]]>
  </style>
 </defs>
 <g id="Layer_x0020_1">
  <metadata id="CorelCorpID_0Corel-Layer"/>
  <path class="fil0" d="M437 75c-48,-48 -113,-75 -181,-75 -68,0 -133,27 -181,75 -48,48 -75,113 -75,181 0,68 27,133 75,181 48,48 113,75 181,75 68,0 133,-27 181,-75 48,-48 75,-113 75,-181 0,-68 -27,-133 -75,-181zm-181 141c-4,0 -8,4 -8,8 0,4 4,8 8,8 13,0 24,11 24,24 0,4 4,8 8,8 4,0 8,-4 8,-8 0,-22 -18,-40 -40,-40zm32 128l-16 0c-4,0 -8,4 -8,8 0,4 4,8 8,8l16 0c4,0 8,-4 8,-8 0,-4 -4,-8 -8,-8zm-48 0l-16 0c-4,0 -8,4 -8,8 0,4 4,8 8,8l16 0c4,0 8,-4 8,-8 0,-4 -4,-8 -8,-8zm108 -76c7,0 12,-5 12,-12 0,-7 -5,-12 -12,-12 -7,0 -12,5 -12,12 0,7 5,12 12,12zm56 0c7,0 12,-5 12,-12 0,-7 -5,-12 -12,-12 -7,0 -12,5 -12,12 0,7 5,12 12,12zm-28 -28c7,0 12,-5 12,-12 0,-7 -5,-12 -12,-12 -7,0 -12,5 -12,12 0,7 5,12 12,12zm0 56c7,0 12,-5 12,-12 0,-7 -5,-12 -12,-12 -7,0 -12,5 -12,12 0,7 5,12 12,12zm-240 -48c4,0 8,-4 8,-8l0 -16c0,-4 -4,-8 -8,-8 -4,0 -8,4 -8,8l0 16c0,4 4,8 8,8zm0 16c-4,0 -8,4 -8,8l0 16c0,4 4,8 8,8 4,0 8,-4 8,-8l0 -16c0,-4 -4,-8 -8,-8zm32 -16l-16 0c-4,0 -8,4 -8,8 0,4 4,8 8,8l16 0c4,0 8,-4 8,-8 0,-4 -4,-8 -8,-8zm-48 0l-16 0c-4,0 -8,4 -8,8 0,4 4,8 8,8l16 0c4,0 8,-4 8,-8 0,-4 -4,-8 -8,-8zm208 8c0,-40 -32,-72 -72,-72 -40,0 -72,32 -72,72 0,40 32,72 72,72 40,0 72,-32 72,-72zm-72 56c-31,0 -56,-25 -56,-56 0,-31 25,-56 56,-56 31,0 56,25 56,56 0,31 -25,56 -56,56zm204 3c-1,-2 -3,-3 -6,-3l-6 0c-4,0 -8,-4 -8,-8l0 -96c0,-4 4,-8 8,-8l6 0c3,0 5,-1 6,-3 2,-2 2,-5 2,-7 -14,-44 -41,-81 -78,-108 -37,-27 -81,-42 -128,-42 -47,0 -91,15 -128,42 -37,27 -64,64 -78,108 0,2 0,5 2,7 1,2 3,3 6,3l6 0c4,0 8,4 8,8l0 96c0,4 -4,8 -8,8l-6 0c-3,0 -5,1 -6,3 -2,2 -2,5 -2,7 22,66 74,118 140,140 2,0 5,0 7,-2 2,-1 3,-3 3,-6l0 -6c0,-4 4,-8 8,-8l96 0c4,0 8,4 8,8l0 6c0,3 1,5 3,6 2,1 3,2 5,2 1,0 2,0 2,0 66,-22 118,-74 140,-140 0,-2 0,-5 -2,-7zm-252 109l0 -80c0,-22 -18,-40 -40,-40l-80 0 0 -96 90 0c3,0 5,-1 7,-3 16,-23 43,-37 71,-37 28,0 55,14 71,37 2,2 4,3 7,3l90 0 0 96 -80 0c-22,0 -40,18 -40,40l0 80 -96 0z"/>
 </g>
</svg>
