<?xml version="1.0" encoding="UTF-8"?>
<!DOCTYPE svg PUBLIC "-//W3C//DTD SVG 1.1//EN" "http://www.w3.org/Graphics/SVG/1.1/DTD/svg11.dtd">
<!-- Creator: CorelDRAW X7 -->
<svg xmlns="http://www.w3.org/2000/svg" xml:space="preserve" width="565px" height="512px" version="1.1" style="shape-rendering:geometricPrecision; text-rendering:geometricPrecision; image-rendering:optimizeQuality; fill-rule:evenodd; clip-rule:evenodd"
viewBox="0 0 565 512"
 xmlns:xlink="http://www.w3.org/1999/xlink">
 <defs>
  <style type="text/css">
   <![CDATA[
    .fil0 {fill:black}
   ]]>
  </style>
 </defs>
 <g id="Layer_x0020_1">
  <metadata id="CorelCorpID_0Corel-Layer"/>
  <path class="fil0" d="M372 256c0,18 -14,32 -32,32 -18,0 -33,-14 -33,-32 0,-18 15,-32 33,-32 18,0 32,14 32,32zm-20 -72l17 -74c0,0 -28,-9 -46,0l12 74 17 0zm47 72c0,33 -27,59 -59,59 -33,0 -59,-26 -59,-59 0,-33 26,-59 59,-59 32,0 59,26 59,59zm-14 0c0,-25 -20,-45 -45,-45 -25,0 -45,20 -45,45 0,25 20,45 45,45 25,0 45,-20 45,-45zm180 -256l0 512 -565 0 0 -512 565 0zm-448 24l-87 0 0 464 87 0 0 -464zm421 232c0,-110 -89,-199 -198,-199 -110,0 -199,89 -199,199 0,110 89,199 199,199 109,0 198,-89 198,-199zm-19 0c0,99 -81,179 -179,179 -99,0 -179,-80 -179,-179 0,-99 80,-179 179,-179 98,0 179,80 179,179zm-20 0c0,-88 -71,-160 -159,-160 -88,0 -160,72 -160,160 0,88 72,160 160,160 88,0 159,-72 159,-160zm-439 -187c0,1 0,4 0,7 0,4 0,8 0,9 0,4 1,7 3,9 2,2 6,3 10,3 3,0 7,-1 9,-3 2,-1 3,-4 3,-8l-8 0c-1,0 -2,0 -2,-1 -1,0 -1,-1 -1,-2l0 -10c0,-1 0,-2 1,-2 0,-1 1,-1 2,-1l24 0c1,0 1,0 2,1 0,0 1,1 1,2l0 13c0,5 -2,10 -4,14 -3,4 -7,7 -11,10 -5,2 -10,3 -16,3 -7,0 -12,-1 -17,-4 -4,-2 -8,-5 -10,-9 -3,-4 -4,-9 -4,-14 -1,-3 -1,-6 -1,-8 0,-2 0,-6 1,-10 0,-5 1,-9 4,-14 2,-4 6,-7 10,-9 5,-3 10,-4 17,-4 6,0 11,1 15,3 5,3 9,5 11,9 3,3 4,6 4,9 0,1 0,1 0,2 -1,0 -1,1 -2,1l-13 0c-1,0 -2,-1 -2,-1 -1,-1 -1,-1 -2,-2 -1,-2 -3,-3 -4,-4 -2,-1 -4,-1 -7,-1 -8,0 -12,4 -13,12zm47 157c0,0 0,1 0,1 0,1 0,1 0,2 -1,0 -1,0 -2,0l-13 0c-1,0 -2,0 -2,0 -1,-1 -1,-1 -1,-2l-3 -8 -27 0 -3 8c0,1 0,1 -1,2 0,0 -1,0 -3,0l-12 0c-1,0 -1,0 -2,0 0,-1 0,-1 0,-2 0,0 0,-1 0,-1l22 -63c0,-1 1,-2 1,-3 1,0 2,-1 3,-1l17 0c1,0 2,1 2,1 1,1 2,2 2,3l22 63zm-26 -23l-9 -24 -8 24 17 0zm-25 108l0 33c0,1 0,1 -1,2 0,0 -1,1 -2,1l-13 0c0,0 -1,-1 -2,-1 0,-1 0,-1 0,-2l0 -65c0,0 0,-1 0,-2 1,0 2,0 2,0l12 0c2,0 3,1 4,2l16 28 17 -28c1,-1 2,-2 4,-2l12 0c0,0 1,0 2,0 0,1 0,2 0,2l0 65c0,1 0,1 0,2 -1,0 -2,1 -2,1l-13 0c-1,0 -2,-1 -2,-1 -1,-1 -1,-1 -1,-2l0 -33 -10 16c0,1 -1,2 -1,2 -1,1 -1,1 -2,1l-7 0c-1,0 -1,0 -2,-1 0,0 -1,-1 -1,-2l-10 -16zm10 126l28 0c1,0 2,0 2,-1 1,-1 1,-1 1,-2l0 -10c0,-1 0,-2 -1,-2 0,-1 -1,-1 -2,-1l-28 0 0 -11 31 0c0,0 1,0 2,-1 0,0 0,-1 0,-2l0 -10c0,-1 0,-2 0,-2 -1,-1 -2,-1 -2,-1l-47 0c-1,0 -1,0 -2,1 0,0 -1,1 -1,2l0 64c0,1 1,2 1,2 1,1 1,1 2,1l47 0c1,0 2,0 2,-1 1,0 1,-1 1,-2l0 -10c0,-1 0,-2 -1,-2 0,-1 -1,-1 -2,-1l-31 0 0 -11z"/>
 </g>
</svg>
