<?xml version="1.0" encoding="UTF-8"?>
<!DOCTYPE svg PUBLIC "-//W3C//DTD SVG 1.1//EN" "http://www.w3.org/Graphics/SVG/1.1/DTD/svg11.dtd">
<!-- Creator: CorelDRAW X7 -->
<svg xmlns="http://www.w3.org/2000/svg" xml:space="preserve" width="854px" height="512px" version="1.1" style="shape-rendering:geometricPrecision; text-rendering:geometricPrecision; image-rendering:optimizeQuality; fill-rule:evenodd; clip-rule:evenodd"
viewBox="0 0 854 512"
 xmlns:xlink="http://www.w3.org/1999/xlink">
 <defs>
  <style type="text/css">
   <![CDATA[
    .fil0 {fill:black}
   ]]>
  </style>
 </defs>
 <g id="Layer_x0020_1">
  <metadata id="CorelCorpID_0Corel-Layer"/>
  <path class="fil0" d="M358 511c3,-6 7,-12 8,-19 -58,1 -117,0 -177,0 -35,0 -27,-22 -27,-61 0,-30 0,-60 0,-91 0,-16 -3,-75 4,-84 7,-12 19,-10 35,-10l448 0c44,0 43,2 43,47l0 134c0,38 8,65 -25,65 -59,0 -119,0 -179,0l8 20c65,-1 128,0 194,0 18,-1 22,-11 22,-28 0,-34 2,-237 -1,-245 -6,-14 -21,-12 -38,-12l-492 0c-49,0 -39,1 -39,110l0 147c0,17 4,27 22,28 33,0 66,0 98,0 32,0 64,1 96,-1z"/>
  <path class="fil0" d="M363 208l129 -1c0,-16 -8,-102 -9,-125 -2,-21 -3,-42 -5,-63 -1,-11 -4,-17 -15,-18 -9,-1 -25,0 -35,0 -21,0 -49,-8 -52,15l-9 126c-1,18 -5,50 -4,66z"/>
  <path class="fil0" d="M782 301c-17,7 -13,19 -13,39 0,12 -3,69 2,77 3,6 9,10 17,10 9,1 48,1 54,-1 15,-5 12,-24 12,-40 0,-18 0,-36 0,-53 0,-18 0,-33 -19,-34 -10,0 -47,-1 -53,2z"/>
  <path class="fil0" d="M14 300c-16,5 -14,22 -14,39 0,18 0,36 0,53 0,18 -1,34 18,35 7,1 49,1 54,-1 15,-4 14,-22 14,-39 0,-18 0,-35 0,-53 0,-8 1,-18 -3,-24 -3,-5 -8,-10 -16,-11 -6,0 -49,0 -53,1z"/>
  <path class="fil0" d="M730 504c26,-7 68,-40 74,-61 -58,1 -51,-28 -51,-76 0,-15 -2,-49 3,-62 3,-6 9,-14 15,-17 11,-6 14,-3 26,-5 -3,-2 -4,-5 -6,-8 -13,-15 -40,-33 -61,-40 1,39 4,242 0,269z"/>
  <path class="fil0" d="M57 283c8,1 32,-1 41,22 5,13 3,45 3,61 0,48 6,79 -51,77 3,9 24,32 31,37 11,8 26,19 44,24 -4,-19 -2,-108 -2,-134 0,-45 -2,-91 1,-135 -21,7 -48,25 -61,40 -2,3 -3,6 -6,8z"/>
  <path class="fil0" d="M356 30l1 -20c-112,23 -192,120 -224,198 8,-4 18,-7 28,-9 36,-68 103,-143 195,-169z"/>
  <path class="fil0" d="M500 30l-1 -20c112,23 192,120 224,198 -8,-4 -18,-7 -29,-10 -35,-68 -102,-142 -194,-168z"/>
  <path class="fil0" d="M373 472c5,-7 5,-16 19,-30 23,-24 61,-20 81,13 3,6 5,12 9,17 27,1 50,0 77,0 27,0 54,0 81,0 37,0 32,-10 32,-48 0,-27 0,-54 0,-81 0,-91 9,-77 -83,-77l-323 0c-16,0 -66,-3 -76,4 -9,7 -8,18 -8,32l0 121c0,57 -10,49 112,49 27,0 52,1 79,0zm83 -156l29 0 22 76 22 -76 28 0 -36 108 -28 0 -37 -108zm109 108l0 -108 34 0c9,0 16,1 21,2 5,1 9,3 12,6 5,3 8,7 10,13 3,5 4,11 4,16 0,6 -1,11 -3,15 -2,5 -5,9 -9,13 -2,1 -5,3 -7,4 -2,1 -5,2 -8,2l29 37 -31 0 -26 -35 0 35 -26 0zm26 -54l10 0c6,0 10,-1 14,-4 3,-3 4,-6 4,-11 0,-5 -1,-9 -5,-11 -2,-2 -3,-2 -5,-3 -2,0 -4,-1 -8,-1l-10 0 0 30zm-266 -51c-7,2 -50,48 -57,54 -9,9 -18,18 -27,27 -3,4 -11,10 -12,16 0,8 7,14 16,12 4,-1 67,-66 83,-81 22,-21 5,-30 -3,-28zm-68 -16c-6,2 -39,36 -46,44 -3,3 -6,5 -9,9 -6,11 4,22 15,17l54 -53c6,-9 -4,-21 -14,-17z"/>
 </g>
</svg>
