<?xml version="1.0" encoding="UTF-8"?>
<!DOCTYPE svg PUBLIC "-//W3C//DTD SVG 1.1//EN" "http://www.w3.org/Graphics/SVG/1.1/DTD/svg11.dtd">
<!-- Creator: CorelDRAW X7 -->
<svg xmlns="http://www.w3.org/2000/svg" xml:space="preserve" width="512px" height="512px" version="1.1" style="shape-rendering:geometricPrecision; text-rendering:geometricPrecision; image-rendering:optimizeQuality; fill-rule:evenodd; clip-rule:evenodd"
viewBox="0 0 512 512"
 xmlns:xlink="http://www.w3.org/1999/xlink">
 <defs>
  <style type="text/css">
   <![CDATA[
    .fil0 {fill:black}
   ]]>
  </style>
 </defs>
 <g id="Layer_x0020_1">
  <metadata id="CorelCorpID_0Corel-Layer"/>
  <path class="fil0" d="M12 334l11 -4c2,7 5,13 7,19l-11 4c3,8 6,15 10,23l11 -7c3,6 6,12 10,17l-11 7c5,7 9,13 15,20l9 -8c4,5 8,10 13,15l-10 8c6,6 12,12 18,18l8 -10c5,5 10,9 15,13l-8 9c7,6 13,10 21,15l6 -11c5,4 11,7 17,10l-7 11c8,4 15,7 23,10l4 -11c6,2 13,5 19,7l-4 11c8,3 16,5 24,7l2 -12c6,1 13,2 19,3l-2 12c8,1 17,2 25,2l0 -12c3,0 7,0 10,0 3,0 7,0 10,0l0 12c8,0 17,-1 25,-2l-2 -12c6,-1 13,-2 19,-3l2 12c8,-2 16,-4 24,-7l-4 -11c6,-2 13,-5 19,-7l4 11c8,-3 15,-6 23,-10l-7 -11c6,-3 12,-6 17,-10l6 11c8,-5 14,-9 21,-15l-8 -9c5,-4 10,-8 15,-12l8 9c6,-6 12,-12 18,-18l-10 -8c5,-5 9,-10 13,-15l9 8c6,-7 10,-13 15,-20l-11 -7c4,-5 7,-11 10,-17l11 7c4,-8 7,-15 10,-23l-11 -4c2,-6 5,-12 7,-19l11 4c3,-8 5,-16 6,-24l-11 -2c1,-6 2,-13 3,-19l12 2c1,-8 2,-17 2,-25l-12 0c0,-3 0,-7 0,-10 0,-3 0,-6 0,-10l12 0c0,-8 -1,-17 -2,-25l-12 2c-1,-6 -2,-13 -4,-19l12 -2c-1,-8 -4,-16 -6,-24l-11 4c-2,-6 -5,-13 -7,-19l11 -4c-3,-8 -6,-15 -10,-22l-11 6c-3,-6 -6,-12 -10,-17l11 -6c-5,-8 -9,-14 -15,-21l-9 8c-4,-5 -8,-10 -13,-15l10 -8c-6,-6 -12,-12 -18,-18l-8 10c-5,-5 -10,-9 -15,-13l8 -9c-7,-6 -13,-10 -21,-15l-6 11c-5,-4 -11,-7 -17,-10l7 -11c-8,-3 -15,-7 -23,-10l-4 11c-6,-2 -13,-4 -19,-7l4 -11c-8,-2 -16,-5 -24,-6l-2 12c-6,-2 -13,-3 -19,-4l2 -12c-8,-1 -17,-2 -25,-2l0 12c-3,0 -7,0 -10,0 -3,0 -7,0 -10,0l0 -12c-8,0 -17,1 -25,2l2 12c-6,1 -13,2 -19,4l-2 -12c-8,1 -16,4 -24,6l4 11c-7,3 -13,5 -19,7l-4 -11c-8,3 -15,7 -23,10l7 11c-6,3 -12,6 -17,10l-7 -11c-7,5 -13,10 -20,15l8 9c-5,4 -10,8 -15,13l-8 -10c-6,6 -12,12 -18,18l10 8c-5,5 -9,10 -13,15l-9 -8c-6,7 -10,13 -15,21l11 6c-4,5 -7,11 -10,17l-11 -6c-4,7 -7,14 -10,22l11 4c-2,6 -5,13 -7,19l-11 -4c-3,8 -5,16 -6,24l11 2c-1,6 -2,13 -3,19l-12 -2c-1,8 -2,17 -2,25l12 0c0,3 0,7 0,10 0,3 0,7 0,10l-12 0c0,8 1,17 2,25l12 -2c1,6 2,13 3,19l-11 2c1,8 3,16 6,24zm244 -293c113,0 215,102 215,215 0,113 -102,215 -215,215 -113,0 -215,-102 -215,-215 0,-113 102,-215 215,-215z"/>
  <path class="fil0" d="M256 413c86,0 157,-71 157,-157 0,-86 -71,-157 -157,-157 -86,0 -157,71 -157,157 0,86 71,157 157,157zm0 -255c54,0 98,44 98,98 0,54 -44,98 -98,98 -54,0 -98,-44 -98,-98 0,-54 44,-98 98,-98z"/>
  <path class="fil0" d="M321 256l13 0c0,-43 -35,-78 -78,-78l0 13c36,0 65,29 65,65z"/>
 </g>
</svg>
