<?xml version="1.0" encoding="UTF-8"?>
<!DOCTYPE svg PUBLIC "-//W3C//DTD SVG 1.1//EN" "http://www.w3.org/Graphics/SVG/1.1/DTD/svg11.dtd">
<!-- Creator: CorelDRAW X7 -->
<svg xmlns="http://www.w3.org/2000/svg" xml:space="preserve" width="367px" height="512px" version="1.1" style="shape-rendering:geometricPrecision; text-rendering:geometricPrecision; image-rendering:optimizeQuality; fill-rule:evenodd; clip-rule:evenodd"
viewBox="0 0 367 512"
 xmlns:xlink="http://www.w3.org/1999/xlink">
 <defs>
  <style type="text/css">
   <![CDATA[
    .fil0 {fill:black}
   ]]>
  </style>
 </defs>
 <g id="Layer_x0020_1">
  <metadata id="CorelCorpID_0Corel-Layer"/>
  <path class="fil0" d="M367 0l-367 0 0 151 54 0 0 301 57 0 18 60 110 0 18 -60 56 0 0 -301 54 0 0 -151zm-209 160l-20 117 37 0 -30 101 103 -137 -56 0 56 -81 -90 0zm-47 252l145 0 0 18 -145 0 0 -18zm114 82l-83 0 -12 -42 108 0 -13 42zm97 -389l0 -60 -277 0 0 60 277 0z"/>
 </g>
</svg>
