<?xml version="1.0" encoding="UTF-8"?>
<!DOCTYPE svg PUBLIC "-//W3C//DTD SVG 1.1//EN" "http://www.w3.org/Graphics/SVG/1.1/DTD/svg11.dtd">
<!-- Creator: CorelDRAW X7 -->
<svg xmlns="http://www.w3.org/2000/svg" xml:space="preserve" width="508px" height="512px" version="1.1" style="shape-rendering:geometricPrecision; text-rendering:geometricPrecision; image-rendering:optimizeQuality; fill-rule:evenodd; clip-rule:evenodd"
viewBox="0 0 508 512"
 xmlns:xlink="http://www.w3.org/1999/xlink">
 <defs>
  <style type="text/css">
   <![CDATA[
    .fil0 {fill:black}
   ]]>
  </style>
 </defs>
 <g id="Layer_x0020_1">
  <metadata id="CorelCorpID_0Corel-Layer"/>
  <path class="fil0" d="M63 469c-11,0 -21,10 -21,22 0,11 10,21 21,21 12,0 22,-10 22,-21 0,-12 -10,-22 -22,-22zm423 0c-11,0 -21,10 -21,22 0,11 10,21 21,21 12,0 22,-10 22,-21 0,-12 -10,-22 -22,-22zm-212 0c-11,0 -21,10 -21,22 0,11 10,21 21,21 12,0 22,-10 22,-21 0,-12 -10,-22 -22,-22zm-151 -317c1,-4 0,-7 -3,-10l-6 -8 78 -59 168 0c8,0 14,-7 14,-15l0 -46c0,-8 -6,-14 -14,-14l-172 0c-8,0 -14,6 -14,14l0 39 -77 59 -5 -7c-5,-6 -14,-7 -20,-2l-67 51c-3,3 -4,6 -5,10 0,0 0,1 0,1l0 1c0,3 1,6 3,8l28 37c3,3 7,5 12,5 3,0 6,-1 8,-3l67 -52c3,-2 5,-5 5,-9zm204 24l-105 0 -164 273c16,2 29,11 38,23l35 -59 121 0 0 41c7,-3 14,-5 22,-5 8,0 16,2 23,5l0 -41 120 0 36 60c8,-13 22,-22 38,-23l-164 -274zm-75 192l-94 0 94 -155 0 155zm45 0l0 -155 93 155 -93 0zm74 -242l0 -14c0,-6 -5,-10 -11,-10l-172 0c-6,0 -10,4 -10,10l0 14c0,13 10,23 22,23l148 0c13,0 23,-10 23,-23z"/>
 </g>
</svg>
