<?xml version="1.0" encoding="UTF-8"?>
<!DOCTYPE svg PUBLIC "-//W3C//DTD SVG 1.1//EN" "http://www.w3.org/Graphics/SVG/1.1/DTD/svg11.dtd">
<!-- Creator: CorelDRAW X7 -->
<svg xmlns="http://www.w3.org/2000/svg" xml:space="preserve" width="755px" height="512px" version="1.1" style="shape-rendering:geometricPrecision; text-rendering:geometricPrecision; image-rendering:optimizeQuality; fill-rule:evenodd; clip-rule:evenodd"
viewBox="0 0 755 512"
 xmlns:xlink="http://www.w3.org/1999/xlink">
 <defs>
  <style type="text/css">
   <![CDATA[
    .fil0 {fill:black}
   ]]>
  </style>
 </defs>
 <g id="Layer_x0020_1">
  <metadata id="CorelCorpID_0Corel-Layer"/>
  <path class="fil0" d="M467 377l114 0c0,-20 0,-43 0,-63 -1,-19 0,-42 0,-63l-114 0 0 126zm-165 -239c65,0 118,53 118,118 0,66 -53,119 -118,119 -65,0 -118,-53 -118,-119 0,-65 53,-118 118,-118zm-190 -58c-22,0 -49,-3 -68,5 -16,6 -30,19 -37,34 -9,20 -7,41 -7,65l0 144c0,25 -2,43 7,64 7,15 20,29 37,35 21,8 44,3 67,5 2,2 3,6 5,8 4,8 8,13 15,18 11,9 24,16 42,17 35,1 71,0 106,0l11 14c7,7 16,15 24,19 11,5 18,4 31,4 10,0 23,-1 33,-1 14,0 49,4 62,-3 10,-4 17,-12 24,-19 3,-3 10,-10 12,-14 17,0 35,0 52,0 18,0 36,1 53,0 16,0 29,-6 39,-13 9,-7 19,-18 23,-30 35,0 64,5 90,-18l8 -10c17,-24 14,-45 14,-76l0 -144c0,-22 3,-47 -7,-65 -23,-45 -60,-40 -105,-39 -8,-24 -35,-43 -62,-44 -34,-1 -71,0 -105,0 -4,-7 -25,-25 -31,-30 -7,-4 -12,-6 -22,-6l-91 0c-14,0 -21,4 -31,13l-22 23c-2,1 -84,0 -90,0 -20,0 -36,1 -50,11 -7,5 -10,7 -16,14 -5,5 -8,11 -11,19zm311 405c-6,-3 -11,-2 -18,-2l-106 0 9 9c3,2 11,1 16,1l70 0c6,0 12,0 18,0 7,0 12,1 11,-8zm172 -68l-435 0c1,3 4,5 7,6 7,4 30,3 40,3l368 0c9,0 17,-3 20,-9zm-435 -323l435 0c-4,-6 -11,-8 -20,-8l-395 0c-6,0 -17,1 -20,8zm139 -65c32,0 64,-1 95,0 6,0 11,0 16,0 7,0 10,1 13,-4 0,-6 -3,-6 -8,-6l-105 0c-3,0 -10,8 -11,10zm-193 363c1,-7 0,-225 0,-238 0,-9 1,-26 0,-35 -9,0 -20,0 -29,0 -12,0 -17,0 -25,6 -5,4 -10,10 -12,19 -2,12 3,15 8,22 11,18 -17,27 -6,46 4,6 10,11 7,23 -2,8 -9,9 -9,21 0,11 7,12 9,20 6,20 -20,24 -4,46 15,22 -8,25 -5,45 2,9 7,16 12,19 8,6 13,6 24,6 10,0 21,1 30,0zm543 0c10,0 20,0 30,0 11,0 17,0 25,-6 4,-3 9,-9 11,-18 2,-12 -3,-16 -7,-23 -5,-8 -2,-16 2,-22 5,-7 8,-15 3,-24 -3,-5 -10,-10 -7,-22 2,-9 9,-9 9,-21 0,-14 -15,-19 -8,-34 1,-4 4,-6 6,-9 11,-19 -16,-28 -5,-46 4,-8 9,-10 7,-22 -1,-9 -6,-16 -11,-19 -8,-6 -13,-7 -25,-7 -10,0 -20,0 -30,0l0 273zm-493 15l443 0c1,-25 0,-51 0,-76l0 -188c0,-13 1,-27 0,-39l-443 0 0 303zm84 -29c4,4 19,8 25,10 16,5 41,6 59,3 91,-15 142,-115 97,-200 -3,-6 -9,-15 -14,-20 -2,-3 -4,-6 -7,-9 -3,-3 -5,-6 -9,-8 -6,-5 -11,-10 -19,-14 -24,-15 -49,-22 -79,-20 -27,2 -59,13 -78,30 -17,14 -30,30 -39,51 -15,35 -17,76 0,110 5,10 8,17 14,26 9,12 18,20 29,29 4,2 17,12 21,12zm95 -175c2,1 3,2 5,3 2,-1 3,-2 4,-4 5,-6 16,-20 21,-27 1,-1 3,-3 4,-4 3,2 6,5 9,8 -1,1 -3,3 -4,4l-28 28c1,3 2,3 4,5 3,-1 25,-20 36,-28 3,3 5,6 7,9 -11,8 -34,23 -38,25l3 6c6,-1 30,-15 42,-20 1,4 3,8 4,12l-43 15c-1,2 1,4 2,7l45 -10c1,3 2,8 2,12l-46 5 0 7 47 0 0 0c0,4 -1,8 -1,12l-46 -5 -1 7 45 11c-1,4 -2,8 -3,11l-45 -15 -2 6c2,2 30,16 42,21 -2,4 -4,7 -6,11 -1,-1 -3,-2 -5,-3l-34 -22c-2,2 -3,3 -4,6 2,2 5,4 7,6l28 23c-3,3 -5,6 -8,9 0,0 0,-1 0,-1 -1,-1 -1,-1 -2,-2l-10 -9c-1,-1 -1,-2 -2,-3l-5 -4c-4,-4 -10,-12 -14,-14 -1,2 -3,4 -4,5l28 36c-3,2 -6,5 -10,7l-10 -16c-3,-4 -12,-19 -14,-23 -3,1 -4,2 -6,3 0,5 14,29 19,42 -3,1 -7,3 -11,4l-15 -43c-4,1 -5,1 -7,3l9 44c-3,0 -7,1 -11,1l-3 -32c-1,-3 -1,-11 -3,-13 -1,1 -1,1 -2,5l-4 18c-1,6 0,15 0,23 -4,0 -8,0 -12,-1l5 -45 -7 -1 -10 44c-4,-1 -8,-2 -12,-3 5,-14 14,-37 15,-43l-7 -2c-1,3 -4,8 -5,11l-14 29c-4,-2 -7,-4 -11,-6 8,-12 22,-33 24,-39 -2,0 -3,-2 -5,-3 -5,4 -19,24 -28,35 -3,-3 -6,-5 -9,-8l22 -22c3,-4 6,-6 9,-10 -2,-2 -2,-2 -4,-5 -2,1 -6,4 -8,6l-18 14c-3,3 -6,5 -9,8 -3,-4 -5,-7 -7,-10 1,-1 2,-2 3,-2l23 -15c4,-2 9,-5 11,-8 -2,-2 -2,-2 -3,-5l-24 11c-4,3 -8,4 -12,6 -2,1 -3,2 -4,2 -2,-3 -3,-7 -5,-11l42 -15 -2 -6c-7,0 -30,7 -43,10 -1,-4 -2,-8 -2,-13l44 -4 0 -8 -45 0 0 0c0,-4 0,-7 1,-11l44 4 1 -7 -43 -9c1,-4 2,-8 3,-12 13,4 37,14 42,14l3 -6 -37 -18c-1,0 -2,-1 -3,-1 1,-4 3,-7 5,-11l38 24c2,-4 3,-3 4,-7 -2,-1 -26,-20 -30,-23 -1,-1 -2,-1 -3,-2 -1,-1 -1,-1 -2,-2 3,-3 6,-6 8,-9 10,9 28,29 32,31 2,-1 4,-3 5,-4l-10 -13c-6,-7 -12,-14 -18,-22 3,-3 7,-5 10,-7 6,8 15,24 17,26 1,2 6,10 7,11l6 -3 -19 -40c3,-2 7,-4 11,-5l15 42 7 -1 -11 -44c4,-1 8,-2 12,-3l6 45 6 0c1,-15 1,-30 1,-45 0,0 1,-1 1,-1 4,0 7,1 11,1 -1,14 -6,40 -5,45l7 1 10 -44c4,1 8,2 11,3l-14 43 7 3 19 -41c4,1 7,3 11,6l-24 39zm6 49c-2,1 -2,1 -2,4 -1,5 0,9 -4,16 -6,13 -17,21 -31,22 -5,0 -8,0 -8,5 0,5 4,5 8,5 45,-3 53,-61 37,-52zm-87 8c2,1 7,2 9,-1 1,-4 -1,-15 11,-29 14,-17 38,-7 31,-19 -3,-6 -35,-2 -48,26 -3,7 -5,15 -3,23zm213 -53c18,1 38,0 57,0 19,0 40,-1 57,0l0 -72 -114 0 0 72zm89 -10c7,0 10,1 13,-2 3,-3 2,-6 2,-12 -2,0 -14,13 -15,14zm-25 0l11 0 25 -26c2,-1 4,-1 4,-4 0,-2 0,-7 0,-9 -3,1 -25,23 -30,29 -2,2 -9,8 -10,10zm-54 -35c2,-1 3,-2 5,-4 3,-3 11,-9 12,-13 -2,0 -7,0 -9,0 -2,0 -3,2 -5,3 -5,4 -3,6 -3,14zm0 14l0 11c1,-1 0,0 1,-1l38 -37c2,-2 2,-2 3,-4 -13,0 -10,-1 -24,13 -3,3 -6,6 -9,9 -3,3 -6,7 -9,9zm30 21c13,0 9,2 19,-9 6,-5 41,-40 42,-43 -11,0 -10,-1 -19,9 -5,5 -10,9 -14,14 -4,4 -27,27 -28,29zm-25 0l11 0c6,-7 49,-48 51,-52 -7,0 -10,-1 -13,2 -2,2 -5,5 -7,7 -5,5 -9,9 -14,14 -5,5 -9,10 -14,15 -4,3 -12,11 -14,14z"/>
 </g>
</svg>
