<?xml version="1.0" encoding="UTF-8"?>
<!DOCTYPE svg PUBLIC "-//W3C//DTD SVG 1.1//EN" "http://www.w3.org/Graphics/SVG/1.1/DTD/svg11.dtd">
<!-- Creator: CorelDRAW X7 -->
<svg xmlns="http://www.w3.org/2000/svg" xml:space="preserve" width="508px" height="512px" version="1.1" style="shape-rendering:geometricPrecision; text-rendering:geometricPrecision; image-rendering:optimizeQuality; fill-rule:evenodd; clip-rule:evenodd"
viewBox="0 0 508 512"
 xmlns:xlink="http://www.w3.org/1999/xlink">
 <defs>
  <style type="text/css">
   <![CDATA[
    .fil0 {fill:black}
   ]]>
  </style>
 </defs>
 <g id="Layer_x0020_1">
  <metadata id="CorelCorpID_0Corel-Layer"/>
  <path class="fil0" d="M507 462c0,-2 -2,-4 -4,-5l-246 -143c-2,-2 -4,-2 -6,-1 -2,0 -4,1 -5,3l-92 -53c6,-5 10,-13 10,-21l0 -3 20 0c4,0 8,-4 8,-8l0 -24 51 0c16,0 29,-13 29,-29l0 -114c0,-15 -13,-28 -29,-28l-78 0 0 -7c0,-16 -13,-29 -29,-29 -16,0 -30,13 -30,29l0 7 -77 0c-16,0 -29,13 -29,28l0 114c0,16 13,29 29,29l51 0 0 24c0,4 4,8 8,8l20 0 0 3c0,30 24,9 6,41 -2,2 -2,4 -1,7 0,2 2,4 4,5l106 61c-2,4 -1,9 3,11l246 144c1,1 3,1 4,1 3,0 6,-1 7,-4l23 -40c2,-2 2,-4 1,-6zm-384 -433c0,-7 6,-12 13,-12 7,0 13,5 13,12l0 7 -26 0 0 -7zm-27 178l79 0 0 16 -79 0 0 -16zm51 32l0 3c0,6 -5,11 -11,11 -6,0 -12,-5 -12,-11l0 -3 23 0z"/>
 </g>
</svg>
