<?xml version="1.0" encoding="UTF-8"?>
<!DOCTYPE svg PUBLIC "-//W3C//DTD SVG 1.1//EN" "http://www.w3.org/Graphics/SVG/1.1/DTD/svg11.dtd">
<!-- Creator: CorelDRAW X7 -->
<svg xmlns="http://www.w3.org/2000/svg" xml:space="preserve" width="640px" height="512px" version="1.1" style="shape-rendering:geometricPrecision; text-rendering:geometricPrecision; image-rendering:optimizeQuality; fill-rule:evenodd; clip-rule:evenodd"
viewBox="0 0 640 512"
 xmlns:xlink="http://www.w3.org/1999/xlink">
 <defs>
  <style type="text/css">
   <![CDATA[
    .fil0 {fill:black}
   ]]>
  </style>
 </defs>
 <g id="Layer_x0020_1">
  <metadata id="CorelCorpID_0Corel-Layer"/>
  <path class="fil0" d="M499 0l109 0c18,0 32,15 32,33l0 446c0,18 -14,33 -32,33l-109 0c-18,0 -32,-15 -32,-33l0 -446c0,-18 14,-33 32,-33zm89 229c14,0 30,12 26,26l-10 41 10 41c4,15 -12,27 -26,27l0 0 0 0c-15,0 -30,-12 -26,-27l10 -41 -10 -41c-4,-14 11,-26 26,-26l0 0 0 0zm0 -82c14,0 26,12 26,26 0,15 -12,27 -26,27 -15,0 -26,-12 -26,-27 0,-14 11,-26 26,-26zm-66 164c15,0 27,12 27,26 0,15 -12,27 -27,27 -14,0 -26,-12 -26,-27 0,-14 12,-26 26,-26zm0 -82c15,0 27,12 27,26 0,15 -12,27 -27,27 -14,0 -26,-12 -26,-27 0,-14 12,-26 26,-26zm0 -82c15,0 27,12 27,26 0,15 -12,27 -27,27 -14,0 -26,-12 -26,-27 0,-14 12,-26 26,-26z"/>
  <path class="fil0" d="M82 84l264 0c45,0 82,37 82,82l0 264c0,45 -37,82 -82,82l-264 0c-45,0 -82,-37 -82,-82l0 -264c0,-45 37,-82 82,-82zm110 94c0,1 0,2 -1,4 0,1 0,1 0,2 -1,1 -1,1 -1,2 -1,0 -1,0 -2,0l-25 0 0 84c0,0 -1,1 -1,1 0,1 -1,1 -2,1 -1,0 -2,1 -3,1 -1,0 -3,0 -5,0 -2,0 -4,0 -5,0 -1,0 -3,-1 -3,-1 -1,0 -2,0 -2,-1 0,0 -1,-1 -1,-1l0 -84 -26 0c0,0 -1,0 -1,0 0,-1 -1,-1 -1,-2 0,-1 0,-1 0,-2 -1,-2 -1,-3 -1,-4 0,-2 0,-3 1,-5 0,-1 0,-2 0,-2 0,-1 1,-1 1,-2 0,0 1,0 1,0l73 0c1,0 1,0 2,0 0,1 0,1 1,2 0,0 0,1 0,2 1,2 1,3 1,5zm78 91c0,1 0,2 -1,2 0,1 -1,1 -2,1 -1,1 -2,1 -4,1 -1,0 -4,0 -6,0 -2,0 -4,0 -6,0 -1,0 -3,0 -4,0 -1,0 -2,0 -2,-1 -1,0 -1,0 -2,0 0,-1 -1,-1 -1,-2 0,0 0,-1 -1,-1l-30 -92c-1,-2 -1,-4 -2,-5 0,-1 1,-2 1,-2 1,-1 2,-1 4,-1 1,-1 3,-1 6,-1 3,0 5,0 6,1 2,0 3,0 3,0 1,0 2,1 2,1 0,1 0,2 1,2l25 80 0 0 25 -79c0,-1 0,-2 1,-2 0,-1 0,-1 1,-2 1,0 2,0 4,0 1,-1 3,-1 5,-1 3,0 5,0 6,1 2,0 3,0 3,1 1,0 1,1 1,2 -1,2 -1,3 -2,5l-31 92zm-127 123c0,3 -1,7 -2,10 -1,3 -2,5 -4,8 -2,2 -4,4 -6,5 -3,2 -5,3 -8,5 -3,1 -7,1 -10,2 -3,0 -7,1 -11,1l-28 0c-2,0 -3,-1 -4,-2 -1,-1 -2,-3 -2,-5l0 -90c0,-3 1,-4 2,-5 1,-1 2,-2 4,-2l26 0c7,0 12,1 16,2 5,1 8,2 11,4 3,3 6,5 7,9 2,3 3,7 3,11 0,3 -1,5 -1,7 -1,3 -2,5 -3,6 -1,2 -3,4 -5,5 -1,2 -3,3 -6,4 3,0 6,1 8,2 3,2 5,4 7,6 2,2 3,4 4,7 1,3 2,6 2,10zm-27 -44c0,-2 -1,-4 -1,-6 -1,-1 -2,-3 -3,-4 -1,-1 -3,-2 -5,-2 -2,-1 -4,-1 -8,-1l-10 0 0 27 11 0c3,0 6,-1 8,-1 1,-1 3,-2 4,-3 1,-2 2,-3 3,-5 0,-1 1,-3 1,-5zm5 44c0,-2 0,-4 -1,-6 -1,-2 -2,-4 -4,-5 -1,-1 -3,-2 -6,-3 -2,-1 -5,-1 -9,-1l-12 0 0 30 15 0c3,0 5,-1 7,-1 2,-1 4,-2 5,-3 2,-1 3,-3 4,-5 1,-1 1,-3 1,-6zm147 -22c0,8 -1,16 -3,23 -2,6 -6,12 -10,17 -4,5 -9,8 -15,11 -7,2 -14,3 -22,3 -8,0 -15,-1 -21,-3 -6,-2 -11,-5 -15,-9 -4,-5 -7,-10 -9,-17 -2,-6 -3,-14 -3,-24 0,-8 1,-15 3,-22 2,-7 5,-13 10,-17 4,-5 9,-9 15,-11 6,-3 14,-4 22,-4 8,0 15,1 21,3 6,2 11,6 15,10 4,4 7,10 9,16 2,7 3,15 3,24zm-22 1c0,-6 -1,-11 -2,-15 0,-5 -2,-8 -4,-12 -2,-3 -5,-5 -8,-7 -4,-2 -8,-3 -13,-3 -5,0 -9,1 -13,3 -3,2 -6,5 -8,8 -2,3 -4,7 -5,12 -1,4 -1,9 -1,13 0,6 0,11 1,16 1,4 3,8 5,11 2,3 4,6 8,8 3,1 7,2 13,2 5,0 9,-1 12,-3 4,-2 7,-4 9,-8 2,-3 4,-7 4,-11 1,-5 2,-9 2,-14zm123 44c1,2 1,3 2,4 0,1 0,2 -1,3 -1,0 -2,1 -3,1 -2,0 -4,0 -7,0 -3,0 -5,0 -6,0 -2,0 -3,0 -4,-1 0,0 -1,0 -1,-1 -1,0 -1,0 -1,-1l-20 -38 -19 38c-1,1 -1,1 -1,1 -1,1 -1,1 -2,1 -1,1 -2,1 -4,1 -1,0 -3,0 -5,0 -3,0 -5,0 -7,0 -1,0 -2,-1 -3,-1 0,-1 -1,-2 0,-3 0,-1 1,-2 2,-4l25 -46 -24 -42c-1,-2 -1,-4 -2,-5 0,-1 0,-2 1,-2 0,-1 2,-1 3,-1 2,0 4,0 7,0 3,0 5,0 6,0 2,0 3,0 4,0 1,0 1,1 2,1 0,1 0,1 1,2l18 34 18 -34c0,-1 0,-1 1,-2 0,0 0,-1 1,-1 1,0 2,0 3,0 2,0 4,0 6,0 3,0 5,0 6,0 2,0 3,0 4,1 0,0 0,1 0,2 0,2 -1,3 -2,5l-23 42 25 46z"/>
 </g>
</svg>
