<?xml version="1.0" encoding="UTF-8"?>
<!DOCTYPE svg PUBLIC "-//W3C//DTD SVG 1.1//EN" "http://www.w3.org/Graphics/SVG/1.1/DTD/svg11.dtd">
<!-- Creator: CorelDRAW X7 -->
<svg xmlns="http://www.w3.org/2000/svg" xml:space="preserve" width="573px" height="512px" version="1.1" style="shape-rendering:geometricPrecision; text-rendering:geometricPrecision; image-rendering:optimizeQuality; fill-rule:evenodd; clip-rule:evenodd"
viewBox="0 0 573 512"
 xmlns:xlink="http://www.w3.org/1999/xlink">
 <defs>
  <style type="text/css">
   <![CDATA[
    .fil0 {fill:black}
   ]]>
  </style>
 </defs>
 <g id="Layer_x0020_1">
  <metadata id="CorelCorpID_0Corel-Layer"/>
  <path class="fil0" d="M35 35l0 -25c0,-4 1,-7 2,-10l-27 0c-6,0 -10,4 -10,10l0 492c0,6 4,10 10,10l27 0c-1,-3 -2,-6 -2,-10l0 -467z"/>
  <path class="fil0" d="M436 313c0,-21 -17,-38 -38,-39l0 78c21,0 38,-18 38,-39z"/>
  <path class="fil0" d="M573 313c0,-96 -78,-175 -175,-175l0 108c37,1 67,30 67,67 0,18 -8,35 -19,47l-65 0 0 -350c0,-6 -5,-10 -10,-10l-309 0c-5,0 -9,4 -9,10l0 492c0,6 4,10 9,10l132 0 0 0 80 0c0,0 0,0 0,0l55 0 0 0 126 0c21,0 41,-6 57,-18 16,-12 29,-30 34,-49 4,-14 4,-28 1,-40 16,-27 26,-58 26,-92zm-395 -15l5 1 6 0 4 -1 0 -42 -15 0 0 42zm-95 0c19,0 38,0 57,0 25,0 30,-2 30,-25 0,-24 -6,-26 -30,-26 -19,0 -38,0 -57,0l0 51zm14 -11c9,1 26,0 35,0 16,0 24,3 24,-14 0,-16 -8,-15 -22,-14 -11,0 -26,-1 -37,0l0 28zm209 -17c-26,-15 0,-15 -53,-14 -2,5 -16,28 -20,31l-20 -31 -16 0c3,7 10,17 15,24 14,22 25,28 41,2 4,-7 12,-17 15,-24l26 19c-1,1 0,0 -2,2l-36 31c6,-1 43,-23 46,-26 18,13 10,14 41,14 -7,-7 -20,-13 -28,-21l37 -30c2,-1 10,-8 11,-9 -15,6 -22,11 -28,15 -9,5 -19,12 -29,17zm28 166c-8,26 -32,44 -60,44l-37 0 17 -58 22 0 -12 40 16 0c14,0 27,-11 31,-26 4,-15 -3,-26 -17,-26l-37 0 5 -18 38 0c27,0 41,18 34,44zm181 0c-7,26 -32,44 -60,44l-37 0 17 -58 22 0 -11 40 16 0c13,0 26,-11 30,-26 5,-15 -2,-26 -17,-26l-53 0 -43 70 -23 0 -14 -88 24 0 8 65 36 -65 71 0c28,0 42,18 34,44z"/>
 </g>
</svg>
