<?xml version="1.0" encoding="UTF-8"?>
<!DOCTYPE svg PUBLIC "-//W3C//DTD SVG 1.1//EN" "http://www.w3.org/Graphics/SVG/1.1/DTD/svg11.dtd">
<!-- Creator: CorelDRAW X7 -->
<svg xmlns="http://www.w3.org/2000/svg" xml:space="preserve" width="467px" height="512px" version="1.1" style="shape-rendering:geometricPrecision; text-rendering:geometricPrecision; image-rendering:optimizeQuality; fill-rule:evenodd; clip-rule:evenodd"
viewBox="0 0 467 512"
 xmlns:xlink="http://www.w3.org/1999/xlink">
 <defs>
  <style type="text/css">
   <![CDATA[
    .fil0 {fill:black}
   ]]>
  </style>
 </defs>
 <g id="Layer_x0020_1">
  <metadata id="CorelCorpID_0Corel-Layer"/>
  <path class="fil0" d="M220 -31l-41 0 0 104c48,10 61,11 109,0 1,-20 3,-89 -1,-104l-38 0 0 39c0,8 -6,14 -14,14l0 0c-8,0 -15,-6 -15,-14l0 -39zm-41 470l-1 104 40 0 0 -45c0,-9 7,-16 17,-16l0 0c9,0 16,7 16,16l0 45 38 0 -1 -104c-50,-10 -59,-10 -109,0zm-16 -65l0 -236c-58,0 -49,31 -48,118 0,27 -1,56 1,82 1,29 18,36 47,36zm141 0c62,1 47,-37 48,-118 0,-86 13,-117 -48,-118l0 236zm-265 -348c-35,11 -57,53 -18,96 8,9 11,11 18,21 4,7 10,14 15,23 8,16 15,38 18,58 13,70 -13,123 -54,169 -12,13 -24,31 -15,58 5,17 22,33 40,37 57,12 55,-52 159,-70 44,-8 90,2 125,21 24,13 24,15 43,32 43,38 88,9 96,-24 12,-58 -51,-52 -71,-159 -13,-73 13,-122 54,-169 52,-60 -22,-129 -79,-78 -30,27 -54,44 -100,52 -147,26 -166,-88 -231,-67zm13 368c-54,13 -36,86 15,77 50,-9 34,-88 -15,-77zm-4 -352c-50,15 -29,89 22,75 44,-12 30,-91 -22,-75zm353 353c-53,11 -34,90 19,75 44,-12 31,-86 -19,-75zm-3 -353c-49,15 -29,89 21,75 50,-14 30,-90 -21,-75zm-262 82c-44,12 -37,53 -36,99 0,27 -4,112 2,132 11,42 55,35 99,35 154,0 170,18 165,-101 -1,-31 5,-110 0,-132 -11,-40 -56,-35 -100,-35 -28,0 -109,-3 -130,2zm43 250l110 0 -1 -236 -109 0 0 236zm47 -16l13 0 0 -204 -13 0 0 204zm-178 -299c-28,17 -7,53 20,42 30,-13 7,-59 -20,-42zm3 352c-30,11 -15,52 15,44 29,-8 14,-55 -15,-44zm350 0c-34,17 -8,57 19,42 23,-12 9,-56 -19,-42zm-3 -351c-6,3 -9,5 -11,11 -8,25 18,38 34,29 23,-13 9,-54 -23,-40z"/>
 </g>
</svg>
