<?xml version="1.0" encoding="UTF-8"?>
<!DOCTYPE svg PUBLIC "-//W3C//DTD SVG 1.1//EN" "http://www.w3.org/Graphics/SVG/1.1/DTD/svg11.dtd">
<!-- Creator: CorelDRAW X7 -->
<svg xmlns="http://www.w3.org/2000/svg" xml:space="preserve" width="240px" height="512px" version="1.1" style="shape-rendering:geometricPrecision; text-rendering:geometricPrecision; image-rendering:optimizeQuality; fill-rule:evenodd; clip-rule:evenodd"
viewBox="0 0 240 512"
 xmlns:xlink="http://www.w3.org/1999/xlink">
 <defs>
  <style type="text/css">
   <![CDATA[
    .fil0 {fill:black}
   ]]>
  </style>
 </defs>
 <g id="Layer_x0020_1">
  <metadata id="CorelCorpID_0Corel-Layer"/>
  <path class="fil0" d="M166 453l0 -11c0,-3 3,-5 5,-5l14 0c2,0 4,2 4,5l0 11c0,2 -2,5 -4,5l-14 0c-2,0 -5,-3 -5,-5zm-82 -61l16 -17c6,4 13,6 20,6 7,0 14,-2 19,-6l15 15 1 2c-9,8 -22,12 -35,12 -13,0 -24,-4 -34,-11 0,0 -1,-1 -2,-1zm-34 61l0 -11c0,-3 2,-5 5,-5l13 0c3,0 5,2 5,5l0 11c0,2 -2,5 -5,5l-13 0c-3,0 -5,-3 -5,-5zm21 -418l-38 47c-2,3 -7,2 -7,-2l0 -34c0,-10 8,-17 17,-17l25 0c3,0 5,4 3,6zm-8 186c10,0 18,9 18,19 0,10 -8,18 -18,18 -10,0 -18,-8 -18,-18 0,-10 8,-19 18,-19zm0 -85c-10,0 -18,-8 -18,-18 0,-10 8,-19 18,-19 10,0 18,9 18,19 0,10 -8,18 -18,18zm0 24c10,0 18,9 18,19 0,10 -8,18 -18,18 -10,0 -18,-8 -18,-18 0,-10 8,-19 18,-19zm57 61c10,0 18,9 18,19 0,10 -8,18 -18,18 -10,0 -19,-8 -19,-18 0,-10 9,-19 19,-19zm0 -61c10,0 18,9 18,19 0,10 -8,18 -18,18 -10,0 -19,-8 -19,-18 0,-10 9,-19 19,-19zm0 -24c-10,0 -19,-8 -19,-18 0,-10 9,-19 19,-19 10,0 18,9 18,19 0,10 -8,18 -18,18zm35 167l-16 16c-5,-4 -12,-6 -19,-6 -7,0 -14,2 -20,6l-14 -15 -2 -1c10,-8 22,-13 36,-13 12,0 24,4 33,11 1,1 2,1 2,2zm-28 42l-10 10c-5,5 -14,4 -18,-3 -1,-3 -2,-7 -1,-12 1,-7 7,-13 14,-14 5,-1 9,0 13,2 6,4 7,12 2,17zm50 -209c-11,0 -19,-8 -19,-18 0,-10 8,-19 19,-19 10,0 18,9 18,19 0,10 -8,18 -18,18zm0 61c-11,0 -19,-8 -19,-18 0,-10 8,-19 19,-19 10,0 18,9 18,19 0,10 -8,18 -18,18zm-19 43c0,-10 8,-19 19,-19 10,0 18,9 18,19 0,10 -8,18 -18,18 -11,0 -19,-8 -19,-18zm-83 143c-8,-10 -12,-22 -12,-36 0,-13 4,-26 12,-35l17 16c-4,5 -6,12 -6,19 0,7 2,14 6,20l-15 14 -2 2zm37 59l0 11c0,2 -2,5 -5,5l-13 0c-3,0 -5,-3 -5,-5l0 -11c0,-3 2,-5 5,-5l13 0c3,0 5,2 5,5zm39 0l0 11c0,2 -3,5 -5,5l-13 0c-3,0 -5,-3 -5,-5l0 -11c0,-3 2,-5 5,-5l13 0c2,0 5,2 5,5zm13 -59l-16 -16c4,-6 6,-13 6,-20 0,-7 -2,-14 -6,-19l16 -16c8,9 13,22 13,35 0,13 -4,24 -11,34 -1,0 -1,1 -2,2zm42 -383l-173 0c-18,0 -33,15 -33,33l0 415c0,35 29,64 64,64l112 0c35,0 64,-29 64,-64l0 -415c0,-18 -15,-33 -34,-33z"/>
 </g>
</svg>
