<?xml version="1.0" encoding="UTF-8"?>
<!DOCTYPE svg PUBLIC "-//W3C//DTD SVG 1.1//EN" "http://www.w3.org/Graphics/SVG/1.1/DTD/svg11.dtd">
<!-- Creator: CorelDRAW X7 -->
<svg xmlns="http://www.w3.org/2000/svg" xml:space="preserve" width="945px" height="512px" version="1.1" style="shape-rendering:geometricPrecision; text-rendering:geometricPrecision; image-rendering:optimizeQuality; fill-rule:evenodd; clip-rule:evenodd"
viewBox="0 0 945 512"
 xmlns:xlink="http://www.w3.org/1999/xlink">
 <defs>
  <style type="text/css">
   <![CDATA[
    .fil0 {fill:black}
   ]]>
  </style>
 </defs>
 <g id="Layer_x0020_1">
  <metadata id="CorelCorpID_0Corel-Layer"/>
  <path class="fil0" d="M20 190l50 0 0 -162c0,-15 12,-28 28,-28l0 0c15,0 28,13 28,28l0 133 32 0c3,0 6,1 8,1l0 -61c0,-14 12,-25 26,-25l55 0c14,0 26,11 26,25l0 89 69 0 0 -96c0,-8 6,-14 14,-14l0 0c8,0 14,6 14,14l0 96 99 0 0 -76c0,-8 6,-14 14,-14l0 0c7,0 14,6 14,14l0 76 99 0 0 -66c0,-8 6,-14 13,-14l0 0c8,0 14,6 14,14l0 66 99 0 0 -56c0,-8 7,-14 14,-14l0 0c8,0 14,6 14,14l0 56 99 0 0 -46c0,-8 6,-14 14,-14l0 0c8,0 14,6 14,14l0 46c167,0 -52,0 48,0 11,0 20,9 20,20l0 0c0,11 -9,21 -20,21 -100,0 119,0 -48,0l0 46c0,8 -6,14 -14,14l0 0c-8,0 -14,-6 -14,-14l0 -46 -99 0 0 56c0,8 -6,14 -14,14l0 0c-7,0 -14,-6 -14,-14l0 -56 -99 0 0 66c0,8 -6,14 -14,14l0 0c-7,0 -13,-6 -13,-14l0 -66 -99 0 0 76c0,8 -7,14 -14,14l0 0c-8,0 -14,-6 -14,-14l0 -76 -99 0 0 96c0,8 -6,14 -14,14l0 0c-8,0 -14,-6 -14,-14l0 -96 -69 0 0 91c0,13 -12,25 -26,25l-55 0c-14,0 -26,-12 -26,-25l0 -60c-2,0 -5,1 -8,1l-32 0 0 221c0,15 -13,28 -28,28l0 0c-16,0 -28,-13 -28,-28l0 -253 -50 0c-11,0 -20,-10 -20,-21l0 0c0,-11 9,-20 20,-20zm172 0l55 0 0 -64c0,-14 -11,-25 -25,-25l-5 0c-14,0 -25,11 -25,25l0 64zm55 41l-55 0 0 65c0,14 11,26 25,26l5 0c14,0 25,-12 25,-26l0 -65z"/>
 </g>
</svg>
