<?xml version="1.0" encoding="UTF-8"?>
<!DOCTYPE svg PUBLIC "-//W3C//DTD SVG 1.1//EN" "http://www.w3.org/Graphics/SVG/1.1/DTD/svg11.dtd">
<!-- Creator: CorelDRAW X7 -->
<svg xmlns="http://www.w3.org/2000/svg" xml:space="preserve" width="431px" height="512px" version="1.1" style="shape-rendering:geometricPrecision; text-rendering:geometricPrecision; image-rendering:optimizeQuality; fill-rule:evenodd; clip-rule:evenodd"
viewBox="0 0 431 512"
 xmlns:xlink="http://www.w3.org/1999/xlink">
 <defs>
  <style type="text/css">
   <![CDATA[
    .fil0 {fill:black}
   ]]>
  </style>
 </defs>
 <g id="Layer_x0020_1">
  <metadata id="CorelCorpID_0Corel-Layer"/>
  <path class="fil0" d="M272 512l-230 0c0,-33 23,-62 56,-78 31,18 66,27 102,27 13,0 26,-1 39,-4 18,11 33,34 33,55zm2 -244c22,37 28,69 13,85 -24,23 -89,-4 -147,-61 -57,-58 -84,-123 -61,-147 15,-14 45,-9 79,10 8,4 31,-6 38,-14 -60,-41 -121,-53 -149,-25 -37,37 -91,148 15,254 97,97 217,52 254,15 29,-29 16,-92 -29,-154 -8,6 -18,29 -13,37zm-144 -59c1,8 9,15 18,14l53 -6c3,6 8,10 13,14l-6 53c-1,9 6,17 15,18 0,0 1,0 2,0 8,0 15,-6 16,-15l6 -53c15,-5 27,-20 27,-37 0,-22 -18,-40 -40,-40 -17,0 -32,12 -37,28l-53 6c-9,1 -15,9 -14,18zm104 -130c-10,0 -19,9 -19,19 0,11 9,20 19,20 58,0 79,22 79,79 0,11 9,20 20,20 11,0 20,-9 20,-20 0,-80 -39,-118 -119,-118zm0 -79c-10,0 -19,9 -19,20 0,11 9,19 19,19 87,0 158,71 158,158 0,11 9,20 20,20 10,0 19,-9 19,-20 0,-109 -88,-197 -197,-197z"/>
 </g>
</svg>
