<?xml version="1.0" encoding="UTF-8"?>
<!DOCTYPE svg PUBLIC "-//W3C//DTD SVG 1.1//EN" "http://www.w3.org/Graphics/SVG/1.1/DTD/svg11.dtd">
<!-- Creator: CorelDRAW X7 -->
<svg xmlns="http://www.w3.org/2000/svg" xml:space="preserve" width="440px" height="512px" version="1.1" style="shape-rendering:geometricPrecision; text-rendering:geometricPrecision; image-rendering:optimizeQuality; fill-rule:evenodd; clip-rule:evenodd"
viewBox="0 0 440 512"
 xmlns:xlink="http://www.w3.org/1999/xlink">
 <defs>
  <style type="text/css">
   <![CDATA[
    .fil0 {fill:black}
   ]]>
  </style>
 </defs>
 <g id="Layer_x0020_1">
  <metadata id="CorelCorpID_0Corel-Layer"/>
  <path class="fil0" d="M131 373c16,-6 35,2 41,19 5,16 -3,34 -19,40 -17,6 -35,-2 -41,-19 -6,-16 3,-34 19,-40zm229 -83l-122 0 0 -42c19,11 42,16 65,16 37,0 71,-14 97,-40l12 -12c-95,-43 -145,-84 -194,-195l-13 12c-52,53 -53,138 -2,192l0 69 -122 0 -81 0 0 222c142,0 298,0 440,0l0 -81 0 -61 0 -80 -80 0zm-276 155c3,5 7,9 11,12l-4 12c-1,4 0,8 4,10l17 8c4,2 9,1 11,-3l6 -10c6,1 12,1 18,0l6 12c1,4 6,5 10,4l18 -7c3,-1 6,-5 5,-9l-3 -12c5,-4 10,-8 14,-13l11 4c4,2 8,0 10,-4l8 -17c2,-4 1,-8 -3,-11l-10 -6c1,-6 1,-12 1,-18l10 -5c4,-2 5,-7 4,-10l-7 -18c-1,-4 -5,-6 -9,-5l-11 2c-3,-5 -8,-9 -12,-13l3 -11c2,-4 0,-8 -4,-10l-17 -8c-4,-2 -8,0 -10,3l-6 9c-6,-1 -13,-1 -19,0l-5 -10c-2,-4 -6,-6 -10,-4l-18 6c-4,2 -6,6 -5,10l2 10c-5,4 -10,9 -14,14l-11 -4c-4,-1 -8,1 -10,4l-8 18c-2,4 0,8 3,10l10 6c-1,6 -1,12 0,19l-11 5c-3,2 -5,6 -4,10l7 18c1,4 5,6 9,5l13 -3zm259 -84l-12 -4c-4,-2 -8,0 -10,4l-3 6c-6,0 -11,0 -16,1l-4 -7c-2,-3 -7,-5 -10,-3l-12 6c-4,1 -6,6 -5,9l3 8c-4,3 -8,7 -11,12l-8 -2c-4,-1 -8,1 -9,5l-5 12c-1,4 1,8 4,10l8 4c0,5 0,10 1,15l-8 4c-3,3 -4,7 -3,11l6 12c2,3 6,5 10,4l8 -3c3,4 7,7 10,9l-2 9c-1,4 1,8 5,10l13 4c3,2 8,0 10,-4l4 -8c4,1 9,0 14,0l5 8c2,3 6,4 10,3l12 -6c4,-2 5,-6 4,-10l-3 -8c4,-3 8,-7 11,-11l8 2c4,1 8,-1 10,-5l4 -12c2,-4 0,-9 -4,-10l-7 -4c0,-5 0,-10 -1,-15l7 -5c4,-2 5,-6 3,-10l-5 -12c-2,-3 -6,-5 -10,-4l-8 3c-3,-4 -7,-8 -11,-11l2 -7c1,-4 -1,-8 -5,-10zm-20 89c-13,6 -29,0 -35,-13 -6,-13 0,-28 13,-34 13,-6 28,-1 34,12 6,13 1,29 -12,35z"/>
  <path class="fil0" d="M332 0c-6,0 -10,4 -10,10 0,5 4,10 10,10 44,0 79,36 79,79 0,6 5,10 10,10 6,0 10,-4 10,-10 0,-54 -44,-99 -99,-99z"/>
  <path class="fil0" d="M332 40c-6,0 -10,4 -10,10 0,5 4,10 10,10 29,0 40,10 40,39 0,6 4,10 10,10 5,0 9,-4 9,-10 0,-40 -19,-59 -59,-59z"/>
  <path class="fil0" d="M279 105c0,5 5,8 9,8l27 -3c1,2 4,5 7,6l-3 27c-1,5 2,9 7,9 0,0 1,0 1,0 4,0 8,-3 8,-7l3 -27c8,-2 14,-10 14,-19 0,-11 -9,-19 -20,-19 -9,0 -16,5 -19,13l-27 3c-4,1 -8,5 -7,9z"/>
 </g>
</svg>
