<?xml version="1.0" encoding="UTF-8"?>
<!DOCTYPE svg PUBLIC "-//W3C//DTD SVG 1.1//EN" "http://www.w3.org/Graphics/SVG/1.1/DTD/svg11.dtd">
<!-- Creator: CorelDRAW X7 -->
<svg xmlns="http://www.w3.org/2000/svg" xml:space="preserve" width="755px" height="512px" version="1.1" style="shape-rendering:geometricPrecision; text-rendering:geometricPrecision; image-rendering:optimizeQuality; fill-rule:evenodd; clip-rule:evenodd"
viewBox="0 0 755 512"
 xmlns:xlink="http://www.w3.org/1999/xlink">
 <defs>
  <style type="text/css">
   <![CDATA[
    .fil0 {fill:black}
   ]]>
  </style>
 </defs>
 <g id="Layer_x0020_1">
  <metadata id="CorelCorpID_0Corel-Layer"/>
  <path class="fil0" d="M862 84c-19,-25 -50,-39 -88,-39l-232 0 -51 -34c-29,-21 -69,-14 -90,14 -21,30 -15,70 14,91 11,8 26,6 34,-5 8,-11 6,-26 -5,-34 -7,-6 -9,-16 -4,-23 6,-7 16,-8 23,-3 0,0 0,0 0,0l54 36 14 -42 -35 109 23 0 -7 8 -397 0 166 -111c0,0 0,0 1,0 7,-5 17,-4 22,3 5,7 4,17 -4,23 -10,8 -13,23 -5,34 8,11 23,13 34,5 29,-21 36,-61 15,-91 -13,-17 -33,-26 -53,-26 -13,0 -26,4 -38,12l-228 152c-15,5 -25,18 -25,34l0 280c0,19 16,35 35,35l285 0c14,0 27,-9 32,-22l26 -63 25 63c5,13 18,22 32,22l285 0c20,0 35,-16 35,-35l0 -192c21,-5 41,-13 59,-26 28,-20 48,-48 58,-80 12,-36 8,-70 -10,-95zm-176 358l-227 0 -49 -121c-5,-14 -18,-22 -32,-22 -15,0 -27,8 -33,22l-49 121 -226 0 0 -210 383 0 -2 2 24 25c19,20 50,32 84,32 13,0 25,-2 37,-5l-1 3 91 0 0 153zm-156 -242c8,14 21,21 36,21 16,0 28,-9 33,-22 4,-14 -3,-21 -20,-21l-27 0 8 -23 49 -39 -61 0 11 -33 111 0 -8 25 -56 43 7 1c24,4 36,20 27,46 -10,32 -42,55 -81,55 -23,0 -45,-8 -56,-21l27 -32zm306 -33c-16,50 -64,84 -118,84l-70 0 35 -111 43 0 -25 77 31 0c26,0 51,-20 60,-50 10,-29 -3,-50 -30,-50l-71 0 11 -34 72 0c52,0 78,34 62,84zm-489 88l-65 169 -188 0 0 -169 253 0z"/>
  <path class="fil0" d="M34 163c0,0 0,0 0,0 0,0 0,0 0,0z"/>
  <path class="fil0" d="M35 163c0,0 0,0 0,0 0,0 0,0 0,0z"/>
  <path class="fil0" d="M36 163c0,0 0,0 -1,0 1,0 1,0 1,0z"/>
  <path class="fil0" d="M37 163c0,0 0,0 -1,0 1,0 1,0 1,0z"/>
 </g>
</svg>
