<?xml version="1.0" encoding="UTF-8"?>
<!DOCTYPE svg PUBLIC "-//W3C//DTD SVG 1.1//EN" "http://www.w3.org/Graphics/SVG/1.1/DTD/svg11.dtd">
<!-- Creator: CorelDRAW X7 -->
<svg xmlns="http://www.w3.org/2000/svg" xml:space="preserve" width="920px" height="512px" version="1.1" style="shape-rendering:geometricPrecision; text-rendering:geometricPrecision; image-rendering:optimizeQuality; fill-rule:evenodd; clip-rule:evenodd"
viewBox="0 0 920 512"
 xmlns:xlink="http://www.w3.org/1999/xlink">
 <defs>
  <style type="text/css">
   <![CDATA[
    .fil0 {fill:black}
   ]]>
  </style>
 </defs>
 <g id="Layer_x0020_1">
  <metadata id="CorelCorpID_0Corel-Layer"/>
  <path class="fil0" d="M860 102l-80 -12c-39,-36 -92,-59 -149,-59 -41,0 -80,12 -113,32 -91,-4 -183,1 -272,13l-187 26c-37,5 -63,38 -59,76l23 200c2,23 22,41 46,41l24 0 13 26c12,22 34,36 59,36 25,0 48,-14 59,-36l13 -26 260 0c37,29 83,46 134,46 24,0 48,-4 70,-12 13,18 32,28 54,28 25,0 47,-14 59,-36l12 -26 25 0c24,0 44,-18 46,-41l23 -200c4,-38 -22,-71 -60,-76l0 0zm-540 224l-186 0c-8,0 -15,-7 -15,-16 0,-8 7,-15 15,-15l186 0c9,0 16,7 16,15 0,9 -7,16 -16,16l0 0zm0 -62l-186 0c-8,0 -15,-7 -15,-16 0,-8 7,-15 15,-15l186 0c9,0 16,7 16,15 0,9 -7,16 -16,16zm0 -62l-186 0c-8,0 -15,-7 -15,-16 0,-8 7,-15 15,-15l186 0c9,0 16,7 16,15 0,9 -7,16 -16,16zm186 184c-3,-2 -5,-5 -8,-7 -2,-2 -4,-5 -7,-8 -2,-2 -4,-4 -5,-6 -3,-3 -5,-6 -7,-9 -1,-2 -3,-4 -5,-7 -1,-3 -3,-6 -5,-8 -1,-3 -3,-6 -4,-9 -2,-2 -3,-5 -4,-8 -2,-3 -3,-7 -4,-10 -1,-2 -2,-5 -3,-8 -1,-4 -2,-7 -3,-11 -1,-3 -2,-5 -2,-8 -1,-4 -2,-8 -2,-13 -1,-2 -1,-4 -1,-6 -1,-6 -2,-13 -2,-20 0,-7 1,-14 2,-21 0,-3 1,-5 1,-7 1,-5 2,-10 3,-15 0,-2 1,-5 2,-7 1,-5 2,-9 4,-13 1,-3 2,-5 2,-7 3,-7 6,-13 9,-19 1,-1 2,-2 3,-4 2,-4 5,-9 8,-13 2,-2 3,-4 5,-6 3,-4 6,-8 9,-12 1,-1 3,-3 4,-4 10,-11 22,-20 34,-28 29,-19 64,-30 101,-30 95,0 174,72 185,165 0,1 0,2 0,2 1,7 1,13 1,19 0,7 -1,14 -1,20 0,2 -1,4 -1,6 -1,5 -1,9 -2,13 -1,3 -2,5 -2,8 -1,4 -2,7 -3,11 -1,3 -2,6 -3,8 -2,3 -3,7 -4,10 -2,3 -3,6 -4,8 -2,3 -3,6 -5,9 -2,2 -3,5 -5,8 -2,3 -3,5 -5,7 -2,3 -4,6 -6,9 -2,2 -4,4 -6,6 -2,3 -5,6 -7,8 -2,2 -5,5 -7,7 -7,6 -13,11 -20,16 -1,0 -2,1 -3,2 -4,2 -8,4 -11,7 -2,0 -3,1 -4,2 -4,2 -9,4 -13,6 -1,0 -2,1 -2,1 -22,9 -47,14 -72,14 -48,0 -92,-18 -125,-48z"/>
  <path class="fil0" d="M770 248c0,-77 -62,-139 -139,-139 -77,0 -140,62 -140,139 0,77 63,140 140,140 77,0 139,-63 139,-140zm-186 0c0,9 -7,16 -15,16 -9,0 -16,-7 -16,-16 0,-43 35,-77 78,-77 8,0 15,7 15,15 0,9 -7,16 -15,16 -26,0 -47,21 -47,46z"/>
 </g>
</svg>
