<?xml version="1.0" encoding="UTF-8"?>
<!DOCTYPE svg PUBLIC "-//W3C//DTD SVG 1.1//EN" "http://www.w3.org/Graphics/SVG/1.1/DTD/svg11.dtd">
<!-- Creator: CorelDRAW X7 -->
<svg xmlns="http://www.w3.org/2000/svg" xml:space="preserve" width="632px" height="512px" version="1.1" style="shape-rendering:geometricPrecision; text-rendering:geometricPrecision; image-rendering:optimizeQuality; fill-rule:evenodd; clip-rule:evenodd"
viewBox="0 0 632 512"
 xmlns:xlink="http://www.w3.org/1999/xlink">
 <defs>
  <style type="text/css">
   <![CDATA[
    .fil0 {fill:black}
   ]]>
  </style>
 </defs>
 <g id="Layer_x0020_1">
  <metadata id="CorelCorpID_0Corel-Layer"/>
  <path class="fil0" d="M0 0l0 72 41 0 0 383 110 0 154 0 0 24c-4,3 -7,9 -7,15 0,10 8,18 18,18 10,0 18,-8 18,-18 0,-6 -3,-12 -8,-15l0 -24 264 0 0 -383 42 0 0 -72c-211,0 -421,0 -632,0zm316 505c6,0 11,-5 11,-11 0,-7 -5,-12 -11,-12 -7,0 -12,5 -12,12 0,6 5,11 12,11zm235 -90l-471 0 0 -343 471 0 0 343z"/>
 </g>
</svg>
