<?xml version="1.0" encoding="UTF-8"?>
<!DOCTYPE svg PUBLIC "-//W3C//DTD SVG 1.1//EN" "http://www.w3.org/Graphics/SVG/1.1/DTD/svg11.dtd">
<!-- Creator: CorelDRAW X7 -->
<svg xmlns="http://www.w3.org/2000/svg" xml:space="preserve" width="612px" height="512px" version="1.1" style="shape-rendering:geometricPrecision; text-rendering:geometricPrecision; image-rendering:optimizeQuality; fill-rule:evenodd; clip-rule:evenodd"
viewBox="0 0 612 512"
 xmlns:xlink="http://www.w3.org/1999/xlink">
 <defs>
  <style type="text/css">
   <![CDATA[
    .fil0 {fill:black}
   ]]>
  </style>
 </defs>
 <g id="Layer_x0020_1">
  <metadata id="CorelCorpID_0Corel-Layer"/>
  <path class="fil0" d="M536 308l-263 0c-21,-17 -47,-28 -77,-28 -29,0 -55,11 -76,28l-38 0c-6,0 -11,5 -11,11l0 154c0,6 5,10 11,10l18 0 0 29 50 0 0 -10c14,6 30,10 46,10 30,0 56,-11 77,-29l195 0 0 29 50 0 0 -29 18 0c5,0 10,-4 10,-10l0 -154c0,-6 -5,-11 -10,-11zm-343 175c-48,0 -88,-39 -88,-87 0,-48 40,-88 88,-88 48,0 87,40 87,88 0,48 -39,87 -87,87zm322 -37l-111 0 0 -16 111 0 0 16zm0 -48l-111 0 0 -16 111 0 0 16zm0 -45l-111 0 0 -16 111 0 0 16zm-299 -13c4,2 7,5 10,7 -26,-9 -55,1 -70,25 -15,24 -10,55 10,74 -4,-2 -8,-3 -12,-6 -28,-17 -36,-53 -19,-81 17,-28 53,-36 81,-19zm256 -35l-39 0 0 -5 39 0 0 5zm49 0l-39 0 0 -5 39 0 0 5zm-521 127l49 0 0 -32 -14 0 0 -139 542 0 0 139 -11 0 0 32 46 0 0 -207 -271 0 0 -136 141 -57c8,-7 8,-18 2,-26 -7,-7 -18,-8 -26,-1l-117 36 0 -21c0,-10 -9,-19 -19,-19 -9,0 -18,9 -18,19l0 21 -117 -36c-4,-4 -8,-5 -12,-5 -5,0 -10,2 -14,6 -6,8 -6,19 2,26l141 57 0 136 -304 0 0 207z"/>
 </g>
</svg>
