<?xml version="1.0" encoding="UTF-8"?>
<!DOCTYPE svg PUBLIC "-//W3C//DTD SVG 1.1//EN" "http://www.w3.org/Graphics/SVG/1.1/DTD/svg11.dtd">
<!-- Creator: CorelDRAW X7 -->
<svg xmlns="http://www.w3.org/2000/svg" xml:space="preserve" width="314px" height="512px" version="1.1" style="shape-rendering:geometricPrecision; text-rendering:geometricPrecision; image-rendering:optimizeQuality; fill-rule:evenodd; clip-rule:evenodd"
viewBox="0 0 314 512"
 xmlns:xlink="http://www.w3.org/1999/xlink">
 <defs>
  <style type="text/css">
   <![CDATA[
    .fil0 {fill:black}
   ]]>
  </style>
 </defs>
 <g id="Layer_x0020_1">
  <metadata id="CorelCorpID_0Corel-Layer"/>
  <path class="fil0" d="M137 367l-126 -61c-3,-1 -5,-1 -8,0 -2,2 -3,4 -3,7l0 130c0,3 2,6 4,7l127 61c2,1 5,1 7,0 2,-1 4,-4 4,-6l0 -131c0,-3 -2,-6 -5,-7z"/>
  <path class="fil0" d="M310 306c-2,-1 -5,-1 -7,0l-127 61c-2,1 -4,4 -4,7l0 131c0,2 1,5 4,6 2,1 4,1 7,0l127 -61c2,-1 4,-4 4,-7l0 -130c0,-3 -2,-5 -4,-7z"/>
  <path class="fil0" d="M303 275c0,-3 -1,-5 -4,-6l-72 -33c-3,3 -6,6 -9,9l0 15c0,22 -18,40 -40,40l-43 0c-21,0 -39,-18 -39,-40l0 -15c-4,-3 -7,-6 -9,-9l-72 33c-3,1 -5,3 -5,6 0,3 2,6 5,7l139 63c2,1 4,1 6,0l139 -63c3,-1 4,-4 4,-7z"/>
  <path class="fil0" d="M89 179l0 16c0,18 10,33 24,41l0 24c0,13 10,23 22,23l43 0c13,0 23,-10 23,-23l0 -24c14,-8 24,-23 24,-41l0 -16c22,-19 34,-47 34,-76 0,-57 -46,-103 -102,-103l0 0c-4,0 -8,0 -12,1 -46,5 -84,42 -90,89 -4,34 9,67 34,89zm87 42l-38 0 0 -93 38 0 0 93zm-99 -129c4,-36 34,-65 71,-70 3,0 6,0 9,0 44,0 80,36 80,81 0,24 -11,47 -30,63l-4 3 0 26c0,11 -7,20 -16,24l0 -91 4 0c9,0 16,-7 16,-16l0 -9c0,-9 -7,-16 -16,-16l-68 0c-9,0 -16,7 -16,16l0 9c0,9 7,16 16,16l4 0 0 91c-9,-4 -16,-13 -16,-24l0 -26 -4 -3c-22,-18 -33,-45 -30,-74z"/>
 </g>
</svg>
