<?xml version="1.0" encoding="UTF-8"?>
<!DOCTYPE svg PUBLIC "-//W3C//DTD SVG 1.1//EN" "http://www.w3.org/Graphics/SVG/1.1/DTD/svg11.dtd">
<!-- Creator: CorelDRAW X7 -->
<svg xmlns="http://www.w3.org/2000/svg" xml:space="preserve" width="409px" height="512px" version="1.1" style="shape-rendering:geometricPrecision; text-rendering:geometricPrecision; image-rendering:optimizeQuality; fill-rule:evenodd; clip-rule:evenodd"
viewBox="0 0 409 512"
 xmlns:xlink="http://www.w3.org/1999/xlink">
 <defs>
  <style type="text/css">
   <![CDATA[
    .fil0 {fill:black}
   ]]>
  </style>
 </defs>
 <g id="Layer_x0020_1">
  <metadata id="CorelCorpID_0Corel-Layer"/>
  <path class="fil0" d="M205 273c75,0 102,-76 110,-138 8,-77 -28,-135 -110,-135 -83,0 -119,58 -110,135 7,62 34,138 110,138zm172 31l0 0c-3,-5 -8,-9 -12,-13 -15,-11 -34,-14 -50,-21 -9,-3 -16,-6 -23,-10l0 1 0 0c-4,3 -7,7 -11,10 -21,18 -47,28 -76,28 -35,0 -65,-14 -88,-39 -7,4 -14,7 -22,10 -17,7 -36,10 -50,21 -3,2 -5,4 -7,7 -3,2 -5,4 -6,7l0 0c-15,21 -20,53 -24,76 -4,24 -7,48 -8,72 0,1 0,1 0,2l0 0c0,17 9,20 24,25 20,7 40,13 60,17 21,4 41,8 62,11l0 0c19,2 39,4 58,4 41,0 81,-7 120,-15 21,-4 41,-10 60,-17 15,-5 25,-8 25,-25l0 0c0,-1 0,-1 0,-2 -1,-24 -4,-48 -8,-72 -4,-23 -9,-55 -24,-77z"/>
 </g>
</svg>
