<?xml version="1.0" encoding="UTF-8"?>
<!DOCTYPE svg PUBLIC "-//W3C//DTD SVG 1.1//EN" "http://www.w3.org/Graphics/SVG/1.1/DTD/svg11.dtd">
<!-- Creator: CorelDRAW X7 -->
<svg xmlns="http://www.w3.org/2000/svg" xml:space="preserve" width="512px" height="512px" version="1.1" style="shape-rendering:geometricPrecision; text-rendering:geometricPrecision; image-rendering:optimizeQuality; fill-rule:evenodd; clip-rule:evenodd"
viewBox="0 0 512 512"
 xmlns:xlink="http://www.w3.org/1999/xlink">
 <defs>
  <style type="text/css">
   <![CDATA[
    .fil0 {fill:black;fill-rule:nonzero}
   ]]>
  </style>
 </defs>
 <g id="Layer_x0020_1">
  <metadata id="CorelCorpID_0Corel-Layer"/>
  <path class="fil0" d="M360 346l11 12 -45 45 -12 -11 46 -46zm-344 166l480 0c9,0 16,-7 16,-16 0,-9 -7,-16 -16,-16l-32 0 0 -210c28,-7 48,-32 48,-62l0 -16 -512 0 0 16c0,30 20,55 48,62l0 210 -32 0c-9,0 -16,7 -16,16l0 0c0,9 7,16 16,16zm-16 -336l0 0 512 0 -64 -128 -384 0 -64 128zm280 227l-11 -11 91 -91 11 11 -91 91zm0 -45l-11 -12 45 -45 12 11 -46 46zm-216 -342c0,-9 7,-16 16,-16l352 0c9,0 16,7 16,16 0,9 -7,16 -16,16l-352 0c-9,0 -16,-7 -16,-16zm72 370l0 -36c-5,-3 -8,-8 -8,-14 0,-9 7,-16 16,-16 9,0 16,7 16,16 0,6 -3,11 -8,14l0 36c5,3 8,8 8,14 0,9 -7,16 -16,16 -9,0 -16,-7 -16,-16 0,-6 3,-11 8,-14zm284 -235c-2,1 -3,1 -4,1 -3,0 -6,-2 -7,-4l-32 -64c-2,-4 -1,-9 3,-11 4,-2 9,-1 11,3l32 64c2,4 1,9 -3,11zm-64 0c-1,1 -3,1 -4,1 -3,0 -6,-2 -7,-4l-35 -64c-2,-4 -1,-9 3,-11 4,-2 9,-1 11,3l35 64c2,4 1,9 -3,11zm-92 -7c0,4 -4,8 -8,8 -4,0 -8,-4 -8,-8l0 -64c0,-4 4,-8 8,-8 4,0 8,4 8,8l0 64zm-65 -60l-32 64c-1,2 -4,4 -7,4 -1,0 -2,0 -4,-1 -4,-2 -5,-7 -3,-11l32 -64c2,-4 7,-5 11,-3 4,2 5,7 3,11zm-64 0l-32 64c-1,2 -4,4 -7,4 -1,0 -2,0 -4,-1 -3,-2 -5,-7 -3,-11l32 -64c2,-4 7,-5 11,-3 4,2 5,7 3,11zm41 186l0 210 -96 0 0 -210c28,-7 48,-32 48,-62 0,30 20,55 48,62zm144 2c35,0 64,-29 64,-64 0,30 20,55 48,62l0 210 -240 0 0 -208c35,0 64,-29 64,-64 0,35 29,64 64,64z"/>
 </g>
</svg>
