<?xml version="1.0" encoding="UTF-8"?>
<!DOCTYPE svg PUBLIC "-//W3C//DTD SVG 1.1//EN" "http://www.w3.org/Graphics/SVG/1.1/DTD/svg11.dtd">
<!-- Creator: CorelDRAW X7 -->
<svg xmlns="http://www.w3.org/2000/svg" xml:space="preserve" width="685px" height="512px" version="1.1" style="shape-rendering:geometricPrecision; text-rendering:geometricPrecision; image-rendering:optimizeQuality; fill-rule:evenodd; clip-rule:evenodd"
viewBox="0 0 685 512"
 xmlns:xlink="http://www.w3.org/1999/xlink">
 <defs>
  <style type="text/css">
   <![CDATA[
    .fil0 {fill:black}
   ]]>
  </style>
 </defs>
 <g id="Layer_x0020_1">
  <metadata id="CorelCorpID_0Corel-Layer"/>
  <path class="fil0" d="M225 330l-41 -4 0 -38c0,0 0,0 0,0l39 0 22 24 26 -78 1 0c0,0 32,-30 160,-30 1,0 1,0 2,0 1,0 2,0 2,0 128,0 161,30 161,30l0 0 26 78 23 -24 38 0c0,0 0,0 1,0l0 38 -41 4 -4 7c12,13 15,38 8,74 -1,2 -2,9 -2,18l0 81c0,1 -1,2 -2,2l-63 0c-2,0 -2,-1 -2,-2l-1 -65 -288 0 0 65c0,1 -1,2 -2,2l-64 0c-1,0 -2,-1 -2,-2l0 -81c0,-9 -1,-16 -1,-18 -8,-36 -5,-61 8,-74l-4 -7zm290 73l80 1 7 -34 -89 4 2 29zm87 -75l-28 -82c-3,-2 -12,-6 -32,-10 -26,-4 -62,-7 -106,-7 0,0 -1,0 -2,0 -1,0 -1,0 -2,0 -44,0 -80,3 -105,7 -21,4 -29,8 -33,10l-27 82 335 0zm-329 76l80 -1 2 -29 -88 -4 6 34z"/>
  <path class="fil0" d="M0 281l0 -38c0,0 0,0 1,0l38 0 23 23 26 -77 0 0c0,0 32,-30 160,-30 1,0 2,0 2,0 1,0 2,0 2,0 128,0 161,30 161,30l0 0 1 3c-15,1 -29,1 -41,2 -4,-1 -9,-2 -15,-3 -26,-4 -61,-7 -106,-7 0,0 -1,0 -2,0 0,0 -1,0 -2,0 -44,0 -79,3 -105,7 -20,4 -29,8 -33,10l-27 82 89 0 0 5 0 41 -89 -5 6 35 80 -1 2 -21 40 4c-7,14 -8,34 -5,59l-100 0 0 65c0,1 -1,2 -2,2l-64 0c-1,0 -2,-1 -2,-2l0 -81c0,-9 -1,-16 -1,-19 -8,-35 -5,-60 8,-73l-4 -7 -41 -4z"/>
 </g>
</svg>
