<?xml version="1.0" encoding="UTF-8"?>
<!DOCTYPE svg PUBLIC "-//W3C//DTD SVG 1.1//EN" "http://www.w3.org/Graphics/SVG/1.1/DTD/svg11.dtd">
<!-- Creator: CorelDRAW X7 -->
<svg xmlns="http://www.w3.org/2000/svg" xml:space="preserve" width="512px" height="512px" version="1.1" style="shape-rendering:geometricPrecision; text-rendering:geometricPrecision; image-rendering:optimizeQuality; fill-rule:evenodd; clip-rule:evenodd"
viewBox="0 0 512 512"
 xmlns:xlink="http://www.w3.org/1999/xlink">
 <defs>
  <style type="text/css">
   <![CDATA[
    .fil0 {fill:black}
   ]]>
  </style>
 </defs>
 <g id="Layer_x0020_1">
  <metadata id="CorelCorpID_0Corel-Layer"/>
  <path class="fil0" d="M478 127c-23,-39 -54,-70 -93,-93 -40,-23 -83,-34 -129,-34 -46,0 -89,11 -128,34 -40,23 -71,54 -94,93 -23,40 -34,83 -34,129 0,46 11,89 34,129 23,39 54,70 93,93 40,23 83,34 129,34 46,0 89,-11 129,-34 39,-23 70,-54 93,-93 23,-40 34,-83 34,-129 0,-46 -11,-89 -34,-129zm-101 189c4,5 6,10 6,15 0,6 -2,11 -6,16l-30 30c-5,4 -10,6 -16,6 -5,0 -10,-2 -15,-6l-60 -61 -60 61c-5,4 -10,6 -15,6 -6,0 -11,-2 -16,-6l-30 -30c-4,-5 -6,-10 -6,-16 0,-5 2,-10 6,-15l61 -60 -61 -60c-4,-5 -6,-10 -6,-15 0,-6 2,-11 6,-16l30 -30c5,-4 10,-6 16,-6 5,0 10,2 15,6l60 61 60 -61c5,-4 10,-6 15,-6 6,0 11,2 16,6l30 30c4,5 6,10 6,16 0,5 -2,10 -6,15l-61 60 61 60z"/>
 </g>
</svg>
