<?xml version="1.0" encoding="UTF-8"?>
<!DOCTYPE svg PUBLIC "-//W3C//DTD SVG 1.1//EN" "http://www.w3.org/Graphics/SVG/1.1/DTD/svg11.dtd">
<!-- Creator: CorelDRAW X7 -->
<svg xmlns="http://www.w3.org/2000/svg" xml:space="preserve" width="745px" height="512px" version="1.1" style="shape-rendering:geometricPrecision; text-rendering:geometricPrecision; image-rendering:optimizeQuality; fill-rule:evenodd; clip-rule:evenodd"
viewBox="0 0 745 512"
 xmlns:xlink="http://www.w3.org/1999/xlink">
 <defs>
  <style type="text/css">
   <![CDATA[
    .fil0 {fill:black}
   ]]>
  </style>
 </defs>
 <g id="Layer_x0020_1">
  <metadata id="CorelCorpID_0Corel-Layer"/>
  <path class="fil0" d="M652 163l-210 0c-13,0 -23,-11 -23,-23 0,-13 10,-24 23,-24l210 0c12,0 23,11 23,24 0,12 -11,23 -23,23zm-652 -90l0 366c0,40 33,73 74,73l596 0c41,0 75,-33 75,-73l0 -366c0,-40 -34,-73 -75,-73l-596 0c-41,0 -74,33 -74,73zm652 206l-210 0c-13,0 -23,-10 -23,-23 0,-13 10,-23 23,-23l210 0c12,0 23,10 23,23 0,13 -11,23 -23,23zm0 117l-210 0c-13,0 -23,-11 -23,-24 0,-12 10,-23 23,-23l210 0c12,0 23,11 23,23 0,13 -11,24 -23,24zm-303 0c0,33 -11,46 -46,46l-187 0c-35,0 -46,-13 -46,-46 0,-1 0,-23 0,-24 0,-25 11,-61 53,-89 17,-12 39,7 63,29l7 6c0,1 8,8 17,8 9,0 16,-8 16,-8l0 0 7 -6c24,-22 43,-40 63,-29 44,24 53,64 53,89 0,1 0,23 0,24zm-209 -252c0,-50 38,-74 69,-74 33,0 70,24 70,74l0 38c0,50 -51,74 -70,74 -17,0 -69,-24 -69,-74l0 -38z"/>
 </g>
</svg>
