<?xml version="1.0" encoding="UTF-8"?>
<!DOCTYPE svg PUBLIC "-//W3C//DTD SVG 1.1//EN" "http://www.w3.org/Graphics/SVG/1.1/DTD/svg11.dtd">
<!-- Creator: CorelDRAW X7 -->
<svg xmlns="http://www.w3.org/2000/svg" xml:space="preserve" width="477px" height="512px" version="1.1" style="shape-rendering:geometricPrecision; text-rendering:geometricPrecision; image-rendering:optimizeQuality; fill-rule:evenodd; clip-rule:evenodd"
viewBox="0 0 477 512"
 xmlns:xlink="http://www.w3.org/1999/xlink">
 <defs>
  <style type="text/css">
   <![CDATA[
    .fil0 {fill:black}
   ]]>
  </style>
 </defs>
 <g id="Layer_x0020_1">
  <metadata id="CorelCorpID_0Corel-Layer"/>
  <path class="fil0" d="M260 0l0 23 -88 0 0 214 6 9 24 -9 0 0 0 0 0 0c1,-1 2,-1 3,-1l0 -181 55 0 0 457 217 -39 0 -434 -217 -39zm-88 251l0 40c1,0 2,0 4,-1l29 -11 0 -34 -30 11 -3 -5zm0 49l0 55 17 31c1,2 2,4 3,7 1,2 1,5 1,7l0 73 12 0 0 -185 -26 10c-2,1 -3,1 -5,1 0,1 -1,1 -2,1zm0 73l0 100 12 0 0 -73c0,-3 -1,-7 -2,-10l-10 -17zm128 -99c-7,0 -13,-8 -13,-18 0,-9 6,-17 13,-17 7,0 13,8 13,17 0,10 -6,18 -13,18z"/>
  <path class="fil0" d="M114 182c21,0 38,-17 38,-38 0,-21 -17,-38 -38,-38 -21,0 -38,17 -38,38 0,21 17,38 38,38z"/>
  <path class="fil0" d="M205 244l-30 12 -22 -30 0 -4c0,-17 -13,-31 -29,-33 -3,1 -7,1 -10,1 -4,0 -7,0 -10,-1 -10,1 -18,6 -23,14l-41 20c-3,2 -6,5 -7,8l-24 49c-4,8 -1,18 7,22 3,1 5,1 7,1 6,0 12,-3 15,-9l21 -44 15 -8 0 97 4 48 -67 37c-7,3 -11,11 -11,18 0,4 1,7 3,10 3,8 11,12 18,12 4,0 7,-1 10,-3l80 -43c8,-4 12,-12 11,-21l-3 -33 23 42 0 70c0,11 9,21 21,21 12,0 21,-10 21,-21l0 -76c0,-3 -1,-7 -2,-10l-29 -51 0 -59 4 5c3,4 8,6 13,6 2,0 4,0 6,-1l41 -15c8,-4 12,-13 9,-21 -3,-8 -12,-13 -21,-10z"/>
 </g>
</svg>
