<?xml version="1.0" encoding="UTF-8"?>
<!DOCTYPE svg PUBLIC "-//W3C//DTD SVG 1.1//EN" "http://www.w3.org/Graphics/SVG/1.1/DTD/svg11.dtd">
<!-- Creator: CorelDRAW X7 -->
<svg xmlns="http://www.w3.org/2000/svg" xml:space="preserve" width="512px" height="512px" version="1.1" style="shape-rendering:geometricPrecision; text-rendering:geometricPrecision; image-rendering:optimizeQuality; fill-rule:evenodd; clip-rule:evenodd"
viewBox="0 0 512 512"
 xmlns:xlink="http://www.w3.org/1999/xlink">
 <defs>
  <style type="text/css">
   <![CDATA[
    .fil0 {fill:black}
   ]]>
  </style>
 </defs>
 <g id="Layer_x0020_1">
  <metadata id="CorelCorpID_0Corel-Layer"/>
  <path class="fil0" d="M478 127c-23,-39 -54,-70 -93,-93 -40,-23 -83,-34 -129,-34 -46,0 -89,11 -128,34 -40,23 -71,54 -94,93 -23,40 -34,83 -34,129 0,46 11,89 34,129 23,39 54,70 93,93 40,23 83,34 129,34 46,0 89,-11 129,-34 39,-23 70,-54 93,-93 23,-40 34,-83 34,-129 0,-46 -11,-89 -34,-129zm-65 220c-16,28 -38,50 -66,66 -28,16 -58,24 -91,24 -33,0 -63,-8 -91,-24 -28,-16 -50,-38 -66,-66 -16,-28 -24,-58 -24,-91 0,-33 8,-63 24,-91 16,-28 38,-50 66,-66 28,-16 58,-24 91,-24 33,0 63,8 91,24 28,16 50,38 66,66 16,28 24,58 24,91 0,33 -8,63 -24,91z"/>
  <path class="fil0" d="M288 128l-21 0c-3,0 -6,1 -8,3 -2,2 -3,5 -3,8l0 117 -75 0c-3,0 -5,1 -7,3 -2,2 -3,5 -3,8l0 21c0,3 1,6 3,8 2,2 4,3 7,3l107 0c3,0 6,-1 8,-3 2,-2 3,-5 3,-8l0 -149c0,-3 -1,-6 -3,-8 -2,-2 -5,-3 -8,-3z"/>
 </g>
</svg>
