<?xml version="1.0" encoding="UTF-8"?>
<!DOCTYPE svg PUBLIC "-//W3C//DTD SVG 1.1//EN" "http://www.w3.org/Graphics/SVG/1.1/DTD/svg11.dtd">
<!-- Creator: CorelDRAW X7 -->
<svg xmlns="http://www.w3.org/2000/svg" xml:space="preserve" width="549px" height="512px" version="1.1" style="shape-rendering:geometricPrecision; text-rendering:geometricPrecision; image-rendering:optimizeQuality; fill-rule:evenodd; clip-rule:evenodd"
viewBox="0 0 549 512"
 xmlns:xlink="http://www.w3.org/1999/xlink">
 <defs>
  <style type="text/css">
   <![CDATA[
    .fil0 {fill:black}
   ]]>
  </style>
 </defs>
 <g id="Layer_x0020_1">
  <metadata id="CorelCorpID_0Corel-Layer"/>
  <path class="fil0" d="M494 0l-439 0c-30,0 -55,25 -55,55l0 302c0,29 25,54 55,54l73 0 0 92c0,4 2,7 6,8 1,1 2,1 3,1 3,0 5,-1 7,-3l89 -98 261 0c29,0 55,-25 55,-54l0 -302c0,-30 -26,-55 -55,-55zm-384 119l137 0c5,0 9,4 9,9 0,5 -4,9 -9,9l-137 0c-5,0 -9,-4 -9,-9 0,-5 4,-9 9,-9zm311 164l-311 0c-5,0 -9,-4 -9,-9 0,-5 4,-9 9,-9l311 0c5,0 9,4 9,9 0,5 -4,9 -9,9zm0 -73l-311 0c-5,0 -9,-4 -9,-9 0,-5 4,-9 9,-9l311 0c5,0 9,4 9,9 0,5 -4,9 -9,9z"/>
 </g>
</svg>
