<?xml version="1.0" encoding="UTF-8"?>
<!DOCTYPE svg PUBLIC "-//W3C//DTD SVG 1.1//EN" "http://www.w3.org/Graphics/SVG/1.1/DTD/svg11.dtd">
<!-- Creator: CorelDRAW X7 -->
<svg xmlns="http://www.w3.org/2000/svg" xml:space="preserve" width="930px" height="512px" version="1.1" style="shape-rendering:geometricPrecision; text-rendering:geometricPrecision; image-rendering:optimizeQuality; fill-rule:evenodd; clip-rule:evenodd"
viewBox="0 0 930 512"
 xmlns:xlink="http://www.w3.org/1999/xlink">
 <defs>
  <style type="text/css">
   <![CDATA[
    .fil0 {fill:black}
   ]]>
  </style>
 </defs>
 <g id="Layer_x0020_1">
  <metadata id="CorelCorpID_0Corel-Layer"/>
  <path class="fil0" d="M465 0c-175,0 -341,85 -444,227l-21 29 21 29c103,142 269,227 444,227 175,0 341,-85 444,-227l21 -29 -21 -29c-103,-142 -269,-227 -444,-227zm137 188c0,28 -23,50 -50,50 -28,0 -51,-22 -51,-50 0,-28 23,-50 51,-50 27,0 50,22 50,50zm-137 225c-131,0 -255,-58 -340,-157 47,-55 107,-98 174,-124 -11,23 -16,48 -16,74 0,101 81,183 182,183 101,0 182,-82 182,-183 0,-26 -5,-51 -16,-74 67,26 127,69 174,124 -85,99 -209,157 -340,157z"/>
 </g>
</svg>
