<?xml version="1.0" encoding="UTF-8"?>
<!DOCTYPE svg PUBLIC "-//W3C//DTD SVG 1.1//EN" "http://www.w3.org/Graphics/SVG/1.1/DTD/svg11.dtd">
<!-- Creator: CorelDRAW X7 -->
<svg xmlns="http://www.w3.org/2000/svg" xml:space="preserve" width="597px" height="512px" version="1.1" style="shape-rendering:geometricPrecision; text-rendering:geometricPrecision; image-rendering:optimizeQuality; fill-rule:evenodd; clip-rule:evenodd"
viewBox="0 0 597 512"
 xmlns:xlink="http://www.w3.org/1999/xlink">
 <defs>
  <style type="text/css">
   <![CDATA[
    .fil0 {fill:black}
   ]]>
  </style>
 </defs>
 <g id="Layer_x0020_1">
  <metadata id="CorelCorpID_0Corel-Layer"/>
  <path class="fil0" d="M557 106c-26,-33 -63,-59 -108,-77 -46,-19 -96,-29 -150,-29 -41,0 -79,6 -116,17 -37,11 -69,26 -96,45 -26,19 -48,42 -63,68 -16,27 -24,54 -24,83 0,34 10,65 30,94 20,29 48,54 83,73 -3,9 -6,18 -9,26 -3,8 -6,14 -9,19 -3,5 -6,11 -11,17 -4,6 -8,11 -10,13 -3,3 -6,7 -12,13 -5,6 -8,10 -10,12 0,0 -1,1 -3,3 -1,1 -2,2 -2,2l-2 3c-1,2 -2,3 -2,4 1,0 0,1 0,3 -1,2 -1,3 0,4l0 0c1,4 3,7 6,10 3,2 6,3 10,3 14,-2 27,-4 38,-7 58,-15 109,-42 153,-81 17,2 33,3 49,3 54,0 104,-10 150,-29 45,-19 82,-45 108,-78 27,-32 40,-68 40,-107 0,-38 -13,-74 -40,-107zm-121 109c-20,-47 -71,-71 -156,-71l-39 0 0 -46c0,-3 -1,-5 -4,-8 -2,-2 -5,-3 -8,-3 -3,0 -5,1 -8,3l-90 91c-3,2 -4,5 -4,8 0,3 1,6 4,8l90 91c3,2 5,3 8,3 3,0 6,-1 8,-3 3,-2 4,-5 4,-8l0 -45 39 0c12,0 22,0 32,1 9,0 18,2 27,3 9,2 17,5 23,8 7,3 13,7 19,12 6,5 11,11 14,18 4,7 7,15 9,25 2,9 3,20 3,32 0,6 0,14 -1,22 0,0 0,2 0,4 -1,2 -1,3 -1,5 0,1 1,3 2,4 1,1 2,2 4,2 2,0 4,-1 5,-3 1,-1 2,-3 2,-4 1,-2 2,-4 3,-6 1,-2 1,-3 1,-4 16,-33 23,-60 23,-80 0,-23 -3,-43 -9,-59z"/>
 </g>
</svg>
