<?xml version="1.0" encoding="UTF-8"?>
<!DOCTYPE svg PUBLIC "-//W3C//DTD SVG 1.1//EN" "http://www.w3.org/Graphics/SVG/1.1/DTD/svg11.dtd">
<!-- Creator: CorelDRAW X7 -->
<svg xmlns="http://www.w3.org/2000/svg" xml:space="preserve" width="573px" height="512px" version="1.1" style="shape-rendering:geometricPrecision; text-rendering:geometricPrecision; image-rendering:optimizeQuality; fill-rule:evenodd; clip-rule:evenodd"
viewBox="0 0 573 512"
 xmlns:xlink="http://www.w3.org/1999/xlink">
 <defs>
  <style type="text/css">
   <![CDATA[
    .fil0 {fill:black}
   ]]>
  </style>
 </defs>
 <g id="Layer_x0020_1">
  <metadata id="CorelCorpID_0Corel-Layer"/>
  <path class="fil0" d="M557 231c-35,-86 -128,-129 -281,-129l-71 0 0 -82c0,-5 -2,-10 -6,-14 -4,-4 -9,-6 -15,-6 -5,0 -10,2 -14,6l-164 164c-4,4 -6,9 -6,14 0,6 2,11 6,15l164 164c4,4 9,6 14,6 6,0 11,-2 15,-6 4,-4 6,-9 6,-15l0 -82 71 0c21,0 40,1 57,2 16,1 33,4 49,7 16,3 30,8 43,14 12,5 23,13 33,22 11,9 19,20 26,32 6,13 12,27 15,45 4,17 6,36 6,57 0,12 -1,25 -2,40 0,1 0,4 0,7 -1,4 -1,7 -1,9 0,3 1,6 3,8 1,2 4,3 7,3 3,0 6,-2 9,-5 1,-2 3,-5 4,-7 1,-3 3,-6 4,-10 2,-4 3,-6 4,-8 27,-61 40,-109 40,-144 0,-43 -5,-78 -16,-107z"/>
 </g>
</svg>
