<?xml version="1.0" encoding="UTF-8"?>
<!DOCTYPE svg PUBLIC "-//W3C//DTD SVG 1.1//EN" "http://www.w3.org/Graphics/SVG/1.1/DTD/svg11.dtd">
<!-- Creator: CorelDRAW X7 -->
<svg xmlns="http://www.w3.org/2000/svg" xml:space="preserve" width="531px" height="512px" version="1.1" style="shape-rendering:geometricPrecision; text-rendering:geometricPrecision; image-rendering:optimizeQuality; fill-rule:evenodd; clip-rule:evenodd"
viewBox="0 0 531 512"
 xmlns:xlink="http://www.w3.org/1999/xlink">
 <defs>
  <style type="text/css">
   <![CDATA[
    .fil0 {fill:black}
   ]]>
  </style>
 </defs>
 <g id="Layer_x0020_1">
  <metadata id="CorelCorpID_0Corel-Layer"/>
  <path class="fil0" d="M125 190l-88 0c-18,0 -37,21 -37,42l0 241c0,21 19,39 37,39l88 0c18,0 32,-18 32,-39l0 -241c0,-21 -14,-42 -32,-42z"/>
  <path class="fil0" d="M515 278c10,-9 16,-22 16,-36 0,-13 -5,-27 -15,-37 -9,-9 -22,-15 -35,-15l-117 0c33,-102 -25,-168 -27,-171 0,0 0,0 -1,0 -9,-12 -24,-19 -39,-19 -28,0 -51,23 -51,50 0,2 1,4 1,6 -1,1 -1,3 0,5 9,44 -11,94 -23,120 -2,2 -3,3 -4,5 -2,3 -4,4 -7,4l-4 0c-1,0 -3,1 -4,1 -21,1 -39,19 -39,40l0 241c0,21 21,40 43,40l272 0c1,0 2,-1 3,-1 25,-3 45,-24 45,-50 0,-14 -6,-27 -15,-36 10,-9 17,-22 17,-37 0,-14 -6,-27 -16,-37 10,-9 16,-22 16,-36 0,-14 -6,-27 -16,-37z"/>
 </g>
</svg>
