<?xml version="1.0" encoding="UTF-8"?>
<!DOCTYPE svg PUBLIC "-//W3C//DTD SVG 1.1//EN" "http://www.w3.org/Graphics/SVG/1.1/DTD/svg11.dtd">
<!-- Creator: CorelDRAW X7 -->
<svg xmlns="http://www.w3.org/2000/svg" xml:space="preserve" width="512px" height="512px" version="1.1" style="shape-rendering:geometricPrecision; text-rendering:geometricPrecision; image-rendering:optimizeQuality; fill-rule:evenodd; clip-rule:evenodd"
viewBox="0 0 512 512"
 xmlns:xlink="http://www.w3.org/1999/xlink">
 <defs>
  <style type="text/css">
   <![CDATA[
    .fil0 {fill:black}
   ]]>
  </style>
 </defs>
 <g id="Layer_x0020_1">
  <metadata id="CorelCorpID_0Corel-Layer"/>
  <path class="fil0" d="M124 170c6,0 11,1 17,3 19,-22 40,-42 63,-59 -1,-4 -2,-8 -2,-13 0,-6 2,-11 3,-17 -25,-18 -54,-34 -83,-46 -28,17 -53,40 -72,66 14,26 31,50 51,72 7,-4 15,-6 23,-6zm-54 55c0,-8 2,-15 4,-22 -17,-19 -33,-40 -47,-62 -17,35 -27,74 -27,115 0,48 13,93 36,131 8,-46 24,-90 45,-130 -7,-9 -11,-20 -11,-32zm187 -178c14,0 27,6 37,15 29,-13 58,-22 90,-28 -38,-22 -82,-34 -128,-34 -32,0 -62,6 -90,16 22,11 43,24 63,39 8,-5 18,-8 28,-8zm81 256c4,-7 9,-13 15,-18 -16,-49 -42,-94 -75,-133 -6,2 -13,4 -21,4 -12,0 -23,-4 -32,-10 -19,15 -38,32 -54,50 5,8 8,18 8,29 0,5 -1,11 -3,16 48,32 103,54 162,62zm71 74c1,10 1,21 1,31 0,19 -1,37 -3,55 43,-32 76,-77 93,-129 -20,5 -40,8 -61,10 -5,15 -16,27 -30,33zm-83 -37c-64,-10 -122,-34 -173,-69 -8,5 -18,8 -29,8 -3,0 -7,0 -11,-1 -24,46 -40,98 -44,153 24,26 54,47 87,61 42,-64 100,-117 170,-152zm102 -274c-41,4 -80,15 -117,30 0,2 0,4 0,5 0,9 -2,17 -5,24 36,43 65,93 82,148 23,0 42,14 50,33 24,-3 48,-7 71,-14 2,-12 3,-24 3,-36 0,-75 -32,-143 -84,-190zm-75 303c-65,31 -120,78 -159,135 20,5 41,8 62,8 39,0 75,-9 108,-24 5,-26 8,-52 8,-80 0,-10 0,-19 -1,-29 -7,-2 -13,-5 -18,-10z"/>
 </g>
</svg>
