<?xml version="1.0" encoding="UTF-8"?>
<!DOCTYPE svg PUBLIC "-//W3C//DTD SVG 1.1//EN" "http://www.w3.org/Graphics/SVG/1.1/DTD/svg11.dtd">
<!-- Creator: CorelDRAW X7 -->
<svg xmlns="http://www.w3.org/2000/svg" xml:space="preserve" width="382px" height="512px" version="1.1" style="shape-rendering:geometricPrecision; text-rendering:geometricPrecision; image-rendering:optimizeQuality; fill-rule:evenodd; clip-rule:evenodd"
viewBox="0 0 382 512"
 xmlns:xlink="http://www.w3.org/1999/xlink">
 <defs>
  <style type="text/css">
   <![CDATA[
    .fil0 {fill:black}
   ]]>
  </style>
 </defs>
 <g id="Layer_x0020_1">
  <metadata id="CorelCorpID_0Corel-Layer"/>
  <path class="fil0" d="M45 487c0,14 12,25 26,25l240 0c14,0 25,-11 26,-25l17 -362 -326 0 17 362zm200 -272c0,-6 5,-11 11,-11l16 0c6,0 11,5 11,11l0 207c0,6 -5,10 -11,10l-16 0c-6,0 -11,-4 -11,-10l0 -207zm-73 0c0,-6 5,-11 10,-11l17 0c6,0 11,5 11,11l0 207c0,6 -5,10 -11,10l-17 0c-5,0 -10,-4 -10,-10l0 -207zm-73 0c0,-6 4,-11 10,-11l17 0c6,0 10,5 10,11l0 207c0,6 -4,10 -10,10l-17 0c-6,0 -10,-4 -10,-10l0 -207z"/>
  <path class="fil0" d="M365 26l-111 0 0 -21c0,-3 -2,-5 -5,-5l-116 0c-3,0 -6,2 -6,5l0 21 -111 0c-9,0 -16,8 -16,17l0 50 382 0 0 -50c0,-9 -8,-17 -17,-17z"/>
 </g>
</svg>
