<?xml version="1.0" encoding="UTF-8"?>
<!DOCTYPE svg PUBLIC "-//W3C//DTD SVG 1.1//EN" "http://www.w3.org/Graphics/SVG/1.1/DTD/svg11.dtd">
<!-- Creator: CorelDRAW X7 -->
<svg xmlns="http://www.w3.org/2000/svg" xml:space="preserve" width="512px" height="512px" version="1.1" style="shape-rendering:geometricPrecision; text-rendering:geometricPrecision; image-rendering:optimizeQuality; fill-rule:evenodd; clip-rule:evenodd"
viewBox="0 0 512 512"
 xmlns:xlink="http://www.w3.org/1999/xlink">
 <defs>
  <style type="text/css">
   <![CDATA[
    .fil0 {fill:black}
   ]]>
  </style>
 </defs>
 <g id="Layer_x0020_1">
  <metadata id="CorelCorpID_0Corel-Layer"/>
  <path class="fil0" d="M471 284c-23,0 -41,18 -41,41l0 105 -348 0 0 -105c0,-23 -18,-41 -41,-41 -23,0 -41,18 -41,41l0 146c0,23 18,41 41,41l430 0c22,0 41,-18 41,-41l0 -146c0,-23 -19,-41 -41,-41z"/>
  <path class="fil0" d="M169 186l46 -46 0 153c0,23 18,41 41,41 23,0 41,-18 41,-41l0 -153 46 46c8,8 18,12 29,12 10,0 21,-4 29,-12 16,-16 16,-42 0,-58l-116 -116c-8,-8 -19,-12 -29,-12l0 0c-11,0 -21,4 -29,12l-116 116c-16,16 -16,42 0,58 16,16 42,16 58,0z"/>
 </g>
</svg>
