<?xml version="1.0" encoding="UTF-8"?>
<!DOCTYPE svg PUBLIC "-//W3C//DTD SVG 1.1//EN" "http://www.w3.org/Graphics/SVG/1.1/DTD/svg11.dtd">
<!-- Creator: CorelDRAW X7 -->
<svg xmlns="http://www.w3.org/2000/svg" xml:space="preserve" width="394px" height="512px" version="1.1" style="shape-rendering:geometricPrecision; text-rendering:geometricPrecision; image-rendering:optimizeQuality; fill-rule:evenodd; clip-rule:evenodd"
viewBox="0 0 394 512"
 xmlns:xlink="http://www.w3.org/1999/xlink">
 <defs>
  <style type="text/css">
   <![CDATA[
    .fil0 {fill:black}
   ]]>
  </style>
 </defs>
 <g id="Layer_x0020_1">
  <metadata id="CorelCorpID_0Corel-Layer"/>
  <path class="fil0" d="M366 207l-10 0 0 -47c0,-86 -69,-158 -155,-160 -1,0 -2,0 -4,0l-1 0c-1,0 -3,0 -4,0 -86,2 -154,74 -154,160l0 47 -10 0c-15,0 -28,16 -28,35l0 234c0,20 13,36 28,36l338 0c15,0 28,-16 28,-36l0 -234c0,-19 -13,-35 -28,-35zm-138 152l0 71c0,8 -6,15 -14,15l-34 0c-8,0 -15,-7 -15,-15l0 -71c-8,-8 -12,-18 -12,-30 0,-23 17,-42 39,-43 2,0 7,0 9,0 23,1 40,20 40,43 0,12 -5,22 -13,30zm62 -152l-186 0 0 -47c0,-51 41,-94 93,-94 51,0 93,43 93,94l0 47z"/>
 </g>
</svg>
