<?xml version="1.0" encoding="UTF-8"?>
<!DOCTYPE svg PUBLIC "-//W3C//DTD SVG 1.1//EN" "http://www.w3.org/Graphics/SVG/1.1/DTD/svg11.dtd">
<!-- Creator: CorelDRAW X7 -->
<svg xmlns="http://www.w3.org/2000/svg" xml:space="preserve" width="545px" height="512px" version="1.1" style="shape-rendering:geometricPrecision; text-rendering:geometricPrecision; image-rendering:optimizeQuality; fill-rule:evenodd; clip-rule:evenodd"
viewBox="0 0 545 512"
 xmlns:xlink="http://www.w3.org/1999/xlink">
 <defs>
  <style type="text/css">
   <![CDATA[
    .fil0 {fill:black}
   ]]>
  </style>
 </defs>
 <g id="Layer_x0020_1">
  <metadata id="CorelCorpID_0Corel-Layer"/>
  <path class="fil0" d="M545 311l0 60c0,44 -38,67 -80,81l-193 60 -192 -60c-42,-14 -80,-37 -80,-81l0 -60c0,44 38,67 80,80l192 61 193 -61c42,-13 80,-36 80,-80z"/>
  <path class="fil0" d="M80 0l385 0c44,0 80,36 80,80l0 191c0,44 -38,67 -80,80l-193 60 -192 -60c-42,-13 -80,-36 -80,-80l0 -191c0,-44 36,-80 80,-80z"/>
 </g>
</svg>
