<?xml version="1.0" encoding="UTF-8"?>
<!DOCTYPE svg PUBLIC "-//W3C//DTD SVG 1.1//EN" "http://www.w3.org/Graphics/SVG/1.1/DTD/svg11.dtd">
<!-- Creator: CorelDRAW X7 -->
<svg xmlns="http://www.w3.org/2000/svg" xml:space="preserve" width="273px" height="512px" version="1.1" style="shape-rendering:geometricPrecision; text-rendering:geometricPrecision; image-rendering:optimizeQuality; fill-rule:evenodd; clip-rule:evenodd"
viewBox="0 0 273 512"
 xmlns:xlink="http://www.w3.org/1999/xlink">
 <defs>
  <style type="text/css">
   <![CDATA[
    .fil0 {fill:black}
   ]]>
  </style>
 </defs>
 <g id="Layer_x0020_1">
  <metadata id="CorelCorpID_0Corel-Layer"/>
  <path class="fil0" d="M273 307l0 -153c0,-89 -57,-154 -136,-154 -80,0 -137,65 -137,154l0 222 0 8c0,14 11,26 26,26 14,0 25,-12 25,-26l0 -230c0,-49 26,-103 86,-103 59,0 85,54 85,103l0 205c0,2 0,3 1,5l-1 46c0,28 -23,51 -51,51 -29,0 -52,-23 -52,-51l0 -103 0 -102c0,-7 5,-17 18,-17 11,0 17,10 17,17l0 51c0,3 0,5 0,7 0,0 0,1 0,2l0 34c0,14 11,26 25,26 14,0 26,-12 26,-26l0 -34c0,-1 0,-2 0,-3 0,-2 0,-4 0,-6l0 -51c0,-37 -31,-68 -68,-68 -38,0 -69,30 -69,68l0 24c0,0 0,1 0,1l0 180c0,56 46,102 103,102 56,0 102,-46 102,-102l0 -103z"/>
 </g>
</svg>
