<?xml version="1.0" encoding="UTF-8"?>
<!DOCTYPE svg PUBLIC "-//W3C//DTD SVG 1.1//EN" "http://www.w3.org/Graphics/SVG/1.1/DTD/svg11.dtd">
<!-- Creator: CorelDRAW X7 -->
<svg xmlns="http://www.w3.org/2000/svg" xml:space="preserve" width="408px" height="512px" version="1.1" style="shape-rendering:geometricPrecision; text-rendering:geometricPrecision; image-rendering:optimizeQuality; fill-rule:evenodd; clip-rule:evenodd"
viewBox="0 0 408 512"
 xmlns:xlink="http://www.w3.org/1999/xlink">
 <defs>
  <style type="text/css">
   <![CDATA[
    .fil0 {fill:black}
   ]]>
  </style>
 </defs>
 <g id="Layer_x0020_1">
  <metadata id="CorelCorpID_0Corel-Layer"/>
  <path class="fil0" d="M221 107c-14,-10 -34,-7 -44,7l-9 13 -128 176 0 0 -4 6c0,0 -13,18 -30,135 0,1 0,2 0,3 -1,2 -1,4 -1,6 -1,2 -1,4 -1,6 0,1 -1,3 -1,5 0,4 -1,8 -1,12 -1,5 -3,16 -2,24l1 0c0,5 2,8 4,10 8,6 26,-3 34,-7 4,-2 7,-3 11,-5 2,-1 3,-2 5,-2 1,-1 3,-2 5,-3 2,-1 4,-2 6,-3 0,0 1,0 1,-1 102,-50 118,-68 120,-70 0,0 0,0 0,0 0,0 0,0 0,0l4 -6 0 1 129 -177 9 -13c10,-14 7,-33 -7,-43l-101 -74zm-55 295c0,0 0,0 0,1 -1,0 -1,0 -1,0 0,0 0,0 0,0 0,0 0,0 -1,0 -4,4 -18,15 -52,33 -4,3 -8,5 -13,7l-59 -43c1,-5 1,-10 2,-15 8,-38 13,-54 15,-60 0,0 0,0 0,0 1,0 1,0 1,-1 0,0 0,0 0,0 0,0 0,0 0,0l3 -5 108 79 -3 4zm229 -323l-101 -73c-14,-10 -33,-7 -43,7l-19 25c-10,14 -7,34 7,44l101 73c14,10 34,7 44,-7l18 -25c10,-14 7,-33 -7,-44z"/>
 </g>
</svg>
