<?xml version="1.0" encoding="UTF-8"?>
<!DOCTYPE svg PUBLIC "-//W3C//DTD SVG 1.1//EN" "http://www.w3.org/Graphics/SVG/1.1/DTD/svg11.dtd">
<!-- Creator: CorelDRAW X7 -->
<svg xmlns="http://www.w3.org/2000/svg" xml:space="preserve" width="529px" height="512px" version="1.1" style="shape-rendering:geometricPrecision; text-rendering:geometricPrecision; image-rendering:optimizeQuality; fill-rule:evenodd; clip-rule:evenodd"
viewBox="0 0 529 512"
 xmlns:xlink="http://www.w3.org/1999/xlink">
 <defs>
  <style type="text/css">
   <![CDATA[
    .fil0 {fill:black}
   ]]>
  </style>
 </defs>
 <g id="Layer_x0020_1">
  <metadata id="CorelCorpID_0Corel-Layer"/>
  <path class="fil0" d="M340 331l-23 81c0,1 -1,1 -1,2l-69 57c-1,1 -2,1 -3,1 -1,0 -1,0 -2,0 -1,0 -3,-1 -3,-3l-24 -81c-17,0 -32,-4 -45,-12l-31 25c-2,2 -5,2 -7,0l-23 -24c-1,-1 -2,-3 -1,-4 0,-1 0,-3 1,-3l31 -29c-2,-7 -7,-25 -2,-53l-80 -29c-2,0 -3,-2 -3,-3 -1,-2 0,-4 1,-5l62 -65c1,0 2,-1 3,-1l81 -15c15,-17 33,-35 53,-53 114,-102 204,-117 247,-117l1 0c13,0 21,2 21,2 2,0 4,2 4,4 1,5 19,125 -138,282 0,1 -21,21 -50,43zm-8 -88c28,0 50,-22 50,-49 0,-28 -22,-50 -50,-50 -27,0 -49,22 -49,50 0,27 22,49 49,49z"/>
  <path class="fil0" d="M146 420c1,-1 3,-1 4,-1 2,0 3,1 3,3l12 33c0,2 0,4 -2,5l-53 51c-1,1 -2,1 -3,1l-45 0c-2,0 -3,-1 -4,-3 -1,-1 0,-3 1,-5l87 -84z"/>
  <path class="fil0" d="M87 393c0,-1 2,-3 3,-3l0 0c1,0 2,2 3,3l19 24c2,1 2,4 0,6l-86 88c-1,0 -2,1 -3,1l-19 0c-2,0 -4,-2 -4,-4l0 -21c0,-1 0,-3 1,-4l86 -90z"/>
  <path class="fil0" d="M1 404l63 -61c1,-2 3,-2 5,-1l25 16c2,1 2,2 2,4 1,1 0,2 -1,3l-88 87c0,1 -2,2 -3,2 0,0 -1,-1 -1,-1 -2,0 -3,-2 -3,-4l0 -42c0,-1 0,-3 1,-3z"/>
 </g>
</svg>
