<?xml version="1.0" encoding="UTF-8"?>
<!DOCTYPE svg PUBLIC "-//W3C//DTD SVG 1.1//EN" "http://www.w3.org/Graphics/SVG/1.1/DTD/svg11.dtd">
<!-- Creator: CorelDRAW X7 -->
<svg xmlns="http://www.w3.org/2000/svg" xml:space="preserve" width="500px" height="512px" version="1.1" style="shape-rendering:geometricPrecision; text-rendering:geometricPrecision; image-rendering:optimizeQuality; fill-rule:evenodd; clip-rule:evenodd"
viewBox="0 0 500 512"
 xmlns:xlink="http://www.w3.org/1999/xlink">
 <defs>
  <style type="text/css">
   <![CDATA[
    .fil0 {fill:black}
   ]]>
  </style>
 </defs>
 <g id="Layer_x0020_1">
  <metadata id="CorelCorpID_0Corel-Layer"/>
  <path class="fil0" d="M65 288l-65 0 0 160 46 -44c46,65 120,108 204,108 127,0 233,-98 248,-224l-63 0c-15,91 -92,160 -185,160 -66,0 -124,-35 -157,-87l77 -73 -105 0z"/>
  <path class="fil0" d="M250 0c-127,0 -233,98 -248,224l63 0c15,-91 92,-160 185,-160 68,0 127,37 160,92l-66 68 156 0 0 -160 -45 46c-45,-67 -120,-110 -205,-110z"/>
 </g>
</svg>
