<?xml version="1.0" encoding="UTF-8"?>
<!DOCTYPE svg PUBLIC "-//W3C//DTD SVG 1.1//EN" "http://www.w3.org/Graphics/SVG/1.1/DTD/svg11.dtd">
<!-- Creator: CorelDRAW X7 -->
<svg xmlns="http://www.w3.org/2000/svg" xml:space="preserve" width="575px" height="512px" version="1.1" style="shape-rendering:geometricPrecision; text-rendering:geometricPrecision; image-rendering:optimizeQuality; fill-rule:evenodd; clip-rule:evenodd"
viewBox="0 0 575 512"
 xmlns:xlink="http://www.w3.org/1999/xlink">
 <defs>
  <style type="text/css">
   <![CDATA[
    .fil0 {fill:black}
   ]]>
  </style>
 </defs>
 <g id="Layer_x0020_1">
  <metadata id="CorelCorpID_0Corel-Layer"/>
  <path class="fil0" d="M397 10c-14,-13 -37,-13 -51,0l-7 8c-14,14 -14,37 0,51l1 0c-12,7 -28,19 -47,31 -17,-21 -38,-40 -48,-49 3,-12 0,-24 -9,-33l-8 -8c-14,-13 -37,-13 -50,0l-168 168c-13,14 -13,37 0,51l8 7c11,11 27,13 40,7 7,10 25,35 47,63 -12,12 -32,36 -33,60 0,12 4,23 12,31 26,26 103,103 103,103l2 2c1,1 14,10 35,10 18,0 41,-6 67,-28 6,4 9,6 10,7 2,2 21,12 41,12 6,0 13,-1 19,-4 9,-4 20,-12 26,-29 15,-6 33,-18 41,-40 17,-4 35,-16 42,-39 16,-3 35,-12 42,-36 5,-19 0,-34 -8,-46 12,-14 28,-35 31,-63 8,0 16,-4 22,-10l7 -7c14,-14 14,-37 0,-51l-167 -168zm101 218c4,23 -9,43 -19,55l-97 -91 -12 9c-24,17 -56,2 -56,2l-10 -5 -9 7c-1,0 -30,23 -69,26 -3,1 -5,1 -8,1 -9,0 -12,-2 -12,-2 -1,-3 2,-15 15,-31 15,-18 94,-71 145,-104l132 133zm-358 120l-26 28c-2,-1 -3,-3 -4,-4 -2,-1 -2,-2 -2,-4 0,-9 10,-23 20,-34 4,5 8,9 12,14zm52 107c-3,-4 -7,-8 -12,-12l26 -28c4,4 8,8 13,12l-27 28zm-37 -38c-6,-5 -11,-10 -16,-15l25 -27c3,3 7,7 10,10 2,2 4,4 5,5l-24 27zm67 59l24 -26c6,4 11,8 15,12 -17,12 -30,14 -39,14zm255 -131c-2,9 -10,10 -15,10l-100 -95 -25 26 98 94c-2,10 -9,14 -16,15l-99 -94 -24 26 97 93c-4,8 -11,13 -16,15l-98 -93 -24 26 96 92c-1,3 -2,5 -4,6 -7,3 -20,-2 -27,-5 0,-1 -66,-47 -120,-101 -51,-51 -107,-130 -115,-140l139 -140c10,9 26,24 39,40 -30,22 -59,43 -69,56 -11,13 -34,45 -20,70 8,17 27,24 56,21 36,-3 64,-19 78,-28 15,5 43,11 70,-1l95 89c4,5 6,11 4,18z"/>
 </g>
</svg>
