<?xml version="1.0" encoding="UTF-8"?>
<!DOCTYPE svg PUBLIC "-//W3C//DTD SVG 1.1//EN" "http://www.w3.org/Graphics/SVG/1.1/DTD/svg11.dtd">
<!-- Creator: CorelDRAW X7 -->
<svg xmlns="http://www.w3.org/2000/svg" xml:space="preserve" width="454px" height="512px" version="1.1" style="shape-rendering:geometricPrecision; text-rendering:geometricPrecision; image-rendering:optimizeQuality; fill-rule:evenodd; clip-rule:evenodd"
viewBox="0 0 454 512"
 xmlns:xlink="http://www.w3.org/1999/xlink">
 <defs>
  <style type="text/css">
   <![CDATA[
    .fil0 {fill:black}
   ]]>
  </style>
 </defs>
 <g id="Layer_x0020_1">
  <metadata id="CorelCorpID_0Corel-Layer"/>
  <path class="fil0" d="M215 244c0,7 5,12 12,12 6,0 12,-5 12,-12 0,-13 4,-27 13,-37 20,-23 34,-48 44,-75 1,-3 0,-7 -2,-10 -2,-3 -6,-5 -9,-5l-116 0c-4,0 -7,2 -9,5 -3,3 -3,7 -2,10 9,27 24,52 44,75 8,10 13,24 13,37z"/>
  <path class="fil0" d="M239 291c0,-6 -6,-12 -12,-12 -7,0 -12,6 -12,12 0,17 -10,33 -28,47 -39,29 -68,60 -87,93 -2,3 -2,8 0,11 3,4 6,6 11,6l232 0c4,0 8,-2 10,-6 2,-3 2,-8 0,-11 -18,-33 -47,-64 -86,-93 -18,-14 -28,-30 -28,-47z"/>
  <path class="fil0" d="M431 465l-7 0c-8,-90 -61,-160 -103,-209 42,-49 95,-119 103,-209l7 0c12,0 23,-11 23,-24 0,-13 -11,-23 -23,-23l-408 0c-13,0 -23,10 -23,23 0,13 10,24 23,24l7 0c8,90 61,160 102,209 -41,49 -94,119 -102,209l-7 0c-13,0 -23,11 -23,24 0,13 10,23 23,23l408 0c12,0 23,-10 23,-23 0,-13 -11,-24 -23,-24zm-354 0c9,-81 62,-144 102,-191l2 -3c7,-9 7,-21 0,-30l-2 -2c-40,-48 -93,-111 -102,-192l300 0c-9,81 -62,144 -102,192l-2 2c-7,9 -7,21 0,30l2 3c40,47 93,110 102,191l-300 0z"/>
 </g>
</svg>
