<?xml version="1.0" encoding="UTF-8"?>
<!DOCTYPE svg PUBLIC "-//W3C//DTD SVG 1.1//EN" "http://www.w3.org/Graphics/SVG/1.1/DTD/svg11.dtd">
<!-- Creator: CorelDRAW X7 -->
<svg xmlns="http://www.w3.org/2000/svg" xml:space="preserve" width="805px" height="512px" version="1.1" style="shape-rendering:geometricPrecision; text-rendering:geometricPrecision; image-rendering:optimizeQuality; fill-rule:evenodd; clip-rule:evenodd"
viewBox="0 0 805 512"
 xmlns:xlink="http://www.w3.org/1999/xlink">
 <defs>
  <style type="text/css">
   <![CDATA[
    .fil0 {fill:black}
   ]]>
  </style>
 </defs>
 <g id="Layer_x0020_1">
  <metadata id="CorelCorpID_0Corel-Layer"/>
  <path class="fil0" d="M787 312l-117 0 -10 -221c0,-7 -6,-13 -13,-13 -7,0 -13,6 -13,13l-10 221 -440 0 -10 -221c0,-7 -6,-13 -13,-13 -7,0 -13,6 -13,13l-10 221 -120 0c-10,0 -18,8 -18,18l0 147c0,10 8,19 18,19l56 0 0 16 110 0 0 -16 439 0 0 16 110 0 0 -16 54 0c10,0 18,-9 18,-19l0 -147c0,-10 -8,-18 -18,-18zm-655 127c0,1 0,2 -1,2 0,1 -1,1 -1,1 -1,1 -2,1 -3,1 -2,0 -3,0 -5,0 -2,0 -4,0 -5,0 -1,0 -2,0 -3,-1 -1,0 -1,0 -2,-1 0,0 0,-1 0,-2l-12 -45 0 0 -11 45c0,1 0,2 -1,2 0,1 -1,1 -1,1 -1,1 -2,1 -3,1 -1,0 -3,0 -5,0 -2,0 -4,0 -5,0 -1,0 -3,0 -3,-1 -1,0 -2,0 -2,-1 0,0 0,-1 -1,-2l-16 -63c0,-1 0,-2 -1,-3 0,-1 1,-1 1,-2 1,0 1,0 2,0 1,0 3,0 5,0 1,0 3,0 4,0 1,0 2,0 2,0 1,0 1,1 1,1 0,0 1,1 1,2l12 55 0 0 13 -55c1,-1 1,-1 1,-2 0,0 1,-1 1,-1 1,0 2,0 3,0 1,0 2,0 4,0 1,0 3,0 4,0 1,0 2,0 2,0 1,0 1,1 2,1 0,1 0,1 0,2l14 55 0 0 12 -55c0,-1 1,-1 1,-2 0,0 0,-1 1,-1 0,0 1,0 2,0 1,0 2,0 4,0 2,0 3,0 4,0 1,0 1,0 2,0 0,1 0,1 0,2 0,1 0,2 0,4l-17 62zm41 2c0,0 0,1 0,1 -1,0 -1,0 -1,1 -1,0 -2,0 -3,0 0,0 -2,0 -3,0 -1,0 -2,0 -3,0 -1,0 -2,0 -2,0 -1,-1 -1,-1 -2,-1 0,0 0,-1 0,-1l0 -50c0,0 0,0 0,-1 1,0 1,0 2,0 0,0 1,-1 2,-1 1,0 2,0 3,0 1,0 3,0 3,0 1,0 2,1 3,1 0,0 0,0 1,0 0,1 0,1 0,1l0 50zm1 -66c0,2 0,4 -2,5 -1,1 -3,2 -6,2 -3,0 -5,-1 -6,-2 -1,-1 -2,-3 -2,-5 0,-3 1,-5 2,-6 1,-1 3,-2 6,-2 3,0 5,1 6,2 2,1 2,3 2,6zm54 2c0,1 0,2 0,3 0,0 0,1 -1,2 0,0 0,0 0,1 0,0 -1,0 -1,0l-24 0 0 19 22 0c1,0 1,0 1,0 1,1 1,1 1,1 0,1 0,1 0,2 1,1 1,2 1,3 0,1 0,2 -1,3 0,0 0,1 0,2 0,0 0,0 -1,1 0,0 0,0 -1,0l-22 0 0 27c0,0 0,0 0,1 0,0 -1,0 -1,0 -1,1 -1,1 -2,1 -1,0 -2,0 -4,0 -1,0 -3,0 -3,0 -1,0 -2,0 -3,-1 0,0 -1,0 -1,0 0,-1 0,-1 0,-1l0 -65c0,-2 0,-3 1,-4 1,-1 2,-1 3,-1l34 0c0,0 1,0 1,0 0,0 0,1 0,1 1,1 1,1 1,2 0,1 0,2 0,3zm25 64c0,0 0,1 0,1 0,0 -1,0 -1,1 -1,0 -2,0 -3,0 0,0 -2,0 -3,0 -1,0 -2,0 -3,0 -1,0 -2,0 -2,0 -1,-1 -1,-1 -2,-1 0,0 0,-1 0,-1l0 -50c0,0 0,0 0,-1 1,0 1,0 2,0 0,0 1,-1 2,-1 1,0 2,0 3,0 1,0 3,0 3,0 1,0 2,1 3,1 0,0 1,0 1,0 0,1 0,1 0,1l0 50zm1 -66c0,2 0,4 -2,5 -1,1 -3,2 -6,2 -3,0 -5,-1 -6,-2 -1,-1 -2,-3 -2,-5 0,-3 1,-5 2,-6 1,-1 3,-2 6,-2 3,0 5,1 7,2 1,1 1,3 1,6zm-47 -244c12,-10 19,-26 19,-42 0,-16 -7,-31 -19,-42l-11 12c17,15 17,45 0,60l11 12zm11 12l11 12c19,-16 29,-41 29,-66 0,-25 -10,-49 -29,-66l-11 12c15,14 24,33 24,54 0,21 -9,41 -24,54zm20 23l11 12c25,-23 40,-55 40,-89 0,-34 -15,-66 -40,-89l-11 12c22,20 35,48 35,77 0,29 -13,58 -35,77zm-123 -35l11 -12c-17,-15 -17,-45 0,-60l-11 -12c-12,11 -19,26 -19,42 0,16 7,32 19,42zm-22 24l11 -12c-16,-13 -24,-33 -24,-54 0,-21 8,-40 24,-54l-11 -12c-19,17 -30,41 -30,66 0,25 11,50 30,66zm-10 11c-21,-19 -34,-48 -34,-77 0,-29 13,-57 34,-77l-11 -12c-25,23 -39,55 -39,89 0,34 14,66 39,89l11 -12zm610 -35c12,-10 19,-26 19,-42 0,-16 -7,-31 -19,-42l-11 12c17,15 17,45 0,60l11 12zm11 12l11 12c19,-16 29,-41 29,-66 0,-25 -10,-49 -29,-66l-11 12c15,14 24,33 24,54 0,21 -9,41 -24,54zm20 23l11 12c26,-23 40,-55 40,-89 0,-34 -14,-66 -40,-89l-11 12c22,20 35,48 35,77 0,29 -13,58 -35,77zm-123 -35l11 -12c-17,-15 -17,-45 0,-60l-11 -12c-12,11 -19,26 -19,42 0,16 7,32 19,42zm-22 24l11 -12c-16,-13 -24,-33 -24,-54 0,-21 8,-40 24,-54l-11 -12c-19,17 -30,41 -30,66 0,25 11,50 30,66zm-10 11c-21,-19 -34,-48 -34,-77 0,-29 13,-57 34,-77l-11 -12c-25,23 -39,55 -39,89 0,34 14,66 39,89l11 -12zm132 263c-15,0 -26,-11 -26,-25 0,-14 11,-26 26,-26 14,0 25,12 25,26 0,14 -11,25 -25,25zm-69 0c-14,0 -25,-11 -25,-25 0,-14 11,-26 25,-26 14,0 26,12 26,26 0,14 -12,25 -26,25zm-68 0c-14,0 -26,-11 -26,-25 0,-14 12,-26 26,-26 14,0 25,12 25,26 0,14 -11,25 -25,25zm-68 0c-15,0 -26,-11 -26,-25 0,-14 11,-26 26,-26 14,0 25,12 25,26 0,14 -11,25 -25,25z"/>
 </g>
</svg>
