<?xml version="1.0" encoding="UTF-8"?>
<!DOCTYPE svg PUBLIC "-//W3C//DTD SVG 1.1//EN" "http://www.w3.org/Graphics/SVG/1.1/DTD/svg11.dtd">
<!-- Creator: CorelDRAW X7 -->
<svg xmlns="http://www.w3.org/2000/svg" xml:space="preserve" width="348px" height="512px" version="1.1" style="shape-rendering:geometricPrecision; text-rendering:geometricPrecision; image-rendering:optimizeQuality; fill-rule:evenodd; clip-rule:evenodd"
viewBox="0 0 348 512"
 xmlns:xlink="http://www.w3.org/1999/xlink">
 <defs>
  <style type="text/css">
   <![CDATA[
    .fil0 {fill:black}
   ]]>
  </style>
 </defs>
 <g id="Layer_x0020_1">
  <metadata id="CorelCorpID_0Corel-Layer"/>
  <path class="fil0" d="M202 432l-10 -308c0,-10 -8,-18 -18,-18 -10,0 -18,8 -18,18l-12 374c36,0 72,0 108,0l0 -66 -50 0zm55 80l37 0 0 -90 -37 0 0 90zm-20 -333c16,-15 25,-36 25,-58 0,-22 -9,-43 -25,-57l-15 16c23,21 23,61 0,82l15 17zm15 16l15 16c25,-23 40,-55 40,-90 0,-34 -15,-67 -40,-90l-15 16c21,19 33,46 33,74 0,28 -12,55 -33,74zm28 31l14 16c35,-31 54,-75 54,-121 0,-46 -19,-90 -54,-121l-14 16c29,27 46,65 46,105 0,40 -17,78 -46,105zm-169 -47l15 -17c-23,-21 -23,-61 0,-82l-15 -16c-16,14 -25,35 -25,57 0,22 9,43 25,58zm-29 32l14 -16c-21,-19 -32,-46 -32,-74 0,-28 11,-55 32,-74l-14 -16c-26,23 -40,56 -40,90 0,35 14,67 40,90zm-14 15c-29,-27 -46,-65 -46,-105 0,-40 17,-78 47,-105l-15 -16c-35,31 -54,75 -54,121 0,46 19,90 54,121l14 -16z"/>
 </g>
</svg>
