<?xml version="1.0" encoding="UTF-8"?>
<!DOCTYPE svg PUBLIC "-//W3C//DTD SVG 1.1//EN" "http://www.w3.org/Graphics/SVG/1.1/DTD/svg11.dtd">
<!-- Creator: CorelDRAW X7 -->
<svg xmlns="http://www.w3.org/2000/svg" xml:space="preserve" width="691px" height="512px" version="1.1" style="shape-rendering:geometricPrecision; text-rendering:geometricPrecision; image-rendering:optimizeQuality; fill-rule:evenodd; clip-rule:evenodd"
viewBox="0 0 691 512"
 xmlns:xlink="http://www.w3.org/1999/xlink">
 <defs>
  <style type="text/css">
   <![CDATA[
    .fil0 {fill:black}
   ]]>
  </style>
 </defs>
 <g id="Layer_x0020_1">
  <metadata id="CorelCorpID_0Corel-Layer"/>
  <polygon class="fil0" points="88,441 117,441 117,371 88,371 "/>
  <path class="fil0" d="M45 378l-8 -364c0,-8 -6,-14 -13,-14 -8,0 -14,6 -14,14l-10 416c28,0 56,0 84,0l0 -52 -39 0z"/>
  <polygon class="fil0" points="144,359 144,283 121,283 121,228 144,228 144,108 104,108 104,93 159,93 159,507 144,507 144,460 121,460 121,359 "/>
  <path class="fil0" d="M669 227l-498 0 0 250 124 0 0 35 130 0 0 -35 21 0 0 35 222 0 0 -35 0 0c19,0 23,-15 23,-34l0 -181c0,-19 -2,-35 -22,-35zm-385 163c-1,1 -1,2 -1,2 -1,1 -1,1 -2,1 -1,1 -2,1 -3,1 -1,0 -3,0 -4,0 -3,0 -4,0 -5,0 -2,0 -3,0 -3,-1 -1,0 -2,0 -2,-1 0,0 0,-1 -1,-2l-11 -44 0 0 -10 44c-1,1 -1,2 -1,2 -1,1 -1,1 -2,1 0,1 -1,1 -3,1 -1,0 -2,0 -4,0 -2,0 -4,0 -5,0 -2,0 -3,0 -3,-1 -1,0 -1,0 -2,-1 0,0 0,-1 -1,-2l-15 -61c-1,-1 -1,-2 -1,-3 0,0 0,-1 1,-1 0,-1 1,-1 2,-1 1,0 2,0 4,0 2,0 3,0 4,0 1,0 2,0 2,0 1,1 1,1 1,1 1,1 1,1 1,2l12 53 0 0 13 -53c0,-1 0,-1 0,-1 1,-1 1,-1 2,-1 0,-1 1,-1 2,-1 1,0 2,0 4,0 1,0 3,0 4,0 1,0 2,0 2,0 1,1 1,1 1,1 1,1 1,1 1,2l13 53 0 0 12 -53c0,-1 1,-1 1,-2 0,0 0,0 1,0 0,-1 1,-1 2,-1 1,0 2,0 4,0 1,0 3,0 4,0 0,0 1,0 2,1 0,0 0,1 0,1 0,1 0,2 -1,4l-15 60zm40 2c0,0 0,1 0,1 0,0 -1,0 -1,1 -1,0 -1,0 -2,0 -1,0 -2,0 -4,0 -1,0 -2,0 -3,0 -1,0 -2,0 -2,0 -1,-1 -1,-1 -2,-1 0,0 0,-1 0,-1l0 -66c0,0 0,-1 0,-1 1,0 1,0 2,-1 0,0 1,0 2,0 1,0 2,0 3,0 2,0 3,0 4,0 1,0 1,0 2,0 0,1 1,1 1,1 0,0 0,1 0,1l0 66zm67 0c0,0 0,1 0,1 0,0 0,0 -1,1 -1,0 -1,0 -2,0 -1,0 -3,0 -5,0 -1,0 -2,0 -3,0 -1,0 -2,0 -2,0 -1,-1 -1,-1 -1,-1 -1,0 -1,-1 -1,-1l-6 -16c-1,-2 -2,-3 -2,-5 -1,-1 -2,-2 -3,-3 -1,-1 -2,-2 -3,-2 -1,0 -2,-1 -4,-1l-4 0 0 27c0,0 0,1 -1,1 0,0 0,0 -1,1 0,0 -1,0 -2,0 -1,0 -2,0 -3,0 -2,0 -3,0 -4,0 -1,0 -1,0 -2,0 -1,-1 -1,-1 -1,-1 0,0 0,-1 0,-1l0 -63c0,-2 0,-3 1,-4 1,0 2,-1 3,-1l18 0c2,0 3,0 4,0 1,0 3,0 3,1 3,0 6,1 8,2 2,1 4,2 6,3 1,2 3,4 3,6 1,2 2,5 2,7 0,3 -1,5 -1,7 -1,2 -2,3 -3,5 -1,1 -2,3 -4,4 -2,1 -4,2 -6,2 1,1 2,1 3,2 1,1 2,2 3,3 0,1 1,2 2,3 1,2 1,3 2,5l6 13c0,2 1,3 1,3 0,1 0,2 0,2zm-18 -47c0,-3 -1,-5 -2,-6 -1,-2 -2,-3 -5,-3 0,-1 -1,-1 -2,-1 -1,0 -2,0 -4,0l-6 0 0 20 7 0c2,0 4,-1 5,-1 2,-1 3,-1 4,-2 1,-1 2,-2 2,-3 1,-1 1,-3 1,-4zm70 43c0,1 0,2 0,3 0,1 -1,1 -1,2 0,0 0,0 0,0 -1,1 -1,1 -1,1l-35 0c-1,0 -2,-1 -3,-1 -1,-1 -1,-2 -1,-4l0 -60c0,-2 0,-3 1,-4 1,0 2,-1 3,-1l35 0c0,0 0,0 0,0 1,1 1,1 1,1 0,1 0,1 0,2 1,1 1,2 1,3 0,1 0,2 -1,2 0,1 0,2 0,2 0,1 0,1 -1,1 0,0 0,0 0,0l-25 0 0 17 21 0c0,0 0,0 0,1 1,0 1,0 1,0 0,1 0,1 1,2 0,1 0,2 0,3 0,1 0,2 0,2 -1,1 -1,2 -1,2 0,0 0,1 -1,1 0,0 0,0 0,0l-21 0 0 20 25 0c0,0 0,0 1,0 0,0 0,0 0,1 0,0 1,1 1,2 0,0 0,1 0,2zm51 0c0,1 0,2 -1,3 0,0 0,1 0,1 0,1 0,1 -1,1 0,1 0,1 -1,1l-31 0c-2,0 -3,-1 -3,-1 -1,-1 -2,-2 -2,-4l0 -63c0,0 0,-1 1,-1 0,0 0,0 1,-1 0,0 1,0 2,0 1,0 2,0 3,0 2,0 3,0 4,0 1,0 1,0 2,0 1,1 1,1 1,1 0,0 1,1 1,1l0 56 21 0c1,0 1,0 1,0 1,1 1,1 1,1 0,1 0,1 0,2 1,1 1,2 1,3zm49 0c0,1 0,2 0,3 0,1 0,1 0,2 -1,0 -1,0 -1,0 0,1 -1,1 -1,1l-35 0c-1,0 -2,-1 -3,-1 -1,-1 -1,-2 -1,-4l0 -60c0,-2 0,-3 1,-4 1,0 2,-1 3,-1l35 0c0,0 0,0 1,0 0,1 0,1 0,1 1,1 1,1 1,2 0,1 0,2 0,3 0,1 0,2 0,2 0,1 0,2 -1,2 0,1 0,1 0,1 -1,0 -1,0 -1,0l-25 0 0 17 21 0c0,0 1,0 1,1 0,0 0,0 1,0 0,1 0,1 0,2 0,1 0,2 0,3 0,1 0,2 0,2 0,1 0,2 0,2 -1,0 -1,1 -1,1 0,0 -1,0 -1,0l-21 0 0 20 25 0c0,0 1,0 1,0 0,0 0,0 1,1 0,0 0,1 0,2 0,0 0,1 0,2zm53 -15c0,4 -1,7 -2,10 -2,2 -3,5 -6,6 -2,2 -5,4 -8,5 -3,1 -6,1 -10,1 -2,0 -5,0 -7,-1 -2,0 -3,0 -5,-1 -2,-1 -3,-1 -4,-2 -1,0 -2,-1 -2,-1 -1,-1 -1,-2 -1,-2 -1,-1 -1,-3 -1,-4 0,-1 0,-2 1,-3 0,-1 0,-1 0,-2 0,0 0,-1 1,-1 0,0 0,0 0,0 1,0 2,0 3,1 1,0 2,1 3,2 2,0 3,1 5,2 2,0 5,1 7,1 2,0 3,-1 5,-1 1,0 2,-1 3,-2 1,-1 2,-1 3,-3 0,-1 0,-2 0,-3 0,-2 0,-3 -1,-4 -1,-1 -2,-2 -3,-3 -2,-1 -3,-2 -5,-3 -2,-1 -4,-1 -6,-2 -1,-1 -3,-2 -5,-3 -2,-1 -3,-3 -5,-4 -1,-2 -2,-3 -3,-5 -1,-3 -1,-5 -1,-8 0,-3 0,-6 1,-9 2,-2 3,-4 5,-6 3,-2 5,-3 8,-4 3,-1 6,-1 9,-1 2,0 3,0 5,0 2,1 3,1 5,1 1,1 2,1 3,2 1,0 2,1 3,1 0,1 0,1 0,1 0,0 1,1 1,1 0,1 0,1 0,2 0,0 0,1 0,2 0,1 0,2 0,3 0,0 0,1 -1,1 0,1 0,1 0,1 0,1 -1,1 -1,1 0,0 -1,-1 -2,-1 -1,0 -2,-1 -3,-2 -1,0 -3,-1 -4,-1 -2,-1 -4,-1 -6,-1 -1,0 -3,0 -4,1 -1,0 -2,0 -3,1 -1,1 -1,2 -1,3 -1,0 -1,1 -1,2 0,2 0,3 1,4 1,2 2,3 4,4 1,0 3,1 4,2 2,1 4,2 6,2 2,1 4,2 5,3 2,1 4,3 5,4 2,2 3,4 4,6 0,2 1,4 1,7zm52 0c0,4 -1,7 -2,10 -1,2 -3,5 -6,6 -2,2 -5,4 -8,5 -3,1 -6,1 -10,1 -2,0 -4,0 -7,-1 -2,0 -3,0 -5,-1 -2,-1 -3,-1 -4,-2 -1,0 -2,-1 -2,-1 -1,-1 -1,-2 -1,-2 0,-1 -1,-3 -1,-4 0,-1 1,-2 1,-3 0,-1 0,-1 0,-2 0,0 0,-1 1,-1 0,0 0,0 1,0 0,0 1,0 2,1 1,0 2,1 3,2 2,0 3,1 5,2 2,0 5,1 7,1 2,0 4,-1 5,-1 1,0 2,-1 3,-2 1,-1 2,-1 3,-3 0,-1 0,-2 0,-3 0,-2 0,-3 -1,-4 -1,-1 -2,-2 -3,-3 -2,-1 -3,-2 -5,-3 -2,-1 -4,-1 -5,-2 -2,-1 -4,-2 -6,-3 -2,-1 -3,-3 -5,-4 -1,-2 -2,-3 -3,-5 -1,-3 -1,-5 -1,-8 0,-3 0,-6 2,-9 1,-2 2,-4 5,-6 2,-2 4,-3 7,-4 3,-1 6,-1 9,-1 2,0 3,0 5,0 2,1 3,1 5,1 1,1 2,1 3,2 2,0 2,1 3,1 0,1 0,1 0,1 0,0 1,1 1,1 0,1 0,1 0,2 0,0 0,1 0,2 0,1 0,2 0,3 0,0 0,1 0,1 -1,1 -1,1 -1,1 0,1 -1,1 -1,1 0,0 -1,-1 -2,-1 -1,0 -2,-1 -3,-2 -1,0 -3,-1 -4,-1 -2,-1 -4,-1 -6,-1 -1,0 -3,0 -4,1 -1,0 -2,0 -3,1 0,1 -1,2 -1,3 -1,0 -1,1 -1,2 0,2 0,3 1,4 1,2 2,3 4,4 1,0 3,1 5,2 1,1 3,2 5,2 2,1 4,2 6,3 1,1 3,3 4,4 2,2 3,4 4,6 1,2 1,4 1,7zm-329 128l-11 0 0 -25 11 0 0 25zm22 0l-11 0 0 -25 11 0 0 25zm22 0l-11 0 0 -25 11 0 0 25zm22 0l-11 0 0 -25 11 0 0 25zm23 0l-11 0 0 -25 11 0 0 25zm66 0l-11 0 0 -25 11 0 0 25zm22 0l-11 0 0 -25 11 0 0 25zm22 0l-11 0 0 -25 11 0 0 25zm22 0l-11 0 0 -25 11 0 0 25zm22 0l-11 0 0 -25 11 0 0 25zm23 0l-12 0 0 -25 12 0 0 25zm22 0l-11 0 0 -25 11 0 0 25zm22 0l-11 0 0 -25 11 0 0 25zm22 0l-11 0 0 -25 11 0 0 25z"/>
 </g>
</svg>
