<?xml version="1.0" encoding="UTF-8"?>
<!DOCTYPE svg PUBLIC "-//W3C//DTD SVG 1.1//EN" "http://www.w3.org/Graphics/SVG/1.1/DTD/svg11.dtd">
<!-- Creator: CorelDRAW X7 -->
<svg xmlns="http://www.w3.org/2000/svg" xml:space="preserve" width="835px" height="512px" version="1.1" style="shape-rendering:geometricPrecision; text-rendering:geometricPrecision; image-rendering:optimizeQuality; fill-rule:evenodd; clip-rule:evenodd"
viewBox="0 0 835 512"
 xmlns:xlink="http://www.w3.org/1999/xlink">
 <defs>
  <style type="text/css">
   <![CDATA[
    .fil0 {fill:black}
   ]]>
  </style>
 </defs>
 <g id="Layer_x0020_1">
  <metadata id="CorelCorpID_0Corel-Layer"/>
  <path class="fil0" d="M811 0c-390,0 -374,0 -769,0 -23,0 -42,19 -42,42l0 402c0,22 19,42 42,42l57 0 0 26 160 0 0 -26 338 0 0 26 160 0 0 -26 54 0c23,0 42,-20 42,-42l0 -402c0,-23 -19,-42 -42,-42zm-177 210l0 -125 138 0 0 125 -138 0zm121 -85l-16 0 0 -13 -20 0 0 -13 -32 0 0 13 -20 0 0 13 -16 0 0 71 13 0 0 -17 11 0 0 17 11 0 0 -17 11 0 0 17 12 0 0 -17 11 0 0 17 11 0 0 -17 11 0 0 17 13 0 0 -71 0 0zm-303 85l0 -125 138 0 0 125 -138 0zm121 -85l-16 0 0 -13 -20 0 0 -13 -32 0 0 13 -20 0 0 13 -16 0 0 71 13 0 0 -17 11 0 0 17 12 0 0 -17 10 0 0 17 12 0 0 -17 11 0 0 17 11 0 0 -17 11 0 0 17 13 0 0 -71 0 0zm-303 85l0 -125 138 0 0 125 -138 0zm122 -85l-16 0 0 -13 -21 0 0 -13 -32 0 0 13 -20 0 0 13 -16 0 0 71 13 0 0 -17 11 0 0 17 12 0 0 -17 10 0 0 17 12 0 0 -17 11 0 0 17 11 0 0 -17 11 0 0 17 13 0 0 -71 1 0zm-303 85l0 -125 138 0 0 125 -138 0zm121 -85l-16 0 0 -13 -20 0 0 -13 -32 0 0 13 -21 0 0 13 -16 0 0 71 14 0 0 -17 11 0 0 17 11 0 0 -17 11 0 0 17 11 0 0 -17 11 0 0 17 12 0 0 -17 11 0 0 17 13 0 0 -71 0 0zm424 153l0 125 138 0 0 -125 -138 0zm121 85l-16 0 0 13 -20 0 0 13 -32 0 0 -13 -20 0 0 -13 -16 0 0 -71 13 0 0 17 11 0 0 -17 11 0 0 17 11 0 0 -17 12 0 0 17 11 0 0 -17 11 0 0 17 11 0 0 -17 13 0 0 71 0 0zm-303 -85l0 125 138 0 0 -125 -138 0zm121 85l-16 0 0 13 -20 0 0 13 -32 0 0 -13 -20 0 0 -13 -16 0 0 -71 13 0 0 17 11 0 0 -17 12 0 0 17 10 0 0 -17 12 0 0 17 11 0 0 -17 11 0 0 17 11 0 0 -17 13 0 0 71 0 0zm-303 -85l0 125 138 0 0 -125 -138 0zm122 85l-16 0 0 13 -21 0 0 13 -32 0 0 -13 -20 0 0 -13 -16 0 0 -71 13 0 0 17 11 0 0 -17 12 0 0 17 10 0 0 -17 12 0 0 17 11 0 0 -17 11 0 0 17 11 0 0 -17 13 0 0 71 1 0zm-303 -85l0 125 138 0 0 -125 -138 0zm121 85l-16 0 0 13 -20 0 0 13 -32 0 0 -13 -21 0 0 -13 -16 0 0 -71 14 0 0 17 11 0 0 -17 11 0 0 17 11 0 0 -17 11 0 0 17 11 0 0 -17 12 0 0 17 11 0 0 -17 13 0 0 71 0 0z"/>
 </g>
</svg>
