<?xml version="1.0" encoding="UTF-8"?>
<!DOCTYPE svg PUBLIC "-//W3C//DTD SVG 1.1//EN" "http://www.w3.org/Graphics/SVG/1.1/DTD/svg11.dtd">
<!-- Creator: CorelDRAW X7 -->
<svg xmlns="http://www.w3.org/2000/svg" xml:space="preserve" width="518px" height="512px" version="1.1" style="shape-rendering:geometricPrecision; text-rendering:geometricPrecision; image-rendering:optimizeQuality; fill-rule:evenodd; clip-rule:evenodd"
viewBox="0 0 518 512"
 xmlns:xlink="http://www.w3.org/1999/xlink">
 <defs>
  <style type="text/css">
   <![CDATA[
    .fil1 {fill:black}
    .fil0 {fill:black}
   ]]>
  </style>
 </defs>
 <g id="Layer_x0020_1">
  <metadata id="CorelCorpID_0Corel-Layer"/>
  <path class="fil0" d="M90 433l0 18c0,19 30,19 30,0l0 -18c0,-19 -30,-19 -30,0z"/>
  <path class="fil0" d="M142 433l0 18c0,19 29,19 29,0l0 -18c0,-19 -29,-19 -29,0z"/>
  <path class="fil1" d="M393 411l27 30c62,-56 98,-136 98,-220 0,-84 -36,-164 -98,-220l-27 29c54,49 84,118 84,191 0,72 -31,142 -84,190z"/>
  <path class="fil1" d="M342 355l27 30c46,-42 73,-101 73,-164 0,-63 -27,-122 -73,-165l-27 31c38,34 60,83 60,134 0,51 -22,100 -60,134z"/>
  <path class="fil1" d="M315 325c30,-26 46,-64 46,-104 0,-40 -16,-78 -46,-104l-27 29c42,38 42,112 0,149l27 30z"/>
  <path class="fil0" d="M229 0l-199 0 0 34 -30 0 0 374 35 0 0 104 192 0 0 -104 35 0 0 -374 -33 0 0 -34zm-115 239c0,3 0,6 -1,8 -1,1 -2,2 -3,2l-11 0 0 23c0,1 0,1 -1,2 0,0 -1,1 -2,1 -1,0 -2,1 -4,1 -1,0 -3,0 -6,0 -2,0 -4,0 -6,0 -1,0 -2,-1 -3,-1 -1,0 -2,-1 -2,-1 -1,-1 -1,-1 -1,-2l0 -23 -48 0c-1,0 -2,0 -3,0 0,0 -1,-1 -1,-2 -1,-1 -1,-2 -2,-3 0,-2 0,-4 0,-6 0,-3 0,-4 0,-6 0,-1 1,-3 1,-4 0,-1 0,-2 1,-4 0,-1 1,-2 1,-3l40 -69c0,-1 1,-1 1,-2 1,0 2,-1 4,-1 1,0 3,0 5,0 2,-1 5,-1 8,-1 3,0 6,0 8,1 3,0 4,0 6,0 1,1 2,1 3,2 1,0 1,1 1,2l0 76 11 0c1,0 2,0 3,2 1,2 1,4 1,8zm-40 -68l0 0 -33 58 33 0 0 -58zm159 -2c0,1 0,3 0,4 0,2 -1,3 -1,4 0,1 0,1 -1,1 0,1 -1,1 -1,1 -1,0 -3,-1 -4,-2 -2,-1 -5,-2 -8,-4 -3,-1 -7,-2 -11,-4 -5,-1 -10,-1 -15,-1 -6,0 -12,1 -17,3 -5,2 -9,5 -13,9 -3,4 -6,8 -8,14 -2,5 -2,11 -2,18 0,7 0,14 2,19 2,6 5,10 8,14 4,4 8,6 13,8 5,2 10,3 16,3 3,0 6,0 8,-1 3,-1 6,-2 8,-3l0 -29 -24 0c-1,0 -2,-1 -2,-2 -1,-2 -1,-4 -1,-8 0,-2 0,-3 0,-5 0,-1 0,-2 1,-2 0,-1 0,-2 1,-2 0,-1 1,-1 1,-1l43 0c1,0 2,0 3,1 1,0 1,1 2,1 1,1 1,2 1,3 1,1 1,2 1,4l0 50c0,2 0,4 -1,5 -1,2 -2,3 -4,4 -2,0 -5,1 -8,2 -3,1 -7,2 -10,3 -3,0 -7,1 -10,1 -3,0 -7,1 -10,1 -10,0 -20,-2 -28,-5 -7,-3 -14,-7 -20,-12 -5,-6 -10,-13 -12,-21 -3,-8 -5,-16 -5,-27 0,-10 2,-19 5,-27 3,-9 7,-16 13,-21 6,-6 13,-11 21,-14 8,-3 17,-4 27,-4 5,0 10,0 15,1 4,1 8,2 12,3 3,1 6,2 8,3 2,1 4,2 5,3 1,1 1,3 2,4 0,2 0,4 0,8zm-169 314l0 -75 134 0 0 75 -134 0z"/>
 </g>
</svg>
