<?xml version="1.0" encoding="UTF-8"?>
<!DOCTYPE svg PUBLIC "-//W3C//DTD SVG 1.1//EN" "http://www.w3.org/Graphics/SVG/1.1/DTD/svg11.dtd">
<!-- Creator: CorelDRAW X7 -->
<svg xmlns="http://www.w3.org/2000/svg" xml:space="preserve" width="767px" height="512px" version="1.1" style="shape-rendering:geometricPrecision; text-rendering:geometricPrecision; image-rendering:optimizeQuality; fill-rule:evenodd; clip-rule:evenodd"
viewBox="0 0 767 512"
 xmlns:xlink="http://www.w3.org/1999/xlink">
 <defs>
  <style type="text/css">
   <![CDATA[
    .fil1 {fill:black}
    .fil0 {fill:black}
   ]]>
  </style>
 </defs>
 <g id="Layer_x0020_1">
  <metadata id="CorelCorpID_0Corel-Layer"/>
  <path class="fil0" d="M743 326l-719 0c-13,0 -24,11 -24,24l0 120c0,13 11,24 24,24l12 0 0 18 84 0 0 -18 515 0 0 18 84 0 0 -18 24 0c13,0 24,-11 24,-24l0 -120c0,-13 -11,-24 -24,-24zm-372 84l-323 0 0 -36 323 0 0 36zm144 22l0 -55 48 27 -48 28zm132 2l-24 0 0 -60 24 0 0 60zm36 0l-24 0 0 -60 24 0 0 60z"/>
  <path class="fil1" d="M199 28l0 -10 -35 0 0 -18 97 0 0 18 -35 0 0 10 -27 0zm34 7l0 61 -1 0c-7,-20 -22,-35 -40,-39l0 -22 41 0zm-171 70c0,0 0,0 0,0 4,4 8,8 12,13 22,28 36,44 47,52 0,0 0,0 0,0 0,0 0,0 0,1 14,11 24,11 36,7 15,-5 67,-39 74,-44 0,0 -1,-1 -1,-2 0,-39 -25,-70 -55,-71l-132 29c6,3 12,8 19,15 0,0 0,0 0,0zm148 6c7,0 12,6 12,13 0,6 -5,12 -12,12 -7,0 -12,-6 -12,-12 0,-7 5,-13 12,-13zm5 13c0,2 -2,5 -5,5 -3,0 -5,-3 -5,-5 0,-3 2,-6 5,-6 3,0 5,3 5,6zm-163 -18c-11,-11 -22,-14 -31,-11 -12,3 -19,18 -21,26 -1,9 2,26 14,33 6,-24 21,-42 38,-48zm14 43c-9,0 -18,15 -18,32 0,18 9,32 18,32 10,0 19,-14 19,-32 0,-17 -9,-32 -19,-32zm13 30c0,3 2,22 -10,27 -1,0 -1,0 -2,0 -1,0 -3,0 -3,-2 -1,-2 0,-4 2,-5 6,-2 6,-15 6,-19 0,-2 1,-4 3,-4 2,0 4,1 4,3zm36 -4c-11,-9 -25,-25 -47,-53 -3,-4 -6,-7 -10,-11 -17,5 -32,23 -38,48 0,0 0,1 0,2 0,0 0,0 0,0 -2,7 -2,13 -2,20 0,40 29,67 56,67 2,0 4,0 6,0l10 -4c16,-9 25,-32 25,-63 0,-2 0,-4 0,-6zm-49 45c-14,0 -25,-17 -25,-39 0,-22 11,-39 25,-39 15,0 26,17 26,39 0,22 -11,39 -26,39zm78 -32c-7,0 -14,-2 -22,-8 0,1 0,1 0,1 0,24 -5,44 -14,57l90 -35c18,-9 30,-32 32,-59 -15,10 -56,36 -70,41 -6,1 -11,3 -16,3z"/>
  <path class="fil1" d="M452 28l0 -10 -35 0 0 -18 97 0 0 18 -35 0 -1 10 -26 0zm34 7l0 61 -1 0c-8,-20 -22,-35 -40,-39l0 -22 41 0zm-171 70c0,0 0,0 0,0 4,4 7,8 11,13 23,28 36,44 47,52 0,0 0,0 0,0 0,0 0,0 0,1 15,11 24,11 37,7 15,-5 67,-39 74,-44 -1,0 -1,-1 -1,-2 0,-39 -25,-70 -56,-71l-132 29c6,3 13,8 20,15 0,0 0,0 0,0zm148 6c6,0 12,6 12,13 0,6 -6,12 -12,12 -7,0 -13,-6 -13,-12 0,-7 6,-13 13,-13zm5 13c0,2 -3,5 -5,5 -3,0 -6,-3 -6,-5 0,-3 3,-6 6,-6 2,0 5,3 5,6zm-163 -18c-12,-11 -22,-14 -31,-11 -13,3 -19,18 -21,26 -2,9 2,26 13,33 7,-24 21,-42 39,-48zm14 43c-10,0 -18,15 -18,32 0,18 8,32 18,32 10,0 18,-14 18,-32 0,-17 -8,-32 -18,-32zm13 30c0,3 1,22 -11,27 0,0 -1,0 -1,0 -2,0 -3,0 -4,-2 0,-2 1,-4 2,-5 7,-2 7,-15 7,-19 0,-2 1,-4 3,-4 2,0 4,1 4,3zm35 -4c-11,-9 -24,-25 -46,-53 -4,-4 -7,-7 -10,-11 -18,5 -33,23 -38,48 0,0 0,1 0,2 -1,0 -1,0 -1,0 -1,7 -2,13 -2,20 0,40 30,67 56,67 2,0 5,0 7,0l9 -4c16,-9 26,-32 26,-63 0,-2 0,-4 -1,-6zm-48 45c-14,0 -25,-17 -25,-39 0,-22 11,-39 25,-39 14,0 25,17 25,39 0,22 -11,39 -25,39zm77 -32c-6,0 -13,-2 -21,-8 0,1 0,1 0,1 0,24 -5,44 -15,57l91 -35c17,-9 30,-32 32,-59 -16,10 -57,36 -71,41 -5,1 -10,3 -16,3z"/>
  <path class="fil1" d="M705 28l0 -10 -35 0 0 -18 97 0 -1 18 -35 0 0 10 -26 0zm34 7l0 61 -1 0c-8,-20 -23,-35 -40,-39l0 -22 41 0zm-172 70c0,0 0,0 0,0 4,4 8,8 12,13 22,28 36,44 47,52 0,0 0,0 0,0 0,0 0,0 0,1 15,11 24,11 37,7 15,-5 67,-39 73,-44 0,0 0,-1 0,-2 0,-39 -25,-70 -56,-71l-132 29c6,3 13,8 19,15 0,0 0,0 0,0zm148 6c7,0 13,6 13,13 0,6 -6,12 -13,12 -6,0 -12,-6 -12,-12 0,-7 6,-13 12,-13zm5 13c0,2 -2,5 -5,5 -2,0 -5,-3 -5,-5 0,-3 3,-6 5,-6 3,0 5,3 5,6zm-162 -18c-12,-11 -22,-14 -32,-11 -12,3 -19,18 -20,26 -2,9 2,26 13,33 7,-24 21,-42 39,-48zm14 43c-10,0 -18,15 -18,32 0,18 8,32 18,32 10,0 18,-14 18,-32 0,-17 -8,-32 -18,-32zm13 30c0,3 1,22 -11,27 0,0 -1,0 -1,0 -2,0 -3,0 -4,-2 0,-2 0,-4 2,-5 6,-2 7,-15 6,-19 0,-2 2,-4 4,-4 2,0 4,1 4,3zm35 -4c-11,-9 -25,-25 -47,-53 -3,-4 -6,-7 -9,-11 -18,5 -33,23 -39,48 1,0 1,1 0,2 0,0 0,0 0,0 -1,7 -2,13 -2,20 0,40 29,67 56,67 2,0 5,0 7,0l9 -4c16,-9 26,-32 26,-63 0,-2 -1,-4 -1,-6zm-48 45c-14,0 -26,-17 -26,-39 0,-22 12,-39 26,-39 14,0 25,17 25,39 0,22 -11,39 -25,39zm77 -32c-7,0 -13,-2 -21,-8 0,1 0,1 0,1 0,24 -6,44 -15,57l91 -35c17,-9 30,-32 31,-59 -15,10 -56,36 -70,41 -5,1 -11,3 -16,3z"/>
 </g>
</svg>
