<?xml version="1.0" encoding="UTF-8"?>
<!DOCTYPE svg PUBLIC "-//W3C//DTD SVG 1.1//EN" "http://www.w3.org/Graphics/SVG/1.1/DTD/svg11.dtd">
<!-- Creator: CorelDRAW X7 -->
<svg xmlns="http://www.w3.org/2000/svg" xml:space="preserve" width="538px" height="512px" version="1.1" style="shape-rendering:geometricPrecision; text-rendering:geometricPrecision; image-rendering:optimizeQuality; fill-rule:evenodd; clip-rule:evenodd"
viewBox="0 0 538 512"
 xmlns:xlink="http://www.w3.org/1999/xlink">
 <defs>
  <style type="text/css">
   <![CDATA[
    .fil0 {fill:black}
   ]]>
  </style>
 </defs>
 <g id="Layer_x0020_1">
  <metadata id="CorelCorpID_0Corel-Layer"/>
  <path class="fil0" d="M410 58l1 -21 -73 0 1 -37 199 0 0 37 -72 0 -1 21 -55 0zm70 14l0 127 -1 0c-16,-42 -46,-72 -82,-81l0 -46 83 0zm-352 144c0,0 0,0 0,0 8,8 16,17 24,27 46,59 74,90 97,108 0,0 0,0 0,0 0,0 0,0 0,0 30,24 49,24 75,15 31,-10 138,-79 152,-89 -1,-1 -2,-3 -2,-5 0,-80 -51,-145 -114,-146l-272 60c13,6 26,16 40,30 0,0 0,0 0,0zm305 13c14,0 25,12 25,26 0,14 -11,25 -25,25 -14,0 -26,-11 -26,-25 0,-14 12,-26 26,-26zm10 26c0,5 -5,10 -10,10 -6,0 -11,-5 -11,-10 0,-6 5,-11 11,-11 5,0 10,5 10,11zm-335 -37c-24,-21 -46,-29 -65,-23 -25,8 -39,37 -42,54 -4,18 3,55 28,69 13,-50 42,-87 79,-100zm29 89c-21,0 -38,31 -38,66 0,36 17,66 38,66 20,0 37,-30 37,-66 0,-35 -17,-66 -37,-66zm26 62c1,5 3,46 -22,56 -1,0 -1,0 -2,0 -3,0 -6,-1 -7,-4 -2,-4 0,-8 4,-10 12,-5 13,-32 13,-40 -1,-5 2,-8 6,-8 5,-1 8,2 8,6zm74 -8c-23,-20 -52,-51 -97,-109 -6,-8 -13,-16 -20,-22 -36,8 -67,46 -79,97 1,2 1,3 0,4 0,1 0,1 -1,1 -2,14 -4,27 -4,41 0,82 61,139 116,139 4,0 9,-1 14,-2l19 -7c33,-19 52,-65 52,-130 0,-4 0,-8 0,-12zm-100 93c-30,0 -53,-35 -53,-81 0,-45 23,-81 53,-81 29,0 52,36 52,81 0,46 -23,81 -52,81zm159 -67c-14,0 -28,-5 -44,-15 0,0 0,1 0,1 0,50 -11,90 -30,116l187 -70c36,-19 61,-68 65,-123 -32,21 -116,75 -145,84 -11,4 -22,7 -33,7z"/>
 </g>
</svg>
