<?xml version="1.0" encoding="UTF-8"?>
<!DOCTYPE svg PUBLIC "-//W3C//DTD SVG 1.1//EN" "http://www.w3.org/Graphics/SVG/1.1/DTD/svg11.dtd">
<!-- Creator: CorelDRAW X7 -->
<svg xmlns="http://www.w3.org/2000/svg" xml:space="preserve" width="1445px" height="512px" version="1.1" style="shape-rendering:geometricPrecision; text-rendering:geometricPrecision; image-rendering:optimizeQuality; fill-rule:evenodd; clip-rule:evenodd"
viewBox="0 0 1445 512"
 xmlns:xlink="http://www.w3.org/1999/xlink">
 <defs>
  <style type="text/css">
   <![CDATA[
    .fil1 {fill:black}
    .fil0 {fill:black}
   ]]>
  </style>
 </defs>
 <g id="Layer_x0020_1">
  <metadata id="CorelCorpID_0Corel-Layer"/>
  <path class="fil0" d="M1381 101l-1317 0c-35,0 -64,29 -64,64l0 174c0,36 29,64 64,64l32 0 0 48 223 0 0 -48 774 0 0 48 224 0 0 -48 64 0c35,0 64,-28 64,-64l0 -174c0,-35 -29,-64 -64,-64zm-632 224l-621 0 0 -145 621 0 0 145zm160 9l0 -148 128 74 -128 74zm323 6l-64 0 0 -160 64 0 0 160zm96 0l-64 0 0 -160 64 0 0 160z"/>
  <path class="fil1" d="M531 200c-29,0 -52,23 -52,52 0,15 7,29 18,38l-99 0c10,-9 17,-23 17,-38 0,-29 -23,-52 -51,-52 -29,0 -52,23 -52,52 0,28 23,51 52,51l167 0c28,0 51,-23 51,-51 0,-29 -23,-52 -51,-52zm-167 90c-21,0 -39,-17 -39,-38 0,-22 18,-39 39,-39 21,0 38,17 38,39 0,21 -17,38 -38,38zm167 0c-22,0 -39,-17 -39,-38 0,-22 17,-39 39,-39 21,0 38,17 38,39 0,21 -17,38 -38,38z"/>
 </g>
</svg>
