<?xml version="1.0" encoding="UTF-8"?>
<!DOCTYPE svg PUBLIC "-//W3C//DTD SVG 1.1//EN" "http://www.w3.org/Graphics/SVG/1.1/DTD/svg11.dtd">
<!-- Creator: CorelDRAW X7 -->
<svg xmlns="http://www.w3.org/2000/svg" xml:space="preserve" width="512px" height="512px" version="1.1" style="shape-rendering:geometricPrecision; text-rendering:geometricPrecision; image-rendering:optimizeQuality; fill-rule:evenodd; clip-rule:evenodd"
viewBox="0 0 512 512"
 xmlns:xlink="http://www.w3.org/1999/xlink">
 <defs>
  <style type="text/css">
   <![CDATA[
    .fil0 {fill:black}
   ]]>
  </style>
 </defs>
 <g id="Layer_x0020_1">
  <metadata id="CorelCorpID_0Corel-Layer"/>
  <path class="fil0" d="M214 198l0 31c0,25 -20,45 -45,45 -24,0 -45,-20 -45,-45l0 -76c-43,-17 -92,1 -114,43 -23,45 -5,101 40,124l148 76 84 -163 -68 -35z"/>
  <path class="fil0" d="M431 277c-4,-8 -12,-13 -21,-15l-101 -15 -84 163 72 73c6,6 16,9 25,8 9,-1 17,-7 21,-15l88 -173c4,-8 4,-17 0,-26z"/>
  <path class="fil0" d="M169 252c13,0 23,-11 23,-23l0 -207c0,-12 -10,-22 -23,-22 -12,0 -22,10 -22,22l0 207c0,12 10,23 22,23z"/>
  <path class="fil0" d="M363 461c14,-11 29,-33 42,-58 13,-26 21,-52 23,-69l0 -11 -73 145 8 -7z"/>
  <path class="fil0" d="M452 343c0,1 2,3 3,3l47 7c2,0 4,-1 4,-3 0,-1 0,-1 0,-1l0 -1c-1,-1 -2,-2 -3,-2l-47 -6c0,-1 -1,0 -2,0 -1,1 -1,2 -2,3z"/>
  <path class="fil0" d="M444 379c-1,2 0,4 2,4l45 15c2,0 4,-1 4,-3 1,-2 0,-3 -2,-4l-45 -14c-1,-1 -2,-1 -3,0 0,0 -1,1 -1,2z"/>
  <path class="fil0" d="M431 412c-1,0 -1,0 -2,1 -1,2 0,4 2,5l41 22c2,0 4,0 5,-2 1,-2 0,-4 -1,-5l-42 -22c-1,0 -2,0 -3,1z"/>
  <path class="fil0" d="M410 443c0,0 -1,1 -1,1 -1,2 -1,4 1,5l37 29c1,1 3,1 5,-1 1,-1 0,-4 -1,-5l-37 -29c-1,-1 -3,-1 -4,0z"/>
  <path class="fil0" d="M420 511c1,-1 1,-3 0,-5l-31 -35c-2,-1 -3,-1 -5,0 0,0 0,0 0,0 -2,1 -2,4 -1,5l32 35c1,1 3,1 5,0z"/>
 </g>
</svg>
