<?xml version="1.0" encoding="UTF-8"?>
<!DOCTYPE svg PUBLIC "-//W3C//DTD SVG 1.1//EN" "http://www.w3.org/Graphics/SVG/1.1/DTD/svg11.dtd">
<!-- Creator: CorelDRAW X7 -->
<svg xmlns="http://www.w3.org/2000/svg" xml:space="preserve" width="538px" height="512px" version="1.1" style="shape-rendering:geometricPrecision; text-rendering:geometricPrecision; image-rendering:optimizeQuality; fill-rule:evenodd; clip-rule:evenodd"
viewBox="0 0 538 512"
 xmlns:xlink="http://www.w3.org/1999/xlink">
 <defs>
  <style type="text/css">
   <![CDATA[
    .fil0 {fill:black}
   ]]>
  </style>
 </defs>
 <g id="Layer_x0020_1">
  <metadata id="CorelCorpID_0Corel-Layer"/>
  <path class="fil0" d="M296 387c-14,0 -28,-5 -44,-15 0,0 0,1 0,1 0,50 -11,90 -31,116l187 -70c36,-19 62,-68 65,-123 -31,21 -116,75 -145,84 -11,4 -21,7 -32,7zm-189 -169c-24,-21 -45,-29 -64,-23 -25,8 -39,37 -43,54 -3,18 4,55 28,69 13,-50 43,-87 79,-100zm336 37c0,5 -5,10 -11,10 -6,0 -10,-5 -10,-10 0,-6 4,-11 10,-11 6,0 11,5 11,11zm-316 -39c0,0 0,0 0,0 8,8 17,17 24,27 47,59 75,90 97,108 0,0 0,0 0,0 0,0 0,0 1,0 29,24 49,24 75,15 31,-10 137,-79 152,-89 -1,-1 -2,-3 -2,-5 0,-80 -51,-145 -114,-146l-273 60c13,6 27,16 40,30 0,0 0,0 0,0zm305 13c14,0 26,12 26,26 0,14 -12,25 -26,25 -14,0 -25,-11 -25,-25 0,-14 11,-26 25,-26zm48 -157l0 127 -1 0c-16,-42 -47,-72 -83,-81l0 -46 84 0zm-70 -14l0 -21 -72 0 0 -37 200 0 0 37 -73 0 0 21 -55 0zm-174 303c-4,-4 -8,-7 -12,-11l-2 32 0 0c-2,50 -19,86 -44,101l-17 7c-4,0 -8,1 -12,1 -46,0 -98,-49 -98,-118 0,-12 1,-24 3,-35 1,0 1,-1 1,-1 0,-1 0,-2 0,-3 16,-70 62,-89 77,-91 -4,-5 -8,-9 -12,-13 -37,8 -67,46 -79,97 0,2 0,3 0,4 -1,1 -1,1 -1,1 -3,14 -4,27 -4,41 0,82 61,139 115,139 5,0 10,-1 14,-2l20 -7c32,-19 52,-65 52,-130 0,-4 0,-8 -1,-12z"/>
 </g>
</svg>
