<?xml version="1.0" encoding="UTF-8"?>
<!DOCTYPE svg PUBLIC "-//W3C//DTD SVG 1.1//EN" "http://www.w3.org/Graphics/SVG/1.1/DTD/svg11.dtd">
<!-- Creator: CorelDRAW X7 -->
<svg xmlns="http://www.w3.org/2000/svg" xml:space="preserve" width="600px" height="512px" version="1.1" style="shape-rendering:geometricPrecision; text-rendering:geometricPrecision; image-rendering:optimizeQuality; fill-rule:evenodd; clip-rule:evenodd"
viewBox="0 0 600 512"
 xmlns:xlink="http://www.w3.org/1999/xlink">
 <defs>
  <style type="text/css">
   <![CDATA[
    .fil0 {fill:black}
   ]]>
  </style>
 </defs>
 <g id="Layer_x0020_1">
  <metadata id="CorelCorpID_0Corel-Layer"/>
  <path class="fil0" d="M388 394l0 -39 39 0 0 39 -39 0zm-55 0l0 -39 39 0 0 39 -39 0zm-55 0l0 -39 39 0 0 39 -39 0zm110 -57l0 -40 39 0 0 40 -39 0zm-55 0l0 -40 39 0 0 40 -39 0zm-55 0l0 -40 39 0 0 40 -39 0zm110 -59l0 -40 39 0 0 40 -39 0zm-55 0l0 -40 39 0 0 40 -39 0zm-55 0l0 -40 39 0 0 40 -39 0zm110 -58l0 -40 39 0 0 40 -39 0zm-55 0l0 -40 39 0 0 40 -39 0zm-55 0l0 -40 39 0 0 40 -39 0zm148 -129l0 52 -24 0 0 -52 24 0zm66 -58c-9,-20 -28,-33 -50,-33l-387 0c-30,0 -55,25 -55,55l0 416 21 0 0 41 47 0 21 -41 339 0 21 41 48 0 0 -63 103 24 0 -419 -108 -21zm-380 208c0,0 0,0 -1,0 -1,-1 -1,-2 -1,-3l29 -69 -27 0c0,0 -1,0 -2,-1 0,0 0,-1 0,-1 0,-1 0,-1 0,-2l39 -77c0,-1 1,-1 2,-1l41 0c1,0 2,0 2,1 1,1 1,2 0,3l-30 47 31 0c1,0 2,1 2,2 0,1 0,2 0,3l-83 97c0,1 -1,1 -2,1zm364 209l-455 0 0 -395c0,-19 15,-34 34,-34l387 0c11,0 20,4 26,12 0,0 0,1 0,1 -1,0 -2,0 -2,1 -2,0 -3,1 -4,2 -1,0 -1,0 -2,1 -1,1 -2,2 -3,3 -1,0 -1,0 -1,1 -7,-7 -16,-11 -26,-11l-363 0c-20,0 -36,16 -36,36l0 372 423 0 22 6 0 5zm-217 -398l171 0c8,0 15,6 15,15 0,154 0,198 0,352l-186 0c0,-159 0,-208 0,-367zm-52 217l0 52c0,6 -5,10 -10,10 -6,0 -11,-4 -11,-10l0 -52c0,-6 5,-10 11,-10 5,0 10,4 10,10zm111 -192c22,0 40,18 40,41 0,22 -18,40 -40,40 -22,0 -40,-18 -40,-40 0,-23 18,-41 40,-41zm26 30c-2,-4 -5,-7 -9,-10 -1,-1 -2,-1 -3,-1 -2,0 -3,1 -3,2 -1,1 -2,2 -1,3 0,2 0,3 2,4 2,1 4,4 5,6 2,3 2,6 2,9 0,3 0,5 -1,8 -1,2 -3,4 -4,6 -2,1 -4,3 -7,4 -2,1 -4,1 -7,1 -3,0 -5,0 -8,-1 -2,-1 -4,-3 -6,-4 -2,-2 -3,-4 -4,-6 -1,-3 -1,-5 -1,-8 0,-3 0,-6 2,-9 1,-2 3,-5 5,-6 1,-1 2,-2 2,-4 0,-1 0,-2 -1,-3 -1,-1 -2,-2 -3,-2 -1,0 -2,0 -4,1 -3,3 -6,6 -8,10 -2,4 -3,8 -3,13 0,4 1,8 2,11 2,4 4,7 6,10 3,2 6,4 10,6 3,1 7,2 11,2 4,0 8,-1 11,-2 4,-2 7,-4 9,-6 3,-3 5,-6 7,-10 1,-3 2,-7 2,-11 0,-5 -1,-9 -3,-13zm-26 13c1,0 2,0 3,-1 1,-1 2,-3 2,-4l0 -24c0,-1 -1,-2 -2,-3 -1,-1 -2,-2 -3,-2 -1,0 -3,1 -3,2 -1,1 -2,2 -2,3l0 24c0,1 1,3 2,4 0,1 2,1 3,1z"/>
 </g>
</svg>
