<?xml version="1.0" encoding="UTF-8"?>
<!DOCTYPE svg PUBLIC "-//W3C//DTD SVG 1.1//EN" "http://www.w3.org/Graphics/SVG/1.1/DTD/svg11.dtd">
<!-- Creator: CorelDRAW X7 -->
<svg xmlns="http://www.w3.org/2000/svg" xml:space="preserve" width="512px" height="512px" version="1.1" style="shape-rendering:geometricPrecision; text-rendering:geometricPrecision; image-rendering:optimizeQuality; fill-rule:evenodd; clip-rule:evenodd"
viewBox="0 0 512 512"
 xmlns:xlink="http://www.w3.org/1999/xlink">
 <defs>
  <style type="text/css">
   <![CDATA[
    .fil0 {fill:black}
    .fil2 {fill:black}
    .fil1 {fill:black}
   ]]>
  </style>
 </defs>
 <g id="Layer_x0020_1">
  <metadata id="CorelCorpID_0Corel-Layer"/>
  <path class="fil0" d="M151 311c0,30 29,11 60,-3 11,-5 12,-4 18,-15 3,-6 9,-16 10,-23l3 0c0,12 13,58 12,64 0,4 -13,17 -17,22l-35 43c-4,7 -23,92 -23,96 0,19 27,26 32,1l11 -52c8,-40 5,-25 35,-62 10,-13 21,-30 34,-30 4,0 4,14 6,24 1,9 2,17 3,26 4,21 41,72 55,94 5,8 7,12 18,12 12,0 15,-13 15,-13 0,-10 -23,-42 -30,-52l-24 -38c-4,-8 -10,-75 -13,-91l-15 -69 36 18c0,10 5,27 7,37 2,10 1,27 16,27 8,0 14,-7 13,-15 -1,-9 -3,-17 -5,-25 -10,-51 -4,-38 -55,-65 -11,-6 -28,-17 -41,-21 -16,-4 -35,1 -41,13 -2,5 -3,7 -5,11l-24 52c-8,15 -56,20 -56,34z"/>
  <path class="fil0" d="M0 444l0 63c0,4 1,5 5,5l67 0c0,-27 7,-73 -31,-73 -24,0 -41,-3 -41,5z"/>
  <path class="fil0" d="M41 360c22,0 33,0 53,10 13,6 19,10 28,20 26,26 29,45 29,81l22 0c0,-26 0,-39 -11,-62 -6,-12 -8,-16 -17,-26 -11,-14 -24,-24 -40,-32 -24,-12 -38,-12 -64,-12l0 21z"/>
  <path class="fil0" d="M212 163c0,30 38,47 61,26 23,-22 9,-62 -26,-62 -19,0 -35,17 -35,36z"/>
  <path class="fil0" d="M41 390l0 21c20,0 33,2 47,18 8,10 14,24 14,42l21 0c0,-14 -2,-26 -6,-35 -14,-30 -43,-49 -76,-46z"/>
  <path class="fil0" d="M43 309c61,0 73,18 89,22 -4,-15 -1,-13 0,-25l-35 -12c-18,-5 -35,-6 -54,-6l0 21z"/>
  <path class="fil0" d="M160 344c4,6 28,30 32,45 7,-1 9,-7 17,-17 -7,-10 -18,-29 -27,-35 -8,5 -10,7 -22,7z"/>
  <path class="fil1" d="M141 178c2,3 1,7 -2,9 -1,0 -3,1 -4,1 -2,-1 -4,-2 -5,-4l-8 -14 11 -6 8 14zm-106 0c-1,3 0,7 3,9 3,1 7,0 8,-3l8 -14 -10 -6 -9 14zm47 16c0,4 3,6 6,6 4,0 7,-2 7,-6l0 -16 -13 0 0 16 0 0zm-81 -44c1,2 3,3 5,3 1,0 2,0 3,-1l14 -8 -6 -11 -14 9c-3,1 -4,5 -2,8zm13 -132l4 0c0,1 0,2 0,2l0 7c0,3 2,6 5,6l130 0c3,0 5,-3 5,-6l0 -7c0,0 0,-1 0,-2l4 0c4,0 6,-2 6,-6l0 -6c0,-3 -2,-6 -6,-6l-149 0c-3,0 -5,3 -5,6l0 6c0,3 2,6 6,6zm16 21l116 0 0 61c0,32 -26,58 -58,58 -32,0 -58,-26 -58,-58l0 -61 0 0zm67 51c0,16 13,30 30,30l0 -61c-17,0 -30,14 -30,31zm-47 30c16,0 30,-14 30,-30 0,-17 -14,-30 -30,-30l0 60zm103 24l14 8c1,1 2,1 2,1 3,0 5,-1 7,-3 0,-1 0,-2 0,-4 0,-2 -1,-4 -3,-5l-14 -8 -6 11z"/>
  <path class="fil2" d="M398 200c23,0 44,-10 58,-25l-7 -9c-13,14 -31,23 -51,23 -21,0 -39,-9 -52,-23l-7 9c15,15 36,25 59,25z"/>
  <path class="fil2" d="M398 163c14,0 26,-7 34,-17l-7 -9c-6,8 -16,14 -27,14 -12,0 -22,-6 -27,-14l-8 9c8,10 21,17 35,17z"/>
  <path class="fil2" d="M398 181c18,0 35,-8 46,-21l-7 -9c-9,12 -24,19 -39,19 -16,0 -30,-7 -40,-19l-7 9c11,13 28,21 47,21z"/>
  <path class="fil2" d="M385 31l2 2 -3 2 -1 -2c0,-1 -1,-1 -1,-2 -1,1 -1,2 -1,2l-1 2 -3 -2 1 -2c1,-1 1,-1 2,-1 -1,0 -1,-1 -2,-1l-3 0 2 -4 2 1c0,0 1,1 2,1 0,-1 -1,-1 -1,-2l0 -2 4 0 -1 2c0,1 0,2 0,2 0,0 1,0 1,0 0,0 1,-1 1,-1l2 -1 1 4 -2 0c-1,0 -1,1 -2,1 0,0 1,1 1,1z"/>
  <path class="fil2" d="M420 31l1 2 -3 2 -1 -2c0,-1 0,-1 -1,-2 0,1 -1,2 -1,2l-1 2 -3 -2 2 -2c0,-1 1,-1 1,-1 0,0 -1,-1 -2,-1l-2 0 1 -4 2 1c0,0 1,1 2,1 0,-1 0,-1 0,-2l-1 -2 4 0 0 2c0,1 0,2 -1,2 1,0 1,0 1,0 1,0 1,-1 1,-1l3 -1 1 4 -3 0c0,0 -1,1 -2,1 1,0 1,1 2,1z"/>
  <path class="fil2" d="M350 129l97 0c36,0 65,-34 65,-70l0 -47c0,-6 -5,-12 -12,-12 -47,0 -156,0 -203,0 -7,0 -12,6 -12,12l0 47c0,36 29,70 65,70zm21 -58l0 -3c0,-4 3,-6 6,-6 4,0 7,2 7,6l0 3c0,3 -3,6 -7,6 -3,0 -6,-3 -6,-6zm21 0l0 -3c0,-4 3,-6 6,-6 4,0 6,2 6,6l0 3c0,3 -2,6 -6,6 -3,0 -6,-3 -6,-6zm20 0l0 -3c0,-4 3,-6 7,-6 3,0 6,2 6,6l0 3c0,3 -3,6 -6,6 -4,0 -7,-3 -7,-6zm-41 20l0 -3c0,-3 3,-6 6,-6 4,0 7,3 7,6l0 3c0,3 -3,6 -7,6 -3,0 -6,-3 -6,-6zm21 0l0 -3c0,-3 3,-6 6,-6 4,0 6,3 6,6l0 3c0,3 -2,6 -6,6 -3,0 -6,-3 -6,-6zm20 0l0 -3c0,-3 3,-6 7,-6 3,0 6,3 6,6l0 3c0,3 -3,6 -6,6 -4,0 -7,-3 -7,-6zm-41 20l0 -3c0,-3 3,-6 6,-6 4,0 7,3 7,6l0 3c0,3 -3,6 -7,6 -3,0 -6,-3 -6,-6zm21 0l0 -3c0,-3 3,-6 6,-6 4,0 6,3 6,6l0 3c0,3 -2,6 -6,6 -3,0 -6,-3 -6,-6zm20 0l0 -3c0,-3 3,-6 7,-6 3,0 6,3 6,6l0 3c0,3 -3,6 -6,6 -4,0 -7,-3 -7,-6zm34 -96l-95 0c-4,0 -8,3 -8,7l0 13c0,4 4,8 8,8l95 0c4,0 8,-4 8,-8l0 -13c0,-4 -4,-7 -8,-7z"/>
  <path class="fil2" d="M439 34c0,1 -1,2 -2,2l-8 0c0,0 -1,-1 -1,-2l0 -5c0,0 1,-1 1,-1l1 0 0 -2c0,-2 1,-4 3,-4 3,0 4,2 4,4l0 2 0 0c1,0 2,1 2,1l0 5zm-6 -10c-1,0 -1,1 -1,2l0 2 3 0 0 -2c0,-1 0,-2 -2,-2z"/>
  <path class="fil2" d="M368 31l2 2 -3 2 -2 -2c0,-1 0,-1 0,-2 -1,1 -1,2 -1,2l-2 2 -3 -2 2 -2c1,-1 1,-1 2,-1 -1,0 -1,-1 -2,-1l-3 0 1 -4 3 1c0,0 1,1 2,1 -1,-1 -1,-1 -1,-2l0 -2 4 0 -1 2c0,1 0,2 0,2 0,0 0,0 1,0 0,0 0,-1 1,-1l2 -1 1 4 -2 0c-1,0 -2,1 -2,1 0,0 1,1 1,1z"/>
  <path class="fil2" d="M402 31l2 2 -3 2 -1 -2c0,-1 -1,-1 -1,-2 0,1 -1,2 -1,2l-1 2 -3 -2 2 -2c0,-1 1,-1 1,-1 0,0 -1,-1 -2,-1l-3 0 2 -4 2 1c0,0 1,1 2,1 0,-1 0,-1 -1,-2l0 -2 4 0 0 2c-1,1 -1,2 -1,2 1,0 1,0 1,0 0,0 1,-1 1,-1l2 -1 2 4 -3 0c0,0 -1,1 -2,1 0,0 1,1 1,1z"/>
 </g>
</svg>
