<?xml version="1.0" encoding="UTF-8"?>
<!DOCTYPE svg PUBLIC "-//W3C//DTD SVG 1.1//EN" "http://www.w3.org/Graphics/SVG/1.1/DTD/svg11.dtd">
<!-- Creator: CorelDRAW X7 -->
<svg xmlns="http://www.w3.org/2000/svg" xml:space="preserve" width="581px" height="512px" version="1.1" style="shape-rendering:geometricPrecision; text-rendering:geometricPrecision; image-rendering:optimizeQuality; fill-rule:evenodd; clip-rule:evenodd"
viewBox="0 0 581 512"
 xmlns:xlink="http://www.w3.org/1999/xlink">
 <defs>
  <style type="text/css">
   <![CDATA[
    .fil0 {fill:black}
   ]]>
  </style>
 </defs>
 <g id="Layer_x0020_1">
  <metadata id="CorelCorpID_0Corel-Layer"/>
  <path class="fil0" d="M288 512c60,0 113,-25 151,-65l-19 -23c-32,36 -79,59 -132,59 -52,0 -99,-23 -131,-59l-19 23c38,40 91,65 150,65z"/>
  <path class="fil0" d="M288 416c36,0 68,-17 88,-44l-19 -23c-14,23 -40,38 -69,38 -29,0 -54,-15 -69,-38l-19 23c20,27 52,44 88,44z"/>
  <path class="fil0" d="M288 464c48,0 91,-21 120,-54l-19 -23c-24,29 -60,48 -101,48 -40,0 -76,-19 -100,-48l-19 23c29,33 72,54 119,54z"/>
  <path class="fil0" d="M257 79l4 5 -8 5 -3 -5c0,-1 -1,-3 -2,-5 -1,2 -2,4 -2,5l-4 5 -8 -5 5 -5c2,-2 3,-3 4,-4 -1,0 -3,0 -5,-1l-7 -1 3 -9 6 3c1,0 3,1 5,3 0,-3 -1,-5 -1,-6l-1 -6 10 0 -1 6c0,2 -1,4 -1,6 1,-1 2,-1 2,-2 1,0 2,-1 3,-1l6 -3 3 9 -7 2c-1,0 -3,0 -5,0 1,1 3,3 4,4z"/>
  <path class="fil0" d="M345 79l4 5 -8 5 -3 -5c0,-1 -1,-3 -2,-5 -1,2 -2,4 -2,5l-4 5 -8 -5 5 -5c2,-2 3,-3 4,-4 -1,0 -3,0 -5,-1l-7 -1 3 -9 6 3c1,0 3,1 5,3 -1,-3 -1,-5 -1,-6l-1 -6 10 0 -1 6c0,2 -1,4 -1,6 1,-1 2,-1 2,-2 1,0 2,-1 3,-1l6 -3 3 9 -7 2c-1,0 -3,0 -5,0 1,1 3,3 4,4z"/>
  <path class="fil0" d="M166 329l249 0c92,0 166,-87 166,-178l0 -120c0,-17 -14,-31 -30,-31 -120,0 -399,0 -520,0 -17,0 -31,14 -31,31l0 120c0,91 74,178 166,178zm54 -149l0 -7c0,-9 7,-16 16,-16 9,0 16,7 16,16l0 7c0,9 -7,15 -16,15 -9,0 -16,-6 -16,-15zm53 0l0 -7c0,-9 7,-16 16,-16 9,0 17,7 17,16l0 7c0,9 -8,15 -17,15 -9,0 -16,-6 -16,-15zm53 0l0 -7c0,-9 7,-16 16,-16 9,0 17,7 17,16l0 7c0,9 -8,15 -17,15 -9,0 -16,-6 -16,-15zm-106 52l0 -7c0,-9 7,-16 16,-16 9,0 16,7 16,16l0 7c0,8 -7,15 -16,15 -9,0 -16,-7 -16,-15zm53 0l0 -7c0,-9 7,-16 16,-16 9,0 17,7 17,16l0 7c0,8 -8,15 -17,15 -9,0 -16,-7 -16,-15zm53 0l0 -7c0,-9 7,-16 16,-16 9,0 17,7 17,16l0 7c0,8 -8,15 -17,15 -9,0 -16,-7 -16,-15zm-106 52l0 -7c0,-9 7,-16 16,-16 9,0 16,7 16,16l0 7c0,8 -7,15 -16,15 -9,0 -16,-7 -16,-15zm53 0l0 -7c0,-9 7,-16 16,-16 9,0 17,7 17,16l0 7c0,8 -8,15 -17,15 -9,0 -16,-7 -16,-15zm53 0l0 -7c0,-9 7,-16 16,-16 9,0 17,7 17,16l0 7c0,8 -8,15 -17,15 -9,0 -16,-7 -16,-15zm87 -246l-245 0c-11,0 -19,9 -19,19l0 33c0,10 8,19 19,19l245 0c11,0 19,-9 19,-19l0 -33c0,-10 -8,-19 -19,-19z"/>
  <path class="fil0" d="M394 87c0,2 -2,4 -4,4l-20 0c-2,0 -4,-2 -4,-4l0 -12c0,-2 2,-4 4,-4l0 0 0 -5c0,-5 5,-10 10,-10 5,0 10,5 10,10l0 5 0 0c2,0 4,2 4,4l0 12zm-14 -26c-3,0 -5,3 -5,5l0 5 10 0 0 -5c0,-2 -2,-5 -5,-5z"/>
  <path class="fil0" d="M213 79l4 5 -8 5 -3 -5c0,-1 -1,-3 -2,-5 -1,2 -2,4 -2,5l-4 5 -8 -5 5 -5c1,-2 3,-3 4,-4 -1,0 -3,0 -5,-1l-7 -1 3 -9 6 3c1,0 2,1 5,3 -1,-3 -1,-5 -1,-6l-1 -6 10 0 -1 6c0,2 -1,4 -1,6 1,-1 2,-1 2,-2 1,0 2,-1 3,-1l6 -3 3 9 -7 2c-1,0 -3,0 -5,0 1,1 3,3 4,4z"/>
  <path class="fil0" d="M300 79l5 5 -8 5 -3 -5c-1,-1 -1,-3 -2,-5 -1,2 -2,4 -3,5l-3 5 -8 -5 5 -5c1,-2 3,-3 4,-4 -1,0 -3,0 -5,-1l-7 -1 3 -9 6 3c1,0 2,1 5,3 -1,-3 -1,-5 -1,-6l-1 -6 10 0 -1 6c0,2 -1,4 -1,6 1,-1 2,-1 2,-2 1,0 2,-1 3,-1l6 -3 3 9 -7 2c-1,0 -3,0 -5,0 1,1 2,3 3,4z"/>
 </g>
</svg>
