<?xml version="1.0" encoding="UTF-8"?>
<!DOCTYPE svg PUBLIC "-//W3C//DTD SVG 1.1//EN" "http://www.w3.org/Graphics/SVG/1.1/DTD/svg11.dtd">
<!-- Creator: CorelDRAW X7 -->
<svg xmlns="http://www.w3.org/2000/svg" xml:space="preserve" width="512px" height="512px" version="1.1" style="shape-rendering:geometricPrecision; text-rendering:geometricPrecision; image-rendering:optimizeQuality; fill-rule:evenodd; clip-rule:evenodd"
viewBox="0 0 512 512"
 xmlns:xlink="http://www.w3.org/1999/xlink">
 <defs>
  <style type="text/css">
   <![CDATA[
    .fil1 {fill:black}
    .fil0 {fill:black}
   ]]>
  </style>
 </defs>
 <g id="Layer_x0020_1">
  <metadata id="CorelCorpID_0Corel-Layer"/>
  <path class="fil0" d="M19 56l0 -56 -19 0 0 150 19 0 0 -59c9,-1 16,-9 16,-18 0,-9 -7,-16 -16,-17z"/>
  <path class="fil0" d="M50 56l-2 0c-1,1 -2,1 -3,2l-2 1 1 1c3,5 4,10 4,15 0,5 -1,10 -3,14l-1 1 1 1c0,0 0,1 1,1 0,0 0,1 0,1 1,0 1,1 1,1l2 2 1 -2c4,-6 5,-12 5,-19 0,-6 -1,-12 -4,-18l-1 -1z"/>
  <path class="fil0" d="M66 42l-2 -2 -1 2c-1,1 -1,2 -2,3l-1 1 1 1c5,8 8,18 8,28 0,11 -3,22 -11,31l0 1 1 2c0,1 1,1 1,1 0,1 1,1 1,1l1 2 2 -2c8,-10 13,-23 13,-36 0,-12 -4,-23 -11,-33z"/>
  <path class="fil0" d="M79 22l-1 -2 -2 2c0,1 -1,2 -2,3l0 1 0 1c12,14 18,30 18,48 0,17 -6,34 -17,47l-1 2 1 1c1,0 1,1 2,1l2 2 1 -1c13,-15 19,-33 19,-52 0,-20 -7,-38 -20,-53z"/>
  <path class="fil0" d="M95 5l-1 -1 -1 1c-1,1 -2,1 -2,2l-3 2 2 1c16,18 25,41 25,65 0,23 -8,45 -23,62l-1 1 2 1c0,1 1,2 2,2l2 2 1 -1c16,-19 24,-43 24,-67 0,-26 -9,-51 -27,-70z"/>
  <path class="fil0" d="M493 56l0 -56 19 0 0 150 -19 0 0 -59c-9,-1 -16,-9 -16,-18 0,-9 7,-16 16,-17z"/>
  <path class="fil0" d="M462 56l2 0c1,1 2,1 3,2l2 1 -1 1c-3,5 -4,10 -4,15 0,5 1,10 3,14l1 1 -1 1c0,0 0,1 -1,1 0,0 0,1 0,1 -1,0 -1,1 -1,1l-2 2 -1 -2c-4,-6 -5,-12 -5,-19 0,-6 1,-12 4,-18l1 -1z"/>
  <path class="fil0" d="M446 42l2 -2 1 2c1,1 1,2 2,3l1 1 -1 1c-5,8 -8,18 -8,28 0,11 3,22 11,31l0 1 -1 2c0,1 -1,1 -1,1 0,1 -1,1 -1,1l-1 2 -2 -2c-8,-10 -13,-23 -13,-36 0,-12 4,-23 11,-33z"/>
  <path class="fil0" d="M433 22l1 -2 2 2c0,1 1,2 2,3l0 1 0 1c-12,14 -18,30 -18,48 0,17 6,34 17,47l1 2 -1 1c-1,0 -1,1 -2,1l-2 2 -1 -1c-13,-15 -19,-33 -19,-52 0,-20 7,-38 20,-53z"/>
  <path class="fil0" d="M417 5l1 -1 1 1c1,1 2,1 2,2l3 2 -2 1c-16,18 -25,41 -25,65 0,23 8,45 23,62l1 1 -2 1c0,1 -1,2 -2,2l-2 2 -1 -1c-16,-19 -24,-43 -24,-67 0,-26 9,-51 27,-70z"/>
  <path class="fil1" d="M157 303c0,31 30,12 62,-2 12,-6 13,-5 18,-16 3,-6 10,-17 11,-24l3 0c0,12 14,60 13,66 -1,4 -13,18 -17,23l-38 45c-4,7 -23,95 -23,100 0,19 28,26 33,0l12 -53c8,-42 5,-27 36,-65 11,-14 21,-31 35,-31 5,0 5,15 6,25 2,9 2,18 4,27 4,22 42,75 57,97 5,8 7,13 19,13 12,0 15,-13 15,-13 0,-11 -24,-45 -31,-55l-26 -39c-3,-8 -10,-78 -13,-94l-15 -72 37 19c0,10 5,28 7,37 2,11 2,29 17,29 8,0 14,-8 13,-16 -1,-9 -3,-17 -5,-26 -10,-53 -4,-39 -57,-67 -11,-7 -29,-18 -42,-21 -17,-5 -37,0 -43,13 -2,4 -3,7 -5,11l-25 54c-8,16 -58,21 -58,35z"/>
  <path class="fil1" d="M0 442l0 65c0,4 1,5 5,5l70 0c0,-28 7,-75 -32,-75 -25,0 -43,-4 -43,5z"/>
  <path class="fil1" d="M43 355c22,0 34,-1 55,9 13,6 19,11 29,21 27,27 30,47 30,84l22 0c0,-26 1,-40 -11,-64 -6,-13 -9,-17 -17,-27 -12,-15 -25,-25 -42,-33 -25,-12 -40,-13 -66,-13l0 23z"/>
  <path class="fil1" d="M220 150c0,31 40,49 63,27 25,-24 10,-65 -27,-65 -19,0 -36,18 -36,38z"/>
  <path class="fil1" d="M43 385l0 23c20,0 33,1 48,18 9,10 15,24 15,43l22 0c0,-14 -2,-26 -7,-36 -14,-31 -44,-51 -78,-48z"/>
  <path class="fil1" d="M45 302c63,0 76,17 92,22 -4,-16 -1,-13 0,-26l-37 -13c-18,-5 -36,-6 -55,-6l0 23z"/>
 </g>
</svg>
