<?xml version="1.0" encoding="UTF-8"?>
<!DOCTYPE svg PUBLIC "-//W3C//DTD SVG 1.1//EN" "http://www.w3.org/Graphics/SVG/1.1/DTD/svg11.dtd">
<!-- Creator: CorelDRAW X7 -->
<svg xmlns="http://www.w3.org/2000/svg" xml:space="preserve" width="452px" height="512px" version="1.1" style="shape-rendering:geometricPrecision; text-rendering:geometricPrecision; image-rendering:optimizeQuality; fill-rule:evenodd; clip-rule:evenodd"
viewBox="0 0 452 512"
 xmlns:xlink="http://www.w3.org/1999/xlink">
 <defs>
  <style type="text/css">
   <![CDATA[
    .fil0 {fill:black}
   ]]>
  </style>
 </defs>
 <g id="Layer_x0020_1">
  <metadata id="CorelCorpID_0Corel-Layer"/>
  <path class="fil0" d="M361 456c4,8 1,17 -6,21 -3,2 -6,3 -9,3 -5,-1 -10,-4 -13,-8l-21 -36 28 -16 21 36zm-271 0c-4,8 -1,17 7,21 8,5 17,1 22,-5l20 -36 -28 -16 -21 36zm120 40c0,9 7,16 16,16 9,0 16,-7 16,-16l0 -41 -32 0 0 41 0 0zm-208 -113c3,5 8,8 13,8 3,0 6,0 9,-1l36 -21 -16 -28 -37 21c-6,4 -9,13 -5,21zm33 -337l12 0c-1,1 -1,4 -1,6l0 17c0,8 6,14 14,14l331 0c8,0 14,-6 14,-14l0 -17c0,-2 -1,-5 -2,-6l13 0c8,0 14,-7 14,-15l0 -17c0,-8 -6,-14 -14,-14l-382 0c-8,0 -14,6 -14,14l0 17c0,8 7,15 15,15zm41 52l299 0 0 158c0,82 -67,149 -150,149 -82,0 -149,-67 -149,-149l0 -158 0 0zm171 131c0,43 35,78 78,78l0 -156c-43,0 -78,35 -78,78zm-120 78c43,0 77,-35 77,-78 0,-42 -34,-77 -77,-77l0 155zm264 61l37 21c1,1 4,2 5,2 7,0 13,-2 16,-8 2,-3 3,-6 3,-9 0,-5 -3,-10 -8,-13l-37 -21 -16 28z"/>
 </g>
</svg>
