<?xml version="1.0" encoding="UTF-8"?>
<!DOCTYPE svg PUBLIC "-//W3C//DTD SVG 1.1//EN" "http://www.w3.org/Graphics/SVG/1.1/DTD/svg11.dtd">
<!-- Creator: CorelDRAW X7 -->
<svg xmlns="http://www.w3.org/2000/svg" xml:space="preserve" width="343px" height="512px" version="1.1" style="shape-rendering:geometricPrecision; text-rendering:geometricPrecision; image-rendering:optimizeQuality; fill-rule:evenodd; clip-rule:evenodd"
viewBox="0 0 343 512"
 xmlns:xlink="http://www.w3.org/1999/xlink">
 <defs>
  <style type="text/css">
   <![CDATA[
    .fil0 {fill:black}
   ]]>
  </style>
 </defs>
 <g id="Layer_x0020_1">
  <metadata id="CorelCorpID_0Corel-Layer"/>
  <path class="fil0" d="M343 497l0 -482c0,-8 -5,-15 -11,-15l-321 0c-6,0 -11,7 -11,15l0 482c0,8 5,15 11,15l321 0c6,0 11,-7 11,-15zm-107 -380c-4,0 -7,4 -7,8l0 7 15 0 0 -7c0,-4 -4,-8 -8,-8zm20 -34l-170 0c-16,0 -28,13 -28,28l0 49c0,15 12,28 28,28l170 0c16,0 28,-13 28,-28l0 -49c0,-15 -12,-28 -28,-28zm-138 60l7 7 -11 9 -5 -9c-1,-1 -2,-3 -4,-7 -1,4 -2,6 -3,7l-5 9 -12 -9 8 -7c2,-2 4,-4 6,-5 -2,0 -5,-1 -8,-1l-10 -2 4 -13 9 4c1,0 4,1 7,4 0,-4 -1,-7 -1,-8l-1 -10 14 0 -1 10c-1,2 -1,5 -2,8 2,-1 3,-2 3,-2 2,-1 3,-2 4,-2l9 -4 5 13 -10 2c-2,1 -5,1 -8,1 2,2 4,3 5,5zm66 0l6 7 -11 9 -5 -9c-1,-1 -2,-3 -3,-7 -2,4 -3,6 -4,7l-4 9 -12 -9 7 -7c2,-2 4,-4 6,-5 -2,0 -5,-1 -8,-1l-10 -2 5 -13 9 4c1,0 3,1 7,4 -1,-4 -2,-7 -2,-8l-1 -10 14 0 -1 10c0,2 -1,5 -2,8 2,-1 3,-2 4,-2 1,-1 3,-2 4,-2l9 -4 4 13 -10 2c-2,1 -4,1 -8,1 2,2 4,3 6,5zm73 12c0,3 -2,6 -5,6l-31 0c-3,0 -5,-3 -5,-6l0 -18c0,-3 2,-5 5,-5l1 0 0 -7c0,-8 6,-15 14,-15 8,0 15,7 15,15l0 7 1 0c3,0 5,2 5,5l0 18zm-191 138l0 -11c0,-12 11,-22 25,-22 13,0 24,10 24,22l0 11c0,13 -11,23 -24,23 -14,0 -25,-10 -25,-23zm79 0l0 -11c0,-12 11,-22 24,-22 13,0 24,10 24,22l0 11c0,13 -11,23 -24,23 -13,0 -24,-10 -24,-23zm79 0l0 -11c0,-12 10,-22 24,-22 13,0 24,10 24,22l0 11c0,13 -11,23 -24,23 -14,0 -24,-10 -24,-23zm-158 77l0 -11c0,-12 11,-22 25,-22 13,0 24,10 24,22l0 11c0,13 -11,23 -24,23 -14,0 -25,-10 -25,-23zm79 0l0 -11c0,-12 11,-22 24,-22 13,0 24,10 24,22l0 11c0,13 -11,23 -24,23 -13,0 -24,-10 -24,-23zm79 0l0 -11c0,-12 10,-22 24,-22 13,0 24,10 24,22l0 11c0,13 -11,23 -24,23 -14,0 -24,-10 -24,-23zm-158 77l0 -11c0,-12 11,-22 25,-22 13,0 24,10 24,22l0 11c0,13 -11,23 -24,23 -14,0 -25,-10 -25,-23zm79 0l0 -11c0,-12 11,-22 24,-22 13,0 24,10 24,22l0 11c0,13 -11,23 -24,23 -13,0 -24,-10 -24,-23zm79 0l0 -11c0,-12 10,-22 24,-22 13,0 24,10 24,22l0 11c0,13 -11,23 -24,23 -14,0 -24,-10 -24,-23z"/>
 </g>
</svg>
