<?xml version="1.0" encoding="UTF-8"?>
<!DOCTYPE svg PUBLIC "-//W3C//DTD SVG 1.1//EN" "http://www.w3.org/Graphics/SVG/1.1/DTD/svg11.dtd">
<!-- Creator: CorelDRAW X7 -->
<svg xmlns="http://www.w3.org/2000/svg" xml:space="preserve" width="450px" height="512px" version="1.1" style="shape-rendering:geometricPrecision; text-rendering:geometricPrecision; image-rendering:optimizeQuality; fill-rule:evenodd; clip-rule:evenodd"
viewBox="0 0 450 512"
 xmlns:xlink="http://www.w3.org/1999/xlink">
 <defs>
  <style type="text/css">
   <![CDATA[
    .fil0 {fill:black}
   ]]>
  </style>
 </defs>
 <g id="Layer_x0020_1">
  <metadata id="CorelCorpID_0Corel-Layer"/>
  <polygon class="fil0" points="102,487 450,487 450,452 93,452 "/>
  <path class="fil0" d="M59 438c4,9 2,22 18,60 12,23 9,46 -17,46 -28,0 -39,-6 -30,-36 5,-16 8,-19 13,-29 2,-3 4,-6 3,-15 0,-19 -16,-15 -41,-12l0 25 19 3c-21,30 -24,67 1,79 21,12 54,8 68,-4 19,-16 14,-34 2,-64 -6,-15 -13,-32 -16,-53l35 0c9,0 15,-6 15,-15l0 -408c0,-8 -6,-15 -15,-15l-99 0c-8,0 -15,7 -15,15l0 408c0,9 7,15 15,15l44 0z"/>
  <path class="fil0" d="M156 0l279 0c8,0 15,7 15,15l0 408c0,9 -7,15 -15,15l-279 0c-8,0 -15,-6 -15,-15l0 -408c0,-8 7,-15 15,-15zm127 303l-8 0 0 -13 1 0c3,4 5,8 7,13zm2 15c0,2 0,4 0,6l-10 0 0 -13 10 0c0,2 0,5 0,7zm-8 28l-2 0 0 -14 8 0c-1,5 -3,10 -6,14zm-79 0c-3,-4 -5,-9 -7,-14l13 0 0 14 -6 0zm13 -14l14 0 0 14 -14 0 0 -14zm-12 -42l5 0 0 13 -12 0c1,-5 4,-9 7,-13zm68 13l-13 0 0 -13 13 0 0 13zm0 21l-13 0 0 -13 13 0 0 13zm-56 -34l14 0 0 13 -14 0 0 -13zm22 21l13 0 0 13 -13 0 0 -13zm13 -8l-13 0 0 -13 13 0 0 13zm-21 -21l-14 0 0 -4c4,-3 9,-5 14,-6l0 10zm-14 29l14 0 0 13 -14 0 0 -13zm22 21l13 0 0 14 -13 0 0 -14zm21 0l13 0 0 14 -13 0 0 -14zm13 -50l-13 0 0 -9c5,2 9,5 13,8l0 1zm-21 -11l0 11 -13 0 0 -11c1,-1 3,-1 4,-1 3,0 6,1 9,1zm-56 40l14 0 0 13 -14 0c-1,-2 -1,-4 -1,-6 0,-2 0,-5 1,-7zm21 42l14 0 0 12c-5,-2 -10,-4 -14,-6l0 -6zm22 13l0 -13 13 0 0 13c-3,0 -6,0 -9,0 -1,0 -3,0 -4,0zm21 -13l13 0 0 3c-4,3 -8,6 -13,7l0 -10zm149 24l-71 0 0 28 71 0 0 -28zm0 -54l-71 0 0 28 71 0 0 -28zm0 -54l-71 0 0 28 71 0 0 -28zm-215 -234l215 0 0 209 -215 0 0 -209z"/>
  <path class="fil0" d="M261 182c-33,13 -49,5 -55,54l73 0c-7,-32 -14,-13 -13,-40 0,-17 9,-26 4,-43 -5,-14 -35,-46 -1,-78 17,2 16,9 37,17 6,2 12,3 18,6l18 13c-4,18 -19,33 -21,48 -1,10 8,32 10,53 -13,4 -12,-3 -17,24l75 0c-10,-47 -14,-45 -57,-54l8 -5c1,-1 6,-3 8,-4 20,-13 14,-47 9,-70 -13,-52 -58,-78 -100,-41 -18,15 -30,66 -25,91 4,22 15,19 29,29z"/>
 </g>
</svg>
