<?xml version="1.0" encoding="UTF-8"?>
<!DOCTYPE svg PUBLIC "-//W3C//DTD SVG 1.1//EN" "http://www.w3.org/Graphics/SVG/1.1/DTD/svg11.dtd">
<!-- Creator: CorelDRAW X7 -->
<svg xmlns="http://www.w3.org/2000/svg" xml:space="preserve" width="900px" height="512px" version="1.1" style="shape-rendering:geometricPrecision; text-rendering:geometricPrecision; image-rendering:optimizeQuality; fill-rule:evenodd; clip-rule:evenodd"
viewBox="0 0 900 512"
 xmlns:xlink="http://www.w3.org/1999/xlink">
 <defs>
  <style type="text/css">
   <![CDATA[
    .fil0 {fill:black}
   ]]>
  </style>
 </defs>
 <g id="Layer_x0020_1">
  <metadata id="CorelCorpID_0Corel-Layer"/>
  <path class="fil0" d="M448 403c-17,0 -31,-14 -31,-31 0,-17 14,-31 31,-31 18,0 32,14 32,31 0,17 -14,31 -32,31zm0 -109c-43,0 -77,35 -77,78 0,43 34,78 77,78 43,0 78,-35 78,-78 0,-43 -35,-78 -78,-78zm0 -88c16,0 29,-13 29,-28 0,-16 -13,-29 -29,-29 -15,0 -28,13 -28,29 0,15 13,28 28,28zm121 -58c-8,0 -14,-6 -14,-14 0,-8 6,-14 14,-14 7,0 14,6 14,14 0,8 -7,14 -14,14zm0 341c-8,0 -14,-6 -14,-14 0,-8 6,-14 14,-14 7,0 14,6 14,14 0,8 -7,14 -14,14zm-121 -9c-59,0 -107,-49 -107,-108 0,-59 48,-107 107,-107 60,0 108,48 108,107 0,59 -48,108 -108,108zm-117 9c-8,0 -14,-6 -14,-14 0,-8 6,-14 14,-14 8,0 14,6 14,14 0,8 -6,14 -14,14zm0 -369c8,0 14,6 14,14 0,8 -6,14 -14,14 -8,0 -14,-6 -14,-14 0,-8 6,-14 14,-14zm117 -1c33,0 59,27 59,59 0,32 -26,58 -59,58 -32,0 -58,-26 -58,-58 0,-32 26,-59 58,-59zm148 -27l-295 0c-7,0 -14,6 -14,14l0 392c0,8 7,14 14,14l295 0c7,0 13,-6 13,-14l0 -392c0,-8 -6,-14 -13,-14zm90 87c-6,-2 -13,0 -16,6 -2,6 0,13 6,16 39,17 64,55 64,97 0,43 -25,81 -64,98 -6,3 -8,10 -6,15 2,5 7,7 11,7 2,0 3,0 5,-1 47,-21 77,-67 77,-119 0,-51 -30,-98 -77,-119zm25 119c0,-29 -16,-55 -42,-69 -5,-3 -12,-1 -15,5 -3,6 -1,13 5,16 18,9 29,28 29,48 0,23 -14,43 -34,51 -6,2 -9,9 -6,15 1,5 6,7 10,7 2,0 3,0 5,-1 29,-12 48,-40 48,-72zm-487 98c-39,-17 -64,-55 -64,-98 0,-42 25,-80 64,-97 6,-3 8,-10 6,-16 -3,-6 -10,-8 -16,-6 -47,21 -77,68 -77,119 0,52 30,98 77,119 2,1 3,1 5,1 4,0 9,-2 11,-7 2,-5 0,-12 -6,-15zm22 -47c-21,-8 -34,-28 -34,-51 0,-20 11,-39 29,-48 6,-3 8,-10 5,-16 -3,-6 -10,-8 -15,-5 -26,14 -42,40 -42,69 0,32 19,60 48,72 2,1 3,1 5,1 4,0 9,-2 10,-7 3,-6 0,-13 -6,-15z"/>
  <path class="fil0" d="M101 0l-92 0c-5,0 -9,4 -9,9l0 440c0,5 4,9 9,9l23 0 0 27 45 0 0 -27 24 0c5,0 9,-4 9,-9l0 -440c0,-5 -4,-9 -9,-9zm-46 29c13,0 23,10 23,23 0,13 -10,24 -23,24 -13,0 -24,-11 -24,-24 0,-13 11,-23 24,-23zm0 403c-25,0 -45,-20 -45,-45 0,-25 20,-45 45,-45 25,0 45,20 45,45 0,25 -20,45 -45,45zm0 -116c-25,0 -45,-20 -45,-45 0,-25 20,-45 45,-45 25,0 45,20 45,45 0,25 -20,45 -45,45zm0 -116c-25,0 -45,-20 -45,-45 0,-25 20,-45 45,-45 25,0 45,20 45,45 0,25 -20,45 -45,45z"/>
  <path class="fil0" d="M70 52c0,8 -7,15 -15,15 -8,0 -15,-7 -15,-15 0,-8 7,-15 15,-15 8,0 15,7 15,15z"/>
  <polygon class="fil0" points="7,496 102,496 102,512 7,512 "/>
  <path class="fil0" d="M55 118c-21,0 -37,16 -37,37 0,20 16,37 37,37 20,0 37,-17 37,-37 0,-21 -17,-37 -37,-37zm0 55c-10,0 -18,-8 -18,-18 0,-10 8,-18 18,-18 10,0 18,8 18,18 0,10 -8,18 -18,18z"/>
  <path class="fil0" d="M55 234c-21,0 -37,16 -37,37 0,21 16,37 37,37 20,0 37,-16 37,-37 0,-21 -17,-37 -37,-37zm0 55c-10,0 -18,-8 -18,-18 0,-10 8,-18 18,-18 10,0 18,8 18,18 0,10 -8,18 -18,18z"/>
  <path class="fil0" d="M55 350c-21,0 -37,16 -37,37 0,21 16,37 37,37 20,0 37,-16 37,-37 0,-21 -17,-37 -37,-37zm0 55c-10,0 -18,-8 -18,-18 0,-10 8,-18 18,-18 10,0 18,8 18,18 0,10 -8,18 -18,18z"/>
  <path class="fil0" d="M900 449l0 -440c0,-5 -4,-9 -9,-9l-92 0c-5,0 -9,4 -9,9l0 440c0,5 4,9 9,9l24 0 0 27 45 0 0 -27 23 0c5,0 9,-4 9,-9zm-55 -420c13,0 24,10 24,23 0,13 -11,24 -24,24 -13,0 -23,-11 -23,-24 0,-13 10,-23 23,-23zm0 403c-25,0 -45,-20 -45,-45 0,-25 20,-45 45,-45 25,0 45,20 45,45 0,25 -20,45 -45,45zm0 -116c-25,0 -45,-20 -45,-45 0,-25 20,-45 45,-45 25,0 45,20 45,45 0,25 -20,45 -45,45zm0 -116c-25,0 -45,-20 -45,-45 0,-25 20,-45 45,-45 25,0 45,20 45,45 0,25 -20,45 -45,45z"/>
  <path class="fil0" d="M860 52c0,8 -7,15 -15,15 -8,0 -15,-7 -15,-15 0,-8 7,-15 15,-15 8,0 15,7 15,15z"/>
  <polygon class="fil0" points="798,496 893,496 893,512 798,512 "/>
  <path class="fil0" d="M845 118c-20,0 -37,16 -37,37 0,20 17,37 37,37 21,0 37,-17 37,-37 0,-21 -16,-37 -37,-37zm0 55c-10,0 -18,-8 -18,-18 0,-10 8,-18 18,-18 10,0 18,8 18,18 0,10 -8,18 -18,18z"/>
  <path class="fil0" d="M845 234c-20,0 -37,16 -37,37 0,21 17,37 37,37 21,0 37,-16 37,-37 0,-21 -16,-37 -37,-37zm0 55c-10,0 -18,-8 -18,-18 0,-10 8,-18 18,-18 10,0 18,8 18,18 0,10 -8,18 -18,18z"/>
  <path class="fil0" d="M845 350c-20,0 -37,16 -37,37 0,21 17,37 37,37 21,0 37,-16 37,-37 0,-21 -16,-37 -37,-37zm0 55c-10,0 -18,-8 -18,-18 0,-10 8,-18 18,-18 10,0 18,8 18,18 0,10 -8,18 -18,18z"/>
 </g>
</svg>
