<?xml version="1.0" encoding="UTF-8"?>
<!DOCTYPE svg PUBLIC "-//W3C//DTD SVG 1.1//EN" "http://www.w3.org/Graphics/SVG/1.1/DTD/svg11.dtd">
<!-- Creator: CorelDRAW X7 -->
<svg xmlns="http://www.w3.org/2000/svg" xml:space="preserve" width="504px" height="512px" version="1.1" style="shape-rendering:geometricPrecision; text-rendering:geometricPrecision; image-rendering:optimizeQuality; fill-rule:evenodd; clip-rule:evenodd"
viewBox="0 0 504 512"
 xmlns:xlink="http://www.w3.org/1999/xlink">
 <defs>
  <style type="text/css">
   <![CDATA[
    .fil0 {fill:black}
   ]]>
  </style>
 </defs>
 <g id="Layer_x0020_1">
  <metadata id="CorelCorpID_0Corel-Layer"/>
  <path class="fil0" d="M431 83c-41,-52 -107,-83 -179,-83 -72,0 -138,31 -179,83 -47,49 -73,113 -73,182 0,55 17,108 49,152 14,49 59,84 110,86 3,6 8,9 14,9 1,0 2,0 3,0l42 -8c8,-1 13,-7 13,-15 0,-1 0,-2 0,-3l-39 -224c-1,-7 -8,-13 -15,-13 -2,0 -3,0 -3,1l-43 7c-7,1 -13,8 -13,15 0,0 0,0 0,0 -27,12 -48,32 -61,58 -7,-21 -10,-43 -10,-65 0,-42 12,-83 35,-118 15,-5 25,-13 32,-19l0 -1 0 0c31,-36 82,-58 138,-58 53,0 103,20 134,53l0 1c1,1 2,2 3,3 5,6 16,16 33,21 23,35 35,76 35,118 0,22 -3,44 -10,65 -13,-26 -35,-46 -62,-58l0 0c0,-7 -5,-14 -12,-15l-43 -7c-1,-1 -2,-1 -3,-1 -7,0 -14,6 -15,13l-39 224c0,1 0,2 0,3 0,8 5,14 13,15l42 8c1,0 2,0 3,0 5,0 9,-2 12,-5l2 0 1 -4c50,-2 95,-37 109,-86 32,-44 49,-97 49,-152 0,-69 -26,-133 -73,-182zm-258 187l37 215 -33 6 -37 -215 33 -6zm154 221l-33 -6 37 -215 34 6 -1 1 -37 214z"/>
 </g>
</svg>
