<?xml version="1.0" encoding="UTF-8"?>
<!DOCTYPE svg PUBLIC "-//W3C//DTD SVG 1.1//EN" "http://www.w3.org/Graphics/SVG/1.1/DTD/svg11.dtd">
<!-- Creator: CorelDRAW X7 -->
<svg xmlns="http://www.w3.org/2000/svg" xml:space="preserve" width="354px" height="512px" version="1.1" style="shape-rendering:geometricPrecision; text-rendering:geometricPrecision; image-rendering:optimizeQuality; fill-rule:evenodd; clip-rule:evenodd"
viewBox="0 0 354 512"
 xmlns:xlink="http://www.w3.org/1999/xlink">
 <defs>
  <style type="text/css">
   <![CDATA[
    .fil0 {fill:black}
   ]]>
  </style>
 </defs>
 <g id="Layer_x0020_1">
  <metadata id="CorelCorpID_0Corel-Layer"/>
  <path class="fil0" d="M177 354c27,0 50,-9 70,-28 19,-20 29,-43 29,-70l0 -158c0,-27 -10,-50 -29,-69 -20,-19 -43,-29 -70,-29 -27,0 -50,10 -69,29 -20,19 -29,42 -29,69l0 158c0,27 9,50 29,70 19,19 42,28 69,28z"/>
  <path class="fil0" d="M349 203c-4,-4 -9,-6 -14,-6 -6,0 -10,2 -14,6 -4,4 -6,8 -6,14l0 39c0,38 -13,70 -40,97 -27,27 -60,41 -98,41 -38,0 -70,-14 -97,-41 -27,-27 -41,-59 -41,-97l0 -39c0,-6 -2,-10 -5,-14 -4,-4 -9,-6 -14,-6 -6,0 -10,2 -14,6 -4,4 -6,8 -6,14l0 39c0,45 15,85 45,118 31,34 68,53 113,58l0 41 -79 0c-6,0 -10,2 -14,5 -4,4 -6,9 -6,14 0,6 2,10 6,14 4,4 8,6 14,6l197 0c5,0 10,-2 14,-6 3,-4 5,-8 5,-14 0,-5 -2,-10 -5,-14 -4,-3 -9,-5 -14,-5l-79 0 0 -41c44,-5 82,-24 112,-58 30,-33 45,-73 45,-118l0 -39c0,-6 -1,-10 -5,-14z"/>
 </g>
</svg>
