<?xml version="1.0" encoding="UTF-8"?>
<!DOCTYPE svg PUBLIC "-//W3C//DTD SVG 1.1//EN" "http://www.w3.org/Graphics/SVG/1.1/DTD/svg11.dtd">
<!-- Creator: CorelDRAW X7 -->
<svg xmlns="http://www.w3.org/2000/svg" xml:space="preserve" width="907px" height="512px" version="1.1" style="shape-rendering:geometricPrecision; text-rendering:geometricPrecision; image-rendering:optimizeQuality; fill-rule:evenodd; clip-rule:evenodd"
viewBox="0 0 907 512"
 xmlns:xlink="http://www.w3.org/1999/xlink">
 <defs>
  <style type="text/css">
   <![CDATA[
    .fil0 {fill:black}
   ]]>
  </style>
 </defs>
 <g id="Layer_x0020_1">
  <metadata id="CorelCorpID_0Corel-Layer"/>
  <path class="fil0" d="M209 512l-201 0c-4,0 -8,-4 -8,-8l0 -457c0,-26 21,-47 47,-47l123 0c26,0 48,21 48,47l0 457c0,4 -4,8 -9,8zm-67 -42l-66 0c-5,0 -9,-3 -9,-8 0,-5 4,-8 9,-8l66 0c5,0 9,3 9,8 0,5 -4,8 -9,8zm-33 -116c-38,0 -69,-31 -69,-69 0,-38 31,-69 69,-69 38,0 69,31 69,69 0,38 -31,69 -69,69zm0 -121c-29,0 -52,23 -52,52 0,29 23,53 52,53 29,0 52,-24 52,-53 0,-29 -23,-52 -52,-52zm0 82c-17,0 -30,-13 -30,-30 0,-16 13,-30 30,-30 16,0 30,14 30,30 0,17 -14,30 -30,30zm0 -131c-38,0 -69,-31 -69,-69 0,-38 31,-69 69,-69 38,0 69,31 69,69 0,38 -31,69 -69,69zm0 -121c-29,0 -52,23 -52,52 0,29 23,52 52,52 29,0 52,-23 52,-52 0,-29 -23,-52 -52,-52zm0 82c-17,0 -30,-13 -30,-30 0,-16 13,-30 30,-30 16,0 30,14 30,30 0,17 -14,30 -30,30z"/>
  <path class="fil0" d="M899 512l-201 0c-5,0 -8,-4 -8,-8l0 -457c0,-26 21,-47 47,-47l123 0c26,0 47,21 47,47l0 457c0,4 -3,8 -8,8zm-67 -42l-67 0c-4,0 -8,-3 -8,-8 0,-5 4,-8 8,-8l67 0c5,0 8,3 8,8 0,5 -3,8 -8,8zm-33 -116c-39,0 -70,-31 -70,-69 0,-38 31,-69 70,-69 38,0 69,31 69,69 0,38 -31,69 -69,69zm0 -121c-29,0 -53,23 -53,52 0,29 24,53 53,53 28,0 52,-24 52,-53 0,-29 -24,-52 -52,-52zm0 82c-17,0 -30,-13 -30,-30 0,-16 13,-30 30,-30 16,0 30,14 30,30 0,17 -14,30 -30,30zm0 -131c-39,0 -70,-31 -70,-69 0,-38 31,-69 70,-69 38,0 69,31 69,69 0,38 -31,69 -69,69zm0 -121c-29,0 -53,23 -53,52 0,29 24,52 53,52 28,0 52,-23 52,-52 0,-29 -24,-52 -52,-52zm0 82c-17,0 -30,-13 -30,-30 0,-16 13,-30 30,-30 16,0 30,14 30,30 0,17 -14,30 -30,30z"/>
  <path class="fil0" d="M644 512l-381 0c-7,0 -12,-5 -12,-11l0 -100c0,-6 5,-11 12,-11l381 0c6,0 11,5 11,11l0 100c0,6 -5,11 -11,11zm-66 -31c-16,0 -30,-14 -30,-30 0,-16 14,-30 30,-30 16,0 29,14 29,30 0,16 -13,30 -29,30zm-129 -19l-134 0c-6,0 -11,-5 -11,-11 0,-6 5,-11 11,-11l134 0c6,0 11,5 11,11 0,6 -5,11 -11,11z"/>
 </g>
</svg>
