<?xml version="1.0" encoding="UTF-8"?>
<!DOCTYPE svg PUBLIC "-//W3C//DTD SVG 1.1//EN" "http://www.w3.org/Graphics/SVG/1.1/DTD/svg11.dtd">
<!-- Creator: CorelDRAW X7 -->
<svg xmlns="http://www.w3.org/2000/svg" xml:space="preserve" width="512px" height="460px" version="1.1" style="shape-rendering:geometricPrecision; text-rendering:geometricPrecision; image-rendering:optimizeQuality; fill-rule:evenodd; clip-rule:evenodd"
viewBox="0 0 512 460"
 xmlns:xlink="http://www.w3.org/1999/xlink">
 <defs>
  <style type="text/css">
   <![CDATA[
    .fil0 {fill:black}
   ]]>
  </style>
 </defs>
 <g id="Layer_x0020_1">
  <metadata id="CorelCorpID_0Corel-Layer"/>
  <path class="fil0" d="M130 460l0 -8 258 0 0 8 76 0 0 -8 27 0c12,0 21,-7 21,-19l0 -218c0,-12 -10,-22 -22,-22l-24 0 0 -56c0,-15 -12,-27 -27,-27l-28 0 48 -88c6,0 11,-5 11,-11 0,-6 -5,-11 -12,-11 -6,0 -11,5 -11,11 0,3 1,6 3,7l-50 92 -326 0c-15,0 -27,12 -27,27l0 56 -25 0c-12,0 -22,10 -22,22l0 218c0,12 11,19 23,19l31 0 0 8 76 0zm201 -212c-5,0 -10,-5 -10,-11 0,-5 5,-10 10,-10 6,0 11,5 11,10 0,6 -5,11 -11,11zm-34 -7l-126 0c-3,0 -4,-1 -4,-4 0,-2 1,-3 4,-3l126 0c2,0 4,1 4,3 0,3 -2,4 -4,4zm-235 -48l34 0 0 -9c0,-5 5,-9 10,-9l18 0c5,0 10,4 10,9l0 9 10 0 0 -9c0,-5 4,-9 10,-9l18 0c5,0 9,4 9,9l0 9 11 0 0 -9c0,-5 4,-9 9,-9l18 0c6,0 10,4 10,9l0 9 10 0 0 -9c0,-5 4,-9 10,-9l18 0c5,0 9,4 9,9l0 9 45 0 0 -2c0,-5 5,-9 10,-9l28 0 22 -50 5 3 6 -10 -318 0c-7,0 -12,5 -12,12l0 56zm340 0l49 0 0 -56c0,-7 -5,-12 -12,-12l-36 0 -8 14 4 1 -19 42 12 0c6,0 10,4 10,9l0 2zm59 92c0,5 -5,10 -10,10 9,13 15,29 15,46 0,19 -7,36 -19,50 1,0 1,-1 2,-1 6,0 11,5 11,11 0,6 -5,11 -11,11 -6,0 -11,-5 -11,-11 0,0 0,-1 0,-1 -13,11 -30,17 -48,17 -18,0 -35,-6 -48,-17 0,0 0,1 0,1 0,6 -5,11 -11,11 -6,0 -11,-5 -11,-11 0,-6 5,-11 11,-11 0,0 1,1 1,1 -11,-14 -18,-31 -18,-50 0,-19 7,-36 18,-50 0,0 0,0 0,0 -6,0 -11,-5 -11,-11 0,-6 5,-11 11,-11 6,0 11,5 11,11 0,1 0,1 0,1 13,-10 29,-16 47,-16 19,0 36,7 49,18 1,-5 6,-9 11,-9 6,0 11,5 11,11zm-410 116c0,-6 5,-11 11,-11 1,0 1,1 2,1 -12,-14 -19,-31 -19,-50 0,-19 7,-36 18,-50 0,0 0,0 0,0 -6,0 -10,-5 -10,-11 0,-6 4,-11 10,-11 6,0 11,5 11,11 0,1 0,1 0,1 13,-10 29,-16 47,-16 19,0 36,7 50,18 0,-5 5,-9 10,-9 6,0 11,5 11,11 0,5 -4,10 -10,10 10,13 15,29 15,46 0,19 -7,36 -18,50 0,0 1,-1 1,-1 6,0 11,5 11,11 0,6 -5,11 -11,11 -6,0 -11,-5 -11,-11 0,0 0,-1 0,-1 -13,10 -30,17 -48,17 -18,0 -35,-7 -48,-17 0,0 0,1 0,1 0,6 -5,11 -11,11 -6,0 -11,-5 -11,-11zm339 -126c-36,0 -65,30 -65,66 0,36 29,65 65,65 36,0 65,-29 65,-65 0,-36 -29,-66 -65,-66zm0 122c-31,0 -56,-25 -56,-56 0,-31 25,-56 56,-56 31,0 56,25 56,56 0,31 -25,56 -56,56zm20 -56c0,11 -9,20 -20,20 -11,0 -20,-9 -20,-20 0,-11 9,-20 20,-20 11,0 20,9 20,20zm-289 65c36,0 65,-29 65,-65 0,-36 -29,-65 -65,-65 -36,0 -65,29 -65,65 0,36 29,65 65,65zm0 -121c31,0 56,25 56,56 0,31 -25,56 -56,56 -31,0 -56,-25 -56,-56 0,-31 25,-56 56,-56zm20 56c0,11 -9,20 -20,20 -11,0 -20,-9 -20,-20 0,-11 9,-20 20,-20 11,0 20,9 20,20z"/>
 </g>
</svg>
