<?xml version="1.0" encoding="UTF-8"?>
<!DOCTYPE svg PUBLIC "-//W3C//DTD SVG 1.1//EN" "http://www.w3.org/Graphics/SVG/1.1/DTD/svg11.dtd">
<!-- Creator: CorelDRAW X7 -->
<svg xmlns="http://www.w3.org/2000/svg" xml:space="preserve" width="925px" height="512px" version="1.1" style="shape-rendering:geometricPrecision; text-rendering:geometricPrecision; image-rendering:optimizeQuality; fill-rule:evenodd; clip-rule:evenodd"
viewBox="0 0 925 512"
 xmlns:xlink="http://www.w3.org/1999/xlink">
 <defs>
  <style type="text/css">
   <![CDATA[
    .fil0 {fill:black}
   ]]>
  </style>
 </defs>
 <g id="Layer_x0020_1">
  <metadata id="CorelCorpID_0Corel-Layer"/>
  <path class="fil0" d="M847 353l-74 0c-10,0 -19,9 -19,19 0,10 9,19 19,19l74 0c10,0 19,-9 19,-19 0,-10 -9,-19 -19,-19zm-695 0l-74 0c-10,0 -19,9 -19,19 0,10 9,19 19,19l74 0c10,0 19,-9 19,-19 0,-10 -9,-19 -19,-19zm746 -192l-871 0c-15,0 -27,12 -27,27l0 133c0,15 12,27 27,27l871 0c15,0 27,-12 27,-27l0 -133c0,-15 -12,-27 -27,-27zm-290 123c0,11 -9,20 -20,20l-521 0c-11,0 -20,-9 -20,-20l0 -59c0,-11 9,-20 20,-20l521 0c11,0 20,9 20,20l0 59zm68 1c-17,0 -30,-14 -30,-30 0,-17 13,-31 30,-31 17,0 30,14 30,31 0,16 -13,30 -30,30zm90 0c-16,0 -30,-14 -30,-30 0,-17 14,-31 30,-31 17,0 30,14 30,31 0,16 -13,30 -30,30zm91 0c-17,0 -31,-14 -31,-30 0,-17 14,-31 31,-31 16,0 30,14 30,31 0,16 -14,30 -30,30zm-269 -61l-521 0c0,0 -1,0 -1,1l0 59c0,1 1,1 1,1l521 0c1,0 1,0 1,-1l0 -59c0,-1 0,-1 -1,-1z"/>
 </g>
</svg>
