<?xml version="1.0" encoding="UTF-8"?>
<!DOCTYPE svg PUBLIC "-//W3C//DTD SVG 1.1//EN" "http://www.w3.org/Graphics/SVG/1.1/DTD/svg11.dtd">
<!-- Creator: CorelDRAW X7 -->
<svg xmlns="http://www.w3.org/2000/svg" xml:space="preserve" width="942px" height="512px" version="1.1" style="shape-rendering:geometricPrecision; text-rendering:geometricPrecision; image-rendering:optimizeQuality; fill-rule:evenodd; clip-rule:evenodd"
viewBox="0 0 942 512"
 xmlns:xlink="http://www.w3.org/1999/xlink">
 <defs>
  <style type="text/css">
   <![CDATA[
    .fil0 {fill:black}
   ]]>
  </style>
 </defs>
 <g id="Layer_x0020_1">
  <metadata id="CorelCorpID_0Corel-Layer"/>
  <path class="fil0" d="M419 240l47 0 0 -16 -47 0 0 16zm0 -24l47 0 0 -16 -47 0 0 16zm0 -24l47 0 0 -16 -47 0 0 16zm0 -24l47 0 0 -16 -47 0 0 16zm0 -24l47 0 0 -16 -47 0 0 16zm58 96l47 0 0 -16 -47 0 0 16zm0 -24l47 0 0 -16 -47 0 0 16zm0 -24l47 0 0 -16 -47 0 0 16zm58 48l47 0 0 -16 -47 0 0 16zm0 -24l47 0 0 -16 -47 0 0 16zm0 -24l47 0 0 -16 -47 0 0 16zm0 -24l47 0 0 -16 -47 0 0 16zm0 -24l47 0 0 -16 -47 0 0 16zm0 -24l47 0 0 -16 -47 0 0 16zm58 120l47 0 0 -16 -47 0 0 16zm0 -24l47 0 0 -16 -47 0 0 16zm0 -24l47 0 0 -16 -47 0 0 16zm0 -24l47 0 0 -16 -47 0 0 16zm-290 72l47 0 0 -16 -47 0 0 16zm0 -24l47 0 0 -16 -47 0 0 16zm0 -24l47 0 0 -16 -47 0 0 16zm0 -24l47 0 0 -16 -47 0 0 16zm58 72l47 0 0 -16 -47 0 0 16zm0 -24l47 0 0 -16 -47 0 0 16zm430 -73l17 0 -9 -17 -8 17zm-791 -143l0 486 74 0 0 26 113 0 0 -26 566 0 0 26 113 0 0 -26 76 0 0 -486 -942 0zm184 420l-142 0 0 -7 142 0 0 7zm0 -57l-142 0 0 -7 142 0 0 7zm0 -57l-142 0 0 -7 142 0 0 7zm0 -57l-142 0 0 -7 142 0 0 7zm0 -57l-142 0 0 -7 142 0 0 7zm0 -57l-142 0 0 -7 142 0 0 7zm0 -57l-142 0 0 -7 142 0 0 7zm123 303c-17,0 -31,-14 -31,-30 0,-17 14,-31 31,-31 17,0 31,14 31,31 0,16 -14,30 -31,30zm109 0c-17,0 -31,-14 -31,-30 0,-17 14,-31 31,-31 17,0 31,14 31,31 0,16 -14,30 -31,30zm109 0c-17,0 -30,-14 -30,-30 0,-17 13,-31 30,-31 18,0 31,14 31,31 0,16 -13,30 -31,30zm110 0c-17,0 -31,-14 -31,-30 0,-17 14,-31 31,-31 17,0 31,14 31,31 0,16 -14,30 -31,30zm38 -120l-399 0 0 -189 399 0 0 189 0 0zm105 100c-6,0 -10,-5 -10,-10 0,-6 4,-11 10,-11 6,0 10,5 10,11 0,5 -4,10 -10,10zm43 0c-5,0 -10,-5 -10,-10 0,-6 5,-11 10,-11 6,0 10,5 10,11 1,5 -4,10 -10,10zm-22 -139c-30,0 -54,-24 -54,-53 0,-30 24,-53 54,-53 30,0 55,23 55,53 0,29 -25,53 -55,53zm76 -53c0,-25 -13,-47 -34,-61 -12,-8 -27,-13 -42,-13 -41,0 -75,33 -75,74l-10 0c0,-46 38,-84 85,-84 17,0 34,5 48,15 23,15 38,41 38,69l-10 0z"/>
 </g>
</svg>
