<?xml version="1.0" encoding="UTF-8"?>
<!DOCTYPE svg PUBLIC "-//W3C//DTD SVG 1.1//EN" "http://www.w3.org/Graphics/SVG/1.1/DTD/svg11.dtd">
<!-- Creator: CorelDRAW X7 -->
<svg xmlns="http://www.w3.org/2000/svg" xml:space="preserve" width="672px" height="512px" version="1.1" style="shape-rendering:geometricPrecision; text-rendering:geometricPrecision; image-rendering:optimizeQuality; fill-rule:evenodd; clip-rule:evenodd"
viewBox="0 0 672 512"
 xmlns:xlink="http://www.w3.org/1999/xlink">
 <defs>
  <style type="text/css">
   <![CDATA[
    .fil0 {fill:black}
   ]]>
  </style>
 </defs>
 <g id="Layer_x0020_1">
  <metadata id="CorelCorpID_0Corel-Layer"/>
  <path class="fil0" d="M672 0l-672 0 0 512 672 0 0 -512zm-63 391l0 -49c0,-1 0,-2 1,-3 0,-2 2,-3 4,-4 1,0 2,0 2,0 1,0 1,0 1,0 1,0 1,0 2,1 2,1 3,2 4,4 0,1 0,1 0,2l0 49c5,0 10,0 14,0 1,0 2,0 3,1 2,0 3,2 4,4 0,0 0,1 0,2 0,9 0,19 0,28 0,1 0,2 0,3 -1,2 -3,3 -5,4 0,0 -1,0 -2,0 -4,0 -9,0 -14,0l0 44c0,1 0,1 0,1 0,2 -1,3 -2,4 -1,1 -2,1 -3,2 0,0 -1,0 -2,0 -2,0 -5,-1 -6,-4 -1,-1 -1,-1 -1,-2 0,-1 0,-1 0,-1l0 -44c-5,0 -9,0 -14,0 -1,0 -2,0 -3,0 -1,-1 -3,-3 -4,-5 0,0 0,-1 0,-2 0,-9 0,-19 0,-28 0,-1 0,-2 1,-2 0,-2 2,-4 4,-4 0,-1 1,-1 2,-1 5,0 9,0 14,0zm-70 35l0 -84c0,-1 0,-1 0,-2 1,-2 3,-4 5,-5 1,0 1,0 2,0 1,0 1,0 1,0 1,0 1,0 2,1 2,1 3,2 4,4 0,1 0,1 0,2l0 84c5,0 10,0 14,0 1,0 2,0 2,1 2,0 4,2 5,4 0,0 0,1 0,2 0,9 0,19 0,29 0,0 0,1 0,1 -1,2 -2,4 -4,5 -1,0 -2,0 -3,0 -4,0 -9,0 -14,0l0 9c0,1 0,1 0,1 0,2 -1,3 -2,4 -1,1 -2,1 -3,2 -2,0 -5,0 -7,-2 0,-1 -1,-1 -1,-2 -1,-1 -1,-1 -1,-2 0,-1 0,-1 0,-1l0 -9c-5,0 -10,0 -14,0 -1,0 -2,0 -2,0 -2,-1 -4,-2 -4,-4 -1,-1 -1,-2 -1,-2 0,-10 0,-20 0,-29 0,-1 0,-2 1,-2 0,-2 2,-4 4,-4 0,-1 1,-1 2,-1 4,0 9,0 14,0zm-490 -70l0 -14c0,-1 0,-2 0,-3 1,-2 3,-3 5,-4 1,0 1,0 2,0 0,0 0,0 1,0 0,0 1,0 2,1 1,1 3,2 3,4 1,1 1,1 1,2l0 14c4,0 9,0 14,0 1,0 1,0 2,0 2,1 3,3 4,5 1,0 1,1 1,2 0,9 0,19 0,28 0,1 0,2 -1,3 -1,2 -2,3 -4,4 -1,0 -1,0 -2,0 -5,0 -10,0 -14,0l0 79c0,0 0,0 0,1 0,1 -1,1 -1,2 0,1 -1,1 -1,2 -2,2 -5,2 -8,2 0,-1 -1,-1 -2,-2 -1,-1 -2,-2 -2,-4 0,0 0,0 0,-1l0 -79c-5,0 -10,0 -15,0 0,0 -1,0 -2,0 -2,-1 -3,-3 -4,-5 0,0 0,-1 0,-2 -1,-9 -1,-19 0,-28 0,-1 0,-2 0,-2 1,-2 2,-4 4,-4 1,-1 2,-1 2,-1 5,0 10,0 15,0zm350 0l0 -14c0,-1 0,-2 0,-3 1,-2 3,-3 5,-4 1,0 2,0 2,0 1,0 1,0 1,0 1,0 1,0 2,1 2,1 3,2 4,4 0,1 0,1 0,2l0 14c5,0 10,0 14,0 1,0 2,0 3,1 1,0 3,2 4,4 0,0 0,1 0,2 0,9 0,19 0,28 0,1 0,2 -1,3 0,2 -2,3 -4,4 0,0 -1,0 -2,0 -4,0 -9,0 -14,0l0 79c0,1 0,1 0,1 0,2 -1,3 -2,4 -1,1 -2,1 -2,1 -3,1 -6,1 -8,-1 0,0 -1,-1 -1,-2 -1,-1 -1,-1 -1,-2 0,-1 0,-1 0,-1l0 -79c-5,0 -10,0 -14,0 -1,0 -2,0 -2,0 -2,-1 -4,-2 -5,-4 0,-1 0,-2 0,-3 0,-9 0,-19 0,-28 0,-1 0,-2 0,-2 1,-2 2,-4 4,-4 1,-1 2,-1 3,-1 4,0 9,0 14,0zm70 35l0 -49c0,-1 0,-2 1,-3 0,-2 2,-3 4,-4 1,0 2,0 2,0 1,0 1,0 1,0 1,0 1,0 2,1 2,1 3,2 4,4 0,1 0,1 0,2l0 49c5,0 10,0 14,0 1,0 2,0 3,1 2,0 3,2 4,4 0,0 0,1 0,2 0,9 0,19 0,28 0,1 0,2 0,2 -1,2 -2,4 -4,5 -1,0 -2,0 -3,0 -4,0 -9,0 -14,0l0 44c0,1 0,1 0,1 0,2 -1,3 -2,4 -1,1 -1,1 -2,1 -3,1 -6,1 -8,-1 0,0 -1,-1 -1,-2 -1,-1 -1,-1 -1,-2 0,-1 0,-1 0,-1l0 -44c-5,0 -10,0 -14,0 -1,0 -2,0 -3,0 -1,-1 -3,-3 -4,-5 0,0 0,-1 0,-2 0,-9 0,-19 0,-28 0,-1 0,-2 0,-2 1,-2 3,-4 4,-4 1,-1 2,-1 3,-1 4,0 9,0 14,0zm-210 0l0 -49c0,-1 0,-2 0,-3 1,-2 3,-3 5,-4 1,0 2,0 2,0 0,0 1,0 1,0 1,0 1,0 2,1 2,1 3,2 4,4 0,1 0,1 0,2l0 49c5,0 9,0 14,0 1,0 2,0 2,1 2,0 4,2 4,4 1,0 1,1 1,2 0,9 0,19 0,28 0,1 0,2 -1,3 0,2 -2,3 -4,4 0,0 -1,0 -2,0 -5,0 -9,0 -14,0l0 44c0,1 0,1 0,1 -1,2 -1,3 -3,4 -2,2 -5,2 -7,1 -1,0 -1,0 -2,-1 0,0 -1,-1 -1,-2 -1,-1 -1,-1 -1,-2 0,-1 0,-1 0,-1l0 -44c-5,0 -10,0 -14,0 -1,0 -2,0 -2,0 -2,-1 -4,-2 -5,-4 0,-1 0,-2 0,-3 0,-9 0,-19 0,-28 0,-1 0,-2 0,-2 1,-2 2,-4 4,-4 1,-1 2,-1 3,-1 4,0 9,0 14,0zm70 -35l0 -14c0,-1 0,-1 0,-2 1,-2 2,-4 5,-5 0,0 1,0 2,0 0,0 1,0 1,0 1,0 1,0 2,1 2,1 3,2 4,4 0,1 0,1 0,2l0 14c5,0 9,0 14,0 1,0 2,0 3,1 1,0 3,2 4,4 0,0 0,1 0,2 0,9 0,19 0,28 0,1 0,2 0,2 -1,2 -3,4 -4,5 -1,0 -2,0 -3,0 -5,0 -9,0 -14,0l0 79c0,0 0,0 0,1 0,1 0,1 -1,2 0,1 -1,2 -2,2 -2,2 -5,2 -7,1 -1,0 -1,0 -2,-1 -1,-1 -2,-2 -2,-4 0,0 0,0 0,-1l0 -79c-5,0 -10,0 -14,0 -1,0 -2,0 -3,0 -2,-1 -3,-3 -4,-5 0,0 0,-1 0,-2 0,-9 0,-19 0,-28 0,-1 0,-2 0,-2 1,-2 3,-4 5,-5 0,0 1,0 2,0 4,0 9,0 14,0zm-210 35l0 -49c0,-1 0,-2 0,-3 1,-2 3,-3 5,-4 1,0 1,0 2,0 0,0 1,0 1,0 0,0 1,0 2,1 1,1 3,2 3,4 1,1 1,1 1,2l0 49c5,0 9,0 14,0 1,0 2,0 2,1 2,0 4,2 4,4 1,0 1,1 1,2 0,9 0,19 0,28 0,1 0,2 -1,3 0,2 -2,3 -4,4 -1,0 -1,0 -2,0 -5,0 -9,0 -14,0l0 44c0,1 0,1 0,1 -1,2 -1,3 -3,4 0,1 -1,1 -1,1 -3,1 -6,1 -8,-1 -1,0 -1,-1 -1,-2 -1,-1 -1,-1 -1,-2 0,-1 0,-1 0,-1l0 -44c-5,0 -10,0 -15,0 0,0 -1,0 -2,0 -1,-1 -3,-2 -4,-4 0,-1 0,-2 0,-3 0,-9 0,-19 0,-28 0,-1 0,-2 0,-2 1,-2 2,-4 4,-4 1,-1 2,-1 2,-1 5,0 10,0 15,0zm70 35l0 -84c0,-1 0,-2 0,-3 1,-2 3,-3 5,-4 1,0 1,0 2,0 0,0 1,0 1,0 0,0 1,0 2,1 2,1 3,2 4,4 0,1 0,1 0,2l0 84c5,0 9,0 14,0 1,0 2,0 2,1 2,0 4,2 4,4 1,1 1,1 1,2 0,9 0,19 0,29 0,0 0,1 -1,2 0,2 -2,3 -4,4 -1,0 -1,0 -2,0 -5,0 -9,0 -14,0l0 9c0,0 0,0 0,1 0,1 -1,1 -1,2 0,1 -1,2 -2,2 0,1 -1,1 -1,1 -3,1 -6,1 -8,-1 -1,-1 -2,-2 -2,-4 0,0 0,0 0,-1l0 -9c-5,0 -10,0 -15,0 0,0 -1,0 -2,0 -2,-1 -3,-3 -4,-5 0,0 0,-1 0,-1 0,-10 0,-20 0,-29 0,-1 0,-2 0,-2 1,-2 3,-4 5,-4 0,-1 1,-1 1,-1 5,0 10,0 15,0zm21 28l0 -14 -28 0 0 0 0 0 0 14 0 0 28 0zm350 0l0 -14 -28 0 0 14 28 0zm-70 -49l0 0 -28 0 0 14 28 0 0 -14 0 0zm-350 14l0 -14 -28 0 0 14 28 0zm140 -14l0 0 0 0 -28 0 0 14 28 0 0 -14zm350 14l0 -14 -28 0 0 0 0 0 0 14 28 0zm-560 -49l-28 0 0 14 28 0 0 0 0 0 0 -14zm350 14l0 -14 -28 0 0 0 0 14 0 0 28 0zm-70 0l0 -14 -28 0 0 14 28 0zm-140 -121c1,0 2,0 2,1 2,0 4,2 4,4 1,1 1,1 1,2 0,9 0,19 0,29 0,0 0,1 -1,2 0,1 -2,3 -4,4 0,0 -1,0 -2,0 -14,1 -28,1 -43,0 0,0 -1,0 -2,0 -1,-1 -3,-2 -4,-4 0,-1 0,-2 0,-2 0,-10 0,-20 0,-29 0,-1 0,-2 0,-2 1,-2 3,-4 4,-4 1,-1 2,-1 2,-1 15,0 29,0 43,0zm70 0c1,0 2,0 2,1 2,0 4,2 4,4 1,1 1,1 1,2 0,9 0,19 0,29 0,0 0,1 -1,2 0,1 -2,3 -4,4 0,0 -1,0 -2,0 -14,1 -28,1 -42,0 -1,0 -2,0 -2,0 -2,-1 -4,-2 -5,-4 0,-1 0,-2 0,-2 0,-10 0,-20 0,-29 0,-1 0,-1 0,-2 1,-2 2,-4 4,-4 1,-1 2,-1 3,-1 14,0 28,0 42,0zm-210 0c1,0 2,0 2,1 2,0 4,2 4,4 1,1 1,1 1,2 0,9 0,19 0,29 0,0 0,1 -1,2 0,1 -2,3 -4,4 0,0 -1,0 -2,0 -14,1 -28,1 -43,0 0,0 -1,0 -2,0 -2,-1 -3,-3 -4,-4 0,-1 0,-2 0,-2 -1,-10 -1,-20 0,-29 0,-1 0,-1 0,-2 1,-2 2,-4 4,-4 1,-1 2,-1 2,-1 15,0 29,0 43,0zm70 0c1,0 2,0 2,1 2,0 4,2 4,4 1,1 1,1 1,2 0,9 0,19 0,29 0,0 0,1 -1,2 0,2 -2,3 -4,4 -1,0 -1,0 -2,0 -14,1 -28,1 -43,0 0,0 -1,0 -2,0 -2,-1 -3,-3 -4,-4 0,-1 0,-2 0,-2 0,-10 0,-20 0,-29 0,-1 0,-1 0,-2 1,-2 2,-4 4,-4 1,-1 2,-1 2,-1 15,0 29,0 43,0zm210 0c1,0 2,0 2,1 2,0 4,2 4,4 1,0 1,1 1,2 0,9 0,19 0,29 0,0 0,1 0,2 -1,1 -3,3 -4,4 -1,0 -2,0 -3,0 -14,1 -28,1 -42,0 -1,0 -2,0 -2,0 -2,-1 -4,-2 -5,-4 0,-1 0,-2 0,-2 0,-10 0,-20 0,-29 0,-1 0,-2 0,-2 1,-2 3,-4 5,-4 0,-1 1,-1 2,-1 14,0 28,0 42,0zm238 10c1,0 2,0 3,1 2,0 3,2 4,4 0,0 0,1 0,2 0,9 0,19 0,28 0,1 0,2 0,3 -1,1 -2,3 -4,4 -1,0 -2,0 -3,0 -9,0 -19,0 -28,0 -1,0 -2,0 -2,0 -2,-1 -4,-2 -4,-4 -1,-1 -1,-2 -1,-3 0,-9 0,-19 0,-28 0,-1 0,-2 1,-2 0,-2 2,-4 4,-4 0,-1 1,-1 2,-1 9,0 19,0 28,0zm-168 0c1,0 2,0 2,1 2,0 4,2 4,4 1,0 1,1 1,2 0,9 0,19 0,28 0,1 0,2 0,3 -1,1 -3,3 -4,4 -1,0 -2,0 -3,0 -9,0 -19,0 -28,0 -1,0 -2,0 -3,0 -2,-1 -3,-3 -4,-4 0,-1 0,-2 0,-3 0,-9 0,-19 0,-28 0,-1 0,-2 0,-2 1,-2 3,-4 5,-4 0,-1 1,-1 2,-1 9,0 19,0 28,0zm56 0c1,0 2,0 3,1 1,0 3,2 4,4 0,0 0,1 0,2 0,9 0,19 0,28 0,1 0,2 0,3 -1,1 -3,3 -4,4 -1,0 -2,0 -3,0 -9,0 -19,0 -28,0 -1,0 -2,0 -2,0 -2,-1 -4,-2 -4,-4 -1,-1 -1,-2 -1,-3 0,-9 0,-19 0,-28 0,-1 0,-2 1,-2 0,-2 2,-4 4,-4 0,-1 1,-1 2,-1 9,0 19,0 28,0zm168 0c1,0 2,0 3,1 1,0 3,2 4,4 0,0 0,1 0,2 0,9 0,19 0,28 0,1 0,2 0,3 -1,1 -2,3 -4,4 -1,0 -2,0 -3,0 -9,0 -19,0 -28,0 -1,0 -2,0 -2,0 -2,-1 -4,-2 -4,-4 -1,-1 -1,-2 -1,-3 0,-9 0,-19 0,-28 0,-1 0,-2 1,-2 0,-2 2,-4 4,-4 0,-1 1,-1 2,-1 9,0 19,0 28,0zm-112 0c1,0 2,0 3,1 2,0 3,2 4,4 0,0 0,1 0,2 0,9 0,19 0,28 0,1 0,2 0,3 -1,1 -2,3 -4,4 -1,0 -2,0 -3,0 -9,0 -19,0 -28,0 -1,0 -2,0 -2,0 -2,-1 -4,-2 -4,-4 -1,-1 -1,-2 -1,-3 0,-9 0,-19 0,-28 0,-1 0,-2 0,-2 1,-2 3,-4 4,-4 1,-1 2,-1 3,-1 9,0 19,0 28,0zm105 14l-14 0 0 14 14 0 0 -14zm-112 0l-14 0 0 14 14 0 0 -14zm-56 0l-14 0 0 14 14 0 0 -14zm112 0l-14 0 0 14 14 0 0 -14zm-168 0l-14 0 0 14 14 0 0 -14zm-70 -10l-28 0 0 14 28 0 0 -14zm-140 0l-28 0 0 14 28 0 0 -14zm-140 0l-28 0 0 14 28 0 0 -14zm210 0l-28 0 0 14 28 0 0 -14zm-140 0l-28 0 0 14 28 0 0 -14zm343 -60c1,0 2,0 3,1 1,0 3,2 4,4 0,0 0,1 0,2 0,9 0,19 0,28 0,1 0,2 0,3 -1,1 -3,3 -4,4 -1,0 -2,0 -3,0 -9,0 -19,0 -28,0 -1,0 -2,0 -2,0 -2,-1 -4,-2 -4,-4 -1,-1 -1,-2 -1,-3 0,-9 0,-19 0,-28 0,-1 0,-2 1,-3 0,-1 2,-3 4,-3 0,-1 1,-1 2,-1 9,0 19,0 28,0zm-56 0c1,0 2,0 3,1 1,0 3,2 4,4 0,0 0,1 0,2 0,9 0,19 0,28 0,1 0,2 -1,3 0,2 -2,3 -4,4 0,0 -1,0 -2,0 -9,0 -19,0 -28,0 -1,0 -2,0 -3,0 -2,-1 -3,-3 -4,-4 0,-1 0,-2 0,-3 0,-9 0,-19 0,-28 0,-1 0,-2 0,-3 1,-1 3,-3 5,-3 0,-1 1,-1 2,-1 9,0 19,0 28,0zm168 0c1,0 2,0 3,1 2,0 3,2 4,4 0,0 0,1 0,2 0,9 0,19 0,28 0,1 0,2 0,3 -1,1 -2,3 -4,4 -1,0 -2,0 -3,0 -9,0 -19,0 -28,0 -1,0 -2,0 -3,0 -1,-1 -3,-3 -3,-4 -1,-1 -1,-2 -1,-3 0,-9 0,-19 0,-28 0,-1 0,-2 1,-2 0,-2 2,-4 3,-4 1,-1 2,-1 3,-1 9,0 19,0 28,0zm-56 0c1,0 2,0 2,1 2,0 4,2 5,3 0,1 0,2 0,3 0,9 0,19 0,28 0,1 0,2 0,3 -1,2 -3,3 -5,4 0,0 -1,0 -2,0 -9,0 -19,0 -28,0 -1,0 -2,0 -3,0 -1,-1 -3,-3 -4,-4 0,-1 0,-2 0,-3 0,-9 0,-19 0,-28 0,-1 0,-2 1,-3 0,-1 2,-3 4,-3 0,-1 1,-1 2,-1 9,0 19,0 28,0zm112 0c1,0 2,0 3,1 1,0 3,2 4,3 0,1 0,2 0,3 0,9 0,19 0,28 0,1 0,2 0,3 -1,2 -3,3 -4,4 -1,0 -2,0 -3,0 -9,0 -19,0 -28,0 -1,0 -2,0 -2,0 -2,-1 -4,-2 -4,-4 -1,-1 -1,-2 -1,-3 0,-9 0,-19 0,-28 0,-1 0,-2 1,-3 0,-1 2,-3 4,-3 0,-1 1,-1 2,-1 9,0 19,0 28,0zm-525 -43c2,0 3,0 4,0 3,1 6,2 9,3 5,3 9,7 12,13 1,2 2,5 2,8 1,3 1,5 0,8 0,3 -1,6 -2,8 -1,3 -3,6 -6,8 -2,3 -5,4 -8,6 -4,1 -8,2 -11,2 -4,0 -8,-1 -11,-2 -3,-2 -6,-3 -9,-6 -2,-2 -4,-5 -6,-8 -1,-2 -2,-5 -2,-8 0,-3 0,-5 0,-8 0,-3 1,-6 2,-8 3,-6 8,-10 13,-13 3,-1 6,-2 8,-3 2,0 3,0 4,0 1,0 1,0 1,0zm71 0c1,0 2,0 3,0 3,1 6,2 9,3 5,3 9,7 12,13 1,2 2,5 2,8 1,3 1,5 0,8 0,3 -1,6 -2,8 -1,3 -3,6 -6,8 -2,3 -5,4 -8,6 -4,1 -7,2 -11,2 -4,0 -8,-1 -11,-2 -3,-2 -6,-3 -9,-6 -2,-2 -4,-5 -5,-8 -2,-2 -2,-5 -3,-8 0,-3 0,-5 0,-8 1,-3 1,-6 3,-8 2,-6 7,-10 12,-13 3,-1 6,-2 9,-3 1,0 2,0 3,0 1,0 1,0 2,0zm70 0c1,0 2,0 3,0 3,1 6,2 9,3 5,3 9,7 12,13 1,2 2,5 3,8 0,3 0,5 0,8 -1,3 -2,6 -3,8 -1,3 -3,6 -6,8 -2,3 -5,4 -8,6 -4,1 -7,2 -11,2 -4,0 -8,-1 -11,-2 -3,-2 -6,-3 -8,-6 -3,-2 -5,-5 -6,-8 -2,-2 -2,-5 -3,-8 0,-3 0,-5 0,-8 1,-3 1,-6 3,-8 2,-6 7,-10 12,-13 3,-1 6,-2 9,-3 1,0 2,0 3,0 1,0 1,0 2,0zm70 0c1,0 2,0 3,0 3,1 6,2 9,3 5,3 10,7 12,13 1,2 2,5 3,8 0,3 0,5 0,8 -1,3 -2,6 -3,8 -1,3 -3,6 -6,8 -2,3 -5,4 -8,6 -4,1 -7,2 -11,2 -4,0 -8,-1 -11,-2 -3,-2 -6,-3 -8,-6 -3,-2 -5,-5 -6,-8 -2,-2 -2,-5 -3,-8 0,-3 0,-5 0,-8 1,-3 1,-6 3,-8 2,-6 7,-10 12,-13 3,-1 6,-2 9,-3 1,0 2,0 3,0 1,0 1,0 2,0zm-281 0c2,0 3,0 4,0 3,1 6,2 8,3 6,3 10,7 13,13 1,2 2,5 2,8 1,3 1,5 0,8 0,3 -1,6 -2,8 -2,3 -4,6 -6,8 -2,3 -5,4 -8,6 -4,1 -8,2 -11,2 -4,0 -8,-1 -11,-2 -3,-2 -6,-3 -9,-6 -2,-2 -4,-5 -6,-8 -1,-2 -2,-5 -2,-8 0,-3 0,-5 0,-8 0,-3 1,-6 2,-8 3,-6 8,-10 13,-13 3,-1 5,-2 8,-3 2,0 3,0 4,0 1,0 1,0 1,0zm588 57l-14 0 0 14 14 0 0 -14zm-168 0l-14 0 0 14 14 0 0 -14zm112 0l-14 0 0 14 14 0 0 -14zm-56 0l-14 0 0 14 14 0 0 -14zm-112 0l-14 0 0 14 14 0 0 -14zm-282 -22c0,0 0,-1 0,-1 1,-1 1,-3 2,-4 0,-2 0,-3 -1,-5 0,-4 -3,-8 -7,-9 -2,-1 -4,-2 -6,-2 0,0 0,0 -1,0 -2,0 -4,1 -6,2 -3,1 -6,5 -7,9 0,2 0,3 0,5 0,1 1,3 1,4 1,2 2,3 3,4 1,1 3,2 4,3 2,1 4,1 6,1 2,0 3,0 5,-1 1,0 1,-1 2,-1 -4,-3 -7,-6 -10,-10 0,0 -1,-1 -1,-1 0,-2 1,-3 2,-4 1,0 1,0 2,-1 0,0 0,0 0,1 1,0 2,0 2,0 3,4 7,7 10,10zm121 5c0,0 1,1 1,1 2,1 4,1 5,1 2,0 4,0 6,-1 2,-1 3,-1 4,-3 2,-1 3,-2 3,-4 1,-1 1,-2 2,-4 0,-1 0,-3 0,-4 -1,-4 -4,-8 -7,-10 -2,-1 -4,-2 -6,-2 -1,0 -1,0 -2,0 -2,0 -4,1 -6,2 -3,1 -6,5 -7,9 0,1 0,3 0,5 0,1 1,2 1,4 0,0 0,1 1,1 3,-3 6,-7 10,-10 0,0 1,0 2,0 0,0 0,-1 0,-1 0,1 1,1 1,1 2,1 3,2 2,4 0,0 0,1 0,1 -4,4 -7,7 -10,10zm-60 2c1,-1 1,-1 2,-1 2,-1 3,-1 4,-3 1,-1 3,-2 3,-4 1,-1 1,-2 2,-4 0,-1 0,-3 0,-4 -1,-4 -4,-8 -8,-10 -1,-1 -3,-2 -5,-2 -1,0 -1,0 -2,0 -2,0 -4,1 -6,2 -3,1 -6,5 -7,9 0,1 0,3 0,5 0,1 0,2 1,4 1,1 2,3 3,4 1,1 3,2 4,3 1,0 1,0 2,1 0,-5 0,-10 0,-14 0,-1 0,-1 1,-1 0,-2 1,-2 3,-2 0,-1 0,-1 0,0 1,0 3,0 3,2 0,0 0,0 0,1 0,4 0,9 0,14zm-140 0c1,-1 1,-1 2,-1 1,-1 3,-1 4,-3 1,-1 2,-2 3,-4 1,-1 1,-2 1,-4 1,-1 1,-3 1,-4 -1,-4 -4,-8 -8,-10 -1,-1 -3,-2 -6,-2 0,0 0,0 -1,0 -2,0 -4,1 -6,2 -3,1 -6,5 -7,9 0,1 0,3 0,5 0,1 0,2 1,4 1,1 2,3 3,4 1,1 2,2 4,3 1,0 1,0 2,1 0,-5 0,-10 0,-14 0,-1 1,-3 2,-3 1,0 1,0 1,0 1,-1 1,-1 1,0 1,0 2,0 3,2 0,0 0,0 0,1 0,4 0,9 0,14zm281 0c0,-1 1,-1 1,-1 2,-1 3,-2 5,-3 1,-1 2,-2 3,-4 0,-1 1,-3 1,-4 0,-2 0,-3 0,-5 -1,-4 -4,-8 -8,-9 -2,-1 -4,-2 -6,-2 0,0 0,0 0,0 -3,0 -5,1 -6,2 -4,1 -7,5 -8,9 0,2 0,3 0,5 0,1 1,3 1,4 1,2 2,3 3,4 1,1 3,2 4,3 1,0 2,0 2,1 0,-5 0,-10 0,-14 0,-1 1,-1 1,-1 0,-2 1,-2 3,-2 0,-1 0,-1 0,0 1,0 3,0 3,2 0,0 0,0 0,1 1,4 1,9 1,14zm-3 -112c1,0 2,0 3,0 3,1 6,2 9,3 5,3 10,7 12,13 1,2 2,5 3,8 0,3 0,5 0,8 -1,3 -2,6 -3,8 -1,3 -3,6 -6,8 -2,3 -5,4 -8,6 -4,1 -7,2 -11,2 -4,0 -8,-1 -11,-2 -3,-2 -6,-3 -8,-6 -3,-2 -5,-5 -6,-8 -2,-2 -2,-5 -3,-8 0,-3 0,-5 0,-8 1,-3 1,-6 3,-8 2,-6 7,-10 12,-13 3,-1 6,-2 9,-3 1,0 2,0 3,0 1,0 1,0 2,0zm-281 0c2,0 3,0 4,0 3,1 6,2 8,3 6,3 10,7 13,13 1,2 2,5 2,8 1,3 1,5 0,8 0,3 -1,6 -2,8 -2,3 -4,6 -6,8 -2,3 -5,4 -8,6 -4,1 -8,2 -11,2 -4,0 -8,-1 -11,-2 -3,-2 -6,-3 -9,-6 -2,-2 -4,-5 -6,-8 -1,-2 -2,-5 -2,-8 0,-3 0,-5 0,-8 0,-3 1,-6 2,-8 3,-6 8,-10 13,-13 3,-1 5,-2 8,-3 2,0 3,0 4,0 1,0 1,0 1,0zm70 0c2,0 3,0 4,0 3,1 6,2 9,3 5,3 9,7 12,13 1,2 2,5 2,8 1,3 1,5 0,8 0,3 -1,6 -2,8 -1,3 -3,6 -6,8 -2,3 -5,4 -8,6 -4,1 -8,2 -11,2 -4,0 -8,-1 -11,-2 -3,-2 -6,-3 -9,-6 -2,-2 -4,-5 -6,-8 -1,-2 -2,-5 -2,-8 0,-3 0,-5 0,-8 0,-3 1,-6 2,-8 3,-6 8,-10 13,-13 3,-1 6,-2 8,-3 2,0 3,0 4,0 1,0 1,0 1,0zm141 0c1,0 2,0 3,0 3,1 6,2 9,3 5,3 9,7 12,13 1,2 2,5 3,8 0,3 0,5 0,8 -1,3 -2,6 -3,8 -1,3 -3,6 -6,8 -2,3 -5,4 -8,6 -4,1 -7,2 -11,2 -4,0 -8,-1 -11,-2 -3,-2 -6,-3 -8,-6 -3,-2 -5,-5 -6,-8 -2,-2 -2,-5 -3,-8 0,-3 0,-5 0,-8 1,-3 1,-6 3,-8 2,-6 7,-10 12,-13 3,-1 6,-2 9,-3 1,0 2,0 3,0 1,0 1,0 2,0zm-70 0c1,0 2,0 3,0 3,1 6,2 9,3 5,3 9,7 12,13 1,2 2,5 2,8 1,3 1,5 0,8 0,3 -1,6 -2,8 -1,3 -3,6 -6,8 -2,3 -5,4 -8,6 -4,1 -7,2 -11,2 -4,0 -8,-1 -11,-2 -3,-2 -6,-3 -9,-6 -2,-2 -4,-5 -5,-8 -2,-2 -2,-5 -3,-8 0,-3 0,-5 0,-8 1,-3 1,-6 3,-8 2,-6 7,-10 12,-13 3,-1 6,-2 9,-3 1,0 2,0 3,0 1,0 1,0 2,0zm11 35c0,0 0,-1 0,-1 1,-1 1,-3 2,-4 0,-2 0,-3 0,-5 -1,-4 -4,-7 -8,-9 -1,-1 -3,-2 -5,-2 -1,0 -1,0 -2,0 -2,0 -4,1 -6,1 -3,2 -6,6 -7,10 0,2 0,3 0,5 0,1 1,3 1,4 1,2 2,3 3,4 1,1 3,2 4,3 2,1 4,1 6,1 2,0 4,0 5,-1 1,0 1,-1 2,-1 -4,-3 -7,-6 -10,-10 0,0 0,-1 -1,-1 0,-2 1,-3 2,-4 1,0 1,-1 2,-1 0,0 0,0 0,0 1,1 2,1 2,1 3,4 7,7 10,10zm-159 5c0,0 1,1 1,1 2,1 4,1 6,1 2,0 3,0 5,-1 2,-1 3,-2 4,-3 2,-1 3,-2 3,-4 1,-1 1,-3 2,-4 0,-2 0,-3 -1,-5 0,-4 -3,-7 -7,-9 -1,-1 -3,-2 -6,-2 0,0 0,0 -1,0 -2,0 -4,1 -6,1 -3,2 -6,6 -7,10 0,2 0,3 0,5 0,1 0,3 1,4 0,0 0,1 1,1 3,-3 6,-7 9,-10 1,0 2,0 2,-1 1,0 1,0 1,0 0,0 1,1 1,1 2,1 2,2 2,4 0,0 0,1 -1,1 -3,4 -6,7 -9,10zm80 1c1,0 2,0 2,0 2,-1 3,-2 4,-3 2,-1 3,-2 3,-4 1,-1 1,-3 2,-4 0,-2 0,-3 -1,-5 0,-4 -3,-7 -7,-9 -1,-1 -3,-2 -6,-2 0,0 0,0 -1,0 -2,0 -4,1 -6,1 -3,2 -6,6 -7,10 0,2 0,3 0,5 0,1 1,3 1,4 1,2 2,3 3,4 1,1 3,2 4,3 1,0 2,0 2,0 0,-4 0,-9 0,-13 0,-1 0,-1 1,-1 0,-2 1,-2 2,-3 1,0 1,0 1,0 0,0 1,1 1,1 1,0 2,1 2,3 0,4 0,9 0,13zm211 0c0,0 1,0 1,0 2,-1 3,-2 5,-3 1,-1 2,-2 3,-4 0,-1 1,-3 1,-4 0,-2 0,-3 0,-5 -1,-4 -4,-7 -7,-9 -2,-1 -4,-2 -6,-2 -1,0 -1,0 -1,0 -3,0 -5,1 -6,1 -4,2 -7,6 -8,10 0,2 0,3 0,5 0,1 1,3 1,4 1,2 2,3 3,4 1,1 3,2 4,3 1,0 2,0 2,0 0,-4 0,-9 0,-13 0,-2 1,-3 3,-3 0,0 0,-1 1,-1 0,0 0,0 0,0 1,1 3,1 3,3 0,0 0,0 0,1 1,4 1,9 1,13zm-71 0c1,0 2,0 2,0 2,-1 3,-2 5,-3 1,-1 2,-2 2,-4 1,-1 1,-3 2,-4 0,-2 0,-3 0,-5 -1,-4 -4,-7 -7,-9 -2,-1 -4,-2 -6,-2 -1,0 -1,0 -2,0 -2,0 -4,1 -6,1 -3,2 -6,6 -7,10 0,2 0,3 0,5 0,1 1,3 1,4 1,2 2,3 3,4 1,1 3,2 4,3 1,0 2,0 2,0 0,-4 0,-9 0,-13 0,-1 0,-1 1,-1 0,-2 1,-2 3,-3 0,0 0,0 0,0 1,1 3,1 3,3 0,0 0,0 0,1 0,4 1,9 0,13zm158 41c1,0 2,0 3,1 1,0 2,0 2,1 2,2 2,5 2,7 -1,1 -1,1 -2,2 0,1 -1,1 -2,2 -1,0 -2,1 -3,1 -9,0 -19,0 -28,0 -1,0 -3,-1 -4,-1 0,-1 -1,-1 -1,-2 -2,-2 -3,-4 -2,-7 1,0 1,-1 2,-2 0,-1 1,-1 2,-2 1,0 2,0 3,0 9,-1 19,-1 28,0zm56 0c1,0 2,0 3,1 1,0 2,0 2,1 2,2 2,5 2,7 -1,1 -1,1 -2,2 0,1 -1,1 -2,2 -1,0 -2,1 -3,1 -9,0 -19,0 -28,0 -1,0 -2,-1 -3,-1 -1,-1 -2,-1 -2,-2 -1,-1 -1,-1 -2,-2 0,-2 0,-5 2,-7 0,-1 1,-1 2,-1 1,-1 2,-1 3,-1 9,-1 19,-1 28,0zm56 0c1,0 3,0 4,1 0,0 1,0 1,1 2,2 3,5 2,7 -1,1 -1,1 -2,2 0,1 -1,1 -2,2 -1,0 -2,1 -3,1 -9,0 -19,0 -28,0 -1,0 -2,-1 -3,-1 -1,-1 -2,-1 -2,-2 -2,-2 -2,-4 -2,-7 1,0 1,-1 2,-2 0,-1 1,-1 2,-2 1,0 2,0 3,0 9,-1 19,-1 28,0zm56 0c1,0 2,0 3,0 1,1 2,1 2,2 1,1 1,2 2,2 1,3 0,5 -2,7 0,1 -1,1 -1,2 -1,0 -3,1 -4,1 -9,0 -19,0 -28,0 -1,0 -2,-1 -3,-1 -1,-1 -2,-1 -2,-2 -1,-1 -1,-1 -2,-2 0,-2 0,-5 2,-7 0,-1 1,-1 2,-1 1,-1 2,-1 3,-1 9,-1 19,-1 28,0zm56 0c1,0 2,0 3,0 1,1 2,1 3,2 0,1 0,2 1,2 0,1 0,2 0,3 0,2 -1,4 -3,6 -1,0 -2,1 -4,1 -9,0 -19,0 -28,0 -1,0 -2,-1 -3,-1 -1,-1 -2,-1 -2,-2 -1,-1 -1,-1 -1,-2 -1,-2 -1,-5 1,-7 0,-1 1,-1 2,-1 1,-1 2,-1 3,-1 9,-1 19,-1 28,0zm0 -14l-252 0c0,0 -1,0 -1,0 0,0 -1,-1 -1,-1 -2,0 -4,-2 -5,-4 0,-1 0,-1 0,-2 0,0 0,0 0,0l0 -130c0,0 0,0 0,-1 0,0 0,-1 0,-1 1,-2 3,-4 5,-5 0,0 1,0 1,0 0,0 1,0 1,0l252 0c0,0 1,0 1,0 0,0 0,0 1,0 0,0 1,0 1,1 2,1 3,2 4,4 0,0 0,1 0,1 0,1 0,1 0,1l0 130c0,0 0,0 0,0 0,1 0,1 0,2 -1,2 -3,4 -5,4 0,0 -1,1 -1,1 0,0 -1,0 -1,0zm-454 -138c1,0 2,0 3,0 3,1 6,2 9,3 5,3 10,8 12,13 1,3 2,5 2,8 1,2 1,5 0,8 0,3 -1,6 -2,8 -1,3 -3,6 -6,8 -2,3 -5,4 -8,6 -4,1 -7,2 -11,2 -4,0 -8,-1 -11,-2 -3,-2 -6,-3 -9,-6 -2,-2 -4,-5 -5,-8 -2,-2 -2,-5 -3,-8 0,-3 0,-6 0,-8 0,-3 1,-5 2,-8 3,-5 7,-10 13,-13 3,-1 6,-2 9,-3 1,0 2,0 3,0 1,0 1,0 2,0zm70 0c1,0 2,0 3,0 3,1 6,2 9,3 5,3 9,7 12,13 1,2 2,5 3,8 0,2 0,5 0,8 -1,3 -2,6 -3,8 -1,3 -3,6 -6,8 -2,3 -5,4 -8,6 -4,1 -7,2 -11,2 -4,0 -8,-1 -11,-2 -3,-2 -6,-3 -8,-6 -3,-2 -5,-5 -6,-8 -2,-2 -2,-5 -3,-8 0,-3 0,-6 0,-8 1,-3 1,-6 3,-8 2,-6 7,-10 12,-13 3,-1 6,-2 9,-3 1,0 2,0 3,0 1,0 1,0 2,0zm-141 0c2,0 3,0 4,0 3,1 6,2 9,3 5,3 9,7 12,13 1,2 2,5 2,8 1,2 1,5 0,8 0,3 -1,6 -2,8 -1,3 -3,6 -6,8 -2,3 -5,4 -8,6 -4,1 -8,2 -11,2 -4,0 -8,-1 -11,-2 -3,-2 -6,-3 -9,-6 -2,-2 -4,-5 -6,-8 -1,-2 -2,-5 -2,-8 0,-3 0,-6 0,-8 0,-3 1,-6 2,-8 3,-6 8,-10 13,-13 3,-1 6,-2 8,-3 2,0 3,0 4,0 1,0 1,0 1,0zm-70 0c2,0 3,0 4,0 3,1 6,2 8,3 6,3 10,7 13,13 1,2 2,5 2,8 1,2 1,5 0,8 0,3 -1,6 -2,8 -2,3 -4,6 -6,8 -2,3 -5,4 -8,6 -4,1 -8,2 -11,2 -4,0 -8,-1 -11,-2 -3,-2 -6,-3 -9,-6 -2,-2 -4,-5 -6,-8 -1,-2 -2,-5 -2,-8 0,-3 0,-6 0,-8 0,-3 1,-6 2,-8 3,-6 8,-10 13,-13 3,-1 5,-2 8,-3 2,0 3,0 4,0 1,0 1,0 1,0zm281 0c1,0 2,0 3,0 3,1 6,2 9,3 5,3 10,7 12,13 1,2 2,5 3,8 0,2 0,5 0,8 -1,3 -2,6 -3,8 -1,3 -3,6 -6,8 -2,3 -5,4 -8,6 -4,1 -7,2 -11,2 -4,0 -8,-1 -11,-2 -3,-2 -6,-3 -8,-6 -3,-2 -5,-5 -6,-8 -2,-2 -2,-5 -3,-8 0,-3 0,-6 0,-8 1,-3 1,-6 3,-8 2,-6 7,-10 12,-13 3,-1 6,-2 9,-3 1,0 2,0 3,0 1,0 1,0 2,0zm307 8l-238 0 0 116 238 0 0 -116zm-385 32c0,0 1,1 1,1 2,0 4,1 5,1 2,0 4,0 6,-1 2,-1 3,-2 4,-3 2,-1 3,-2 3,-4 1,-1 1,-2 2,-4 0,-1 0,-3 0,-4 -1,-5 -4,-8 -7,-10 -2,-1 -4,-2 -6,-2 -1,0 -1,0 -2,0 -2,0 -4,0 -6,1 -3,2 -6,6 -7,10 0,1 0,3 0,5 0,1 1,2 1,4 0,0 0,0 1,1 3,-3 6,-7 10,-10 0,0 1,-1 2,-1 0,0 0,0 0,0 0,0 1,1 1,1 2,1 3,2 2,4 0,0 0,1 0,1 -4,4 -7,7 -10,10zm-191 -5c0,0 0,0 0,-1 1,-1 1,-2 1,-4 1,-1 1,-3 1,-4 -1,-5 -4,-8 -8,-10 -1,-1 -3,-2 -6,-2 0,0 0,0 -1,0 -2,0 -4,0 -6,1 -3,2 -6,6 -7,10 0,1 0,3 0,5 0,1 0,2 1,4 1,1 2,3 3,4 1,1 2,2 4,3 2,0 3,1 5,1 2,0 4,0 6,-1 0,0 1,0 1,-1 -3,-3 -7,-6 -10,-10 0,0 0,-1 -1,-1 0,-2 1,-3 2,-4 1,0 1,-1 2,-1 0,0 0,0 0,0 1,0 2,1 2,1 4,4 7,7 11,10zm131 6c1,0 1,0 2,0 2,-1 3,-2 4,-3 1,-1 3,-2 3,-4 1,-1 1,-2 2,-4 0,-1 0,-3 0,-4 -1,-4 -4,-8 -7,-10 -2,-1 -4,-2 -6,-2 -1,0 -1,0 -2,0 -2,0 -4,0 -6,1 -3,2 -6,6 -7,10 0,1 0,3 0,5 0,1 0,2 1,4 1,1 2,3 3,4 1,1 3,2 4,3 1,0 1,0 2,0 0,-4 0,-9 0,-13 0,-1 0,-1 1,-1 0,-2 1,-2 3,-3 0,0 0,0 0,0 1,1 3,1 3,3 0,0 0,0 0,1 0,4 0,9 0,13zm-70 0c1,0 1,0 2,0 1,-1 3,-2 4,-3 1,-1 2,-2 3,-4 1,-1 1,-2 2,-4 0,-1 0,-3 0,-4 -1,-5 -4,-8 -8,-10 -1,-1 -3,-2 -6,-2 0,0 0,0 -1,0 -2,0 -4,0 -6,1 -3,2 -6,6 -7,10 0,1 0,3 0,5 0,1 0,2 1,4 1,1 2,3 3,4 1,1 2,2 4,3 1,0 1,0 2,0 0,-4 0,-9 0,-13 0,-2 1,-3 2,-3 1,0 1,-1 1,-1 1,0 1,0 1,0 0,0 1,1 1,1 1,0 2,1 2,3 0,4 0,9 0,13zm211 0c0,0 1,0 1,0 2,-1 3,-2 4,-3 2,-1 3,-2 3,-4 1,-1 1,-2 2,-4 0,-1 0,-3 0,-4 -1,-5 -4,-8 -7,-10 -2,-1 -4,-2 -6,-2 -1,0 -1,0 -1,0 -3,0 -5,0 -6,1 -4,2 -7,6 -8,10 0,1 0,3 0,5 0,1 1,2 1,4 1,1 2,3 3,4 1,1 3,2 4,3 1,0 2,0 2,0 0,-4 0,-9 0,-13 0,-2 1,-3 3,-3 0,0 0,-1 1,-1 0,0 0,0 0,0 1,1 3,1 3,3 0,0 0,0 0,1 1,4 1,9 1,13zm220 53c1,0 3,0 4,1 2,1 3,3 3,6 0,1 0,1 0,2 -1,1 -1,2 -2,2 0,1 -1,2 -2,2 -1,1 -2,1 -3,1 -9,0 -19,0 -28,0 -1,0 -2,-1 -3,-1 -1,0 -2,-1 -2,-1 -2,-2 -2,-5 -2,-7 1,-1 1,-2 2,-3 0,0 1,-1 2,-1 1,-1 2,-1 3,-1 9,0 19,0 28,0zm-49 0c1,0 3,0 3,1 3,1 4,3 4,6 0,1 0,1 0,2 -1,1 -1,2 -2,2 0,1 -1,2 -2,2 -1,1 -2,1 -3,1 -9,0 -19,0 -28,0 -1,0 -2,-1 -3,-1 -3,-1 -4,-4 -4,-6 0,-1 0,-2 0,-2 1,-1 1,-2 2,-3 0,0 1,-1 2,-1 1,-1 2,-1 3,-1 9,0 19,0 28,0zm-49 0c1,0 2,0 3,1 3,1 4,3 4,6 0,1 0,1 0,2 -1,1 -1,2 -2,2 0,1 -1,2 -2,2 -1,1 -2,1 -3,1 -9,0 -19,0 -28,0 -1,0 -2,0 -3,-1 -1,0 -2,-1 -2,-2 -1,0 -1,-1 -2,-2 0,-2 0,-5 2,-7 0,0 1,-1 2,-1 0,-1 2,-1 3,-1 9,0 19,0 28,0zm147 0c2,0 3,0 4,1 0,0 1,1 1,1 2,2 3,5 2,7 -1,1 -1,2 -2,2 0,1 -1,2 -2,2 -1,1 -2,1 -3,1 -9,0 -19,0 -28,0 -1,0 -2,-1 -3,-1 -1,0 -2,-1 -2,-1 -2,-2 -2,-5 -2,-7 1,-1 1,-2 2,-3 0,0 1,-1 2,-1 1,-1 2,-1 3,-1 9,0 19,0 28,0zm-98 -21c1,0 3,0 3,1 1,0 2,1 2,1 2,2 2,5 2,7 -1,1 -1,2 -2,2 0,1 -1,2 -2,2 -1,1 -2,1 -3,1 -9,0 -19,0 -28,0 -1,0 -2,-1 -3,-1 -3,-1 -4,-4 -4,-6 0,-1 0,-2 0,-2 1,-1 1,-2 2,-3 0,0 1,-1 2,-1 1,-1 2,-1 3,-1 9,0 19,0 28,0zm49 0c1,0 3,0 4,1 0,0 1,1 1,1 2,2 3,5 2,7 -1,1 -1,2 -2,2 0,1 -1,2 -2,2 -1,1 -2,1 -3,1 -9,0 -19,0 -28,0 -1,0 -2,-1 -3,-1 -1,0 -2,-1 -2,-1 -2,-2 -2,-5 -2,-7 1,-1 1,-2 2,-3 0,0 1,-1 2,-1 1,-1 2,-1 3,-1 9,0 19,0 28,0zm-98 0c1,0 2,0 3,1 1,0 2,1 2,1 2,2 2,5 2,7 -1,1 -1,2 -2,2 0,1 -1,2 -2,2 -1,1 -2,1 -3,1 -9,0 -19,0 -28,0 -1,0 -2,0 -3,-1 -1,0 -2,-1 -2,-2 -1,0 -1,-1 -2,-2 0,-2 0,-5 2,-7 0,0 1,-1 2,-1 0,-1 2,-1 3,-1 9,0 19,0 28,0zm147 0c2,0 3,0 4,1 0,0 1,1 1,1 2,2 3,5 2,7 -1,1 -1,2 -2,2 0,1 -1,2 -2,2 -1,1 -2,1 -3,1 -9,0 -19,0 -28,0 -1,0 -2,-1 -3,-1 -1,0 -2,-1 -2,-1 -2,-2 -2,-5 -2,-7 1,-1 1,-2 2,-3 0,0 1,-1 2,-1 1,-1 2,-1 3,-1 9,0 19,0 28,0zm-147 -21c1,0 2,0 3,1 1,0 2,1 2,1 1,1 1,2 2,2 0,1 0,2 0,3 0,2 -1,5 -4,6 -1,0 -2,1 -3,1 -9,0 -19,0 -28,0 -1,0 -2,0 -3,-1 -1,0 -2,-1 -2,-2 -1,0 -1,-1 -2,-2 0,-1 0,-1 0,-2 0,-3 1,-5 4,-6 0,-1 2,-1 3,-1 9,0 19,0 28,0zm49 0c1,0 3,0 3,1 3,1 4,3 4,6 0,1 0,1 0,2 -1,1 -1,2 -2,2 0,1 -1,2 -2,2 -1,1 -2,1 -3,1 -9,0 -19,0 -28,0 -1,0 -2,-1 -3,-1 -1,0 -2,-1 -2,-1 -2,-2 -2,-5 -2,-8 1,0 1,-1 2,-2 0,0 1,-1 2,-1 1,-1 2,-1 3,-1 9,0 19,0 28,0zm49 0c1,0 2,0 3,1 1,0 2,1 2,1 1,1 1,2 2,2 0,1 0,2 0,3 0,2 -1,5 -3,6 -1,0 -3,1 -4,1 -9,0 -19,0 -28,0 -1,0 -2,-1 -3,-1 -1,0 -2,-1 -2,-1 -2,-2 -2,-5 -2,-8 1,0 1,-1 2,-2 0,0 1,-1 2,-1 1,-1 2,-1 3,-1 9,0 19,0 28,0zm0 -21c1,0 2,0 3,1 1,0 2,1 2,1 1,1 1,2 2,2 0,1 0,2 0,3 0,2 -1,5 -3,6 -1,0 -3,1 -4,1 -9,0 -19,0 -28,0 -1,0 -2,-1 -3,-1 -1,0 -2,-1 -2,-2 -1,0 -1,-1 -2,-2 0,-1 0,-1 0,-2 0,-3 1,-5 4,-6 1,-1 2,-1 3,-1 9,0 19,0 28,0zm-98 0c1,0 2,0 3,1 1,0 2,1 2,1 1,1 1,2 2,2 0,1 0,2 0,3 0,2 -1,5 -4,6 -1,0 -2,1 -3,1 -9,0 -19,0 -28,0 -1,0 -3,-1 -3,-1 -1,0 -2,-1 -2,-1 -2,-2 -2,-5 -2,-8 1,0 1,-1 2,-2 0,0 1,-1 2,-1 1,-1 2,-1 3,-1 9,0 19,0 28,0z"/>
 </g>
</svg>
