<?xml version="1.0" encoding="UTF-8"?>
<!DOCTYPE svg PUBLIC "-//W3C//DTD SVG 1.1//EN" "http://www.w3.org/Graphics/SVG/1.1/DTD/svg11.dtd">
<!-- Creator: CorelDRAW X7 -->
<svg xmlns="http://www.w3.org/2000/svg" xml:space="preserve" width="596px" height="512px" version="1.1" style="shape-rendering:geometricPrecision; text-rendering:geometricPrecision; image-rendering:optimizeQuality; fill-rule:evenodd; clip-rule:evenodd"
viewBox="0 0 596 512"
 xmlns:xlink="http://www.w3.org/1999/xlink">
 <defs>
  <style type="text/css">
   <![CDATA[
    .fil0 {fill:black}
   ]]>
  </style>
 </defs>
 <g id="Layer_x0020_1">
  <metadata id="CorelCorpID_0Corel-Layer"/>
  <path class="fil0" d="M23 0l551 0c12,0 22,14 22,31l0 450c0,17 -10,31 -22,31l-551 0c-13,0 -23,-14 -23,-31l0 -450c0,-17 10,-31 23,-31zm481 51l41 0 0 103 -41 0 0 -103zm10 11l0 82 21 0 0 -82 -21 0zm-308 334c88,0 159,-72 159,-160 0,-88 -71,-159 -159,-159 -88,0 -160,71 -160,159 0,88 72,160 160,160zm0 -10c-83,0 -149,-67 -149,-150 0,-82 66,-149 149,-149 82,0 149,67 149,149 0,83 -67,150 -149,150zm-67 -150c0,0 0,-5 5,-5 5,0 5,5 5,5 0,32 25,57 57,57 0,0 5,0 5,5 0,5 -5,5 -5,5 -37,0 -67,-30 -67,-67zm67 -66c0,0 -6,0 -6,5 0,5 6,5 6,5 31,0 56,25 56,56 0,0 0,6 5,6 5,0 5,-6 5,-6 0,-36 -29,-66 -66,-66zm-98 66c0,0 0,-5 5,-5 5,0 5,5 5,5 0,49 39,88 88,88 0,0 5,0 5,5 0,5 -5,5 -5,5 -54,0 -98,-44 -98,-98zm98 -97c0,0 -6,-1 -6,5 0,5 6,5 6,5 48,2 87,39 87,87 0,0 0,6 5,6 5,0 5,-6 5,-6 0,-53 -43,-97 -97,-97zm-129 97c0,0 0,-5 5,-5 5,0 5,5 5,5 0,66 53,119 119,119 0,0 5,0 5,5 0,5 -5,5 -5,5 -71,0 -129,-58 -129,-129zm129 -128c0,0 -6,0 -6,5 0,5 6,5 6,5 65,0 118,53 118,118 0,0 0,6 5,6 5,0 5,-6 5,-6 0,-71 -57,-128 -128,-128zm-103 375c-17,0 -31,-14 -31,-31 0,-17 14,-31 31,-31 17,0 31,14 31,31 0,17 -14,31 -31,31zm0 -10c11,0 20,-9 20,-21 0,-11 -9,-20 -20,-20 -12,0 -21,9 -21,20 0,12 9,21 21,21zm205 10c-17,0 -30,-14 -30,-31 0,-17 13,-31 30,-31 17,0 31,14 31,31 0,17 -14,31 -31,31zm0 -10c12,0 21,-9 21,-21 0,-11 -9,-20 -21,-20 -11,0 -20,9 -20,20 0,12 9,21 20,21zm134 -350l0 189 -12 25c5,5 6,12 2,19l-25 44c-5,7 -14,10 -21,6 -8,-5 -10,-14 -6,-21l26 -45c3,-5 9,-8 15,-8l11 -24 0 -185c-18,-2 -31,-17 -31,-36 0,-19 16,-36 36,-36 20,0 36,17 36,36 0,19 -14,34 -31,36l0 0zm-236 360c-17,0 -31,-14 -31,-31 0,-17 14,-31 31,-31 17,0 30,14 30,31 0,17 -13,31 -30,31zm0 -10c11,0 20,-9 20,-21 0,-11 -9,-20 -20,-20 -12,0 -21,9 -21,20 0,12 9,21 21,21zm231 -360c14,0 26,-11 26,-26 0,-14 -12,-25 -26,-25 -14,0 -26,11 -26,25 0,15 12,26 26,26zm62 370c-26,0 -47,-21 -47,-46 0,-26 21,-46 47,-46 25,0 46,20 46,46 0,25 -21,46 -46,46zm0 -10c19,0 36,-16 36,-36 0,-20 -17,-36 -36,-36 -20,0 -36,16 -36,36 0,20 16,36 36,36zm-293 -201c19,0 36,-16 36,-36 0,-19 -17,-36 -36,-36 -20,0 -36,17 -36,36 0,20 16,36 36,36z"/>
 </g>
</svg>
