<?xml version="1.0" encoding="UTF-8"?>
<!DOCTYPE svg PUBLIC "-//W3C//DTD SVG 1.1//EN" "http://www.w3.org/Graphics/SVG/1.1/DTD/svg11.dtd">
<!-- Creator: CorelDRAW X7 -->
<svg xmlns="http://www.w3.org/2000/svg" xml:space="preserve" width="792px" height="512px" version="1.1" style="shape-rendering:geometricPrecision; text-rendering:geometricPrecision; image-rendering:optimizeQuality; fill-rule:evenodd; clip-rule:evenodd"
viewBox="0 0 792 512"
 xmlns:xlink="http://www.w3.org/1999/xlink">
 <defs>
  <style type="text/css">
   <![CDATA[
    .fil0 {fill:black}
   ]]>
  </style>
 </defs>
 <g id="Layer_x0020_1">
  <metadata id="CorelCorpID_0Corel-Layer"/>
  <path class="fil0" d="M0 81l0 350 792 0 0 -350 -792 0zm673 69l49 0 0 22 -49 0 0 -22zm0 41l49 0 0 22 -49 0 0 -22zm-569 183l-66 0 0 -8 66 0 0 8zm0 -39l-66 0 0 -8 66 0 0 8zm0 -38l-66 0 0 -9 66 0 0 9zm0 -39l-66 0 0 -9 66 0 0 9zm0 -39l-66 0 0 -8 66 0 0 8zm0 -39l-66 0 0 -8 66 0 0 8zm0 -39l-66 0 0 -8 66 0 0 8zm62 -4l453 0 0 89 -453 0 0 -89zm32 227c-16,0 -28,-12 -28,-27 0,-15 12,-28 28,-28 15,0 28,13 28,28 0,15 -13,27 -28,27zm99 0c-16,0 -28,-12 -28,-27 0,-15 12,-28 28,-28 15,0 28,13 28,28 0,15 -13,27 -28,27zm99 0c-16,0 -28,-12 -28,-27 0,-15 12,-28 28,-28 15,0 28,13 28,28 0,15 -13,27 -28,27zm99 0c-16,0 -28,-12 -28,-27 0,-15 12,-28 28,-28 15,0 28,13 28,28 0,15 -13,27 -28,27zm169 24c-29,0 -53,-23 -53,-51 0,-29 24,-52 53,-52 29,0 52,23 52,52 0,28 -23,51 -52,51zm53 2l-6 -6c13,-12 21,-29 21,-47 0,-37 -31,-67 -68,-67 -38,0 -69,30 -69,67 0,18 8,35 21,47l-6 6c-14,-13 -23,-32 -23,-53 0,-42 34,-76 77,-76 42,0 77,34 77,76 0,21 -9,40 -24,53z"/>
 </g>
</svg>
