<?xml version="1.0" encoding="UTF-8"?>
<!DOCTYPE svg PUBLIC "-//W3C//DTD SVG 1.1//EN" "http://www.w3.org/Graphics/SVG/1.1/DTD/svg11.dtd">
<!-- Creator: CorelDRAW X7 -->
<svg xmlns="http://www.w3.org/2000/svg" xml:space="preserve" width="329px" height="512px" version="1.1" style="shape-rendering:geometricPrecision; text-rendering:geometricPrecision; image-rendering:optimizeQuality; fill-rule:evenodd; clip-rule:evenodd"
viewBox="0 0 329 512"
 xmlns:xlink="http://www.w3.org/1999/xlink">
 <defs>
  <style type="text/css">
   <![CDATA[
    .fil0 {fill:black}
   ]]>
  </style>
 </defs>
 <g id="Layer_x0020_1">
  <metadata id="CorelCorpID_0Corel-Layer"/>
  <path class="fil0" d="M132 338l-18 0c-3,0 -5,3 -5,5l0 18c0,3 2,5 5,5l18 0c2,0 5,-2 5,-5l0 -18c0,-2 -3,-5 -5,-5zm105 -250l6 -11 17 9c3,1 6,0 8,-3 1,-3 0,-6 -3,-8l-17 -8 5 -10 17 8c3,2 7,0 8,-2 2,-3 0,-7 -3,-8l-17 -9 5 -10 18 8c2,2 6,1 7,-2 2,-3 1,-7 -2,-8l-17 -9 4 -8c7,-15 25,-21 39,-14 15,8 21,25 13,40l-4 9 -17 -9c-3,-2 -7,0 -8,3 -2,2 0,6 3,7l17 9 -5 10 -18 -8c-2,-2 -6,-1 -7,2 -2,3 -1,7 2,8l17 9 -5 10 -17 -9c-3,-1 -6,0 -8,3 -1,3 0,6 3,8l17 8 -5 11c-3,5 -6,9 -11,12 3,6 4,12 4,19l-7 72c-2,18 -2,35 -3,52l-1 18 0 24c0,3 0,6 -1,9l-3 134c0,32 -26,58 -58,58l-92 0c-32,0 -57,-26 -57,-58l-6 -185c0,-17 -1,-34 -3,-52l-7 -71c0,-7 2,-14 4,-21 -4,-2 -8,-6 -10,-11l-6 -11 18 -9c3,-1 4,-5 2,-7 -1,-3 -5,-4 -8,-3l-17 9 -5 -11 17 -8c3,-2 4,-5 3,-8 -1,-3 -5,-4 -8,-3l-17 9 -5 -10 17 -9c3,-1 4,-5 3,-8 -2,-3 -5,-4 -8,-2l-18 8 -4 -8c-7,-15 -1,-33 13,-40 15,-7 32,-1 40,13l4 9 -17 9c-3,1 -4,5 -3,7 2,3 5,5 8,3l17 -9 5 11 -17 8c-3,2 -4,5 -3,8 2,3 5,4 8,3l18 -9 5 10 -18 9c-2,1 -4,5 -2,8 1,3 5,4 8,2l17 -8 5 10c0,1 1,1 1,2 3,-1 7,-2 11,-2l122 0 0 0c4,0 8,1 12,2l0 -1zm-23 333l-18 0c-2,0 -5,2 -5,4l0 18c0,3 3,5 5,5l18 0c3,0 5,-2 5,-5l0 -18c0,-2 -2,-4 -5,-4zm-82 0l-18 0c-3,0 -5,2 -5,4l0 18c0,3 2,5 5,5l18 0c2,0 5,-2 5,-5l0 -18c0,-2 -3,-4 -5,-4zm23 22c0,13 -10,23 -23,23l-18 0c-13,0 -23,-10 -23,-23l0 -18c0,-12 10,-23 23,-23l18 0c13,0 23,11 23,23l0 18 0 0zm0 -82c0,13 -10,23 -23,23l-18 0c-13,0 -23,-10 -23,-23l0 -18c0,-12 10,-23 23,-23l18 0c13,0 23,11 23,23l0 18 0 0zm82 82c0,13 -10,23 -23,23l-18 0c-12,0 -23,-10 -23,-23l0 -18c0,-12 11,-23 23,-23l18 0c13,0 23,11 23,23l0 18 0 0zm0 -82c0,13 -10,23 -23,23l-18 0c-12,0 -23,-10 -23,-23l0 -18c0,-12 11,-23 23,-23l18 0c13,0 23,11 23,23l0 18 0 0zm5 -185l-1 44c-4,21 -23,38 -45,38l-63 0c-25,0 -45,-21 -45,-46l0 -50c0,-26 20,-46 45,-46l63 0c25,0 46,20 46,46l0 88 0 -74zm-28 162l-18 0c-2,0 -5,3 -5,5l0 18c0,3 3,5 5,5l18 0c3,0 5,-2 5,-5l0 -18c0,-2 -2,-5 -5,-5zm24 -140l-11 0 0 -22 11 0 0 22zm-17 6l-11 0 0 -34 11 0 0 34zm-85 -34l0 34 -11 0 0 -34 11 0zm-34 34l-11 0 0 -34 11 0 0 34zm102 -40l0 45 -11 0 0 -45 11 0zm-96 -5l11 0 0 56 -11 0 0 -56zm79 67l-11 0 0 -79 11 0 0 79zm-45 -79l11 0 0 79 -11 0 0 -79zm28 102l-11 0 0 -121 11 0 0 121z"/>
 </g>
</svg>
