<?xml version="1.0" encoding="UTF-8"?>
<!DOCTYPE svg PUBLIC "-//W3C//DTD SVG 1.1//EN" "http://www.w3.org/Graphics/SVG/1.1/DTD/svg11.dtd">
<!-- Creator: CorelDRAW X7 -->
<svg xmlns="http://www.w3.org/2000/svg" xml:space="preserve" width="936px" height="512px" version="1.1" style="shape-rendering:geometricPrecision; text-rendering:geometricPrecision; image-rendering:optimizeQuality; fill-rule:evenodd; clip-rule:evenodd"
viewBox="0 0 936 512"
 xmlns:xlink="http://www.w3.org/1999/xlink">
 <defs>
  <style type="text/css">
   <![CDATA[
    .fil0 {fill:black}
   ]]>
  </style>
 </defs>
 <g id="Layer_x0020_1">
  <metadata id="CorelCorpID_0Corel-Layer"/>
  <path class="fil0" d="M567 234l17 0 -9 -17 -8 17zm-487 -10c20,0 37,17 37,37 0,20 -17,37 -37,37 -20,0 -37,-17 -37,-37 0,-20 17,-37 37,-37zm495 89c-29,0 -54,-24 -54,-53 0,-29 25,-53 54,-53 30,0 55,24 55,53 0,29 -25,53 -55,53zm75 -53c0,-24 -12,-47 -33,-61 -12,-8 -27,-12 -42,-12 -41,0 -74,33 -74,73l-10 0c0,-46 38,-83 84,-83 17,0 34,5 48,14 23,16 37,41 37,69l-10 0zm136 -26l17 0 -9 -17 -8 17zm-786 -112l0 274 74 0 0 16 112 0 0 -16 562 0 0 16 112 0 0 -16 76 0 0 -274 -936 0zm794 191c-30,0 -54,-24 -54,-53 0,-29 24,-53 54,-53 30,0 54,24 54,53 0,29 -24,53 -54,53zm75 -53c0,-24 -13,-47 -33,-61 -13,-8 -27,-12 -42,-12 -41,0 -75,33 -75,73l-10 0c0,-46 38,-83 85,-83 17,0 33,5 47,14 24,16 38,41 38,69l-10 0zm-766 -18l0 -3c0,-1 -1,-2 -2,-2 -1,0 -3,0 -3,0 -5,-4 -11,-6 -18,-6 -16,0 -29,14 -29,30 0,17 13,30 29,30 17,0 30,-13 30,-30 0,-7 -7,-26 -7,-19l0 0zm-38 26c-3,0 -5,-2 -5,-5 0,-3 2,-5 5,-5 3,0 5,2 5,5 0,3 -2,5 -5,5l0 0zm16 14c-3,0 -6,-3 -6,-5 0,-3 3,-6 6,-6 2,0 5,3 5,6 0,2 -3,5 -5,5l0 0zm15 -14c-3,0 -6,-2 -6,-5 0,-3 3,-5 6,-5 3,0 5,2 5,5 0,3 -2,5 -5,5l0 0zm-15 27c0,0 0,0 0,0 0,0 0,0 0,0l0 0z"/>
 </g>
</svg>
