<?xml version="1.0" encoding="UTF-8"?>
<!DOCTYPE svg PUBLIC "-//W3C//DTD SVG 1.1//EN" "http://www.w3.org/Graphics/SVG/1.1/DTD/svg11.dtd">
<!-- Creator: CorelDRAW X7 -->
<svg xmlns="http://www.w3.org/2000/svg" xml:space="preserve" width="538px" height="512px" version="1.1" style="shape-rendering:geometricPrecision; text-rendering:geometricPrecision; image-rendering:optimizeQuality; fill-rule:evenodd; clip-rule:evenodd"
viewBox="0 0 538 512"
 xmlns:xlink="http://www.w3.org/1999/xlink">
 <defs>
  <style type="text/css">
   <![CDATA[
    .fil0 {fill:black}
   ]]>
  </style>
 </defs>
 <g id="Layer_x0020_1">
  <metadata id="CorelCorpID_0Corel-Layer"/>
  <path class="fil0" d="M347 249l-251 0 0 -18 251 0 0 -12 -251 0 0 -6 -6 0 0 6 -30 0 0 12 30 0 0 18 -30 0 0 12 30 0 0 6 6 0 0 -6 251 0 0 -12zm-245 -84l380 -126 -2 -6 10 -4 2 8 27 -8 -3 -9 -26 9 -2 -7 25 -9 -4 -13 -26 8 4 13 -10 3 -3 -8 -448 149 -26 0 0 347 538 0 0 -347 -436 0zm346 31c25,0 46,21 46,46 0,26 -20,46 -46,46 -25,0 -46,-20 -46,-46 0,-25 20,-46 46,-46zm-386 140l12 13 -12 12 -13 -12 13 -13zm-7 -21l13 0 -6 6 -7 -6zm48 21l12 13 -12 12 -13 -12 13 -13zm-7 -21l13 0 -6 6 -7 -6zm48 21l13 13 -13 12 -12 -12 12 -13zm-6 -21l13 0 -7 6 -6 -6zm48 21l13 13 -13 12 -13 -12 13 -13zm-7 -21l14 0 -7 6 -7 -6zm48 21l13 13 -13 12 -12 -12 12 -13zm-6 -21l13 0 -7 6 -6 -6zm48 21l13 13 -13 12 -12 -13 12 -12zm-6 -21l13 0 -7 6 -6 -6zm47 21l13 13 -13 12 -12 -12 12 -13zm-6 -21l13 0 -7 6 -6 -6zm48 21l12 13 -12 12 -13 -12 13 -13zm-7 -21l13 0 -6 6 -7 -6zm90 21l12 13 -12 12 -13 -12 13 -13zm-7 -21l13 0 -6 6 -7 -6zm15 54l13 -13 12 13 -12 13 -13 -13zm4 21l-12 13 -13 -13 13 -13 12 13zm-4 -62l13 -13 12 13 -12 12 -13 -12zm-17 41l-12 13 -13 -13 13 -13 12 13zm-20 21l-13 13 -13 -13 13 -13 13 13zm-12 -29l-13 -13 13 -12 12 12 -12 13zm-9 8l-12 13 -13 -13 13 -13 12 13zm-282 8l12 13 -12 13 -13 -13 13 -13zm-21 5l-13 -13 13 -13 13 13 -13 13zm29 -13l13 -13 12 13 -12 13 -13 -13zm33 8l13 13 -13 13 -12 -13 12 -13zm9 -8l13 -13 12 13 -12 13 -13 -13zm33 8l13 13 -13 13 -13 -13 13 -13zm8 -8l13 -13 13 13 -13 13 -13 -13zm33 8l13 13 -13 12 -12 -12 12 -13zm9 -8l12 -13 13 13 -13 13 -12 -13zm33 8l13 13 -13 12 -12 -13 12 -12zm9 -8l12 -13 13 13 -13 13 -12 -13zm32 8l13 13 -13 13 -12 -13 12 -13zm9 -8l12 -13 13 13 -13 13 -12 -13zm33 8l12 13 -12 13 -13 -13 13 -13zm-21 -37l-12 -13 12 -12 13 12 -13 13zm-42 0l-12 -13 12 -12 13 12 -13 13zm-41 0l-12 -13 12 -12 13 12 -13 13zm-42 0l-12 -13 12 -12 13 12 -13 13zm-41 0l-12 -13 12 -12 13 12 -13 13zm-41 0l-13 -13 13 -12 12 12 -12 13zm-42 0l-13 -13 13 -12 13 12 -13 13zm-8 50l-13 13 -13 -13 13 -13 13 13zm0 41l-13 13 -13 -13 13 -12 13 12zm-4 -20l13 -13 12 13 -12 12 -13 -12zm33 8l12 13 -12 12 -13 -12 13 -13zm8 -8l13 -13 12 13 -12 12 -13 -12zm33 8l13 13 -13 12 -12 -12 12 -13zm9 -8l13 -13 12 13 -12 12 -13 -12zm33 8l13 13 -13 12 -13 -13 13 -12zm8 -8l13 -13 13 13 -13 12 -13 -12zm33 8l13 13 -13 12 -12 -13 12 -12zm9 -8l12 -13 13 13 -13 12 -12 -12zm33 8l13 13 -13 12 -12 -13 12 -12zm9 -8l12 -13 13 13 -13 12 -12 -12zm32 8l13 13 -13 12 -12 -12 12 -13zm9 -8l12 -13 13 13 -13 12 -12 -12zm33 8l12 13 -12 12 -13 -12 13 -13zm8 -8l13 -13 12 13 -12 12 -13 -12zm34 8l12 13 -12 12 -13 -12 13 -13zm8 -8l13 -13 12 13 -12 12 -13 -12zm33 8l12 13 -12 12 -13 -12 13 -13zm8 -8l13 -13 12 13 -12 12 -13 -12zm33 8l13 13 -13 12 -12 -12 12 -13zm-12 -29l13 -13 12 13 -12 13 -13 -13zm12 -29l-12 -13 12 -12 13 12 -13 13zm0 -40l-6 -6 13 0 -7 6zm-62 -6l12 13 -12 12 -13 -12 13 -13zm-14 0l-6 6 -7 -6 13 0zm-15 13l-12 12 -13 -12 13 -13 12 13zm92 -300l2 5 -396 132 -19 0 413 -137zm-435 179l323 0 0 66 -323 0 0 -66zm0 109l11 12 -11 11 0 -23zm0 42l11 12 -11 10 0 -22zm0 42l11 11 -11 11 0 -22zm0 64l0 -23 11 12 -11 11zm12 6l8 -8 7 8 -15 0zm28 -5l-12 -13 13 -12 12 12 -13 13zm13 5l8 -8 8 8 -16 0zm29 -5l-13 -13 13 -12 12 12 -12 13zm13 5l8 -8 8 8 -16 0zm28 -5l-12 -13 13 -12 12 12 -13 13zm13 5l8 -8 8 8 -16 0zm28 -5l-12 -13 13 -12 13 12 -14 13zm14 5l8 -8 8 8 -16 0zm28 -5l-12 -13 12 -12 13 12 -13 13zm13 5l8 -8 8 8 -16 0zm28 -5l-11 -13 12 -12 13 12 -14 13zm14 5l7 -8 8 8 -15 0zm28 -5l-12 -13 12 -12 13 12 -13 13zm14 5l7 -8 8 8 -15 0zm28 -5l-13 -13 13 -12 12 12 -12 13zm13 5l8 -8 7 8 -15 0zm28 -5l-12 -13 13 -12 12 12 -13 13zm13 5l8 -8 8 8 -16 0zm29 -5l-13 -13 13 -12 12 12 -12 13zm13 5l8 -8 7 8 -15 0zm27 -6l-11 -12 11 -11 0 23zm0 -42l-11 -11 11 -11 0 22zm0 -41l-11 -11 11 -12 0 23zm0 -42l-11 -11 11 -12 0 23zm-13 -97c0,-19 -16,-35 -35,-35 -19,0 -35,16 -35,35 0,20 16,36 35,36 19,0 35,-16 35,-36z"/>
 </g>
</svg>
