<?xml version="1.0" encoding="UTF-8"?>
<!DOCTYPE svg PUBLIC "-//W3C//DTD SVG 1.1//EN" "http://www.w3.org/Graphics/SVG/1.1/DTD/svg11.dtd">
<!-- Creator: CorelDRAW X7 -->
<svg xmlns="http://www.w3.org/2000/svg" xml:space="preserve" width="733px" height="512px" version="1.1" style="shape-rendering:geometricPrecision; text-rendering:geometricPrecision; image-rendering:optimizeQuality; fill-rule:evenodd; clip-rule:evenodd"
viewBox="0 0 733 512"
 xmlns:xlink="http://www.w3.org/1999/xlink">
 <defs>
  <style type="text/css">
   <![CDATA[
    .fil0 {fill:black}
   ]]>
  </style>
 </defs>
 <g id="Layer_x0020_1">
  <metadata id="CorelCorpID_0Corel-Layer"/>
  <path class="fil0" d="M657 169c-17,0 -31,14 -31,31 0,18 14,32 31,32 18,0 32,-14 32,-32 0,-17 -14,-31 -32,-31zm0 43c-6,0 -11,-5 -11,-12 0,-6 5,-12 11,-12 7,0 12,6 12,12 0,7 -5,12 -12,12zm37 -101l-24 0c-4,-3 -11,-5 -22,-5 -11,0 -18,2 -22,5l-28 0c-4,-3 -11,-5 -22,-5 -11,0 -18,2 -22,5l-29 0c-4,-3 -11,-5 -22,-5 -11,0 -18,2 -22,5l-333 0c-4,-3 -11,-5 -22,-5 -11,0 -18,2 -22,5l-65 0c-22,0 -39,17 -39,38l0 218c0,22 17,39 39,39l655 0c21,0 39,-17 39,-39l0 -218c0,-21 -18,-38 -39,-38zm19 256c0,11 -9,19 -19,19l-655 0c-11,0 -19,-8 -19,-19l0 -218c0,-10 8,-19 19,-19l655 0c10,0 19,9 19,19l0 218 0 0zm-56 -97c-17,0 -31,14 -31,32 0,17 14,31 31,31 18,0 32,-14 32,-31 0,-18 -14,-32 -32,-32zm0 44c-6,0 -11,-6 -11,-12 0,-7 5,-12 11,-12 7,0 12,5 12,12 0,6 -5,12 -12,12zm-67 -160l-537 0c-5,0 -10,4 -10,10l0 174c0,6 5,10 10,10l537 0c6,0 10,-4 10,-10l0 -174c0,-6 -4,-10 -10,-10zm-169 80l7 -29c2,-5 7,-8 12,-7 6,1 9,7 7,12l-7 29c-1,5 -7,8 -12,7 -5,-1 -8,-7 -7,-12zm-102 0l8 -29c1,-5 6,-8 12,-7 5,1 8,7 7,12l-7 29c-2,5 -7,8 -12,7 -6,-1 -9,-7 -8,-12zm-198 34l-11 44c-1,5 -7,8 -12,7 -5,-2 -8,-7 -7,-12l11 -44c1,-5 6,-8 12,-7 5,1 8,7 7,12zm-5 -22c-5,-1 -8,-7 -7,-12l11 -43c1,-6 7,-9 12,-7 5,1 8,6 7,11l-11 44c-1,5 -7,8 -12,7zm72 73l-29 0c-6,0 -10,-4 -10,-10 0,-2 0,-3 1,-5 -1,1 -3,1 -5,0 -5,-1 -8,-6 -7,-12l7 -29c2,-5 7,-8 12,-7 6,1 9,7 7,12l-7 29c0,1 0,2 -1,3 1,-1 2,-1 2,-1l30 0c5,0 9,5 9,10 0,6 -4,10 -9,10zm14 -58l-29 0c-5,0 -10,-4 -10,-10 0,-5 5,-10 10,-10l29 0c5,0 10,5 10,10 0,6 -5,10 -10,10zm35 -51l-7 29c-2,5 -7,8 -12,7 -5,-1 -9,-7 -7,-12l7 -29c0,-1 1,-2 1,-2 -1,0 -2,0 -2,0l-29 0c-6,0 -10,-4 -10,-10 0,-5 4,-10 10,-10l29 0c5,0 9,5 9,10 0,2 0,4 -1,5 2,0 3,0 5,0 5,1 8,7 7,12zm43 80c-2,8 -10,14 -18,14 -5,0 -10,-2 -13,-5 -3,-4 -4,-9 -2,-14 2,-8 10,-15 18,-15 5,0 10,2 13,6 2,3 3,6 3,10 0,1 0,2 -1,4zm15 -58c-2,8 -10,14 -19,14 -5,0 -9,-2 -12,-5 -3,-4 -4,-9 -3,-14 2,-8 10,-15 19,-15 5,0 9,2 12,6 2,3 3,6 3,10 0,1 0,2 0,4zm59 87l-29 0c-5,0 -9,-4 -9,-10 0,-2 0,-3 1,-5 -2,1 -3,1 -5,0 -5,-1 -8,-6 -7,-12l7 -29c2,-5 7,-8 12,-7 5,1 9,7 7,12l-7 29c0,1 -1,2 -1,3 1,-1 2,-1 2,-1l29 0c6,0 10,5 10,10 0,6 -4,10 -10,10zm35 -51l-7 29c-1,5 -7,8 -12,7 -5,-1 -8,-6 -7,-12l7 -29c2,-5 7,-8 12,-7 5,1 9,7 7,12zm15 -58l-7 29c-2,5 -7,8 -12,7 -6,-1 -9,-7 -7,-12l7 -29c0,-1 0,-2 1,-2 -1,0 -2,0 -3,0l-29 0c-5,0 -9,-4 -9,-10 0,-5 4,-10 9,-10l29 0c6,0 10,5 10,10 0,2 0,4 -1,5 1,0 3,0 5,0 5,1 8,7 7,12zm52 109l-29 0c-5,0 -10,-4 -10,-10 0,-2 1,-3 2,-5 -2,1 -4,1 -5,0 -6,-1 -9,-6 -7,-12l7 -29c1,-5 6,-8 12,-7 5,1 8,7 7,12l-7 29c-1,1 -1,2 -1,3 0,-1 1,-1 2,-1l29 0c5,0 10,5 10,10 0,6 -5,10 -10,10zm35 -51l-7 29c-2,5 -7,8 -12,7 -6,-1 -9,-6 -7,-12l7 -29c1,-5 7,-8 12,-7 5,1 8,7 7,12zm14 -58l-7 29c-1,5 -6,8 -12,7 -5,-1 -8,-7 -7,-12l7 -29c1,-1 1,-2 1,-2 0,0 -1,0 -2,0l-29 0c-5,0 -10,-4 -10,-10 0,-5 5,-10 10,-10l29 0c5,0 10,5 10,10 0,2 -1,4 -2,5 2,0 4,0 5,0 6,1 9,7 7,12zm49 -2c-4,0 -7,-4 -7,-8 0,-4 3,-7 7,-7 4,0 7,3 7,7 0,4 -3,8 -7,8z"/>
 </g>
</svg>
