<?xml version="1.0" encoding="UTF-8"?>
<!DOCTYPE svg PUBLIC "-//W3C//DTD SVG 1.1//EN" "http://www.w3.org/Graphics/SVG/1.1/DTD/svg11.dtd">
<!-- Creator: CorelDRAW X7 -->
<svg xmlns="http://www.w3.org/2000/svg" xml:space="preserve" width="488px" height="512px" version="1.1" style="shape-rendering:geometricPrecision; text-rendering:geometricPrecision; image-rendering:optimizeQuality; fill-rule:evenodd; clip-rule:evenodd"
viewBox="0 0 488 512"
 xmlns:xlink="http://www.w3.org/1999/xlink">
 <defs>
  <style type="text/css">
   <![CDATA[
    .fil0 {fill:black}
   ]]>
  </style>
 </defs>
 <g id="Layer_x0020_1">
  <metadata id="CorelCorpID_0Corel-Layer"/>
  <path class="fil0" d="M168 392c0,-13 -11,-24 -24,-24 -13,0 -24,11 -24,24 0,13 11,24 24,24 13,0 24,-11 24,-24zm276 -224l-12 0 0 8 0 16 0 40 0 16 0 8 12 0c12,0 23,-5 31,-13 8,-8 13,-19 13,-31 0,-24 -20,-44 -44,-44zm-84 40l0 8c0,13 11,24 24,24l8 0 0 152c0,18 -14,32 -32,32l-28 0c7,-8 12,-20 12,-32l0 -257c18,-4 32,-20 32,-39 0,-22 -18,-40 -40,-40 -22,0 -40,18 -40,40 0,19 14,35 32,39l0 257c0,18 -14,32 -32,32l-8 0 0 -424 -288 0 0 512 288 0 0 -72 72 0c26,0 48,-22 48,-48l0 -152 8 0 0 -16 0 -24 0 -16 -32 0c-13,0 -24,11 -24,24zm-216 256c-40,0 -72,-32 -72,-72 0,-40 32,-72 72,-72 40,0 72,32 72,72 0,40 -32,72 -72,72zm96 -192l-192 0 0 -224 192 0 0 224zm80 -176c0,-9 7,-16 16,-16 9,0 16,7 16,16 0,9 -7,16 -16,16 -9,0 -16,-7 -16,-16z"/>
 </g>
</svg>
