<?xml version="1.0" encoding="UTF-8"?>
<!DOCTYPE svg PUBLIC "-//W3C//DTD SVG 1.1//EN" "http://www.w3.org/Graphics/SVG/1.1/DTD/svg11.dtd">
<!-- Creator: CorelDRAW X7 -->
<svg xmlns="http://www.w3.org/2000/svg" xml:space="preserve" width="512px" height="512px" version="1.1" style="shape-rendering:geometricPrecision; text-rendering:geometricPrecision; image-rendering:optimizeQuality; fill-rule:evenodd; clip-rule:evenodd"
viewBox="0 0 512 512"
 xmlns:xlink="http://www.w3.org/1999/xlink">
 <defs>
  <style type="text/css">
   <![CDATA[
    .fil0 {fill:black}
   ]]>
  </style>
 </defs>
 <g id="Layer_x0020_1">
  <metadata id="CorelCorpID_0Corel-Layer"/>
  <path class="fil0" d="M104 346l-40 166 351 0 -38 -166 -273 0zm-18 149l31 -131 247 0 30 131 -308 0zm62 -81l184 0c4,0 8,-3 8,-7l0 -2c0,-4 -4,-7 -8,-7l-184 0c-4,0 -7,3 -7,7l0 2c0,4 3,7 7,7zm196 29l-208 0c-4,0 -7,4 -7,8l0 1c0,4 3,8 7,8l208 0c4,0 7,-4 7,-8l0 -1c0,-4 -3,-8 -7,-8zm-285 -316l-20 0c-21,0 -39,17 -39,39l0 25 59 0 0 -64zm382 0l-19 0 0 64 59 0 0 -25c-1,-22 -18,-39 -40,-39zm-34 -65c0,-9 -6,-15 -14,-16l0 -46 -306 0 0 46c-8,1 -14,8 -14,17l0 129 334 0 0 -130zm-302 -45l271 0 0 150 -271 0 0 -150zm-105 347c0,22 18,39 39,39l30 0 0 -60c0,-16 13,-29 29,-29l284 0c16,0 29,13 29,29l0 60 30 0c22,0 40,-17 40,-39l0 -156 -481 0 0 156zm427 -131c7,0 12,5 12,12 0,6 -5,12 -12,12 -7,0 -12,-6 -12,-12 0,-7 6,-12 12,-12zm-62 0c7,0 12,5 12,12 0,6 -5,12 -12,12 -7,0 -12,-6 -12,-12 0,-7 5,-12 12,-12z"/>
 </g>
</svg>
