<?xml version="1.0" encoding="UTF-8"?>
<!DOCTYPE svg PUBLIC "-//W3C//DTD SVG 1.1//EN" "http://www.w3.org/Graphics/SVG/1.1/DTD/svg11.dtd">
<!-- Creator: CorelDRAW X7 -->
<svg xmlns="http://www.w3.org/2000/svg" xml:space="preserve" width="530px" height="512px" version="1.1" style="shape-rendering:geometricPrecision; text-rendering:geometricPrecision; image-rendering:optimizeQuality; fill-rule:evenodd; clip-rule:evenodd"
viewBox="0 0 530 512"
 xmlns:xlink="http://www.w3.org/1999/xlink">
 <defs>
  <style type="text/css">
   <![CDATA[
    .fil0 {fill:black}
   ]]>
  </style>
 </defs>
 <g id="Layer_x0020_1">
  <metadata id="CorelCorpID_0Corel-Layer"/>
  <path class="fil0" d="M219 137l46 0 0 18 -46 0 0 -18zm116 110c2,0 3,-1 3,-3l0 -15 -55 0 0 15c0,2 2,3 3,3l49 0zm-152 -37l256 0 0 -109 -256 0 0 109zm201 -91l9 0c5,0 9,4 9,9 0,5 -4,9 -9,9l-9 0c-5,0 -9,-4 -9,-9 0,-5 4,-9 9,-9l0 0zm0 36l9 0c5,0 9,5 9,10 0,5 -4,9 -9,9l-9 0c-5,0 -9,-4 -9,-9 0,-5 4,-10 9,-10l0 0zm-37 -36l10 0c5,0 9,4 9,9 0,5 -4,9 -9,9l-10 0c-5,0 -9,-4 -9,-9 0,-5 4,-9 9,-9l0 0zm0 36l10 0c5,0 9,5 9,10 0,5 -4,9 -9,9l-10 0c-5,0 -9,-4 -9,-9 0,-5 4,-10 9,-10l0 0zm-36 -36l9 0c5,0 9,4 9,9 0,5 -4,9 -9,9l-9 0c-5,0 -9,-4 -9,-9 0,-5 4,-9 9,-9l0 0zm0 36l9 0c5,0 9,5 9,10 0,5 -4,9 -9,9l-9 0c-5,0 -9,-4 -9,-9 0,-5 4,-10 9,-10l0 0zm-110 -36l82 0 0 55 -82 0 0 -55zm-18 -55l256 0 0 18 -256 0 0 -18zm174 180c0,12 -10,21 -22,21l-49 0c-11,0 -21,-9 -21,-21l0 -15 -82 0 0 82 256 0 0 -82 -82 0 0 15zm-174 167l256 0 0 -82 -256 0 0 82zm91 -73l73 0c5,0 10,4 10,9 0,5 -5,10 -10,10l-73 0c-5,0 -9,-5 -9,-10 0,-5 4,-9 9,-9l0 0zm183 -27l0 201 73 0 0 -302 -73 0 0 101zm-228 -311l82 0 0 18 -82 0 0 -18zm228 128l73 0 0 37 -73 0 0 -37zm-274 384l256 0 0 -82 -256 0 0 82zm91 -73l73 0c5,0 10,4 10,9 0,5 -5,9 -10,9l-73 0c-5,0 -9,-4 -9,-9 0,-5 4,-9 9,-9l0 0zm-91 -412l256 0 0 19 -256 0 0 -19zm-92 158l-79 -29c-4,-2 -10,1 -11,5 -2,5 0,10 5,12l85 31 0 90 -79 -28c-4,-2 -10,0 -11,5 -2,5 0,10 5,12l85 31 0 198 74 0 0 -411 -74 0 0 84z"/>
 </g>
</svg>
