<?xml version="1.0" encoding="UTF-8"?>
<!DOCTYPE svg PUBLIC "-//W3C//DTD SVG 1.1//EN" "http://www.w3.org/Graphics/SVG/1.1/DTD/svg11.dtd">
<!-- Creator: CorelDRAW X7 -->
<svg xmlns="http://www.w3.org/2000/svg" xml:space="preserve" width="571px" height="512px" version="1.1" style="shape-rendering:geometricPrecision; text-rendering:geometricPrecision; image-rendering:optimizeQuality; fill-rule:evenodd; clip-rule:evenodd"
viewBox="0 0 571 512"
 xmlns:xlink="http://www.w3.org/1999/xlink">
 <defs>
  <style type="text/css">
   <![CDATA[
    .fil0 {fill:black}
   ]]>
  </style>
 </defs>
 <g id="Layer_x0020_1">
  <metadata id="CorelCorpID_0Corel-Layer"/>
  <path class="fil0" d="M570 354l0 -16c1,-3 0,-6 -2,-9l-84 -107c-2,-3 -5,-4 -9,-4l-379 0c-4,0 -7,1 -9,4l-84 107c-2,2 -3,4 -3,7l0 0 0 18 570 0 0 0zm-469 -114l369 0 66 85 -501 0 66 -85zm-44 -240l453 0c6,0 11,5 10,10l-40 182c-1,5 -5,10 -10,10l-373 0c-5,0 -8,-5 -10,-10l-40 -182c-1,-5 5,-10 10,-10zm-57 373l0 96c0,24 19,43 43,43l485 0c23,0 42,-19 42,-43l0 -96 -570 0zm418 51c-5,0 -9,-4 -9,-9 0,-6 4,-10 9,-10 6,0 10,4 10,10 0,5 -4,9 -10,9zm35 0c-5,0 -9,-4 -9,-9 0,-6 4,-10 9,-10 5,0 10,4 10,10 0,5 -5,9 -10,9zm86 1l-56 0 0 -20 56 0 0 20zm-353 -175l-17 0 -33 65 17 0 33 -65z"/>
 </g>
</svg>
