<?xml version="1.0" encoding="UTF-8"?>
<!DOCTYPE svg PUBLIC "-//W3C//DTD SVG 1.1//EN" "http://www.w3.org/Graphics/SVG/1.1/DTD/svg11.dtd">
<!-- Creator: CorelDRAW X7 -->
<svg xmlns="http://www.w3.org/2000/svg" xml:space="preserve" width="688px" height="512px" version="1.1" style="shape-rendering:geometricPrecision; text-rendering:geometricPrecision; image-rendering:optimizeQuality; fill-rule:evenodd; clip-rule:evenodd"
viewBox="0 0 688 512"
 xmlns:xlink="http://www.w3.org/1999/xlink">
 <defs>
  <style type="text/css">
   <![CDATA[
    .fil0 {fill:black}
   ]]>
  </style>
 </defs>
 <g id="Layer_x0020_1">
  <metadata id="CorelCorpID_0Corel-Layer"/>
  <path class="fil0" d="M659 94l-52 0 -8 66c3,1 5,3 5,6 0,0 0,0 0,0l0 0c0,0 0,0 0,0 0,4 -3,7 -6,7l-343 0c-3,0 -6,-3 -6,-7 0,0 0,0 0,0l0 0c0,0 0,0 0,0 0,-3 3,-6 6,-6l1 0 -8 -66 -48 0c-4,0 -6,3 -6,6l0 267c0,4 2,7 6,7 0,0 97,22 235,22 138,0 224,-22 224,-22 3,0 6,-3 6,-7l0 -267c0,-3 -3,-6 -6,-6zm-433 244c-7,0 -13,-6 -13,-14 0,-7 6,-13 13,-13 8,0 14,6 14,13 0,8 -6,14 -14,14zm0 -33c-7,0 -13,-6 -13,-13 0,-8 6,-14 13,-14 8,0 14,6 14,14 0,7 -6,13 -14,13zm0 -32c-7,0 -13,-7 -13,-14 0,-8 6,-14 13,-14 8,0 14,6 14,14 0,7 -6,14 -14,14zm0 -33c-7,0 -13,-6 -13,-14 0,-7 6,-13 13,-13 8,0 14,6 14,13 0,8 -6,14 -14,14zm48 98c-7,0 -14,-6 -14,-14 0,-7 7,-13 14,-13 8,0 14,6 14,13 0,8 -6,14 -14,14zm0 -33c-7,0 -14,-6 -14,-13 0,-8 7,-14 14,-14 8,0 14,6 14,14 0,7 -6,13 -14,13zm0 -32c-7,0 -14,-7 -14,-14 0,-8 7,-14 14,-14 8,0 14,6 14,14 0,7 -6,14 -14,14zm0 -33c-7,0 -14,-6 -14,-14 0,-7 7,-13 14,-13 8,0 14,6 14,13 0,8 -6,14 -14,14zm48 98c-8,0 -14,-6 -14,-14 0,-7 6,-13 14,-13 7,0 13,6 13,13 0,8 -6,14 -13,14zm0 -33c-8,0 -14,-6 -14,-13 0,-8 6,-14 14,-14 7,0 13,6 13,14 0,7 -6,13 -13,13zm0 -32c-8,0 -14,-7 -14,-14 0,-8 6,-14 14,-14 7,0 13,6 13,14 0,7 -6,14 -13,14zm0 -33c-8,0 -14,-6 -14,-14 0,-7 6,-13 14,-13 7,0 13,6 13,13 0,8 -6,14 -13,14zm91 78c-4,0 -8,-3 -8,-7 0,-5 4,-8 8,-8 4,0 8,3 8,8 0,4 -4,7 -8,7zm29 0c-4,0 -8,-3 -8,-7 0,-5 4,-8 8,-8 4,0 8,3 8,8 0,4 -4,7 -8,7zm29 0c-5,0 -8,-3 -8,-7 0,-5 3,-8 8,-8 4,0 7,3 7,8 0,4 -3,7 -7,7zm28 0c-4,0 -7,-3 -7,-7 0,-5 3,-8 7,-8 5,0 8,3 8,8 0,4 -3,7 -8,7zm29 0c-4,0 -7,-3 -7,-7 0,-5 3,-8 7,-8 4,0 8,3 8,8 0,4 -4,7 -8,7zm23 -33c0,4 -3,7 -7,7l-151 0c-3,0 -6,-3 -6,-7l0 -52c0,-4 3,-7 6,-7l151 0c4,0 7,3 7,7l0 52zm74 -47c7,0 13,6 13,13 0,8 -6,14 -13,14 -8,0 -14,-6 -14,-14 0,-7 6,-13 14,-13zm0 93c-12,0 -21,-9 -21,-21 0,-12 9,-21 21,-21 11,0 21,9 21,21 0,12 -10,21 -21,21zm-31 -167l9 -85 0 0 1 -8 0 0 8 -71 -369 0 8 71 0 0 0 8 1 0 9 85 333 0zm-418 148c0,3 -10,17 -30,20l0 0 0 20c8,0 18,0 30,0l4 0 0 33c0,2 1,3 2,3l1 0c1,0 117,21 253,21 135,0 240,-21 241,-21l1 0c1,0 2,-1 2,-3l0 -304c0,-1 -1,-2 -2,-2l-69 0 1 -8 68 0c5,0 10,4 10,10l0 304c0,6 -4,10 -10,11 -7,1 -110,21 -242,21 -133,0 -247,-20 -254,-21 -6,-1 -10,-5 -10,-11l0 -25c-10,0 -18,0 -26,-1l0 21c0,1 0,2 -1,3l0 0c3,0 5,2 5,4l0 5c0,2 -2,4 -5,4l-2 0c3,0 4,2 4,4l0 5c0,2 -1,4 -4,4l2 0c3,0 5,2 5,4l0 5c0,2 -2,4 -5,4l-2 0c3,0 4,2 4,4l0 5c0,2 -1,4 -4,4l-2 0c3,0 4,2 4,4l0 5c0,2 -2,4 -4,4l-4 0c2,0 4,2 4,4l0 5c0,2 -2,4 -4,4l-7 0 0 1c3,1 3,3 2,5l-2 4c-1,2 -3,3 -6,2l-4 -2c0,1 0,2 -1,3l-2 4c-1,2 -3,3 -6,2l-3 -2c1,1 1,3 0,5l-2 4c-1,2 -3,2 -5,1l-10 -4 1 0c2,2 2,5 0,6l-3 4c-2,1 -4,1 -6,0l-5 -5c0,1 0,3 -1,4l-3 3c-2,1 -5,1 -6,0l-5 -5c0,1 0,3 -1,4l-3 3c-2,2 -5,2 -6,0l-5 -5c0,1 0,3 -1,4l-4 3c-1,2 -4,2 -6,0l-8 -8c0,0 0,1 0,1l-3 3c-2,1 -4,1 -6,0l-15 -15c-1,-2 -1,-4 0,-6l3 -3 -7 -6c-1,-2 -1,-5 0,-6l3 -3c1,-1 3,-2 4,-2l-5 -4c-1,-2 -1,-5 0,-7l4 -3c1,-1 2,-1 3,-1l-4 -5c-2,-1 -2,-4 0,-6l3 -3c1,-1 2,-1 4,-1l-3 -3c-2,-1 -2,-4 0,-6l3 -3c1,-1 3,-1 4,-1l-3 -3c-1,-1 -1,-4 0,-6l3 -3c1,-1 3,-1 4,-1l-2 -3c-2,-1 -2,-4 0,-6l3 -3c1,-1 2,-1 4,-1l-5 -5c-2,-2 -2,-4 0,-6l3 -3c1,-1 2,-2 4,-1l-3 -3c-2,-2 -2,-4 0,-6l3 -3c2,-2 4,-2 6,0l-1 -2c-2,-1 -2,-4 0,-6l3 -3c2,-2 4,-2 6,0l1 1c-1,-1 -1,-4 1,-6l3 -3c1,-1 4,-1 6,0l1 2c-1,-2 -1,-5 0,-6l3 -3c2,-2 5,-2 6,-1l-1 -1c-2,-2 -2,-4 0,-6l3 -3c2,-2 5,-2 6,0l2 1c-2,-1 -2,-4 0,-6l3 -3c2,-1 4,-1 6,0l1 2c-3,-19 -4,-47 -4,-90 0,-127 7,-132 93,-133l0 -12c0,-6 5,-10 10,-10l63 0 1 8 -64 0c-1,0 -2,1 -2,2l0 20 -4 0c-45,0 -65,1 -76,15 -11,15 -13,45 -13,110 0,101 1,121 46,125l0 -19 0 0c-20,-3 -30,-17 -30,-20l0 -162c0,-3 13,-26 36,-26 23,0 37,23 37,26l0 162zm-85 27c-1,0 -3,0 -4,-1l-8 -8 7 7c2,1 2,4 0,6l-3 3c-2,1 -5,1 -6,0l1 1c2,2 2,5 0,6l-3 3c-2,2 -4,2 -6,0l-1 -1c1,2 1,4 -1,6l-3 3c-1,2 -4,2 -6,0l-1 -1c1,1 1,4 0,6l-3 3c-2,1 -5,2 -6,0l1 1c2,2 2,5 0,7l-3 3c-1,1 -3,1 -4,1l3 2c1,2 1,5 0,7l-3 3c-1,1 -3,1 -4,1l4 5c2,1 2,4 0,6l-3 3c-1,1 -2,1 -3,1l2 3c2,1 2,4 0,6l-3 3c-1,1 -2,1 -4,1l3 3c1,1 1,4 0,6l-3 3c-1,1 -3,1 -4,1l2 3c2,1 2,4 0,6l-3 3c-1,1 -2,1 -4,1l5 5c2,2 2,4 0,6l-3 3c-1,1 -2,2 -4,1l5 5c1,1 2,3 1,5 2,-1 4,-1 6,0l5 5c-1,-1 0,-3 1,-4l3 -3c2,-2 4,-2 6,0l5 5c0,-1 0,-3 1,-4l3 -3c2,-2 5,-2 6,0l5 5c0,-2 0,-3 1,-4l3 -3c2,-2 5,-2 7,0l3 3 1 -4c1,-2 4,-3 6,-2l4 2c-1,-1 -2,-3 -1,-5l2 -4c1,-2 4,-2 6,-1l5 2c0,-1 0,-2 0,-3l2 -4c1,-2 4,-3 6,-2 0,-2 2,-4 4,-4l4 0c-2,0 -4,-2 -4,-4l0 -5c0,-2 2,-4 4,-4l2 0c-2,0 -4,-2 -4,-4l0 -5c0,-2 2,-4 4,-4l3 0c-3,0 -5,-2 -5,-4l0 -5c0,-2 2,-4 5,-4l-3 0c-2,0 -4,-2 -4,-4l0 -5c0,-2 2,-4 4,-4l2 0c-2,0 -4,-2 -4,-4l0 -5c0,-2 2,-4 5,-4l9 0c-1,-1 -1,-2 -1,-3l0 -21c-19,-2 -32,-6 -40,-17 -1,-1 -1,-2 -2,-3zm343 85c-69,0 -132,-5 -178,-11l-6 0 -21 99 396 0 -20 -98c-43,5 -103,10 -171,10z"/>
 </g>
</svg>
