<?xml version="1.0" encoding="UTF-8"?>
<!DOCTYPE svg PUBLIC "-//W3C//DTD SVG 1.1//EN" "http://www.w3.org/Graphics/SVG/1.1/DTD/svg11.dtd">
<!-- Creator: CorelDRAW X7 -->
<svg xmlns="http://www.w3.org/2000/svg" xml:space="preserve" width="368px" height="512px" version="1.1" style="shape-rendering:geometricPrecision; text-rendering:geometricPrecision; image-rendering:optimizeQuality; fill-rule:evenodd; clip-rule:evenodd"
viewBox="0 0 368 512"
 xmlns:xlink="http://www.w3.org/1999/xlink">
 <defs>
  <style type="text/css">
   <![CDATA[
    .fil0 {fill:black}
   ]]>
  </style>
 </defs>
 <g id="Layer_x0020_1">
  <metadata id="CorelCorpID_0Corel-Layer"/>
  <path class="fil0" d="M228 80l0 432c12,-3 16,-8 26,-14l74 -46 0 -208c15,-10 24,-15 40,-24l0 -220c-26,14 -125,76 -140,80zm-220 -8l212 0 124 -72 -190 0 -146 72zm-8 440l212 0 0 -428 -212 0 0 428zm28 -396l156 0 0 296 -156 0 0 -296zm104 360l36 0 0 -20 -24 0c-13,0 -12,7 -12,20zm-92 0l36 0 0 -20 -24 0c-13,0 -12,7 -12,20zm120 -204c0,0 0,0 0,0 0,0 0,0 0,-1 0,-1 0,-3 -1,-4 -5,-37 -50,-90 -50,-90 0,0 -45,53 -50,90 -1,1 -1,3 -1,4 0,1 0,1 0,1 0,0 0,0 0,0 0,1 0,1 0,1 0,1 0,1 0,1 1,26 23,47 51,47 28,0 51,-22 51,-48 0,0 0,0 0,-1zm-65 26c-4,3 -11,1 -15,-3 -3,-4 -6,-9 -7,-17 -4,-17 13,-45 13,-45 -3,12 -3,24 0,34 3,10 9,18 11,20 4,5 3,9 -2,11z"/>
 </g>
</svg>
