<?xml version="1.0" encoding="UTF-8"?>
<!DOCTYPE svg PUBLIC "-//W3C//DTD SVG 1.1//EN" "http://www.w3.org/Graphics/SVG/1.1/DTD/svg11.dtd">
<!-- Creator: CorelDRAW X7 -->
<svg xmlns="http://www.w3.org/2000/svg" xml:space="preserve" width="790px" height="512px" version="1.1" style="shape-rendering:geometricPrecision; text-rendering:geometricPrecision; image-rendering:optimizeQuality; fill-rule:evenodd; clip-rule:evenodd"
viewBox="0 0 790 512"
 xmlns:xlink="http://www.w3.org/1999/xlink">
 <defs>
  <style type="text/css">
   <![CDATA[
    .fil0 {fill:black}
   ]]>
  </style>
 </defs>
 <g id="Layer_x0020_1">
  <metadata id="CorelCorpID_0Corel-Layer"/>
  <path class="fil0" d="M747 375l0 -27 -13 0 0 -25 -75 0 0 22 -50 0 0 -22 -214 0 -214 0 1 22 -50 0 0 -22 -75 0 0 25 -13 0 0 27 -44 0 0 14 44 0 0 22 43 0c0,0 0,0 0,1 0,10 20,19 45,19 24,0 44,-9 44,-19 0,-1 0,-1 0,-1l219 0 220 0c0,0 -1,0 -1,1 0,10 20,19 45,19 24,0 44,-9 44,-19 0,-1 0,-1 0,-1l44 0 0 -22 43 0 0 -14 -43 0zm-220 14l-132 0 -132 0c-24,0 -34,-10 -34,-22 0,-12 10,-22 34,-22l132 0 132 0c24,0 35,10 35,22 0,12 -11,22 -35,22zm176 -118l0 -154 -80 0c0,24 -20,38 -44,38l-184 0 0 0 -184 0c-24,0 -44,-14 -44,-38l-80 0 0 154 -60 0 0 14 60 0 0 18 53 0 0 33 33 0 0 -33 222 0 0 0 223 0 0 33 32 0 0 -33 53 0 0 -18 61 0 0 -14 -61 0zm11 -190l-100 0 -219 0 -219 0 -100 0 -14 0 0 18 0 27 14 0 0 -27 101 0c4,20 22,35 43,35l175 0 0 0 175 0c22,0 39,-15 43,-35l101 0 0 27 14 0 0 -27 0 -18 -14 0z"/>
 </g>
</svg>
