<?xml version="1.0" encoding="UTF-8"?>
<!DOCTYPE svg PUBLIC "-//W3C//DTD SVG 1.1//EN" "http://www.w3.org/Graphics/SVG/1.1/DTD/svg11.dtd">
<!-- Creator: CorelDRAW X7 -->
<svg xmlns="http://www.w3.org/2000/svg" xml:space="preserve" width="713px" height="512px" version="1.1" style="shape-rendering:geometricPrecision; text-rendering:geometricPrecision; image-rendering:optimizeQuality; fill-rule:evenodd; clip-rule:evenodd"
viewBox="0 0 713 512"
 xmlns:xlink="http://www.w3.org/1999/xlink">
 <defs>
  <style type="text/css">
   <![CDATA[
    .fil0 {fill:black}
   ]]>
  </style>
 </defs>
 <g id="Layer_x0020_1">
  <metadata id="CorelCorpID_0Corel-Layer"/>
  <path class="fil0" d="M400 425c23,0 41,-19 41,-42 0,-22 -18,-41 -41,-41 -23,0 -41,19 -41,41 0,23 18,42 41,42zm-5 -77l0 6c0,3 2,6 5,6 3,0 6,-3 6,-6l0 -6c17,3 30,18 30,35 0,18 -13,33 -30,36l0 -7c0,-3 -3,-5 -6,-5 -3,0 -5,2 -5,5l0 7c-17,-3 -31,-18 -31,-36 0,-17 14,-32 31,-35z"/>
  <path class="fil0" d="M379 383c0,-3 2,-5 5,-5 3,0 6,2 6,5 0,3 -3,6 -6,6 -3,0 -5,-3 -5,-6z"/>
  <path class="fil0" d="M411 383c0,-3 2,-5 5,-5 3,0 5,2 5,5 0,3 -2,6 -5,6 -3,0 -5,-3 -5,-6z"/>
  <path class="fil0" d="M348 107l0 -34 10 0 0 -5 5 0 0 -5 14 0 0 5 5 0 0 5 10 0 0 34 -44 0zm10 -15c0,-1 -1,-2 -3,-2 -1,0 -2,1 -2,2l0 10 5 0 0 -10zm7 0c0,-1 -1,-2 -2,-2 -2,0 -3,1 -3,2l0 10 5 0 0 -10zm7 0c0,-1 -1,-2 -2,-2 -1,0 -3,1 -3,2l0 10 5 0 0 -10zm8 0c0,-1 -1,-2 -3,-2 -1,0 -2,1 -2,2l0 10 5 0 0 -10zm7 0c0,-1 -1,-2 -2,-2 -2,0 -3,1 -3,2l0 10 5 0 0 -10z"/>
  <path class="fil0" d="M410 107l0 -34 10 0 0 -5 5 0 0 -5 14 0 0 5 5 0 0 5 10 0 0 34 -44 0zm10 -15c0,-1 -1,-2 -3,-2 -1,0 -2,1 -2,2l0 10 5 0 0 -10zm7 0c0,-1 -1,-2 -2,-2 -2,0 -3,1 -3,2l0 10 5 0 0 -10zm7 0c0,-1 -1,-2 -2,-2 -1,0 -2,1 -2,2l0 10 4 0 0 -10zm8 0c0,-1 -1,-2 -3,-2 -1,0 -2,1 -2,2l0 10 5 0 0 -10zm7 0c0,-1 -1,-2 -2,-2 -2,0 -3,1 -3,2l0 10 5 0 0 -10z"/>
  <path class="fil0" d="M60 182l84 0c10,0 17,8 17,18l0 36 -23 24 -71 0 -24 -24 0 -36c0,-10 8,-18 18,-18l-1 0zm40 39l4 0c2,0 4,2 4,4l0 24c0,2 -2,4 -4,4l-4 0c-2,0 -4,-2 -4,-4l0 -24c0,-2 2,-4 4,-4zm31 -25l4 0c2,0 4,2 4,4l0 24c0,2 -2,4 -4,4l-4 0c-2,0 -4,-2 -4,-4l0 -24c0,-2 2,-4 4,-4zm-62 0l4 0c2,0 4,2 4,4l0 24c0,2 -2,4 -4,4l-4 0c-2,0 -4,-2 -4,-4l0 -24c0,-2 2,-4 4,-4z"/>
  <path class="fil0" d="M199 184l84 0c10,0 17,7 17,17l0 37 -23 23 -71 0 -24 -23 0 -37c0,-10 8,-17 18,-17l-1 0zm40 39l4 0c2,0 4,1 4,4l0 23c0,2 -2,4 -4,4l-4 0c-2,0 -4,-2 -4,-4l0 -23c0,-3 2,-4 4,-4zm31 -25l3 0c3,0 4,1 4,4l0 23c0,2 -1,4 -4,4l-3 0c-2,0 -4,-2 -4,-4l0 -23c0,-3 2,-4 4,-4zm-62 0l3 0c3,0 4,1 4,4l0 23c0,2 -1,4 -4,4l-3 0c-2,0 -4,-2 -4,-4l0 -23c0,-3 2,-4 4,-4z"/>
  <path class="fil0" d="M205 69c0,-3 0,-6 -1,-8 -1,-2 -3,-3 -5,-4 -1,-1 -3,-2 -5,-2 -2,0 -4,-1 -6,-1l-8 0 0 32 9 0c3,0 5,-1 7,-1 3,-1 4,-2 5,-4 2,-1 3,-3 3,-5 1,-2 1,-4 1,-7z"/>
  <path class="fil0" d="M16 0l471 0c8,0 15,7 15,16l0 390 36 0c28,0 50,23 50,51 0,14 10,27 25,29 17,2 32,-11 32,-28l0 -26c-26,-5 -45,-28 -45,-55l0 -29c0,-4 3,-8 7,-8l14 0 0 -35c0,-6 4,-11 10,-11 6,-1 11,4 11,10l0 36 28 0 0 -35c0,-6 4,-11 10,-11 6,-1 11,4 11,10l0 36 14 0c4,0 8,4 8,8l0 29c0,27 -20,50 -46,55l0 24c0,28 -21,52 -48,53 -29,1 -53,-22 -53,-51l0 -1c0,-15 -13,-28 -28,-28l-36 0 0 67c0,9 -7,16 -15,16l-471 0c-9,0 -16,-7 -16,-16l0 -480c0,-9 7,-16 16,-16zm209 68c0,5 -1,10 -2,14 -2,4 -4,7 -8,10 -3,3 -6,5 -11,6 -4,2 -10,2 -16,2l-8 0 0 30c0,0 0,1 0,1 0,0 -1,1 -2,1 0,0 -1,0 -2,0 -2,1 -3,1 -5,1 -2,0 -3,0 -4,-1 -2,0 -3,0 -3,0 -1,0 -2,-1 -2,-1 0,0 0,-1 0,-1l0 -83c0,-3 0,-4 2,-5 1,-1 2,-2 4,-2l22 0c2,0 4,0 6,0 2,0 4,1 7,1 3,1 6,2 9,3 2,2 5,4 7,6 2,2 3,5 4,8 1,3 2,6 2,10zm-83 30c0,5 -1,11 -3,15 -2,4 -4,8 -7,11 -3,3 -7,6 -12,7 -5,2 -10,3 -17,3 -5,0 -11,-1 -15,-2 -5,-2 -9,-4 -12,-7 -3,-3 -5,-7 -7,-11 -2,-4 -3,-9 -3,-15l0 -56c0,-1 0,-1 1,-2 0,0 1,0 1,-1 1,0 2,0 3,0 1,0 3,0 5,0 1,0 3,0 4,0 1,0 2,0 3,0 1,1 1,1 2,1 0,1 0,1 0,2l0 54c0,4 0,7 1,10 1,2 3,4 4,6 2,2 4,3 6,4 3,1 5,2 8,2 3,0 6,-1 8,-2 2,-1 4,-2 6,-4 2,-2 3,-4 4,-6 1,-3 1,-6 1,-9l0 -55c0,-1 0,-1 1,-2 0,0 0,0 1,-1 1,0 2,0 3,0 1,0 3,0 4,0 2,0 4,0 5,0 1,0 2,0 3,0 0,1 1,1 1,1 0,1 1,1 1,2l0 55zm152 7c0,4 -1,9 -2,12 -2,4 -5,7 -8,9 -3,3 -7,5 -11,6 -4,1 -8,2 -13,2 -3,0 -6,0 -9,-1 -3,-1 -5,-1 -7,-2 -2,-1 -4,-1 -5,-2 -2,-1 -3,-2 -3,-2 -1,-1 -1,-2 -2,-3 0,-1 0,-3 0,-5 0,-2 0,-3 0,-4 0,-1 0,-2 1,-2 0,-1 0,-1 0,-2 1,0 1,0 2,0 0,0 1,0 2,1 2,1 3,2 5,3 2,1 4,2 7,2 3,1 6,2 9,2 2,0 4,-1 6,-1 2,-1 4,-1 5,-2 1,-1 2,-3 3,-4 0,-2 1,-3 1,-5 0,-2 -1,-4 -2,-5 -1,-2 -3,-3 -4,-4 -2,-2 -4,-3 -7,-4 -2,-1 -4,-2 -7,-3 -2,-1 -5,-2 -7,-4 -2,-1 -4,-3 -6,-5 -2,-2 -4,-4 -5,-7 -1,-3 -1,-6 -1,-10 0,-4 0,-8 2,-12 2,-3 4,-6 7,-8 2,-2 6,-4 9,-5 4,-1 8,-2 12,-2 3,0 5,1 7,1 2,0 4,1 6,1 2,1 4,1 5,2 2,1 3,1 3,2 1,0 1,1 1,1 0,0 0,1 0,1 1,1 1,2 1,3 0,0 0,1 0,3 0,1 0,2 0,3 0,1 0,2 -1,2 0,1 0,2 0,2 -1,0 -1,0 -2,0 0,0 -1,0 -2,-1 -1,0 -3,-1 -4,-2 -2,-1 -4,-1 -6,-2 -2,-1 -5,-1 -7,-1 -2,0 -4,0 -6,1 -1,0 -2,1 -3,2 -1,1 -2,2 -3,3 0,1 -1,2 -1,4 0,2 1,4 2,5 1,2 3,3 5,4 2,1 4,2 6,3 2,1 5,3 7,4 3,1 5,2 8,4 2,1 4,3 6,5 2,2 3,4 5,7 1,3 1,6 1,10zm42 188l128 0 0 -129 -128 0 0 16 0 113zm128 155l-128 0 0 -128 128 0 0 128 0 0zm-128 -401l0 78 128 0 0 -78 -128 0zm-306 117l284 0 0 309 -284 0 0 -309z"/>
  <path class="fil0" d="M400 270c23,0 41,-19 41,-42 0,-22 -18,-41 -41,-41 -23,0 -41,19 -41,41 0,23 18,42 41,42zm-5 -77l0 6c0,3 2,6 5,6 3,0 6,-3 6,-6l0 -6c17,3 30,18 30,35 0,18 -13,33 -30,36l0 -6c0,-3 -3,-6 -6,-6 -3,0 -5,3 -5,6l0 6c-17,-3 -31,-18 -31,-36 0,-17 14,-32 31,-35z"/>
  <path class="fil0" d="M379 228c0,-2 2,-5 5,-5 3,0 6,3 6,5 0,3 -3,6 -6,6 -3,0 -5,-3 -5,-6z"/>
  <path class="fil0" d="M411 228c0,-2 2,-5 5,-5 3,0 5,3 5,5 0,3 -2,6 -5,6 -3,0 -5,-3 -5,-6z"/>
  <path class="fil0" d="M60 275l84 0c10,0 17,8 17,17l0 37 -23 24 -71 0 -24 -24 0 -37c0,-9 8,-17 18,-17l-1 0zm40 39l4 0c2,0 4,2 4,4l0 23c0,3 -2,5 -4,5l-4 0c-2,0 -4,-2 -4,-5l0 -23c0,-2 2,-4 4,-4zm31 -25l4 0c2,0 4,2 4,4l0 23c0,3 -2,5 -4,5l-4 0c-2,0 -4,-2 -4,-5l0 -23c0,-2 2,-4 4,-4zm-62 0l4 0c2,0 4,2 4,4l0 23c0,3 -2,5 -4,5l-4 0c-2,0 -4,-2 -4,-5l0 -23c0,-2 2,-4 4,-4z"/>
  <path class="fil0" d="M199 276l84 0c10,0 17,8 17,17l0 37 -23 24 -71 0 -24 -24 0 -37c0,-9 8,-17 18,-17l-1 0zm40 39l4 0c2,0 4,2 4,4l0 24c0,2 -2,4 -4,4l-4 0c-2,0 -4,-2 -4,-4l0 -24c0,-2 2,-4 4,-4zm31 -25l3 0c3,0 4,2 4,4l0 24c0,2 -1,4 -4,4l-3 0c-2,0 -4,-2 -4,-4l0 -24c0,-2 2,-4 4,-4zm-62 0l3 0c3,0 4,2 4,4l0 24c0,2 -1,4 -4,4l-3 0c-2,0 -4,-2 -4,-4l0 -24c0,-2 2,-4 4,-4z"/>
  <path class="fil0" d="M60 368l84 0c10,0 17,8 17,17l0 37 -23 23 -71 0 -24 -23 0 -37c0,-9 8,-17 18,-17l-1 0zm40 39l4 0c2,0 4,2 4,4l0 23c0,2 -2,4 -4,4l-4 0c-2,0 -4,-2 -4,-4l0 -23c0,-2 2,-4 4,-4zm31 -25l4 0c2,0 4,2 4,4l0 23c0,2 -2,4 -4,4l-4 0c-2,0 -4,-2 -4,-4l0 -23c0,-2 2,-4 4,-4zm-62 0l4 0c2,0 4,2 4,4l0 23c0,2 -2,4 -4,4l-4 0c-2,0 -4,-2 -4,-4l0 -23c0,-2 2,-4 4,-4z"/>
  <path class="fil0" d="M199 369l84 0c10,0 17,8 17,17l0 37 -23 24 -71 0 -24 -24 0 -37c0,-9 8,-17 18,-17l-1 0zm40 39l4 0c2,0 4,2 4,4l0 23c0,2 -2,4 -4,4l-4 0c-2,0 -4,-2 -4,-4l0 -23c0,-2 2,-4 4,-4zm31 -25l3 0c3,0 4,2 4,4l0 23c0,2 -1,4 -4,4l-3 0c-2,0 -4,-2 -4,-4l0 -23c0,-2 2,-4 4,-4zm-62 0l3 0c3,0 4,2 4,4l0 23c0,2 -1,4 -4,4l-3 0c-2,0 -4,-2 -4,-4l0 -23c0,-2 2,-4 4,-4z"/>
 </g>
</svg>
