<?xml version="1.0" encoding="UTF-8"?>
<!DOCTYPE svg PUBLIC "-//W3C//DTD SVG 1.1//EN" "http://www.w3.org/Graphics/SVG/1.1/DTD/svg11.dtd">
<!-- Creator: CorelDRAW X7 -->
<svg xmlns="http://www.w3.org/2000/svg" xml:space="preserve" width="890px" height="512px" version="1.1" style="shape-rendering:geometricPrecision; text-rendering:geometricPrecision; image-rendering:optimizeQuality; fill-rule:evenodd; clip-rule:evenodd"
viewBox="0 0 890 512"
 xmlns:xlink="http://www.w3.org/1999/xlink">
 <defs>
  <style type="text/css">
   <![CDATA[
    .fil0 {fill:black}
   ]]>
  </style>
 </defs>
 <g id="Layer_x0020_1">
  <metadata id="CorelCorpID_0Corel-Layer"/>
  <path class="fil0" d="M87 359l14 0 0 -28 -14 0 0 28zm26 -278l0 63c-8,0 -15,7 -15,14l0 18c0,8 7,14 15,14l0 66 0 69c-3,0 -6,2 -6,6l0 28c0,3 3,6 6,6l0 66 777 0 0 -175 0 -175 -777 0zm43 32c0,-4 2,-6 6,-6l48 0c3,0 6,2 6,6l0 111c0,4 -3,6 -6,6l-48 0c-4,0 -6,-2 -6,-6l0 -111zm258 230c0,7 3,17 -1,20l-15 15 4 4c-5,6 -11,12 -18,18l-3 -4 -18 18c-4,3 -14,1 -21,1 -39,0 -71,-32 -71,-72 0,-6 4,-7 1,-17l20 -19 -8 -8c5,-7 11,-12 18,-18l7 8 17 -16c9,3 10,-2 16,-2 39,0 72,33 72,72zm-72 -104c-40,0 -72,-32 -72,-72 0,-6 4,-8 1,-17l21 -21 -7 -6c5,-7 11,-13 18,-18l6 6 15 -14c9,2 11,-2 17,-2 40,0 72,33 72,72 0,7 -4,10 -2,20l-13 13 5 5c-5,7 -11,13 -17,18l-5 -5 -20 19c-9,-2 -13,2 -19,2zm301 103c0,6 2,15 -2,18l-18 18 7 6c0,1 -6,7 -12,12l-6 -6 -22 22c-4,3 -12,2 -18,2 -40,0 -73,-33 -73,-73 0,-6 4,-8 1,-18l23 -22 -6 -5c6,-7 12,-13 12,-12l6 5 18 -18c9,2 12,-1 18,-1 39,0 72,32 72,72zm-72 -104c-40,0 -70,-30 -70,-70 0,-6 1,-12 4,-15l24 -24 -10 -10c5,-6 5,-6 12,-11l9 9 17 -16c4,-4 10,-4 16,-4 40,0 70,31 70,70 0,7 0,13 -3,17l-17 16 8 8c-5,7 -5,7 -12,12l-7 -8 -24 23c-3,4 -11,3 -17,3zm303 107c1,6 -3,10 -1,20l-13 13 3 2c-6,7 -12,13 -18,18l-2 -2 -20 19c-10,-2 -14,1 -21,1 -39,0 -71,-32 -71,-72 0,-6 -2,-13 2,-16l21 -21 -10 -10c6,-6 12,-12 18,-17l9 9 15 -14c3,-4 10,-4 15,-4 40,0 73,34 73,74zm-2 -156l-12 11 4 4c-5,6 -11,12 -18,18l-3 -4 -21 21c-4,4 -14,1 -20,1 -40,0 -72,-32 -72,-72 0,-6 -2,-13 1,-17l23 -22 -8 -8c5,-6 11,-12 18,-17l7 7 14 -13c3,-3 10,-2 16,-2 39,0 72,33 72,73 0,6 3,16 -1,20zm-688 30l3 0 0 -15 -3 0 0 15zm3 -88c-4,0 -8,-4 -8,-8 0,-5 4,-9 8,-9 5,0 9,4 9,9 0,4 -4,8 -9,8zm0 -14c-3,0 -5,2 -5,6 0,3 2,5 5,5 3,0 6,-2 6,-5 0,-4 -3,-6 -6,-6zm15 53l-29 0 0 26 29 0 0 -26zm-29 -26l0 23 29 0 0 -23 -29 0zm611 167c-5,-5 -12,-5 -16,0 -4,4 -4,11 0,15 4,5 11,5 16,0 4,-4 4,-11 0,-15zm50 50c-4,-4 -11,-4 -15,0 -5,5 -5,12 0,16 4,4 11,4 15,0 5,-4 5,-11 0,-16zm-279 -51c-5,-4 -12,-4 -16,0 -4,4 -4,11 0,16 4,4 11,4 16,0 4,-5 4,-12 0,-16zm50 51c-4,-5 -11,-5 -15,0 -5,4 -5,11 0,15 4,5 11,5 15,0 5,-4 5,-11 0,-15zm-280 -51c-4,-4 -11,-4 -15,0 -5,4 -5,11 0,16 4,4 11,4 15,0 5,-5 5,-12 0,-16zm51 51c-4,-5 -11,-5 -16,0 -4,4 -4,11 0,15 5,5 12,5 16,0 4,-4 4,-11 0,-15zm408 -225c-5,-5 -12,-5 -16,0 -4,4 -4,11 0,15 4,5 11,5 16,0 4,-4 4,-11 0,-15zm50 50c-4,-4 -11,-4 -15,0 -5,5 -5,12 0,16 4,4 11,4 15,0 5,-4 5,-11 0,-16zm-279 -51c-5,-4 -12,-4 -16,0 -4,4 -4,11 0,16 4,4 11,4 16,0 4,-5 4,-12 0,-16zm50 51c-4,-5 -11,-5 -15,0 -5,4 -5,11 0,15 4,5 11,5 15,0 5,-4 5,-11 0,-15zm-280 -51c-4,-4 -11,-4 -15,0 -5,4 -5,11 0,16 4,4 11,4 15,0 5,-5 5,-12 0,-16zm51 51c-4,-5 -11,-5 -16,0 -4,4 -4,11 0,15 5,5 12,5 16,0 4,-4 4,-11 0,-15zm-283 -29c0,-1 0,-3 0,-4 -9,-4 -18,-9 -26,-13 -18,-9 -33,-17 -52,-19l-15 16c15,1 42,10 60,19 9,5 20,10 33,15l0 -14z"/>
 </g>
</svg>
