<?xml version="1.0" encoding="UTF-8"?>
<!DOCTYPE svg PUBLIC "-//W3C//DTD SVG 1.1//EN" "http://www.w3.org/Graphics/SVG/1.1/DTD/svg11.dtd">
<!-- Creator: CorelDRAW X7 -->
<svg xmlns="http://www.w3.org/2000/svg" xml:space="preserve" width="547px" height="512px" version="1.1" style="shape-rendering:geometricPrecision; text-rendering:geometricPrecision; image-rendering:optimizeQuality; fill-rule:evenodd; clip-rule:evenodd"
viewBox="0 0 547 512"
 xmlns:xlink="http://www.w3.org/1999/xlink">
 <defs>
  <style type="text/css">
   <![CDATA[
    .fil0 {fill:black}
    .fil1 {fill:black;fill-rule:nonzero}
   ]]>
  </style>
 </defs>
 <g id="Layer_x0020_1">
  <metadata id="CorelCorpID_0Corel-Layer"/>
  <path class="fil0" d="M121 2l29 0 0 21c31,0 61,0 92,0 5,0 10,3 11,7l0 186c0,2 -1,4 -2,6 -4,3 -10,3 -15,3 -29,0 -57,0 -86,0 0,7 0,15 0,23l-18 0c-44,-8 -88,-16 -132,-23 0,-68 0,-135 0,-202 40,-7 81,-14 121,-21zm-61 81c5,-1 10,-1 16,-1 4,19 8,39 12,58 3,-20 7,-40 10,-60 6,0 12,0 17,-1 -6,28 -12,56 -19,84 -5,3 -12,0 -18,0 -3,-19 -8,-38 -11,-57 -4,19 -8,37 -12,56 -5,-1 -11,-1 -17,-1 -4,-26 -10,-51 -14,-76 4,-1 9,-1 14,-1 3,18 7,37 9,55 4,-19 8,-38 13,-56zm90 -51c31,0 63,0 95,0 0,61 0,123 0,184 -32,0 -64,0 -95,0 0,-8 0,-15 0,-23 25,0 50,0 75,0 0,-4 0,-8 0,-12 -25,0 -50,0 -75,0 0,-4 0,-9 0,-14 25,0 50,0 75,0 0,-4 0,-8 0,-11 -25,0 -50,0 -75,0 0,-5 0,-10 0,-15 25,0 50,0 75,0 0,-4 0,-8 0,-11 -25,0 -50,0 -75,0 0,-5 0,-10 0,-15 25,0 50,0 75,0 0,-4 0,-7 0,-11 -25,0 -50,0 -75,0 0,-5 0,-10 0,-15 25,0 50,0 75,0 0,-4 0,-7 0,-11 -25,0 -50,0 -75,0 0,-5 0,-10 0,-15 25,0 50,0 75,0 0,-3 0,-7 0,-11 -25,0 -50,0 -75,0 0,-7 0,-14 0,-20z"/>
  <path class="fil0" d="M421 0l17 0c0,8 0,15 0,23 29,0 58,0 86,0 5,0 11,0 15,3 3,4 2,9 3,14 -1,50 0,100 0,150 -1,9 0,17 -1,25 -2,6 -9,7 -14,7 -29,0 -59,0 -89,0 0,8 0,17 0,26l-18 0c-44,-8 -88,-16 -132,-23 0,-68 0,-135 0,-202 44,-8 89,-15 133,-23zm17 32c32,0 63,0 95,0 0,60 0,121 0,181 -32,0 -63,0 -95,0 0,-6 0,-11 0,-17 8,0 15,0 23,0 0,-7 0,-14 0,-20 -8,0 -15,0 -23,0 0,-4 0,-8 0,-12 8,0 15,0 23,0 0,-7 0,-13 0,-20 -8,0 -15,0 -23,0 0,-4 0,-8 0,-11 8,0 15,0 23,0 0,-7 0,-14 0,-21 -8,0 -15,0 -23,0 0,-3 0,-7 0,-11 8,0 15,0 23,0 0,-7 0,-14 0,-20 -8,0 -15,0 -23,0 0,-4 0,-8 0,-12 8,0 15,0 23,0 0,-7 0,-13 0,-20 -8,0 -15,0 -23,0 0,-6 0,-12 0,-17zm-65 44c7,0 13,-1 20,-1 -8,16 -15,31 -23,47 8,16 16,32 24,48 -7,0 -14,-1 -21,-1 -5,-12 -11,-24 -14,-36 -4,11 -10,23 -14,34 -7,0 -13,0 -19,-1 7,-14 14,-29 22,-43 -7,-15 -14,-30 -20,-44 6,-1 12,-1 19,-1 4,11 9,22 12,34 4,-13 10,-24 14,-36z"/>
  <path class="fil1" d="M472 49c14,0 27,0 41,0 0,7 0,13 0,20 -14,0 -27,0 -41,0 0,-7 0,-13 0,-20z"/>
  <path class="fil1" d="M472 81c14,0 27,0 41,0 0,6 0,13 0,20 -14,0 -27,0 -41,0 0,-7 0,-14 0,-20z"/>
  <path class="fil1" d="M472 112c14,0 27,0 41,0 0,7 0,14 0,21 -14,0 -27,0 -41,0 0,-7 0,-14 0,-21z"/>
  <path class="fil1" d="M472 144c14,0 27,0 41,0 0,7 0,13 0,20 -14,0 -27,0 -41,0 0,-7 0,-13 0,-20z"/>
  <path class="fil1" d="M472 176c14,0 27,0 41,0 0,6 0,13 0,20 -14,0 -27,0 -41,0 0,-7 0,-14 0,-20z"/>
  <path class="fil1" d="M170 319c20,1 37,17 38,37 -13,0 -25,0 -38,0 0,-12 0,-25 0,-37z"/>
  <path class="fil0" d="M133 264l17 0c0,9 0,18 0,26 31,0 61,0 92,0 7,0 12,5 11,11 1,54 0,108 1,162 -1,6 0,12 -3,17 -4,3 -10,3 -15,3 -29,0 -57,0 -86,0 0,10 0,19 0,29l-18 0c-44,-8 -88,-15 -132,-23 0,-67 0,-134 0,-202 44,-7 89,-15 133,-23zm-87 76c16,1 35,-6 48,6 12,15 9,43 -9,52 -7,3 -15,3 -22,2 0,12 0,23 0,34 -5,0 -11,-1 -17,-1 0,-31 0,-62 0,-93zm104 -41c31,0 63,0 95,0 0,58 0,117 0,176 -32,0 -64,0 -95,0 0,-8 0,-16 0,-23 23,0 46,0 69,0 0,-4 0,-8 0,-12 -23,0 -46,0 -69,0 0,-5 0,-10 0,-14 23,0 46,0 69,0 0,-4 0,-8 0,-12 -23,0 -46,0 -69,0 0,-6 0,-11 0,-17 11,4 24,4 34,-3 11,-7 17,-19 18,-32 -13,0 -25,0 -38,0 0,-12 0,-25 0,-37 -5,1 -10,2 -14,3 0,-10 0,-20 0,-29z"/>
  <path class="fil1" d="M63 356c6,0 13,-1 17,4 3,6 3,13 0,19 -3,6 -10,5 -16,6 -1,-10 -1,-19 -1,-29z"/>
  <path class="fil0" d="M426 264l18 0c0,19 0,39 0,58 29,0 59,0 89,0 6,0 14,1 14,9 1,36 0,73 0,109 1,7 0,17 -8,17 -32,1 -64,0 -95,0 0,19 0,37 0,55l-18 0c-44,-8 -88,-15 -132,-23 0,-67 0,-134 0,-202 44,-7 88,-15 132,-23zm60 132c18,-16 35,-32 53,-49 0,34 0,68 0,102 -32,0 -64,0 -95,0 0,-26 0,-51 0,-76 10,10 20,21 31,29 5,1 8,-3 11,-6zm-42 -65c32,0 63,-1 95,0 0,3 -1,7 -5,9 -19,18 -38,36 -57,54 -11,-10 -22,-21 -33,-32 0,-10 0,-21 0,-31zm-88 10c16,-6 35,3 42,18 9,22 8,51 -11,68 -17,14 -46,6 -54,-15 -10,-24 -5,-61 23,-71z"/>
  <path class="fil1" d="M358 358c8,-3 18,0 21,8 6,11 6,25 2,37 -2,9 -12,16 -21,13 -11,-4 -15,-17 -15,-28 0,-11 3,-24 13,-30z"/>
 </g>
</svg>
