<?xml version="1.0" encoding="UTF-8"?>
<!DOCTYPE svg PUBLIC "-//W3C//DTD SVG 1.1//EN" "http://www.w3.org/Graphics/SVG/1.1/DTD/svg11.dtd">
<!-- Creator: CorelDRAW X7 -->
<svg xmlns="http://www.w3.org/2000/svg" xml:space="preserve" width="537px" height="512px" version="1.1" style="shape-rendering:geometricPrecision; text-rendering:geometricPrecision; image-rendering:optimizeQuality; fill-rule:evenodd; clip-rule:evenodd"
viewBox="0 0 537 512"
 xmlns:xlink="http://www.w3.org/1999/xlink">
 <defs>
  <style type="text/css">
   <![CDATA[
    .fil0 {fill:black}
    .fil1 {fill:black}
   ]]>
  </style>
 </defs>
 <g id="Layer_x0020_1">
  <metadata id="CorelCorpID_0Corel-Layer"/>
  <path class="fil0" d="M502 389c0,-33 27,-49 28,-49 -15,-23 -39,-26 -47,-26 -21,-2 -40,12 -50,12 -11,0 -27,-12 -44,-12 -22,1 -42,13 -54,33 -7,13 -10,28 -11,43l0 4c1,32 13,64 28,85 11,16 24,34 41,33 17,-1 23,-11 43,-11 20,0 26,11 43,11 18,-1 29,-16 40,-32 13,-19 18,-37 18,-38 0,0 -34,-13 -35,-53z"/>
  <path class="fil0" d="M469 292c9,-11 16,-26 14,-41 -13,0 -29,8 -39,19 -8,10 -15,26 -13,41 14,1 29,-8 38,-19z"/>
  <path class="fil1" d="M207 463c-7,-3 -10,-7 -10,-13 0,-7 -4,-12 -6,-14 1,-5 5,-20 0,-32 -4,-14 -19,-36 -34,-56 -6,-9 -6,-18 -7,-29 0,-10 0,-22 -6,-35 -6,-14 -19,-22 -34,-22 -10,0 -19,3 -27,8 -15,10 -13,33 -11,48 0,2 0,4 0,5 1,15 0,23 -1,25 0,1 -4,6 -7,10 -4,5 -8,11 -11,16 -4,6 -8,15 -11,24 -2,6 -4,13 -6,16 -4,7 -3,14 -2,17 -2,1 -4,3 -6,7 -2,5 -7,7 -16,9 -4,1 -7,3 -9,6 -2,4 -1,9 0,12 2,5 1,8 -1,14 -1,1 -1,2 -2,4 0,1 0,2 0,3l0 0c0,1 0,3 1,4 4,6 14,7 25,9 6,1 13,3 20,6 7,2 13,4 20,5 1,0 1,0 2,0 10,0 14,-6 15,-8 4,-1 15,-3 27,-4 12,0 24,2 27,3 1,2 4,7 8,9 3,1 6,2 9,2 4,0 11,-1 16,-7 6,-5 19,-13 29,-18 2,-1 4,-2 6,-3 6,-4 9,-8 9,-13 -1,-3 -3,-7 -7,-8zm-123 -1c-1,-5 -7,-10 -15,-16 -6,-4 -12,-10 -14,-14 -4,-9 -1,-25 4,-33 3,-4 5,-11 7,-17 2,-6 5,-13 7,-16 4,-4 8,-13 9,-21 3,4 9,9 15,9 1,0 2,0 2,-1 4,-1 10,-4 15,-7 4,-3 10,-6 12,-6 4,5 25,52 27,67 2,12 0,22 -1,26 0,0 -1,0 -2,0 -6,0 -8,3 -8,5 -1,5 -1,21 -1,24 -2,3 -13,16 -29,18 -6,1 -12,2 -17,2 -5,0 -8,-1 -9,-1l-8 -9c3,-1 6,-5 6,-10zm9 -148c0,1 0,1 0,1 0,-1 0,-1 0,-2 -1,-5 -5,-8 -8,-8 0,0 -1,0 -1,0 -2,0 -4,2 -5,4 1,-5 4,-9 7,-9 4,0 8,6 8,12 0,1 0,2 -1,2zm31 4c1,-1 1,-2 1,-3 0,-6 -4,-11 -8,-11 -5,0 -9,5 -9,11 0,0 0,0 0,1 0,0 0,0 0,-1 -1,-1 -1,-3 -1,-4 0,-7 4,-13 10,-13 5,0 10,6 10,13 0,2 -1,5 -3,7zm-4 14c0,0 0,0 -2,1 -1,1 -2,1 -3,2l-1 1c-4,2 -13,7 -16,8 -1,0 -2,-1 -5,-2 0,-1 -1,-1 -1,-1 -4,-3 -7,-6 -7,-7 1,-1 4,-4 6,-6 4,-3 7,-5 9,-5 0,0 0,0 0,0 2,0 7,2 11,4 2,1 3,1 4,2 3,1 5,2 5,3zm30 152c2,-8 4,-19 4,-26 -1,-1 -1,-3 -1,-5 0,-3 0,-7 0,-8 0,0 0,-1 0,-1 0,4 1,12 7,15 2,0 4,1 6,1 6,0 13,-3 16,-6 2,-2 3,-4 4,-5 0,0 0,1 0,2 0,6 3,13 8,16l1 1c1,1 6,3 6,4 0,0 0,0 0,1 -1,1 -5,3 -10,5 -7,4 -16,8 -19,12 -6,6 -12,10 -15,10 -1,0 -1,0 -2,0 -4,-2 -7,-7 -5,-16zm-136 -21c0,-2 0,-3 0,-5 0,-1 6,-2 8,-2 3,-1 6,-2 9,-3 2,-2 4,-5 5,-8 1,-2 2,-4 4,-5 0,0 0,0 0,0 2,0 7,5 10,9 1,1 2,4 4,6 4,8 10,18 14,22 3,3 7,9 6,14 -1,4 -5,7 -6,8 -1,0 -1,0 -2,0 -6,0 -18,-5 -25,-8l-1 0c-4,-2 -10,-3 -16,-4 -4,0 -11,-1 -12,-2 0,-1 1,-4 1,-7 1,-2 2,-4 2,-6 1,-4 0,-7 -1,-9z"/>
  <polygon class="fil1" points="149,221 254,236 254,135 149,135 "/>
  <polygon class="fil1" points="149,122 254,122 254,21 149,35 "/>
  <polygon class="fil1" points="266,237 405,256 405,135 266,135 "/>
  <polygon class="fil1" points="266,19 266,122 405,122 405,0 "/>
 </g>
</svg>
