<?xml version="1.0" encoding="UTF-8"?>
<!DOCTYPE svg PUBLIC "-//W3C//DTD SVG 1.1//EN" "http://www.w3.org/Graphics/SVG/1.1/DTD/svg11.dtd">
<!-- Creator: CorelDRAW X7 -->
<svg xmlns="http://www.w3.org/2000/svg" xml:space="preserve" width="339px" height="512px" version="1.1" style="shape-rendering:geometricPrecision; text-rendering:geometricPrecision; image-rendering:optimizeQuality; fill-rule:evenodd; clip-rule:evenodd"
viewBox="0 0 339 512"
 xmlns:xlink="http://www.w3.org/1999/xlink">
 <defs>
  <style type="text/css">
   <![CDATA[
    .fil0 {fill:black}
   ]]>
  </style>
 </defs>
 <g id="Layer_x0020_1">
  <metadata id="CorelCorpID_0Corel-Layer"/>
  <path class="fil0" d="M288 17l-261 0c-15,0 -27,11 -27,27l0 441c0,14 12,27 27,27l262 0c15,0 27,-12 27,-27l0 -441c-1,-16 -12,-27 -28,-27zm-38 323c-19,0 -35,-16 -35,-35 0,-19 16,-35 35,-35 19,0 35,16 35,35 0,19 -16,35 -35,35zm35 -187c0,8 -6,14 -14,14l-225 0c-7,0 -13,-6 -13,-14l0 -73c0,-7 6,-14 13,-14l225 0c8,0 14,7 14,14l0 73z"/>
  <path class="fil0" d="M310 0l-261 0c-8,0 -16,4 -21,10l263 0c1,0 2,0 3,0l6 0c16,0 27,11 28,27l0 441c0,6 -2,12 -6,17 14,0 17,-12 17,-27l0 -441c-1,-15 -13,-27 -29,-27z"/>
 </g>
</svg>
