<?xml version="1.0" encoding="UTF-8"?>
<!DOCTYPE svg PUBLIC "-//W3C//DTD SVG 1.1//EN" "http://www.w3.org/Graphics/SVG/1.1/DTD/svg11.dtd">
<!-- Creator: CorelDRAW X7 -->
<svg xmlns="http://www.w3.org/2000/svg" xml:space="preserve" width="645px" height="512px" version="1.1" style="shape-rendering:geometricPrecision; text-rendering:geometricPrecision; image-rendering:optimizeQuality; fill-rule:evenodd; clip-rule:evenodd"
viewBox="0 0 645 512"
 xmlns:xlink="http://www.w3.org/1999/xlink">
 <defs>
  <style type="text/css">
   <![CDATA[
    .fil0 {fill:black}
   ]]>
  </style>
 </defs>
 <g id="Layer_x0020_1">
  <metadata id="CorelCorpID_0Corel-Layer"/>
  <path class="fil0" d="M352 348l0 27c0,15 -12,27 -27,27l-5 0c-15,0 -27,-12 -27,-27l0 -27 -194 0 -99 -101 0 237c0,16 12,28 28,28l590 0c15,0 27,-12 27,-28l0 -236 -101 100 -192 0z"/>
  <path class="fil0" d="M618 77l-190 0 0 -49 0 0c0,-16 -12,-28 -27,-28l-157 0c-14,0 -26,12 -27,26l0 0 0 51 -189 0c-16,0 -28,12 -28,27l0 101 113 116 180 0c0,-14 13,-26 27,-26l5 0c15,0 27,12 27,26l178 0 115 -112 0 -105c0,-15 -12,-27 -27,-27zm-239 0l-113 0 0 -36 113 0 0 36z"/>
 </g>
</svg>
