<?xml version="1.0" encoding="UTF-8"?>
<!DOCTYPE svg PUBLIC "-//W3C//DTD SVG 1.1//EN" "http://www.w3.org/Graphics/SVG/1.1/DTD/svg11.dtd">
<!-- Creator: CorelDRAW X7 -->
<svg xmlns="http://www.w3.org/2000/svg" xml:space="preserve" width="551px" height="512px" version="1.1" style="shape-rendering:geometricPrecision; text-rendering:geometricPrecision; image-rendering:optimizeQuality; fill-rule:evenodd; clip-rule:evenodd"
viewBox="0 0 551 512"
 xmlns:xlink="http://www.w3.org/1999/xlink">
 <defs>
  <style type="text/css">
   <![CDATA[
    .fil0 {fill:black}
   ]]>
  </style>
 </defs>
 <g id="Layer_x0020_1">
  <metadata id="CorelCorpID_0Corel-Layer"/>
  <path class="fil0" d="M541 164l0 -67 -116 0 0 67 -10 0 0 60c0,10 8,18 18,18l21 0 0 9c0,13 8,23 19,27l0 28c0,66 -34,133 -109,166 32,-28 51,-69 51,-115 0,-85 -69,-154 -154,-154 -85,0 -155,69 -155,154 0,32 10,61 26,86 -34,-33 -55,-78 -55,-129l0 -142c11,-4 20,-14 20,-27l21 0c9,0 17,-8 17,-17l0 -60 -9 0 0 -68 -116 0 0 68 -10 0 0 60c0,9 8,17 17,17l22 0c0,13 8,23 19,27l0 152 0 0c5,104 92,188 198,188 1,0 2,0 3,0 1,0 1,0 2,0 1,0 2,0 3,0 135,-3 229,-87 229,-206l0 -28c11,-4 19,-14 19,-27l0 -9 21 0c10,0 18,-8 18,-18l0 -60 -10 0zm-464 -145l20 0 0 20 -20 0 0 -20zm-38 0l19 0 0 20 -19 0 0 -20zm0 49l0 -20 58 0 0 20 -58 0zm87 289c0,-74 60,-135 135,-135 74,0 135,61 135,135 0,21 -5,41 -13,58 2,-9 3,-19 3,-29 0,-69 -56,-125 -125,-125 -69,0 -126,56 -126,125 0,10 2,20 4,29 -9,-17 -13,-37 -13,-58zm138 136c-1,0 -3,0 -5,0 -58,-1 -104,-48 -104,-107 0,-58 47,-106 106,-106 58,0 106,48 106,106 0,58 -46,105 -103,107zm190 -377l19 0 0 19 -19 0 0 -19zm58 48l-58 0 0 -19 58 0 0 19zm0 -29l-19 0 0 -19 19 0 0 19z"/>
 </g>
</svg>
