<?xml version="1.0" encoding="UTF-8"?>
<!DOCTYPE svg PUBLIC "-//W3C//DTD SVG 1.1//EN" "http://www.w3.org/Graphics/SVG/1.1/DTD/svg11.dtd">
<!-- Creator: CorelDRAW X7 -->
<svg xmlns="http://www.w3.org/2000/svg" xml:space="preserve" width="379px" height="512px" version="1.1" style="shape-rendering:geometricPrecision; text-rendering:geometricPrecision; image-rendering:optimizeQuality; fill-rule:evenodd; clip-rule:evenodd"
viewBox="0 0 379 512"
 xmlns:xlink="http://www.w3.org/1999/xlink">
 <defs>
  <style type="text/css">
   <![CDATA[
    .fil0 {fill:black}
   ]]>
  </style>
 </defs>
 <g id="Layer_x0020_1">
  <metadata id="CorelCorpID_0Corel-Layer"/>
  <path class="fil0" d="M39 313c-52,52 -52,137 1,189 3,4 6,7 10,10 -43,-53 -23,-118 24,-165l-35 -34zm333 -220l-3 -2c-9,-9 -24,-13 -32,-4l-74 73 -46 -47 73 -73c9,-9 9,-19 1,-28l-3 -3c-9,-9 -24,-13 -33,-4l-73 73 -29 -29 -129 128c-21,22 -23,59 -2,81l105 104c21,21 57,18 78,-4l129 -128 -35 -35 73 -73c8,-9 9,-20 0,-29zm-159 156l-130 12 71 -35 -34 -34 129 -12 -70 35 34 34z"/>
 </g>
</svg>
