<?xml version="1.0" encoding="UTF-8"?>
<!DOCTYPE svg PUBLIC "-//W3C//DTD SVG 1.1//EN" "http://www.w3.org/Graphics/SVG/1.1/DTD/svg11.dtd">
<!-- Creator: CorelDRAW X7 -->
<svg xmlns="http://www.w3.org/2000/svg" xml:space="preserve" width="937px" height="512px" version="1.1" style="shape-rendering:geometricPrecision; text-rendering:geometricPrecision; image-rendering:optimizeQuality; fill-rule:evenodd; clip-rule:evenodd"
viewBox="0 0 937 512"
 xmlns:xlink="http://www.w3.org/1999/xlink">
 <defs>
  <style type="text/css">
   <![CDATA[
    .fil0 {fill:black}
   ]]>
  </style>
 </defs>
 <g id="Layer_x0020_1">
  <metadata id="CorelCorpID_0Corel-Layer"/>
  <path class="fil0" d="M542 68l35 156 155 34 -190 -190zm209 184l0 -202 -203 0 203 202zm-189 260l239 0 0 -39 0 1c15,12 33,20 52,24 3,0 4,0 6,1 15,6 32,5 46,0 1,-1 8,-3 5,-5 -2,-1 -2,-1 -4,0 -1,1 -1,1 -3,1l-8 3c-2,0 -2,0 -3,1 -11,2 -24,1 -34,-4 1,-2 1,-3 1,-4 2,0 7,1 10,1 4,1 7,1 10,1 13,-1 24,-5 35,-13 8,-6 17,-19 21,-30 1,-2 3,-4 1,-5 -2,-1 -3,2 -4,4 -1,2 -2,5 -3,6 -1,3 -6,10 -8,12 -14,19 -33,24 -55,21 -2,0 -5,0 -6,-1 0,-1 0,-1 0,-2 4,2 12,1 16,0 2,0 3,0 4,-1 14,-2 30,-16 38,-29 4,-7 7,-13 9,-21 1,-2 2,-3 0,-5 -3,-1 -3,5 -4,6 -2,9 -7,16 -12,23 -7,10 -16,18 -27,22 -1,0 -2,0 -3,1 -4,1 -16,2 -20,1 0,-2 0,-3 1,-4 1,0 2,0 3,0 8,-1 16,-3 23,-6 8,-4 17,-12 23,-22 6,-10 9,-17 11,-29 1,-3 2,-6 0,-7 -3,-2 -3,7 -4,12 -6,21 -16,36 -36,44 -5,3 -12,4 -18,4 -1,0 -1,1 -2,0 2,-4 -2,-2 6,-4 10,-2 19,-9 26,-17 10,-13 17,-26 17,-42 0,-3 0,-9 -2,-10 -1,-1 -1,0 -2,1 0,1 0,3 0,4 1,4 1,8 0,13 -3,18 -20,43 -39,47 -1,1 -4,2 -5,1 1,-2 2,-2 6,-5 14,-10 24,-27 22,-45 -3,-18 -19,-30 -21,-27 -2,4 4,3 11,12 7,10 9,27 2,39 -4,7 -9,12 -15,17 -1,1 -3,2 -4,3 0,-6 5,-10 9,-22 1,-3 1,-5 1,-8 0,-4 -1,-9 -2,-13 -1,-1 -8,-16 -11,-11 -1,1 4,6 6,9 1,3 3,7 3,10 2,10 -4,20 -9,29 -2,-2 -18,-6 -22,-7 -14,-4 -28,-10 -38,-17l0 -431 -801 0 0 511 43 0 0 0 83 0 0 0 113 0 323 0 0 1zm-529 -42l0 -428c0,-5 4,-9 9,-9l486 0 231 0c5,0 9,4 9,9l0 230 0 197c0,5 -4,9 -9,9l-717 0c-5,0 -9,-4 -9,-8z"/>
 </g>
</svg>
