<?xml version="1.0" encoding="UTF-8"?>
<!DOCTYPE svg PUBLIC "-//W3C//DTD SVG 1.1//EN" "http://www.w3.org/Graphics/SVG/1.1/DTD/svg11.dtd">
<!-- Creator: CorelDRAW X7 -->
<svg xmlns="http://www.w3.org/2000/svg" xml:space="preserve" width="514px" height="512px" version="1.1" style="shape-rendering:geometricPrecision; text-rendering:geometricPrecision; image-rendering:optimizeQuality; fill-rule:evenodd; clip-rule:evenodd"
viewBox="0 0 514 512"
 xmlns:xlink="http://www.w3.org/1999/xlink">
 <defs>
  <style type="text/css">
   <![CDATA[
    .fil0 {fill:black}
   ]]>
  </style>
 </defs>
 <g id="Layer_x0020_1">
  <metadata id="CorelCorpID_0Corel-Layer"/>
  <path class="fil0" d="M448 7c-4,-5 -10,-7 -16,-7l-1 0c-6,0 -12,2 -16,7l-118 116c-5,5 -10,14 -13,20l-6 16c-4,9 -1,22 6,30l35 38c5,5 14,9 22,9 3,0 5,-1 8,-1l16 -5c7,-3 16,-8 21,-13l121 -117c5,-4 7,-10 7,-16 0,-7 -2,-12 -6,-17l-60 -60zm-81 190c-3,2 -8,5 -10,6l-16 5 0 0c-1,0 -1,-1 -1,-1 0,0 0,0 0,0l-35 -37c-1,0 -1,-1 -1,-1l6 -15c1,-3 5,-9 7,-11l114 -113 53 53 -117 114z"/>
  <path class="fil0" d="M205 332l-19 -20c-8,-10 -24,-11 -33,-2l-73 69c-7,-2 -16,0 -22,7l-8 8c-4,4 -10,11 -13,17l-32 49c-4,5 -5,11 -5,16 0,5 2,10 6,14 1,0 1,1 2,2 14,13 22,20 31,20 3,0 5,-1 8,-2l53 -32c5,-3 12,-9 17,-13l9 -9c7,-7 9,-16 7,-24l71 -66c9,-9 10,-23 1,-34zm-93 82c-8,6 -10,16 -8,24l-7 7c-3,3 -8,7 -12,9l-46 28c-2,-2 -5,-4 -9,-9l30 -47c2,-4 7,-10 10,-12l6 -6c7,1 16,-1 22,-7l70 -67 14 14 -70 66z"/>
  <path class="fil0" d="M18 92c-14,0 -16,16 -17,21 -1,5 -1,10 -1,15 0,64 52,116 116,116 9,0 19,-1 28,-3 1,0 2,0 2,0 37,38 222,227 230,235 3,3 21,22 46,22 16,0 31,-7 45,-22 32,-33 14,-68 0,-83l-239 -234c0,0 0,-1 0,-2 2,-9 4,-19 4,-29 0,-63 -52,-115 -116,-115 -7,0 -15,0 -21,2 -9,1 -15,5 -18,9 -3,4 -3,8 -2,12 1,2 1,5 11,14l45 42c0,1 0,2 0,2l-10 42c0,0 -1,1 -1,1l-42 11c0,0 -2,-1 -2,-1l-41 -44c-8,-8 -11,-10 -14,-11 -1,0 -2,0 -3,0zm38 74c7,8 19,11 29,9l42 -11c9,-2 18,-11 21,-21l11 -42c2,-10 -1,-22 -9,-29l-33 -31c48,0 86,39 86,87 0,8 0,15 -2,22 -3,10 0,22 7,29l239 234c2,2 21,22 0,44 -8,8 -17,13 -25,13 -14,0 -25,-13 -25,-13 0,0 0,0 -1,0 0,0 -192,-197 -230,-236 -5,-5 -14,-8 -22,-8 -2,0 -5,0 -7,0 -7,2 -14,3 -21,3 -46,0 -83,-35 -87,-79l27 29z"/>
  <path class="fil0" d="M421 458c13,0 23,-10 23,-23 0,-13 -10,-24 -23,-24 -13,0 -23,11 -23,24 0,13 10,23 23,23zm0 -37c8,0 14,6 14,14 0,8 -6,14 -14,14 -8,0 -14,-6 -14,-14 0,-8 6,-14 14,-14z"/>
 </g>
</svg>
