<?xml version="1.0" encoding="UTF-8"?>
<!DOCTYPE svg PUBLIC "-//W3C//DTD SVG 1.1//EN" "http://www.w3.org/Graphics/SVG/1.1/DTD/svg11.dtd">
<!-- Creator: CorelDRAW X7 -->
<svg xmlns="http://www.w3.org/2000/svg" xml:space="preserve" width="377px" height="512px" version="1.1" style="shape-rendering:geometricPrecision; text-rendering:geometricPrecision; image-rendering:optimizeQuality; fill-rule:evenodd; clip-rule:evenodd"
viewBox="0 0 377 512"
 xmlns:xlink="http://www.w3.org/1999/xlink">
 <defs>
  <style type="text/css">
   <![CDATA[
    .fil0 {fill:black}
   ]]>
  </style>
 </defs>
 <g id="Layer_x0020_1">
  <metadata id="CorelCorpID_0Corel-Layer"/>
  <path class="fil0" d="M365 359c11,-21 12,-47 -7,-64 9,-24 2,-54 -23,-63 5,-15 6,-32 -2,-45 -7,-12 -22,-16 -35,-15 15,-31 36,-70 65,-97l4 -4 -4 -5c-2,-3 -57,-74 -127,-52l-5 1 1 5c0,1 9,125 -17,180 -3,2 -5,3 -7,4 -4,-12 -9,-24 -14,-35 -12,-26 -29,-61 -53,-91 11,-10 5,-26 1,-35 15,-13 37,-27 62,-30 3,7 9,20 19,23 0,-9 -1,-15 -1,-15l0 -10 9 -3c4,-1 8,-2 12,-3l-4 -1c-70,-22 -125,50 -127,53l-4 4 4 4c31,30 53,72 67,103 -42,15 -58,52 -71,84 -10,23 -18,42 -34,50l0 -2 -5 -14 -69 22 66 204 69 -23 -4 -12c63,-18 128,-25 192,-40 19,-5 39,-9 50,-28 9,-15 3,-36 -8,-50zm-327 -18l-7 -20 20 -7 7 20 -20 7zm205 -206c2,8 8,15 18,19 14,7 29,4 34,-7 5,-10 -2,-24 -17,-31 -14,-6 -29,-3 -34,7 2,-28 2,-56 2,-76 14,0 21,-16 24,-24 26,2 48,17 63,30 -4,9 -10,25 1,35 -22,28 -39,60 -51,85 -17,4 -35,11 -51,19 5,-17 9,-37 11,-57zm-63 35c0,0 0,0 0,0l0 -1c0,0 0,1 0,1zm166 234c-17,11 -40,13 -59,17 -53,11 -110,18 -162,33l-43 -129c24,-10 39,-38 49,-62 12,-28 24,-57 54,-68 4,9 7,18 10,28 1,6 8,7 13,5 24,-14 51,-28 79,-33 0,0 0,0 1,0 0,0 0,0 0,0 0,0 1,0 1,0 9,-2 22,-3 27,7 3,7 2,16 0,23 -1,4 -3,11 -3,12 -2,5 0,12 6,12 22,3 25,29 17,46 -2,3 -1,8 2,10 18,13 15,33 5,50 -2,2 -2,6 0,8 10,12 19,31 3,41z"/>
  <path class="fil0" d="M196 107c-14,6 -21,20 -16,31 4,10 20,13 34,7 2,-1 4,-2 6,-4 1,-11 2,-23 3,-35 -7,-4 -17,-4 -27,1z"/>
 </g>
</svg>
