<?xml version="1.0" encoding="UTF-8"?>
<!DOCTYPE svg PUBLIC "-//W3C//DTD SVG 1.1//EN" "http://www.w3.org/Graphics/SVG/1.1/DTD/svg11.dtd">
<!-- Creator: CorelDRAW X7 -->
<svg xmlns="http://www.w3.org/2000/svg" xml:space="preserve" width="638px" height="512px" version="1.1" style="shape-rendering:geometricPrecision; text-rendering:geometricPrecision; image-rendering:optimizeQuality; fill-rule:evenodd; clip-rule:evenodd"
viewBox="0 0 638 512"
 xmlns:xlink="http://www.w3.org/1999/xlink">
 <defs>
  <style type="text/css">
   <![CDATA[
    .fil0 {fill:black}
   ]]>
  </style>
 </defs>
 <g id="Layer_x0020_1">
  <metadata id="CorelCorpID_0Corel-Layer"/>
  <path class="fil0" d="M559 0l-470 0c-41,0 -89,37 -89,72l0 285c0,32 40,56 79,60l-25 95 161 -95 344 0c41,0 79,-25 79,-60l0 -285c0,-35 -38,-72 -79,-72zm-398 240c-24,0 -43,-19 -43,-42 0,-24 19,-43 43,-43 23,0 42,19 42,43 0,23 -19,42 -42,42zm158 0c-23,0 -42,-19 -42,-42 0,-24 19,-43 42,-43 23,0 42,19 42,43 0,23 -19,42 -42,42zm158 0c-23,0 -42,-19 -42,-42 0,-24 19,-43 42,-43 24,0 43,19 43,43 0,23 -19,42 -43,42z"/>
 </g>
</svg>
