<?xml version="1.0" encoding="UTF-8"?>
<!DOCTYPE svg PUBLIC "-//W3C//DTD SVG 1.1//EN" "http://www.w3.org/Graphics/SVG/1.1/DTD/svg11.dtd">
<!-- Creator: CorelDRAW X7 -->
<svg xmlns="http://www.w3.org/2000/svg" xml:space="preserve" width="638px" height="512px" version="1.1" style="shape-rendering:geometricPrecision; text-rendering:geometricPrecision; image-rendering:optimizeQuality; fill-rule:evenodd; clip-rule:evenodd"
viewBox="0 0 638 512"
 xmlns:xlink="http://www.w3.org/1999/xlink">
 <defs>
  <style type="text/css">
   <![CDATA[
    .fil0 {fill:black}
   ]]>
  </style>
 </defs>
 <g id="Layer_x0020_1">
  <metadata id="CorelCorpID_0Corel-Layer"/>
  <path class="fil0" d="M559 0l-470 0c-41,0 -89,37 -89,72l0 285c0,32 40,56 79,60l-25 95 161 -95 344 0c41,0 79,-25 79,-60l0 -285c0,-35 -38,-72 -79,-72zm-102 281c5,4 8,10 8,17 0,7 -3,12 -8,17l-34 35c-5,4 -11,7 -17,7 -7,0 -13,-3 -18,-7l-69 -69 -69 69c-5,4 -10,7 -17,7 -7,0 -13,-3 -17,-7l-35 -35c-5,-5 -7,-10 -7,-17 0,-7 2,-13 7,-17l69 -69 -69 -70c-5,-4 -7,-10 -7,-17 0,-7 2,-12 7,-17l35 -35c4,-4 10,-7 17,-7 7,0 12,3 17,7l69 69 69 -69c5,-4 11,-7 18,-7 6,0 12,3 17,7l34 35c5,5 8,10 8,17 0,7 -3,13 -8,17l-69 70 69 69z"/>
 </g>
</svg>
