<?xml version="1.0" encoding="UTF-8"?>
<!DOCTYPE svg PUBLIC "-//W3C//DTD SVG 1.1//EN" "http://www.w3.org/Graphics/SVG/1.1/DTD/svg11.dtd">
<!-- Creator: CorelDRAW X7 -->
<svg xmlns="http://www.w3.org/2000/svg" xml:space="preserve" width="537px" height="512px" version="1.1" style="shape-rendering:geometricPrecision; text-rendering:geometricPrecision; image-rendering:optimizeQuality; fill-rule:evenodd; clip-rule:evenodd"
viewBox="0 0 537 512"
 xmlns:xlink="http://www.w3.org/1999/xlink">
 <defs>
  <style type="text/css">
   <![CDATA[
    .fil0 {fill:black}
   ]]>
  </style>
 </defs>
 <g id="Layer_x0020_1">
  <metadata id="CorelCorpID_0Corel-Layer"/>
  <path class="fil0" d="M537 198c0,-8 -6,-12 -18,-14l-162 -24 -73 -147c-4,-9 -9,-13 -16,-13 -6,0 -11,4 -15,13l-73 147 -162 24c-12,2 -18,6 -18,14 0,5 3,10 8,16l118 114 -28 161c-1,3 -1,6 -1,7 0,4 1,8 4,11 2,3 5,5 10,5 4,0 8,-1 13,-4l144 -76 145 76c5,3 9,4 13,4 5,0 8,-2 10,-5 2,-3 3,-7 3,-11 0,-3 0,-5 0,-7l-28 -161 117 -114c6,-6 9,-11 9,-16z"/>
 </g>
</svg>
