<?xml version="1.0" encoding="UTF-8"?>
<!DOCTYPE svg PUBLIC "-//W3C//DTD SVG 1.1//EN" "http://www.w3.org/Graphics/SVG/1.1/DTD/svg11.dtd">
<!-- Creator: CorelDRAW X7 -->
<svg xmlns="http://www.w3.org/2000/svg" xml:space="preserve" width="507px" height="512px" version="1.1" style="shape-rendering:geometricPrecision; text-rendering:geometricPrecision; image-rendering:optimizeQuality; fill-rule:evenodd; clip-rule:evenodd"
viewBox="0 0 507 512"
 xmlns:xlink="http://www.w3.org/1999/xlink">
 <defs>
  <style type="text/css">
   <![CDATA[
    .fil0 {fill:black}
   ]]>
  </style>
 </defs>
 <g id="Layer_x0020_1">
  <metadata id="CorelCorpID_0Corel-Layer"/>
  <path class="fil0" d="M237 144c6,0 11,-5 11,-11l0 -122c0,-6 -5,-11 -11,-11 -6,0 -11,5 -11,11l0 122c0,6 4,11 11,11z"/>
  <path class="fil0" d="M144 235c0,-6 -5,-11 -11,-11l-122 0c-6,0 -11,5 -11,11 0,6 5,11 11,11l122 0c6,0 11,-4 11,-11z"/>
  <path class="fil0" d="M151 134l-39 -39c-5,-5 -11,-5 -16,0 -4,4 -4,11 0,15l40 40c2,2 5,3 8,3 3,0 6,-1 8,-3 4,-5 4,-11 -1,-16z"/>
  <path class="fil0" d="M336 150l39 -39c4,-4 4,-11 0,-15 -5,-5 -11,-5 -16,0l-39 39c-4,4 -4,11 0,15 2,3 5,3 8,3 3,0 5,0 8,-3z"/>
  <path class="fil0" d="M150 320c-4,-4 -11,-4 -15,0l-39 39c-5,5 -5,11 0,16 2,2 5,3 8,3 3,0 6,-1 8,-3l39 -39c4,-5 4,-12 -1,-16z"/>
  <polygon class="fil0" points="325,388 435,497 493,439 383,330 507,288 198,200 283,512 "/>
 </g>
</svg>
