<?xml version="1.0" encoding="UTF-8"?>
<!DOCTYPE svg PUBLIC "-//W3C//DTD SVG 1.1//EN" "http://www.w3.org/Graphics/SVG/1.1/DTD/svg11.dtd">
<!-- Creator: CorelDRAW X7 -->
<svg xmlns="http://www.w3.org/2000/svg" xml:space="preserve" width="685px" height="512px" version="1.1" style="shape-rendering:geometricPrecision; text-rendering:geometricPrecision; image-rendering:optimizeQuality; fill-rule:evenodd; clip-rule:evenodd"
viewBox="0 0 685 512"
 xmlns:xlink="http://www.w3.org/1999/xlink">
 <defs>
  <style type="text/css">
   <![CDATA[
    .fil0 {fill:black}
   ]]>
  </style>
 </defs>
 <g id="Layer_x0020_1">
  <metadata id="CorelCorpID_0Corel-Layer"/>
  <path class="fil0" d="M417 140l-56 74 36 -86c1,-4 5,-7 7,-7 1,0 2,1 4,2l5 2 5 3c5,3 4,7 -1,12zm-76 81l16 -124c1,-9 -1,-15 -7,-15l-18 0c-6,0 -9,6 -7,15l16 124zm22 134c5,13 7,21 7,32l0 117c0,4 -3,9 -9,9l-45 0c-6,0 -9,-4 -9,-9l0 -29 -244 0 0 29c0,4 -3,9 -8,9l-46 0c-6,0 -9,-4 -9,-9l0 -117c0,-11 2,-20 7,-32l57 -119c6,-14 24,-25 40,-25l161 0c16,0 34,11 41,25l57 119zm-312 -5l267 0 -39 -82c-8,-16 -15,-20 -31,-20l-133 0c-12,2 -18,7 -24,20l-40 82zm37 60c0,-16 -13,-28 -29,-28 -16,0 -28,12 -28,28 0,16 12,29 28,29 16,0 29,-13 29,-29zm251 0c0,-16 -13,-28 -29,-28 -16,0 -28,12 -28,28 0,16 12,29 28,29 16,0 29,-13 29,-29zm-17 -188l-36 -86c-2,-5 -5,-7 -7,-7l-3 0c-1,0 -1,1 -2,1l-5 2 -4 4c-5,2 -4,7 0,12l57 74zm361 169l-27 99 -3 13c-1,5 -6,7 -11,6l-44 -11c-4,-1 -7,-6 -6,-11l4 -13 4 -14 -217 -58 0 -17c0,-7 -1,-15 -3,-22 12,-1 22,-8 26,-21 4,-15 -5,-30 -20,-35 -10,-2 -20,1 -27,7l-20 -42c1,-1 2,-3 2,-4l87 -100c7,-9 21,-15 33,-16 4,0 8,0 12,1l153 40c16,4 30,20 33,35l24 130c3,13 2,22 0,33zm-38 -46l-17 -89c-3,-18 -9,-23 -25,-28l-122 -33c-7,-2 -11,-2 -15,-2 -7,1 -13,5 -21,13l-59 70 259 69zm-17 28c-2,-1 -3,-1 -5,-1l-5 0c-12,1 -22,9 -24,21 -5,15 4,31 19,36 15,4 31,-6 35,-21 5,-15 -5,-31 -20,-35z"/>
 </g>
</svg>
