<?xml version="1.0" encoding="UTF-8"?>
<!DOCTYPE svg PUBLIC "-//W3C//DTD SVG 1.1//EN" "http://www.w3.org/Graphics/SVG/1.1/DTD/svg11.dtd">
<!-- Creator: CorelDRAW X7 -->
<svg xmlns="http://www.w3.org/2000/svg" xml:space="preserve" width="425px" height="512px" version="1.1" style="shape-rendering:geometricPrecision; text-rendering:geometricPrecision; image-rendering:optimizeQuality; fill-rule:evenodd; clip-rule:evenodd"
viewBox="0 0 425 512"
 xmlns:xlink="http://www.w3.org/1999/xlink">
 <defs>
  <style type="text/css">
   <![CDATA[
    .fil0 {fill:black}
   ]]>
  </style>
 </defs>
 <g id="Layer_x0020_1">
  <metadata id="CorelCorpID_0Corel-Layer"/>
  <path class="fil0" d="M425 44c-2,-7 -8,-13 -16,-13l-33 0c-1,0 -1,1 -2,1l0 -32 -374 0 0 433c0,1 0,4 0,9 0,13 2,37 17,53 10,11 23,17 40,17l301 0c9,0 16,-7 16,-16l0 -36 -318 0 0 14 304 0 0 22c0,1 -1,2 -2,2l-301 0c-12,0 -22,-4 -29,-12 -14,-15 -14,-42 -13,-50l359 0 0 -40c1,0 1,0 2,0l33 0c8,0 14,-5 16,-12l0 -104c-1,-2 -2,-5 -4,-7 2,-2 3,-5 4,-7l0 -104c-1,-3 -2,-5 -4,-7 2,-2 3,-5 4,-8l0 -103zm-182 232c-12,0 -23,-8 -22,-26l-2 0c-10,17 -24,26 -41,26 -18,0 -32,-14 -32,-38 0,-37 29,-70 70,-70 13,0 24,3 32,6l-10 54c-5,22 -1,33 9,33 15,0 32,-20 32,-54 0,-43 -26,-74 -72,-74 -49,0 -89,38 -89,98 0,50 32,81 76,81 17,0 33,-4 45,-11l5 13c-17,9 -33,12 -53,12 -49,0 -90,-36 -90,-93 0,-61 42,-114 108,-114 52,0 87,36 87,86 0,45 -25,71 -53,71zm168 104c0,1 -1,2 -2,2l-33 0c-1,0 -2,-1 -2,-2l0 -96c0,-1 1,-2 2,-2l33 0c1,0 2,1 2,2l0 96zm0 -118c0,1 -1,2 -2,2l-33 0c-1,0 -2,-1 -2,-2l0 -96c0,-1 1,-2 2,-2l33 0c1,0 2,1 2,2l0 96zm0 -119c0,1 -1,2 -2,2l-33 0c-1,0 -2,-1 -2,-2l0 -95c0,-1 1,-2 2,-2l33 0c1,0 2,1 2,2l0 95zm-246 94c0,13 7,23 20,23 17,0 33,-22 36,-41l6 -33c-3,-1 -8,-2 -15,-2 -26,0 -47,24 -47,53z"/>
 </g>
</svg>
